<?xml version="1.0" encoding="utf-8"?>
<!-- Generator: Adobe Illustrator 16.0.0, SVG Export Plug-In . SVG Version: 6.00 Build 0)  -->
<!DOCTYPE svg PUBLIC "-//W3C//DTD SVG 1.0//EN" "http://www.w3.org/TR/2001/REC-SVG-20010904/DTD/svg10.dtd">
<svg version="1.0" id="Layer_1" xmlns="http://www.w3.org/2000/svg" xmlns:xlink="http://www.w3.org/1999/xlink" x="0px" y="0px"
	 width="117.071px" height="88.507px" viewBox="0 0 117.071 88.507" enable-background="new 0 0 117.071 88.507"
	 xml:space="preserve">
<g>
	<path fill="#BBBECF" d="M103.095,44.316c0,0,1.09,7.613,6.063,6.68c4.969-0.932,6.912-6.835,4.893-10.952s-1.866-5.358-1.866-5.358
		l0.854-0.156c0,0-0.154,1.708,1.865,5.592c2.02,3.885,0.855,12.117-5.982,12.583c-4.582,0.077-6.213-3.417-6.213-3.417
		L103.095,44.316"/>
	<path fill="#BBBECF" d="M112.496,36.296L112.496,36.296c-0.033-0.103-0.061-0.201-0.088-0.293
		C112.435,36.095,112.462,36.193,112.496,36.296 M104.001,47.441c-0.688-1.6-0.906-3.125-0.906-3.125s0.221,1.523,0.906,3.123
		V47.441 M108.773,52.707c0.043,0,0.088,0,0.131-0.001C108.861,52.707,108.818,52.707,108.773,52.707 M108.773,52.707h-0.004
		H108.773"/>
	<path fill="#9297B0" d="M108.773,52.707h-0.004c-3.497-0.002-5.234-2.098-5.822-3.008c0.165-1.75,0.204-3.478,0.133-5.175
		l0.016-0.208c0,0,0.219,1.525,0.906,3.125c-0.041,1.266,0.365,3.137,2.837,4.041c0.659,0.242,1.319,0.352,1.964,0.352
		c3.188,0,5.967-2.705,6.324-5.577c0.435-3.449,0.435-3.832-1.436-7.906c-0.543-1.372-0.947-2.016-1.195-2.055
		c-0.033-0.103-0.061-0.201-0.088-0.293c-0.072-0.263-0.121-0.481-0.156-0.659c0.141,0.013,0.279,0.02,0.417,0.02
		c0.148,0,0.294-0.007,0.438-0.023c0.145,0.857,0.566,2.416,1.797,4.781c0.576,1.107,0.893,2.568,0.893,4.102
		c0.001,3.846-1.986,8.146-6.875,8.48c-0.006,0.001-0.012,0.001-0.018,0.001C108.861,52.707,108.816,52.707,108.773,52.707"/>
	<path fill="#6E717F" d="M107.974,29.369c0,0,1.879,0.101,1.107,1.543c-0.772,1.443-0.57,4.062,3.154,4.431
		c3.727,0.369,6.311-4.096,3.895-8.29c0.234,1.107-0.502,2.448-0.502,2.448s0.301-3.12-2.988-4.06
		c-3.188-0.94-3.49-1.478-2.686-3.693c-2.282,1.746-3.424,4.197-0.437,5.84c1.612,1.041,0.672,3.189,0.672,3.189
		S110.056,29.032,107.974,29.369"/>
	<path fill="#575B68" d="M112.668,35.364c-0.144,0-0.286-0.007-0.433-0.021c-2.654-0.263-3.521-1.669-3.52-2.978
		c0.003-0.527,0.145-1.039,0.365-1.453c0.131-0.246,0.186-0.451,0.186-0.625c0.004-0.849-1.293-0.918-1.293-0.918
		c0.183-0.03,0.35-0.043,0.505-0.043c1.599,0,1.711,1.452,1.711,1.452s0.272-0.624,0.272-1.363c0-0.631-0.201-1.347-0.944-1.826
		c-1.248-0.687-1.774-1.515-1.798-2.374c0.311,0.614,0.922,1.268,2.1,1.75c2.955,1.205,1.689,3.617,0.541,4.64
		c-0.928,0.833-0.268,2.977,1.984,2.977c0.52,0,1.125-0.114,1.814-0.385c3.676-1.447,2.229-4.822,2.229-4.822
		s-0.3,1.085-1.506,1.387c0.459-0.661,0.83-3.423-1.816-5.177c2.826,1.074,2.563,3.9,2.563,3.917c0,0,0.549-1,0.549-1.985
		c0-0.156-0.015-0.312-0.047-0.463c0.654,1.133,0.94,2.287,0.94,3.359C117.067,33.153,115.175,35.364,112.668,35.364"/>
	<path fill="#A3ACBF" d="M114.701,28.712c-0.479-2.651-4.277-3.556-4.277-3.556C113.316,25.397,114.882,27.025,114.701,28.712"/>
	<path fill="#9C9FAF" d="M37.278,56.361c0,0-8.248,3.535-11.505,12.96c-0.831,1.454,7.485,4.851,11.713,6.444
		c4.228,1.596,4.92,1.179,5.543-0.691c0.625-1.871-0.347-16.98-0.347-16.98L37.278,56.361"/>
	<path fill="#858899" d="M41.204,76.752c-0.597,0-1.405-0.182-2.539-0.563c1.086,0.366,1.872,0.547,2.461,0.561
		c0.025,0,0.051,0,0.075,0c0.23,0,0.43-0.025,0.604-0.08c-1.209-1.006-4.176-3.279-8.935-5.727
		c-2.304-1.184-3.958-1.693-5.132-1.862c0.248,0.032,0.523,0.082,0.83,0.151l0,0c0.42,0.098,0.898,0.234,1.442,0.425
		c0,0,0,0.001,0,0.002c0.366,0.126,0.762,0.28,1.189,0.46c0-0.001,0-0.002,0-0.002c0.357,0.149,0.736,0.318,1.138,0.509
		c0,0,0,0.001,0,0.002c0.354,0.167,0.725,0.349,1.115,0.55c0.439-0.994,0.628-1.971,0.628-2.786c0-1.241-0.437-2.109-1.092-2.109
		c-0.313,0-0.677,0.198-1.067,0.652c-0.055-0.63-0.363-1.045-0.766-1.224c0.305-0.175,0.606-0.355,0.901-0.541
		c0.21-0.124,0.436-0.253,0.671-0.393c0.291,0.13,0.52,0.266,0.67,0.397c0.606,0.53,1.172,1.101,1.842,1.1
		c0.625,0,1.338-0.495,2.256-1.978c1.631-2.635,3.586-4.086,1.249-4.447c0.154-0.176,0.307-0.354,0.462-0.531
		c0.246-0.319,0.501-0.633,0.74-0.961c0.017-0.027,0.036-0.053,0.054-0.078l2.013,0.688c-2.12,2.49-3.402,5.311-4.097,7.756
		c-0.807,0.176-2.014,1.578-0.716,4.176c0.001,0,0.07-0.017,0.201-0.031c0.012-0.002,0.024-0.002,0.038-0.004
		c0.558,1.727,2.692,3.555,5.268,5.002C42.399,76.443,41.983,76.752,41.204,76.752"/>
	<path fill="#BBBECF" d="M85.814,10.833c-9.481-8.035-20.731-2.09-20.731-2.09s-8.839,9.965-20.772,21.536
		c-11.932,11.57-7.592,26.879-7.592,26.879l5.293,1.807c-3.082,3.625-4.393,7.941-4.702,10.795
		c-0.309,2.854,4.781,6.322,9.483,7.942c4.704,1.618,6.863,2.081,7.248-1.08c1.62-9.638,3.625-12.028,3.625-12.028l0.615,0.31
		c0,0,5.324,2.786,10.703,2.075c0,0-4.143,5.121-1.912,17.275c2.93,6.324,14.08,3.363,16.814,1.826
		c2.734-1.539-0.162-5.498-1.287-9.035c-1.122-3.535-1.123-6.91,1.447-8.035c3.535-1.285,16.07-5.304,18.16-14.623
		C106.385,35.583,95.296,18.869,85.814,10.833"/>
	<path fill="#D9DBE4" d="M83.825,86.114C83.825,86.114,83.825,86.114,83.825,86.114S83.825,86.114,83.825,86.114 M74.826,88.13
		c-0.088,0-0.172-0.001-0.258-0.003C74.654,88.129,74.738,88.13,74.826,88.13 M74.83,88.13L74.83,88.13h0.002H74.83"/>
	<path fill="#A5A9BE" d="M83.886,86.08c0.308-0.174,0.544-0.377,0.72-0.608C84.43,85.703,84.194,85.906,83.886,86.08"/>
	<path fill="#D9DBE4" d="M102.294,53.984c0.001-0.005,0.001-0.006,0.002-0.011C102.296,53.976,102.295,53.98,102.294,53.984
		 M102.283,54.037c0.001-0.004,0.001-0.01,0.004-0.014C102.284,54.027,102.284,54.032,102.283,54.037 M102.271,54.089
		c0.002-0.006,0.003-0.01,0.004-0.016C102.274,54.079,102.273,54.084,102.271,54.089 M102.259,54.142
		c0.002-0.006,0.004-0.011,0.004-0.018C102.263,54.131,102.261,54.136,102.259,54.142 M102.249,54.197
		c0.001-0.007,0.001-0.013,0.004-0.02C102.252,54.183,102.25,54.191,102.249,54.197 M102.238,54.251
		c0.001-0.008,0.002-0.015,0.004-0.023C102.24,54.236,102.239,54.244,102.238,54.251 M102.224,54.307
		c0.002-0.007,0.004-0.019,0.007-0.026C102.228,54.29,102.226,54.299,102.224,54.307 M68.955,66.981
		c0.01-0.001,0.02-0.003,0.029-0.003C68.974,66.978,68.964,66.98,68.955,66.981 M67.159,67.093c-4.667,0-8.829-2.164-8.878-2.189
		C58.33,64.929,62.492,67.093,67.159,67.093 M67.165,67.093L67.165,67.093L67.165,67.093L67.165,67.093 M81.883,73.028
		c0-1.851,0.616-3.341,2.163-4.017c3.535-1.287,16.07-5.306,18.16-14.625c0.004-0.018,0.008-0.036,0.012-0.053
		c-0.004,0.017-0.008,0.035-0.012,0.053c-2.09,9.319-14.625,13.338-18.16,14.625C82.5,69.687,81.883,71.177,81.883,73.028"/>
	<path fill="#A5A9BE" d="M57.481,46.857l-0.104,0.029c-0.066,0.02-0.155,0.062-0.248,0.135c-0.096,0.068-0.195,0.173-0.269,0.3
		c-0.042,0.062-0.074,0.13-0.103,0.204c-0.033,0.07-0.046,0.146-0.067,0.222c-0.029,0.153-0.038,0.307-0.024,0.448
		c0.012,0.143,0.048,0.271,0.087,0.375c0.08,0.213,0.193,0.328,0.193,0.328s0.044-0.152,0.081-0.354
		c0.045-0.205,0.082-0.459,0.134-0.699l0.042-0.176l0.045-0.17l0.049-0.159l0.049-0.147l0.05-0.133l0.046-0.102L57.481,46.857
		 M87.099,66.439c0,0-0.285,0.074-0.688,0.246c-0.101,0.039-0.206,0.094-0.314,0.155c-0.109,0.06-0.228,0.122-0.343,0.192
		c-0.117,0.07-0.238,0.141-0.352,0.225c-0.117,0.083-0.233,0.168-0.349,0.256c-0.233,0.174-0.444,0.373-0.644,0.556
		c-0.098,0.095-0.186,0.192-0.272,0.282c-0.085,0.09-0.163,0.179-0.231,0.264c-0.279,0.332-0.423,0.596-0.423,0.596
		s0.257-0.148,0.608-0.393c0.178-0.123,0.384-0.264,0.594-0.426c0.106-0.078,0.22-0.156,0.327-0.242
		c0.111-0.083,0.22-0.175,0.335-0.256c0.113-0.086,0.225-0.172,0.332-0.258c0.107-0.089,0.212-0.178,0.317-0.254
		c0.211-0.16,0.394-0.33,0.562-0.463C86.892,66.656,87.099,66.439,87.099,66.439 M78.484,85.553c-1.664,0-2.908-0.733-3.422-2.198
		c-0.514-1.467-1.302-1.971-2.623-1.971c-0.792,0-1.775,0.182-3.008,0.444c-0.318,0.068-0.602,0.099-0.855,0.099
		c-2.362,0-2.075-2.678-2.075-2.678l-0.04-0.049c0.05,0.938,0.143,1.936,0.282,2.991c-0.232-1.739-0.331-3.315-0.331-4.736
		c-0.002-7.297,2.571-10.478,2.571-10.478c-0.011,0-0.02,0.002-0.028,0.002c-0.599,0.078-1.199,0.113-1.789,0.113h-0.001H67.16
		c-4.668-0.002-8.83-2.164-8.878-2.19c0.049,0.026,4.214,2.19,8.881,2.19c0.556,0,1.118-0.031,1.681-0.1
		c0.05-0.068,0.099-0.139,0.148-0.206c-0.041,0.089-0.063,0.138-0.063,0.138s0.341-0.4,0.835-1.004
		c0.251-0.298,0.542-0.646,0.854-1.019c0.152-0.188,0.321-0.372,0.486-0.565c0.164-0.194,0.34-0.381,0.512-0.574
		c0.17-0.193,0.352-0.375,0.521-0.563c0.178-0.18,0.352-0.357,0.521-0.529c0.18-0.162,0.345-0.325,0.506-0.476
		c0.168-0.143,0.323-0.282,0.467-0.411c0.153-0.117,0.292-0.227,0.415-0.326c0.122-0.104,0.238-0.172,0.332-0.238
		c0.188-0.131,0.295-0.211,0.295-0.211s-0.125,0.041-0.34,0.124c-0.106,0.046-0.244,0.087-0.385,0.168
		c-0.141,0.075-0.304,0.159-0.477,0.259c-0.166,0.107-0.347,0.225-0.533,0.355c-0.113,0.084-0.229,0.174-0.346,0.266l0.088-0.141
		c0.076-0.111,0.141-0.237,0.219-0.355l0.102-0.186l0.102-0.178c0.063-0.118,0.112-0.24,0.164-0.337
		c0.101-0.198,0.145-0.367,0.145-0.367s-0.157,0.053-0.355,0.188l-0.151,0.116l-0.149,0.152l-0.146,0.172l-0.127,0.197
		c-0.039,0.07-0.08,0.137-0.107,0.209l-0.082,0.211l-0.051,0.206l-0.028,0.19c-0.009,0.094-0.009,0.178-0.003,0.244
		c-0.135,0.119-0.271,0.24-0.402,0.369c-0.18,0.188-0.371,0.371-0.548,0.568c-0.024,0.029-0.05,0.059-0.076,0.088
		c-1.198,0.918-3.023,2.119-4.216,2.119c-0.04,0-0.078-0.002-0.117-0.004c-3.846-0.273-7.061-1.541-5.906-4.324
		c0.028-0.022,0.057-0.045,0.084-0.067c0.279-0.224,0.561-0.457,0.857-0.669c0.289-0.221,0.578-0.447,0.875-0.65
		c0.004-0.002,0.006-0.003,0.01-0.006c0.075,0.027,0.168,0.06,0.271,0.084c0.115,0.033,0.248,0.055,0.391,0.074
		c0.133,0.016,0.277,0.035,0.429,0.035c0.013,0,0.026,0,0.04,0c0.034,0,0.068,0,0.102,0c0.138,0,0.279-0.009,0.424-0.021
		c0.181-0.021,0.368-0.047,0.556-0.086c0.185-0.048,0.376-0.086,0.56-0.151c0.181-0.066,0.369-0.12,0.538-0.204
		c0.173-0.08,0.347-0.152,0.501-0.244c0.16-0.088,0.309-0.178,0.447-0.266c0.136-0.092,0.262-0.184,0.377-0.269l0.164-0.124
		l0.139-0.124c0.089-0.077,0.16-0.147,0.223-0.204c0.119-0.115,0.184-0.185,0.184-0.185s-0.088,0.036-0.24,0.104
		c-0.074,0.037-0.166,0.078-0.266,0.13c-0.103,0.054-0.221,0.108-0.348,0.163c-0.127,0.059-0.265,0.122-0.406,0.193
		c-0.146,0.063-0.301,0.124-0.457,0.196c-0.154,0.076-0.327,0.122-0.492,0.192c-0.166,0.072-0.342,0.12-0.512,0.181
		c-0.172,0.065-0.35,0.101-0.52,0.155c-0.174,0.043-0.343,0.089-0.509,0.121c-0.168,0.026-0.329,0.066-0.485,0.082
		c-0.153,0.023-0.301,0.035-0.438,0.05c-0.127,0.005-0.246,0.018-0.354,0.018c-0.008,0-0.017-0.001-0.025-0.001
		c-0.045,0.001-0.09,0.002-0.131,0.002H62.91c0.243-0.172,0.475-0.35,0.715-0.504c0.283-0.191,0.559-0.379,0.818-0.557
		c0.268-0.168,0.514-0.333,0.745-0.486c0.228-0.153,0.44-0.289,0.631-0.408c0.188-0.121,0.353-0.228,0.488-0.313
		c0.269-0.181,0.423-0.283,0.423-0.283s-0.171,0.072-0.468,0.198c-0.147,0.064-0.327,0.145-0.533,0.236s-0.438,0.199-0.681,0.331
		c-0.246,0.127-0.514,0.267-0.793,0.419c-0.277,0.154-0.565,0.328-0.86,0.507c-0.301,0.179-0.601,0.377-0.901,0.585
		c-0.305,0.201-0.602,0.422-0.9,0.645c-2.559,1.826-4.358,2.867-6.586,7.558c-1.968,4.142-2.197,6.456-4.484,6.456
		c-0.304,0-0.643-0.041-1.027-0.123c-3.284-0.704-4.339-2.933-4.457-5.161c-0.113-2.142-1.309-3.524-3.485-3.524
		c-0.088,0-0.177,0.002-0.269,0.006c-0.05,0.002-0.1,0.004-0.146,0.004c-3.453,0,1.029-6.624,1.029-6.624
		c0.099-0.118,0.255-0.276,0.447-0.488c0.198-0.204,0.434-0.456,0.72-0.73c0.143-0.138,0.294-0.282,0.454-0.437
		c0.164-0.15,0.336-0.309,0.515-0.473c0.179-0.166,0.367-0.334,0.569-0.502c0.199-0.172,0.404-0.348,0.615-0.529
		c0.217-0.172,0.439-0.352,0.669-0.531c0.115-0.093,0.229-0.185,0.346-0.279c0.117-0.091,0.239-0.178,0.362-0.27
		c0.244-0.18,0.492-0.363,0.743-0.549c0.253-0.182,0.52-0.352,0.781-0.533c0.265-0.176,0.521-0.369,0.8-0.532
		c0.276-0.168,0.551-0.337,0.828-0.505l0.411-0.256l0.425-0.234c0.281-0.154,0.563-0.31,0.842-0.463
		c0.275-0.161,0.562-0.29,0.842-0.43c0.28-0.137,0.557-0.271,0.83-0.406c0.268-0.141,0.547-0.248,0.815-0.363
		c0.27-0.115,0.532-0.228,0.788-0.336c0.508-0.231,1.008-0.395,1.464-0.563c0.23-0.085,0.449-0.165,0.657-0.239
		c0.207-0.081,0.404-0.155,0.596-0.208c0.379-0.114,0.711-0.215,0.983-0.296c0.545-0.166,0.856-0.269,0.856-0.269
		s-0.32,0.06-0.88,0.177c-0.279,0.06-0.618,0.133-1.008,0.216c-0.393,0.073-0.818,0.221-1.291,0.354
		c-0.47,0.141-0.985,0.278-1.507,0.492c-0.263,0.1-0.534,0.2-0.812,0.305c-0.276,0.103-0.56,0.211-0.835,0.344
		c-0.281,0.127-0.565,0.258-0.852,0.391c-0.288,0.131-0.582,0.258-0.862,0.419c-0.285,0.153-0.572,0.309-0.859,0.464l-0.432,0.232
		l-0.418,0.257c-0.279,0.174-0.557,0.347-0.834,0.519c-0.281,0.168-0.54,0.369-0.808,0.548c-0.263,0.186-0.529,0.362-0.782,0.557
		c-0.25,0.194-0.495,0.386-0.739,0.574c-0.244,0.187-0.476,0.38-0.697,0.577c-0.224,0.193-0.442,0.383-0.654,0.568
		c-0.408,0.389-0.804,0.742-1.14,1.104c-0.168,0.178-0.336,0.343-0.486,0.508c-0.151,0.168-0.29,0.327-0.421,0.477
		c-0.264,0.298-0.481,0.571-0.661,0.793c-0.188,0.238-0.327,0.428-0.415,0.553l-0.433,0.063l0.316,0.109L40,58.278l0.999,0.341
		c1.364-2.395,2.479-5.537,1.981-9.021c-1.095-7.53,4.518-9.857,10.95-10.267c0.511-0.039,1.048-0.054,1.609-0.054
		c0.872,0,1.798,0.036,2.765,0.07c0.965,0.036,1.969,0.07,2.996,0.07c4.372,0,9.144-0.633,13.028-4.604
		c5.066-5.339,6.161-9.72,6.161-9.72c0.272-0.821-1.907-3.288-5.603-6.708c-2.954-2.736-7.678-8.189-6.824-10.798
		c-0.771,0.233-1.418,0.474-1.91,0.675c1.528-0.625,4.561-1.635,8.182-1.635c2.885,0,6.145,0.641,9.317,2.626
		c-1.888-0.718-4.1-1.341-6.088-1.341c-0.805,0-1.572,0.102-2.269,0.341c-4.75,1.628-4.75,6.107,1.766,11.673
		s3.936,5.837,1.492,10.316c-2.26,4.142-8.47,10.029-17.122,10.029c-0.702,0-1.419-0.039-2.153-0.12
		c-0.7-0.083-1.43-0.126-2.174-0.126c-5.321,0-11.364,2.167-12.078,7.049c-0.369,2.514,0.871,3.283,2.602,3.283
		c2.103,0,4.931-1.133,6.493-1.654c2.851-0.949,1.765-1.765,5.021-3.665c0.103-0.034,0.18-0.05,0.234-0.05
		c0.362,0-0.234,0.693-0.676,1.387s-0.729,1.387,0.252,1.387c0.248,0,0.577-0.045,1.004-0.145c1.359-0.316,2.369-0.467,2.932-0.467
		c1.127,0,0.463,0.604-2.795,1.689c-4.886,1.629-10.995,3.258-15.339,9.638c-2.747,4.12,0.931,7.995,5.284,7.995
		c2.098,0,4.353-0.9,6.12-3.109c6.38-6.244,10.451-6.924,12.217-7.195c0.135-0.02,0.234-0.03,0.303-0.03
		c0.822,0-2.895,1.435-3.426,2.609c-0.098,0.22-0.023,0.312,0.168,0.312c0.563,0,2.154-0.805,3.387-1.56
		c0.349-0.214,0.486-0.308,0.495-0.308c0.035,0-1.69,1.317-0.677,2.692c0.246,0.334,0.647,0.471,1.168,0.471
		c2.193,0.001,6.497-2.435,10.119-2.827c0.061-0.007,0.111-0.011,0.15-0.011c1.172,0-7.322,3.019-10.736,11.819
		c-1.578,4.396,2.271,6.766,5.751,6.766c2.214,0,4.277-0.959,4.698-2.965c1.087-5.158,5.433-8.008,10.453-10.316
		c2.422-1.113,6.645-3.205,9.467-7.692c1.578-2.315,2.723-5.237,2.747-8.271c0.442-4.22-0.147-9.524-2.442-16.208
		c-0.035-0.107-0.07-0.209-0.105-0.318c2.871,7.029,4.201,15.113,2.403,23.643c0,0.003,0,0.006,0,0.009
		c-0.005,0.014-0.008,0.026-0.009,0.04c-0.003,0.004-0.003,0.009-0.004,0.014c-0.002,0.012-0.005,0.025-0.009,0.037
		c0,0.006-0.001,0.01-0.004,0.015c-0.001,0.013-0.004,0.025-0.007,0.036c0,0.006-0.002,0.012-0.004,0.018
		c0,0.012-0.004,0.023-0.007,0.035c-0.003,0.006-0.003,0.013-0.004,0.019c-0.003,0.012-0.005,0.022-0.007,0.032
		c-0.002,0.008-0.003,0.015-0.004,0.021c-0.004,0.012-0.006,0.021-0.007,0.031c-0.003,0.008-0.005,0.02-0.007,0.027
		c-0.002,0.009-0.004,0.016-0.006,0.025c-0.004,0.017-0.008,0.035-0.012,0.052c-2.09,9.32-14.625,13.339-18.16,14.624
		c-1.547,0.677-2.162,2.168-2.162,4.019c-0.002,1.226,0.268,2.609,0.715,4.018c0.055,0.169,0.113,0.339,0.174,0.51
		c-0.012-0.034-0.025-0.068-0.037-0.103c0.014,0.129,0.033,0.259,0.066,0.389c0.702,2.814,2.345,5.514-0.939,6.92
		C80.632,85.29,79.482,85.553,78.484,85.553"/>
	<polyline fill="#A5A9BE" points="84.609,85.47 84.615,85.46 84.609,85.47 	"/>
	<polyline fill="#A5A9BE" points="84.617,85.457 84.623,85.451 84.617,85.457 	"/>
	<polyline fill="#A5A9BE" points="84.626,85.444 84.627,85.443 84.626,85.444 	"/>
	<path fill="#D9DBE4" d="M54.033,76.685c0.003-0.021,0.005-0.042,0.009-0.063C54.038,76.643,54.036,76.664,54.033,76.685
		 M48.874,78.384c-0.003,0-0.007-0.002-0.011-0.003C48.866,78.382,48.871,78.384,48.874,78.384 M51.756,78.96
		c-0.755-0.006-1.707-0.221-2.874-0.574c0.021,0.008,0.043,0.014,0.064,0.02c0.005,0.002,0.01,0.003,0.015,0.005
		c0.001,0.001,0.003,0.001,0.004,0.001C50.096,78.75,51.02,78.955,51.756,78.96 M51.797,78.96L51.797,78.96H51.8H51.797"/>
	<path fill="#979BB2" d="M74.832,88.13c3.677-0.001,7.486-1.196,8.992-2.017C82.318,86.934,78.509,88.129,74.832,88.13"/>
	<path fill="#D9DBE4" d="M84.627,85.443c0.282-0.385,0.399-0.844,0.398-1.355c-0.001-1.78-1.425-4.217-2.253-6.532
		C83.841,80.536,85.894,83.716,84.627,85.443 M84.623,85.451c0.001-0.002,0.002-0.004,0.004-0.007
		C84.625,85.447,84.624,85.449,84.623,85.451 M84.615,85.46c0.001-0.001,0.001-0.002,0.002-0.004
		C84.616,85.458,84.616,85.459,84.615,85.46 M84.606,85.471c0.001,0,0.001-0.001,0.003-0.001
		C84.607,85.47,84.606,85.471,84.606,85.471"/>
	<path fill="#979BB2" d="M74.83,88.13h-0.004c-0.088,0-0.172-0.001-0.258-0.003c0.675-0.472,0.648-1.456-0.027-3.331
		c0-0.002,0-0.002,0-0.002c-0.003-0.01-0.006-0.018-0.01-0.026s-0.008-0.018-0.012-0.028c-0.005-0.008-0.01-0.016-0.012-0.025
		c-0.008-0.016-0.016-0.031-0.022-0.047c-0.653-1.357-1.312-1.913-1.89-1.914h-0.004h-0.003c-0.853,0.002-1.532,1.205-1.767,2.814
		c-0.002,0.01-0.002,0.021-0.004,0.031c-0.007-0.017-0.014-0.034-0.02-0.051c-0.004-0.011-0.008-0.021-0.012-0.03
		c-0.002-0.003-0.002-0.007-0.004-0.01c-0.005-0.013-0.01-0.024-0.016-0.038s-0.01-0.027-0.017-0.041
		c-0.007-0.02-0.015-0.039-0.022-0.059c-0.002-0.005-0.004-0.009-0.005-0.014c-0.687-1.695-1.368-2.362-1.963-2.367h-0.007H68.75
		c-0.363,0.001-0.693,0.25-0.971,0.662c-0.178-0.28-0.384-0.4-0.596-0.4c-0.09,0-0.184,0.022-0.273,0.063
		c-0.063-0.382-0.117-0.757-0.167-1.123c-0.142-1.056-0.231-2.054-0.282-2.991l0.04,0.049c0,0-0.287,2.678,2.075,2.678
		c0.254,0,0.537-0.03,0.855-0.099c1.232-0.263,2.216-0.444,3.008-0.444c1.321,0,2.109,0.504,2.622,1.971
		c0.515,1.465,1.761,2.198,3.424,2.198c0.998,0,2.147-0.264,3.378-0.792c3.284-1.406,1.642-4.105,0.939-6.92
		c-0.033-0.13-0.053-0.26-0.066-0.389c0.014,0.034,0.025,0.068,0.037,0.103c0.828,2.315,2.252,4.752,2.253,6.532
		c0.001,0.512-0.116,0.971-0.398,1.355c0,0,0,0.001-0.001,0.001c-0.002,0.003-0.003,0.005-0.004,0.007
		c-0.002,0.002-0.004,0.004-0.006,0.006c-0.001,0.002-0.001,0.003-0.002,0.004c-0.004,0.003-0.006,0.006-0.008,0.01
		c0,0,0,0.001-0.001,0.001c-0.176,0.231-0.412,0.435-0.72,0.608c-0.02,0.012-0.041,0.021-0.062,0.033c0,0.001,0,0.001,0,0.001
		c-1.507,0.82-5.315,2.016-8.993,2.017H74.83"/>
	<path fill="#979BB2" d="M51.799,78.96c1.311,0,2.018-0.639,2.234-2.275C53.817,78.322,53.11,78.96,51.799,78.96"/>
	<path fill="#979BB2" d="M67.163,67.093c-4.667,0-8.833-2.164-8.881-2.19h0l-0.615-0.31c0,0,0.104-0.153,0.306-0.4
		c0.102-0.126,0.231-0.273,0.377-0.441c0.151-0.162,0.318-0.35,0.512-0.543c0.188-0.197,0.405-0.402,0.63-0.619
		s0.479-0.431,0.729-0.66c0.238-0.198,0.476-0.408,0.725-0.609c-1.154,2.783,2.061,4.051,5.906,4.324
		c0.039,0.002,0.077,0.004,0.117,0.004c1.192,0,3.018-1.201,4.216-2.119c-0.147,0.17-0.297,0.336-0.435,0.509
		c-0.166,0.2-0.318,0.405-0.464,0.603c-0.151,0.195-0.28,0.398-0.407,0.584s-0.235,0.371-0.339,0.538
		c-0.277,0.461-0.46,0.835-0.548,1.025c-0.05,0.068-0.099,0.138-0.148,0.206C68.281,67.062,67.718,67.093,67.163,67.093
		 M42.854,72.736c-0.962-0.653-1.838-1.091-2.62-1.374l0.01-0.025c0.085,0.032,0.174,0.065,0.263,0.102l0,0
		c0.622,0.253,1.317,0.61,2.076,1.112c0,0-0.001,0-0.001,0.002c0.061,0.039,0.119,0.076,0.18,0.117
		c0.02,0.014,0.04,0.027,0.061,0.041C42.833,72.718,42.843,72.728,42.854,72.736 M44.202,76.639
		c-0.509-0.243-1.01-0.502-1.495-0.774c-2.576-1.447-4.71-3.277-5.268-5.003c0.099-0.009,0.228-0.017,0.384-0.017
		c0.353,0,0.848,0.04,1.466,0.192l0,0c0.29,0.071,0.606,0.168,0.947,0.296c-0.001,0.008-0.002,0.019-0.003,0.027
		c-0.968-0.35-1.791-0.464-2.454-0.464c-0.113,0-0.221,0.003-0.324,0.009C38.144,72.943,41.013,75.12,44.202,76.639 M44.222,76.649
		c-0.005-0.003-0.012-0.007-0.017-0.009C44.209,76.643,44.217,76.646,44.222,76.649 M44.242,76.658
		c-0.002-0.001-0.005-0.002-0.009-0.004C44.237,76.656,44.24,76.657,44.242,76.658 M46.765,77.693
		c-0.004-0.002-0.01-0.004-0.014-0.005C46.755,77.689,46.761,77.691,46.765,77.693 M46.792,77.702
		c-0.007-0.003-0.013-0.005-0.02-0.007C46.779,77.697,46.786,77.699,46.792,77.702 M48.961,78.411
		c-0.005-0.002-0.009-0.003-0.015-0.005C48.952,78.408,48.956,78.409,48.961,78.411 M51.797,78.96h-0.013
		c-0.742-0.002-1.674-0.205-2.819-0.549c1.125,0.337,2.046,0.54,2.781,0.549c-1.637-0.535-3.667-1.912-7.398-5.081
		c-0.444-0.376-0.874-0.708-1.286-0.999c0.129,0.072,0.247,0.107,0.356,0.107c0.713,0,0.988-1.482,1.012-3.137
		c0-0.018,0.001-0.035,0.001-0.053c0-1.258-0.627-2.685-1.537-2.685c-0.567,0-1.244,0.556-1.948,2.052
		c0.001-0.027,0.001-0.057,0.001-0.084c0-1.781-0.6-2.77-1.323-2.77c-0.362,0-0.756,0.248-1.119,0.77
		c-0.012-0.21-0.131-0.332-0.306-0.368c-0.037-0.007-0.075-0.011-0.116-0.011c-0.053,0-0.109,0.006-0.167,0.019
		c0.694-2.446,1.976-5.264,4.096-7.755l-0.316-0.109l0.433-0.063c-0.078,0.111-0.117,0.172-0.117,0.172s0.054-0.062,0.155-0.177
		c0,0-4.481,6.624-1.028,6.624c0.046,0,0.096-0.002,0.146-0.004c0.091-0.004,0.181-0.006,0.269-0.006
		c2.176,0,3.372,1.383,3.485,3.524c0.117,2.229,1.172,4.457,4.457,5.161c0.385,0.082,0.724,0.123,1.027,0.123
		c2.287,0,2.517-2.314,4.484-6.456c2.229-4.69,4.027-5.731,6.586-7.558c-0.297,0.221-0.58,0.463-0.86,0.697
		c-0.289,0.227-0.538,0.488-0.798,0.72c-0.249,0.245-0.487,0.484-0.7,0.724c-0.105,0.118-0.21,0.235-0.31,0.348
		c-0.093,0.117-0.186,0.23-0.271,0.34c-0.178,0.213-0.322,0.428-0.45,0.613c-0.126,0.188-0.232,0.357-0.311,0.498
		c-0.083,0.141-0.137,0.256-0.175,0.334c-0.035,0.08-0.053,0.121-0.053,0.121s-2.005,2.391-3.624,12.029
		c-0.003,0.021-0.006,0.041-0.009,0.063c-0.215,1.637-0.922,2.275-2.233,2.275H51.797"/>
	<path fill="#848AA5" d="M40.999,58.619L40,58.277c0.439-0.642,0.86-1.299,1.2-1.986c0.377-0.707,0.656-1.447,0.893-2.17
		c0.232-0.726,0.373-1.451,0.471-2.142c0.086-0.692,0.106-1.353,0.086-1.958c-0.053-1.217-0.298-2.205-0.514-2.873
		c-0.221-0.668-0.421-1.02-0.421-1.02s0.041,0.092,0.104,0.27c0.061,0.177,0.14,0.438,0.228,0.777
		c0.084,0.338,0.169,0.752,0.233,1.231c0.057,0.479,0.092,1.024,0.095,1.617c-0.011,0.595-0.063,1.235-0.165,1.903
		c-0.01,0.055-0.02,0.109-0.03,0.163c0.045-0.457,0.065-0.917,0.065-1.377c0-4.434-1.912-8.743-1.912-8.743
		c5.182-0.362,9.079-2.451,13.419-4.861c0.009,0.017,0.018,0.032,0.028,0.048c0.756,1.211,4.475,1.576,6.595,1.606
		c0.1,0.001,0.193,0.001,0.285,0.001h0.002c0.473,0,0.84-0.018,1.037-0.047c0.004,0,0.006,0,0.008,0
		c1.045-0.162,1.045-1.287,1.045-1.287l0.48,1.125c6.51-0.644,8.439-2.653,8.439-2.653l-0.324-1.525l1.287,1.124
		c2.009-1.205,4.018-4.5,4.018-4.5l-1.124-1.847l1.769,0.804c1.707-2.627,2.555-4.181,2.559-5.363
		c0.002-0.987-0.586-1.715-1.756-2.593c-3.986-2.95-7.654-7.164-11.949-13.74c0.492-0.201,1.139-0.442,1.91-0.676
		c-0.854,2.609,3.871,8.063,6.824,10.798c3.696,3.422,5.875,5.888,5.602,6.709c0,0-1.096,4.381-6.16,9.72
		c-3.885,3.97-8.656,4.603-13.028,4.603c-1.026,0-2.03-0.035-2.996-0.069c-0.965-0.035-1.892-0.07-2.764-0.07
		c-0.561,0-1.098,0.015-1.608,0.053c-6.433,0.411-12.045,2.737-10.95,10.267C43.478,53.083,42.362,56.224,40.999,58.619"/>
	<path fill="#9C9FAF" d="M68.984,66.978c-5.379,0.711-10.703-2.074-10.703-2.074c-4.549,8.094-1.542,14.879,0.231,18.889
		c1.774,4.008,6.169,2.081,8.56,0.461C64.841,72.099,68.984,66.978,68.984,66.978"/>
	<polyline fill="#C8C9D1" points="58.264,64.933 58.266,64.931 58.264,64.933 	"/>
	<path fill="#858899" d="M65.574,85.142c0.066-0.041,0.121-0.079,0.162-0.111c0.046-0.036,0.068-0.117,0.068-0.23
		c0-0.894-1.314-3.859-2.669-3.859c-0.067,0-0.136,0.006-0.202,0.022c-0.736,0.195-0.904,0.925-0.902,1.55
		c0,0.527,0.119,0.98,0.119,0.98s-1.07-2.143-2.221-2.143c-0.023,0-0.047,0-0.068,0.003c-0.646,0.05-0.792,0.753-0.792,1.377
		c0,0.514,0.098,0.974,0.098,0.974s-0.55-1.836-1.53-1.961c-0.093-0.232-0.187-0.473-0.279-0.717
		c0.323,0.05,0.605,0.072,0.855,0.072c0.964,0,1.432-0.33,1.77-0.661c0.339-0.33,0.548-0.661,0.99-0.661
		c0.11,0,0.237,0.021,0.383,0.068c0.534,0.169,1.051,0.346,1.501,0.346c0.913,0,1.553-0.727,1.502-3.717
		c-0.068-4.225-0.727-8.842-4.201-8.842c-0.201,0-0.413,0.016-0.635,0.048c-3.5,0.509-3.352,7.761-3.253,9.659
		c-0.719-3.512-0.617-7.741,1.995-12.407c0.001-0.001,0.002-0.001,0.002-0.003c0.005-0.008,0.01-0.018,0.015-0.026
		c0,0,4.188,2.191,8.885,2.19c0.6,0,1.209-0.035,1.817-0.115c0,0-2.572,3.181-2.571,10.478c0,1.72,0.144,3.669,0.498,5.859
		c-0.467,0.21-0.912,0.915-1.091,1.698C65.737,85.056,65.656,85.099,65.574,85.142 M61.972,86.167c-0.021,0-0.041,0-0.061,0
		c0.248-0.102,0.456-0.229,0.592-0.365c0.023-0.025,0.049-0.053,0.068-0.079c0.195,0.12,0.438,0.169,0.703,0.169
		c0.279,0,0.584-0.055,0.883-0.138C63.435,86.007,62.689,86.167,61.972,86.167"/>
	<path fill="#DD76A5" d="M25.84,69.138l-0.067,0.183c-0.832,1.454,7.486,4.851,11.712,6.445c2.302,0.868,3.555,1.138,4.32,0.903
		c-1.208-1.006-4.174-3.279-8.935-5.727C28.84,68.872,26.799,68.863,25.84,69.138"/>
	<path fill="#856D89" d="M41.202,76.75c-0.024,0-0.05,0-0.075,0c0.024,0,0.049,0,0.072,0c0.231,0,0.431-0.027,0.606-0.08
		C41.631,76.722,41.433,76.75,41.202,76.75"/>
	<path fill="#EBB6CD" d="M25.769,69.328c0-0.002,0.001-0.002,0.001-0.002S25.769,69.326,25.769,69.328 M25.766,69.333
		c0.001-0.001,0.001-0.002,0.001-0.002S25.767,69.332,25.766,69.333 M25.764,69.337C25.764,69.337,25.764,69.337,25.764,69.337
		S25.764,69.337,25.764,69.337"/>
	<path fill="#D45D96" d="M41.2,76.75c-0.025,0-0.048,0-0.074,0c-0.436-0.012-0.98-0.113-1.673-0.314
		c0.037-0.27-0.063-0.576-0.214-0.793c-0.73-1.043-2.264-1.551-3.355-2.09c-1.357-0.673-2.752-1.254-4.135-1.867
		c-1.271-0.564-2.413-1.361-3.744-1.789c-0.299-0.099-0.67-0.197-1.019-0.197c-0.361,0-0.698,0.105-0.913,0.425l-0.029,0.05
		c-0.289-0.317-0.402-0.602-0.28-0.836l0,0c0-0.002,0.002-0.004,0.003-0.006c0,0,0,0,0-0.001c0-0.001,0.001-0.003,0.001-0.003
		l0.001-0.002c0-0.002,0.001-0.004,0.002-0.005c0,0,0.301-0.292,1.234-0.292c0.174,0,0.371,0.01,0.592,0.034
		c0,0,0,0.001-0.001,0.001c0.046,0.004,0.093,0.011,0.142,0.018c1.173,0.167,2.826,0.678,5.131,1.861
		c4.759,2.447,7.726,4.721,8.935,5.727C41.631,76.722,41.432,76.75,41.2,76.75"/>
	<path fill="#DADBE8" d="M25.772,69.321c0,0,1.417-1.38,7.681,1.856c1.427-3.236,0.208-6.264-1.531-4.244
		c-0.139-1.566-1.844-1.81-2.68-0.349C29.069,65.158,27.313,64.47,25.772,69.321"/>
	<path fill="#7A7E93" d="M28.568,69.234c-0.306-0.072-0.583-0.12-0.83-0.153c-0.021-0.003-0.042-0.006-0.063-0.009
		c0.263,0.031,0.56,0.084,0.893,0.16C28.568,69.232,28.568,69.232,28.568,69.234 M31.201,70.119
		c-0.429-0.18-0.825-0.333-1.191-0.461c0.001,0,0.001,0,0.001,0c0.367,0.127,0.762,0.279,1.19,0.458
		C31.201,70.117,31.201,70.118,31.201,70.119 M33.453,71.177c-0.391-0.201-0.761-0.383-1.115-0.551v-0.001
		C32.691,70.792,33.063,70.976,33.453,71.177c0.439-0.994,0.628-1.971,0.628-2.785C34.081,69.207,33.892,70.183,33.453,71.177"/>
	<path fill="#BF5691" d="M27.739,69.081c-0.048-0.007-0.096-0.012-0.141-0.017l0,0c0.026,0.002,0.051,0.005,0.078,0.008
		C27.697,69.074,27.717,69.078,27.739,69.081"/>
	<path fill="#BEC2D8" d="M29.135,67.027c-0.405,0.501-0.713,1.35-0.733,2.143C28.614,68.357,29.135,67.027,29.135,67.027
		 M33.453,71.177c-0.39-0.201-0.761-0.385-1.115-0.552c0.022-0.106,0.042-0.214,0.063-0.316c0.138-0.708,0.396-1.824,0.058-2.511
		c-0.093-0.189-0.209-0.262-0.33-0.262c-0.159,0-0.327,0.126-0.464,0.279c0.141-0.445,0.25-0.752,0.25-0.752
		c-0.15,0.293-0.323,0.658-0.47,1.066c-0.001,0.002-0.001,0.004-0.003,0.006c-0.131,0.247-0.201,0.523-0.235,0.813
		c-0.079,0.361-0.121,0.736-0.102,1.107c0.02-0.137,0.044-0.279,0.074-0.426c0.003,0.162,0.011,0.326,0.021,0.485
		c-0.429-0.179-0.824-0.331-1.19-0.459c0.102-0.235,0.203-0.468,0.284-0.697c0.191-0.548,0.56-1.407,0.298-1.981
		c-0.065-0.143-0.177-0.197-0.31-0.197c-0.334,0-0.798,0.35-0.936,0.52c-0.448,0.557-0.668,1.236-0.778,1.932
		c-0.333-0.076-0.629-0.129-0.893-0.16c-0.027-0.004-0.052-0.006-0.078-0.008c0.355-0.586,0.646-1.196,0.643-1.879
		c0-0.007,0-0.016,0-0.021c1.006-0.426,1.98-0.914,2.916-1.453c0.403,0.179,0.711,0.596,0.766,1.223
		c0.39-0.453,0.754-0.651,1.067-0.651c0.656,0,1.092,0.869,1.092,2.11C34.081,69.207,33.892,70.183,33.453,71.177"/>
	<path fill="#6B7393" d="M28.402,69.169c0.02-0.793,0.328-1.642,0.734-2.143C29.136,67.027,28.614,68.357,28.402,69.169"/>
	<path fill="#747B99" d="M31.179,69.63c-0.004-0.23,0.001-0.46,0.028-0.682c0.061-0.284,0.145-0.56,0.238-0.818
		c0.053-0.098,0.129-0.213,0.22-0.314C31.504,68.323,31.304,69.011,31.179,69.63"/>
	<path fill="#6B7393" d="M31.445,68.131c0.147-0.409,0.32-0.775,0.47-1.066c0,0-0.109,0.306-0.25,0.751
		C31.574,67.918,31.497,68.033,31.445,68.131 M31.105,70.054c-0.019-0.369,0.023-0.744,0.102-1.105
		c-0.027,0.222-0.033,0.451-0.028,0.682C31.149,69.777,31.125,69.919,31.105,70.054"/>
	<path fill="#626A87" d="M42.129,58.794c0.089-0.125,0.227-0.314,0.415-0.553c0.18-0.222,0.397-0.495,0.661-0.793
		c0.131-0.149,0.271-0.309,0.42-0.477c0.15-0.165,0.318-0.33,0.487-0.508c0.335-0.361,0.731-0.715,1.14-1.104
		c0.212-0.186,0.431-0.375,0.654-0.568c0.221-0.197,0.453-0.391,0.697-0.577c0.242-0.188,0.488-0.38,0.739-0.574
		c0.251-0.192,0.519-0.371,0.782-0.557c0.269-0.179,0.527-0.38,0.807-0.548c0.279-0.172,0.556-0.345,0.835-0.519l0.419-0.257
		l0.432-0.232c0.288-0.155,0.574-0.311,0.859-0.464c0.28-0.161,0.575-0.288,0.863-0.419c0.287-0.133,0.571-0.264,0.852-0.391
		c0.276-0.133,0.559-0.24,0.835-0.344c0.278-0.104,0.549-0.206,0.812-0.307c0.522-0.212,1.038-0.349,1.507-0.49
		c0.473-0.134,0.899-0.281,1.292-0.354c0.389-0.083,0.728-0.155,1.008-0.216c0.559-0.115,0.879-0.177,0.879-0.177
		s-0.311,0.103-0.856,0.269c-0.272,0.081-0.604,0.182-0.983,0.297c-0.191,0.052-0.389,0.126-0.596,0.207
		c-0.208,0.076-0.427,0.154-0.657,0.239c-0.456,0.169-0.957,0.332-1.464,0.563c-0.256,0.109-0.518,0.221-0.788,0.336
		c-0.268,0.115-0.547,0.223-0.815,0.363c-0.272,0.135-0.55,0.27-0.831,0.406c-0.279,0.14-0.567,0.27-0.841,0.43
		c-0.28,0.153-0.561,0.309-0.843,0.463l-0.424,0.234l-0.411,0.255c-0.276,0.169-0.552,0.338-0.828,0.506
		c-0.278,0.163-0.535,0.356-0.8,0.532c-0.261,0.182-0.529,0.352-0.78,0.533c-0.252,0.186-0.5,0.369-0.744,0.55
		c-0.122,0.091-0.244,0.178-0.362,0.269c-0.117,0.096-0.231,0.187-0.346,0.279c-0.229,0.18-0.452,0.359-0.669,0.531
		c-0.21,0.182-0.416,0.357-0.614,0.529c-0.202,0.168-0.39,0.336-0.568,0.502c-0.179,0.164-0.352,0.322-0.515,0.473
		c-0.16,0.154-0.312,0.299-0.454,0.437c-0.286,0.274-0.522,0.526-0.72,0.73c-0.192,0.212-0.348,0.372-0.447,0.488L42.129,58.794"/>
	<path fill="#5C6582" d="M42.012,58.966c0,0,0.039-0.061,0.118-0.172l0.038-0.005C42.066,58.905,42.012,58.966,42.012,58.966"/>
	<path fill="#626A87" d="M56.948,48.9c0,0-0.115-0.116-0.193-0.329c-0.041-0.104-0.076-0.234-0.088-0.375
		c-0.014-0.142-0.005-0.297,0.024-0.45c0.023-0.074,0.034-0.15,0.069-0.221c0.027-0.074,0.059-0.143,0.102-0.205
		c0.074-0.126,0.172-0.23,0.268-0.3c0.092-0.073,0.183-0.112,0.249-0.134l0.103-0.028l-0.037,0.101l-0.046,0.102l-0.049,0.133
		l-0.05,0.146l-0.049,0.16l-0.045,0.17l-0.04,0.176c-0.053,0.24-0.089,0.494-0.135,0.699C56.992,48.747,56.948,48.9,56.948,48.9"/>
	<path fill="#626A87" d="M60.945,61.319c0.146-0.349,0.359-0.723,0.648-1.12c0.299-0.223,0.596-0.444,0.9-0.645
		c0.301-0.209,0.602-0.407,0.901-0.584c0.295-0.18,0.583-0.354,0.86-0.508c0.279-0.152,0.547-0.292,0.794-0.418
		c0.241-0.133,0.475-0.24,0.68-0.332c0.206-0.09,0.386-0.171,0.533-0.236c0.297-0.126,0.468-0.199,0.468-0.199
		s-0.154,0.104-0.423,0.284c-0.136,0.086-0.3,0.194-0.488,0.313c-0.19,0.119-0.403,0.255-0.631,0.409
		c-0.231,0.152-0.479,0.317-0.745,0.485c-0.261,0.178-0.535,0.365-0.818,0.557c-0.24,0.154-0.474,0.331-0.715,0.504
		c-0.049,0-0.097-0.001-0.139-0.002c-0.164-0.006-0.26-0.019-0.26-0.019s0.082,0.05,0.24,0.112c0.006,0.002,0.012,0.004,0.02,0.006
		c-0.004,0.003-0.006,0.004-0.01,0.006c-0.297,0.203-0.586,0.428-0.875,0.65c-0.297,0.213-0.578,0.445-0.857,0.67
		C61.001,61.275,60.973,61.296,60.945,61.319"/>
	<path fill="#5C6582" d="M57.666,64.595L57.666,64.595c0,0,0.017-0.043,0.053-0.123c0.039-0.078,0.092-0.192,0.175-0.334
		c0.079-0.141,0.184-0.311,0.311-0.498c0.129-0.184,0.272-0.4,0.45-0.613c0.086-0.109,0.179-0.223,0.271-0.34
		c0.1-0.112,0.203-0.229,0.311-0.348c0.212-0.238,0.45-0.479,0.699-0.724c0.259-0.231,0.509-0.493,0.798-0.72
		c0.28-0.234,0.563-0.476,0.86-0.697c-0.289,0.398-0.502,0.771-0.648,1.121c-0.249,0.201-0.486,0.411-0.724,0.609
		c-0.251,0.229-0.505,0.443-0.73,0.661c-0.226,0.216-0.442,0.421-0.63,0.618c-0.194,0.193-0.361,0.381-0.512,0.545
		c-0.146,0.166-0.275,0.314-0.377,0.439C57.769,64.44,57.666,64.595,57.666,64.595"/>
	<path fill="#626A87" d="M64.003,60.121c-0.033,0-0.067,0-0.102-0.002c-0.014,0.002-0.027,0.002-0.04,0.002
		c-0.151,0-0.296-0.02-0.429-0.035c-0.143-0.02-0.275-0.041-0.391-0.074c-0.105-0.024-0.196-0.057-0.271-0.083
		c-0.008-0.003-0.014-0.005-0.02-0.008c-0.158-0.062-0.24-0.111-0.24-0.111s0.096,0.011,0.26,0.019
		c0.042,0.001,0.09,0.002,0.139,0.002h0.023c0.041,0,0.086,0,0.131-0.001c0.009,0,0.018,0,0.025,0c0.107,0,0.227-0.013,0.354-0.018
		c0.137-0.015,0.283-0.026,0.438-0.05c0.156-0.016,0.317-0.056,0.485-0.082c0.166-0.033,0.337-0.08,0.509-0.121
		c0.17-0.053,0.348-0.09,0.52-0.156c0.17-0.059,0.346-0.107,0.512-0.18c0.165-0.07,0.338-0.115,0.492-0.192
		c0.154-0.072,0.312-0.134,0.457-0.196c0.142-0.071,0.279-0.135,0.406-0.193c0.127-0.055,0.245-0.11,0.348-0.163
		c0.1-0.052,0.191-0.093,0.266-0.13c0.152-0.068,0.24-0.104,0.24-0.104s-0.064,0.069-0.184,0.185
		c-0.063,0.057-0.134,0.127-0.223,0.205l-0.139,0.123l-0.164,0.123c-0.115,0.084-0.24,0.178-0.377,0.27
		c-0.139,0.087-0.287,0.178-0.447,0.266c-0.154,0.092-0.328,0.164-0.5,0.242c-0.172,0.086-0.358,0.14-0.539,0.205
		c-0.184,0.067-0.375,0.105-0.56,0.152c-0.188,0.038-0.375,0.064-0.556,0.086C64.283,60.113,64.141,60.121,64.003,60.121"/>
	<path fill="#626A87" d="M71.185,63.529c0.025-0.029,0.05-0.059,0.075-0.088c0.177-0.197,0.367-0.381,0.548-0.568
		c0.131-0.129,0.268-0.25,0.402-0.369c0.002,0.018,0.004,0.033,0.006,0.049l0.02,0.11C72.038,62.843,71.662,63.164,71.185,63.529
		 M68.929,66.925c0,0,0.021-0.049,0.063-0.138c1.766-2.454,3.244-4.125,3.244-4.125l0.072-0.087
		c0.041-0.056,0.104-0.131,0.166-0.224l0.103-0.146l0.017-0.025c0.116-0.092,0.231-0.182,0.344-0.266
		c0.188-0.131,0.368-0.248,0.535-0.356c0.173-0.099,0.336-0.183,0.479-0.258c0.139-0.081,0.277-0.122,0.383-0.168
		c0.215-0.083,0.34-0.124,0.34-0.124s-0.107,0.08-0.295,0.211c-0.094,0.066-0.21,0.135-0.332,0.238
		c-0.123,0.099-0.262,0.209-0.415,0.326c-0.144,0.129-0.3,0.269-0.467,0.411c-0.163,0.149-0.326,0.314-0.507,0.476
		c-0.168,0.172-0.341,0.35-0.518,0.529c-0.172,0.188-0.354,0.369-0.522,0.563c-0.173,0.193-0.349,0.38-0.513,0.574
		c-0.164,0.193-0.334,0.378-0.486,0.565c-0.313,0.373-0.604,0.721-0.854,1.02C69.27,66.525,68.929,66.925,68.929,66.925"/>
	<path fill="#5C6582" d="M68.992,66.788c0.088-0.19,0.27-0.564,0.548-1.026c0.104-0.166,0.212-0.352,0.339-0.537
		s0.256-0.389,0.407-0.584c0.146-0.195,0.298-0.402,0.464-0.603c0.137-0.173,0.287-0.341,0.436-0.509
		c0.477-0.365,0.853-0.686,1.051-0.866C72.236,62.663,70.757,64.333,68.992,66.788"/>
	<path fill="#626A87" d="M72.236,62.662L72.236,62.662l-0.02-0.109c-0.003-0.016-0.004-0.031-0.006-0.049
		c-0.006-0.066-0.006-0.15,0.003-0.244l0.028-0.19l0.051-0.206l0.082-0.211c0.027-0.072,0.068-0.14,0.107-0.209l0.127-0.197
		l0.146-0.172l0.149-0.152l0.153-0.115c0.196-0.136,0.354-0.188,0.354-0.188s-0.044,0.169-0.145,0.367
		c-0.052,0.098-0.102,0.22-0.164,0.337l-0.102,0.18L72.9,61.685c-0.078,0.118-0.143,0.244-0.219,0.355l-0.088,0.141l-0.017,0.025
		l-0.103,0.146c-0.063,0.092-0.125,0.167-0.167,0.223L72.236,62.662"/>
	<path fill="#626A87" d="M83.484,69.21c0,0,0.143-0.264,0.422-0.596c0.068-0.085,0.146-0.174,0.231-0.264
		c0.087-0.09,0.175-0.188,0.272-0.281c0.199-0.184,0.41-0.383,0.644-0.557c0.115-0.086,0.231-0.174,0.349-0.254
		c0.113-0.087,0.236-0.156,0.352-0.227s0.234-0.133,0.344-0.191c0.107-0.063,0.213-0.117,0.314-0.156
		c0.404-0.172,0.688-0.246,0.688-0.246s-0.207,0.217-0.541,0.48c-0.168,0.133-0.351,0.303-0.562,0.463
		c-0.104,0.076-0.21,0.165-0.317,0.253c-0.107,0.087-0.219,0.173-0.332,0.259c-0.115,0.08-0.223,0.172-0.334,0.256
		c-0.107,0.086-0.222,0.163-0.328,0.244c-0.209,0.16-0.416,0.301-0.592,0.424C83.741,69.063,83.484,69.21,83.484,69.21"/>
	<path fill="#DADBE8" d="M67.986,87.547c0,0-0.283,0.261-1.428,0.131c-1.143-0.131-1.012-1.093-0.779-2.468
		c0.232-1.376,1.325-2.623,2-1.559c0.753-1.117,1.896-1.039,3.039,1.947c0.389-2.752,2.077-4.336,3.713-0.831
		c1.091,3.013,0.521,3.739-1.92,3.739c-1.222-0.078-1.793-0.96-1.793-0.96S69.284,88.041,67.986,87.547"/>
	<path fill="#DADCE8" d="M70.931,87.693c-0.076-0.088-0.113-0.146-0.113-0.146S70.855,87.605,70.931,87.693"/>
	<path fill="#898EA9" d="M72.594,82.753h-0.003H72.594 M68.76,82.99h-0.007H68.76 M67.779,83.652
		c0.277-0.412,0.607-0.661,0.971-0.662C68.386,82.991,68.056,83.24,67.779,83.652 M74.507,84.714
		c-0.008-0.016-0.016-0.031-0.023-0.047C74.492,84.683,74.5,84.699,74.507,84.714 M74.531,84.768
		c-0.004-0.009-0.008-0.018-0.012-0.028C74.523,84.75,74.527,84.759,74.531,84.768 M74.542,84.796
		c-0.002-0.002-0.002-0.002-0.002-0.002S74.541,84.794,74.542,84.796 M70.728,85.371c-0.002-0.005-0.004-0.009-0.006-0.014
		C70.724,85.362,70.726,85.366,70.728,85.371 M70.767,85.47c-0.006-0.014-0.011-0.027-0.017-0.041
		C70.756,85.443,70.761,85.457,70.767,85.47 M70.787,85.518c-0.002-0.003-0.002-0.007-0.004-0.01
		C70.785,85.511,70.785,85.515,70.787,85.518 M70.822,85.568c0.234-1.609,0.914-2.813,1.767-2.814
		C71.736,82.755,71.056,83.958,70.822,85.568 M70.818,85.599c-0.006-0.017-0.014-0.034-0.02-0.051
		C70.804,85.565,70.812,85.583,70.818,85.599"/>
	<path fill="#BEC2D8" d="M74.134,88.333c-0.014-0.262-0.041-0.522-0.076-0.784c-0.109-0.799-0.557-3.422-1.7-3.422
		c-0.078,0-0.159,0.013-0.243,0.039c-0.766,0.231-0.986,1.301-1.075,1.961c-0.066,0.5-0.093,1.066-0.054,1.627
		c-0.02-0.021-0.037-0.043-0.055-0.061c-0.076-0.088-0.113-0.146-0.113-0.146l0,0c-0.008,0.003-0.51,0.161-1.18,0.208
		c0.07-0.873,0.098-1.739-0.188-2.596c-0.178-0.531-0.564-1.109-1.001-1.109c-0.183,0-0.375,0.102-0.563,0.348
		c-0.361,0.469-0.323,1.127-0.273,1.682c0.045,0.467,0.137,1.013,0.322,1.5c-0.092,0.049-0.318,0.135-0.791,0.135
		c-0.164,0-0.358-0.01-0.585-0.036c-0.565-0.065-0.817-0.331-0.901-0.751c0.154,0.065,0.329,0.096,0.508,0.096
		c0.504,0,1.033-0.246,1.202-0.676c0.292-0.748,0.204-2.15-0.817-2.15c-0.037,0-0.074,0.002-0.114,0.006
		c-0.139,0.014-0.265,0.056-0.379,0.116c0.285-0.614,0.716-1.067,1.128-1.067c0.21,0,0.416,0.121,0.594,0.4
		c0.278-0.412,0.607-0.661,0.971-0.662h0.004h0.007c0.594,0.005,1.276,0.672,1.963,2.367c0.001,0.005,0.003,0.009,0.005,0.014
		c0.008,0.02,0.016,0.039,0.022,0.059c0.007,0.014,0.013,0.027,0.017,0.041c0.006,0.013,0.012,0.025,0.016,0.038
		c0,0.003,0.002,0.007,0.004,0.01c0.004,0.01,0.008,0.02,0.012,0.03c0.006,0.017,0.013,0.034,0.02,0.051
		c0-0.01,0.002-0.021,0.004-0.031c0.234-1.609,0.914-2.813,1.766-2.814h0.004h0.004c0.578,0.002,1.237,0.558,1.889,1.914
		c0.008,0.016,0.016,0.031,0.023,0.047c0.004,0.01,0.007,0.018,0.011,0.025c0.006,0.011,0.009,0.02,0.013,0.028
		s0.007,0.016,0.01,0.024c0,0.001,0.001,0.002,0.001,0.004C75.337,87.006,75.228,87.976,74.134,88.333"/>
	<path fill="#7F85A0" d="M67.765,84.06c0,0-0.222,1.738,0.216,3.381C67.437,86.341,67.382,85.183,67.765,84.06"/>
	<path fill="#7F85A0" d="M70.843,85.798c0,0-0.121,1.084,0.061,1.764C70.602,87.169,70.663,86.522,70.843,85.798"/>
	<path fill="#DADBE8" d="M57.871,86.326c0,0,0.995,0.482,1.9-0.09c0.963,0.422,2.409,0,2.801-0.513
		c0.874,0.543,2.742-0.361,3.164-0.692s-1.206-4.43-2.803-4.067c-1.355,0.361-0.784,2.53-0.784,2.53s-1.114-2.229-2.288-2.14
		c-1.176,0.091-0.692,2.351-0.692,2.351s-0.634-2.109-1.75-1.96C56.304,81.896,56.998,84.729,57.871,86.326"/>
	<path fill="#DADCE8" d="M59.462,86.391c0.104-0.04,0.206-0.091,0.308-0.155C59.668,86.3,59.566,86.351,59.462,86.391
		 M59.259,86.457L59.259,86.457c0.031-0.008,0.063-0.018,0.094-0.027C59.321,86.44,59.29,86.449,59.259,86.457"/>
	<path fill="#7A7E93" d="M62.503,85.802c0.025-0.025,0.048-0.053,0.068-0.079C62.551,85.75,62.529,85.777,62.503,85.802"/>
	<path fill="#DADCE8" d="M64.329,85.703L64.329,85.703c0.133-0.043,0.264-0.09,0.388-0.139
		C64.592,85.613,64.461,85.66,64.329,85.703"/>
	<path fill="#BEC2D8" d="M59.259,86.457c-0.175-0.992-0.393-1.99-0.938-2.834c-0.194-0.302-0.605-0.64-0.998-0.64
		c-0.142,0-0.281,0.044-0.407,0.149l-0.055,0.051c-0.075-0.777,0.064-1.369,0.558-1.438c0.039-0.005,0.076-0.007,0.113-0.007
		c1.044,0,1.634,1.967,1.634,1.967s-0.098-0.46-0.098-0.974c0-0.624,0.146-1.327,0.792-1.377c0.021-0.003,0.046-0.003,0.068-0.003
		c1.15,0,2.221,2.143,2.221,2.143s-0.119-0.453-0.119-0.98c-0.002-0.625,0.166-1.354,0.902-1.551
		c0.066-0.016,0.135-0.021,0.202-0.021c1.354,0,2.669,2.966,2.669,3.859c-0.002,0.113-0.022,0.194-0.068,0.23
		c-0.166,0.129-0.555,0.348-1.02,0.532c-0.124,0.05-0.255,0.097-0.388,0.14c-0.035-0.918-0.083-1.832-0.487-2.678
		c-0.167-0.35-0.566-1.093-1.022-1.093c-0.113,0-0.231,0.047-0.351,0.157c-0.376,0.353-0.264,1.049-0.233,1.496
		c0.053,0.754,0.154,1.539,0.488,2.212l-0.151-0.074c-0.021,0.026-0.045,0.054-0.068,0.079c-0.136,0.137-0.346,0.262-0.594,0.364
		c-0.42-1.593-1.068-3.493-1.824-3.493c-0.098,0-0.197,0.031-0.297,0.098c-0.448,0.301-0.455,1.051-0.432,1.508
		c0.033,0.654,0.206,1.346,0.469,1.979l-0.055-0.021c-0.103,0.064-0.205,0.115-0.308,0.155c-0.037,0.015-0.074,0.026-0.11,0.038
		C59.321,86.439,59.29,86.449,59.259,86.457"/>
	<path fill="#7F85A0" d="M59.256,83.826c0,0,0.243,1.355,0.543,2.169C59.278,85.171,59.167,84.096,59.256,83.826"/>
	<path fill="#7F85A0" d="M62.536,84.775c0,0,0.092,0.615,0.249,0.886C62.472,85.275,62.536,84.775,62.536,84.775"/>
	<path fill="#F5A2C5" d="M37.456,70.906c0.872,2.583,5.249,5.389,9.337,6.796c2.167,0.745,3.793,1.246,4.954,1.259
		c-1.637-0.535-3.666-1.912-7.398-5.082C41.271,71.268,38.901,70.822,37.456,70.906"/>
	<path fill="#F38AB6" d="M51.746,78.96c-0.909-0.012-2.105-0.322-3.62-0.812l0.079-0.136c0.205-0.41-0.492-0.797-0.75-0.959
		c-0.703-0.441-1.427-0.838-2.116-1.303c-0.656-0.443-1.256-0.958-1.905-1.41c-0.802-0.561-1.636-1.076-2.492-1.549
		c-0.39-0.215-1.648-0.926-2.464-0.926c-0.183,0-0.344,0.037-0.467,0.122c-0.245-0.362-0.436-0.726-0.557-1.083
		c0.103-0.006,0.21-0.009,0.322-0.009c0.664,0,1.487,0.114,2.455,0.464c0,0.003-0.001,0.005-0.001,0.008l0.002-0.007
		c0.782,0.283,1.658,0.721,2.62,1.374c0.072,0.059,0.142,0.107,0.208,0.145c0.414,0.291,0.842,0.623,1.285,0.999
		C48.08,77.048,50.109,78.425,51.746,78.96"/>
	<path fill="#DADBE8" d="M37.2,70.898c0,0,2.197-0.541,5.623,1.813c1.161,0.982,1.577-0.806,1.607-2.859
		c0.03-2.055-1.637-4.615-3.483-0.685c0.031-2.739-1.339-3.663-2.441-2.085C38.445,65.981,35.393,67.281,37.2,70.898"/>
	<path fill="#898EA9" d="M40.236,71.333c-0.341-0.127-0.658-0.224-0.947-0.295v-0.001C39.579,71.109,39.896,71.205,40.236,71.333
		L40.236,71.333 M40.507,71.438c-0.088-0.036-0.177-0.07-0.263-0.103l0,0C40.331,71.367,40.418,71.402,40.507,71.438L40.507,71.438
		 M42.762,72.669c-0.061-0.041-0.119-0.078-0.18-0.117c0-0.002,0.001-0.002,0.001-0.004C42.642,72.587,42.702,72.628,42.762,72.669"
		/>
	<path fill="#7A7E93" d="M37.2,70.898c0.001,0,0.071-0.018,0.2-0.031C37.271,70.88,37.201,70.898,37.2,70.898"/>
	<path fill="#898EA9" d="M38.505,67.082c-0.011-0.209-0.132-0.332-0.307-0.367C38.375,66.75,38.494,66.872,38.505,67.082"/>
	<path fill="#BEC2D8" d="M37.404,70.804L37.404,70.804c-0.06-1.758,0.921-3.335,0.921-3.335
		C37.463,68.273,37.195,69.673,37.404,70.804 M43.417,72.988c-0.109,0-0.227-0.035-0.356-0.107
		c-0.066-0.037-0.136-0.084-0.207-0.145c-0.011-0.007-0.022-0.016-0.032-0.025c-0.021-0.014-0.041-0.027-0.061-0.041
		c-0.061-0.041-0.12-0.082-0.179-0.119c0.168-0.559,0.343-1.113,0.539-1.663c0.199-0.556,0.313-1.102,0.231-1.692
		c-0.043-0.316-0.304-1.113-0.737-1.113c-0.016,0-0.031,0-0.048,0.003c-0.679,0.093-1.036,0.792-1.317,1.344
		c-0.315,0.623-0.572,1.313-0.744,2.01c-0.088-0.036-0.176-0.07-0.263-0.103l0.643-1.783c0,0-0.467,0.439-0.65,1.779
		c-0.341-0.127-0.658-0.223-0.947-0.295c0.095-0.293,0.179-0.59,0.245-0.893c0.12-0.543,0.14-1.1,0.043-1.644
		c-0.035-0.2-0.199-0.934-0.46-0.978c-0.005-0.002-0.011-0.002-0.016-0.002c-0.181,0-0.54,0.426-0.636,0.515
		c-0.226,0.204-0.383,0.482-0.524,0.747c-0.33,0.624-0.431,1.358-0.479,2.077c-0.021,0.002-0.042,0.005-0.06,0.007
		c-0.13,0.014-0.2,0.031-0.201,0.031c-0.107-0.215-0.197-0.422-0.272-0.621c0.199-0.405,0.356-0.83,0.449-1.28
		c0.112-0.541,0.038-1.124-0.237-1.602l-0.065-0.077c0.306-0.409,0.71-0.616,1.01-0.616c0.041,0,0.078,0.005,0.115,0.012
		c0.174,0.036,0.293,0.159,0.306,0.368c0.363-0.521,0.757-0.77,1.119-0.77c0.723,0,1.323,0.988,1.323,2.77
		c0,0.027,0,0.057-0.001,0.086c0.704-1.498,1.38-2.054,1.948-2.054c0.91,0,1.537,1.427,1.537,2.685c0,0.019-0.001,0.035-0.001,0.053
		C44.405,71.505,44.131,72.988,43.417,72.988"/>
	<path fill="#6B7393" d="M37.404,70.804c-0.208-1.131,0.06-2.531,0.921-3.335C38.325,67.469,37.345,69.046,37.404,70.804"/>
	<path fill="#5C6582" d="M40.234,71.362c0,0,0,0-0.001-0.001c0.001-0.009,0.002-0.019,0.003-0.027c0.002,0,0.005,0.001,0.008,0.002
		L40.234,71.362"/>
	<polyline fill="#875686" points="40.232,71.369 40.233,71.361 40.234,71.362 40.232,71.369 	"/>
	<polyline fill="#56607E" points="40.244,71.335 40.236,71.333 40.236,71.333 40.244,71.335 40.244,71.335 	"/>
	<path fill="#6B7393" d="M40.244,71.335c-0.002-0.002-0.004-0.002-0.007-0.003c0.183-1.341,0.65-1.78,0.65-1.78L40.244,71.335"/>
	<path fill="#C4C6D6" d="M87.318,61.906c-4.115,0-4.74-4.57,0.027-7.549c6.43-4.02-7.553,0.962-13.499-5.307
		c-5.944-6.267-1.767-8.838,4.983-13.176c6.749-4.34,9.643-8.679,2.895-16.392c-5.123-5.853-4.222-10.048-0.82-10.048
		c1.08,0,2.414,0.423,3.889,1.355c0,0,1.762,1.049,4.256,3.599c-1.264-1.048-2.679-1.969-4.238-2.67c0,0,7.231,4.458,11.812,14.704
		c-0.125-0.916-0.5-2.137-1.114-3.5c1.695,2.851,3.375,6.286,4.855,10.38c4.18,12.535,0.967,21.375-7.553,26.678
		C90.609,61.351,88.751,61.906,87.318,61.906"/>
	<path fill="#E9ECF4" d="M95.507,22.922c-2.274-3.829-4.574-6.609-6.459-8.534C92.108,16.925,94.285,20.204,95.507,22.922"/>
	<path fill="#ECEEF5" d="M96.622,26.422C92.042,16.176,84.81,11.718,84.81,11.718c1.56,0.702,2.975,1.622,4.238,2.67
		c1.885,1.925,4.185,4.705,6.459,8.533C96.122,24.285,96.497,25.506,96.622,26.422"/>
	<path fill="#E9ECF4" d="M93.064,59.992c-0.086,0-0.171-0.004-0.254-0.012c10.21-6.298,9.396-15.559,9.396-15.559
		c0.166,0.814,0.24,1.629,0.233,2.437c-0.357,3.413-1.39,6.117-2.747,8.271C97.711,58.04,95.044,59.992,93.064,59.992"/>
	<path fill="#E3E6F0" d="M99.693,55.127c1.357-2.153,2.39-4.856,2.747-8.27C102.417,49.888,101.273,52.812,99.693,55.127"/>
	<path fill="#E9ECF4" d="M45.315,59.283c0.384-2.4,6.237-9.117,15.547-9.885C60.863,49.398,50.498,51.125,45.315,59.283"/>
	<path fill="#E9ECF4" d="M70.065,71.419c0.321-4.82,3.535-9.803,8.519-11.57C78.583,59.849,72.315,63.546,70.065,71.419"/>
	<path fill="#FFFFFF" d="M71.776,85.16c0,0-0.313,1.007-0.186,2.059c0.05,0.58-0.59,0.039-0.373-1.078
		C71.435,85.021,71.806,84.669,71.776,85.16"/>
	<path fill="#FFFFFF" d="M68.17,84.91c0,0-0.083,1.05,0.274,2.047c0.178,0.554-0.566,0.17-0.603-0.969
		C67.805,84.851,68.089,84.423,68.17,84.91"/>
	<path fill="#FFFFFF" d="M66.349,85.031c0,0-0.308,0.699-0.301,1.469c-0.012,0.42-0.43-0.019-0.182-0.809
		C66.116,84.904,66.412,84.679,66.349,85.031"/>
	<path fill="#FFFFFF" d="M62.656,83.299c0,0-0.06,0.763,0.199,1.486c0.129,0.401-0.412,0.122-0.438-0.702
		C62.392,83.257,62.599,82.948,62.656,83.299"/>
	<path fill="#FFFFFF" d="M59.83,83.98c0,0-0.06,0.764,0.199,1.486c0.129,0.403-0.412,0.123-0.438-0.703
		C59.566,83.939,59.771,83.628,59.83,83.98"/>
	<path fill="#FFFFFF" d="M57.347,84.076c0,0,0.11,0.758,0.522,1.407c0.212,0.364-0.375,0.21-0.582-0.589
		C57.081,84.093,57.214,83.748,57.347,84.076"/>
	<path fill="#FFFFFF" d="M38.361,68.878c0,0-0.329,0.688-0.348,1.457c-0.026,0.422-0.427-0.034-0.155-0.814
		C38.131,68.743,38.434,68.527,38.361,68.878"/>
	<path fill="#FFFFFF" d="M31.873,68.251c0,0-0.331,0.689-0.349,1.458c-0.025,0.421-0.428-0.033-0.156-0.813
		C31.642,68.117,31.945,67.902,31.873,68.251"/>
	<path fill="#FFFFFF" d="M29.525,67.576c0,0-0.401,0.65-0.503,1.413c-0.07,0.417-0.421-0.079-0.067-0.825
		C29.31,67.418,29.634,67.238,29.525,67.576"/>
	<path fill="#FFFFFF" d="M41.49,69.697c0,0-0.33,0.691-0.349,1.459c-0.025,0.422-0.428-0.033-0.156-0.814
		C41.259,69.563,41.561,69.347,41.49,69.697"/>
	<path fill="#5E677F" d="M32.728,64.777c-0.011-0.005-0.024-0.011-0.037-0.016c2.208-1.466,4.143-3.189,5.675-4.957
		c0.136,0.013,0.262,0.027,0.377,0.045c-0.109,0.126-0.219,0.252-0.328,0.377c-0.277,0.283-0.554,0.566-0.827,0.844
		c-0.288,0.264-0.57,0.521-0.85,0.778c-0.28,0.254-0.573,0.481-0.853,0.714c-0.143,0.114-0.279,0.229-0.421,0.34
		c-0.142,0.104-0.283,0.208-0.423,0.311c-0.28,0.202-0.546,0.407-0.813,0.594c-0.272,0.178-0.534,0.35-0.785,0.516
		C33.202,64.49,32.96,64.639,32.728,64.777"/>
	<path fill="#545E75" d="M38.744,59.849c-0.115-0.018-0.24-0.032-0.377-0.045c0.473-0.545,0.907-1.094,1.299-1.641L40,58.278
		c-0.018,0.026-0.036,0.054-0.054,0.079c-0.239,0.328-0.495,0.642-0.739,0.963C39.052,59.497,38.898,59.673,38.744,59.849
		 M32.058,65.169c0.213-0.134,0.424-0.271,0.633-0.408c0.012,0.005,0.024,0.01,0.037,0.016
		C32.493,64.917,32.268,65.044,32.058,65.169"/>
	<polyline fill="#626A87" points="40,58.278 39.665,58.164 39.666,58.164 40,58.278 	"/>
	<path fill="#545F7C" d="M40,58.278l-0.335-0.114c1.181-1.646,1.981-3.272,2.302-4.71c0.1-0.448,0.169-0.903,0.214-1.362
		c0.011-0.055,0.021-0.109,0.031-0.164c0.102-0.668,0.154-1.31,0.165-1.902c-0.003-0.594-0.037-1.138-0.095-1.618
		c-0.064-0.479-0.15-0.894-0.232-1.231c-0.088-0.339-0.168-0.601-0.229-0.777c-0.063-0.178-0.103-0.269-0.103-0.269
		s0.199,0.351,0.421,1.019c0.216,0.668,0.46,1.656,0.513,2.871c0.021,0.607,0,1.268-0.086,1.96c-0.099,0.69-0.239,1.416-0.471,2.142
		c-0.237,0.723-0.516,1.464-0.893,2.17C40.86,56.978,40.439,57.635,40,58.278"/>
	<path fill="#BBBECF" d="M5.088,13.81c0,0,6.538-1.132,17.79-10.31c4.653-3.833,6.914-5.28,10.246-0.377
		c6.349-1.823,13.96-1.209,18.701,5.941c6.347-5.221,9.562-8.033,14.222-0.963c4.341,6.669,8.035,10.928,12.055,13.902
		c2.57,1.929,2.328,3.133-0.803,7.955l-1.77-0.803l1.125,1.847c0,0-2.009,3.295-4.018,4.5l-1.285-1.125l0.321,1.526
		c0,0-1.929,2.009-8.437,2.653l-0.482-1.125c0,0,0,1.125-1.045,1.287c-1.045,0.159-7.072,0-7.955-1.608
		c-4.34,2.41-8.238,4.499-13.419,4.861c0,0,2.787,6.284,1.632,11.483c-1.155,5.196-8.605,12.872-17.521,14.952
		c-5.776,1.348-13.861-2.117-20.087-10.141c-1.091-1.732,1.322-2.498,3.465-2.888c4.236-0.771,5.905-1.027,5.455,0.384
		c-0.449,1.412,0.322,6.547,6.161,5.969c5.84-0.576,10.076-4.041,4.557-10.33c-5.519-6.29-11.873-10.847-7.124-18.868
		c-5.007-1.285-8.087-3.852-10.141-7.317l0.322-1.027l-0.771,0.064c0,0-2.438-2.759-1.541-3.722
		c0.899-0.962,0.835-1.476,0.835-1.476l-1.606,0.77C3.973,19.824,1.966,14.212,5.088,13.81"/>
	<path fill="#9297B0" d="M30.094,19.996L30.094,19.996c-0.006-0.001-0.012-0.004-0.017-0.005c0.002,0,0.004,0,0.006,0
		C30.087,19.992,30.09,19.995,30.094,19.996 M28.662,16.641c-0.325,0-0.672,0.591-0.788,1.37c-0.125,0.815,0.043,1.523,0.378,1.586
		c0.016,0.002,0.031,0.004,0.046,0.004c0.325,0,0.673-0.591,0.792-1.37c0.123-0.816-0.046-1.527-0.382-1.586
		C28.693,16.642,28.677,16.641,28.662,16.641 M26.757,20.301c0.141-0.148,0.437-0.396,0.96-0.578
		c-0.386-0.738-0.167-3.394,0.849-3.394c0.048,0,0.099,0.006,0.152,0.019c1.148,0.28,0.328,3.257,0.328,3.257
		s0.022-0.006,0.068-0.006c0.087,0,0.258,0.022,0.53,0.146c-0.116,0.016-0.235,0.032-0.354,0.049
		c-0.159-0.022-0.318-0.032-0.474-0.032c-0.455,0-0.894,0.088-1.289,0.254c-0.228,0.076-0.418,0.16-0.563,0.232
		C26.896,20.267,26.827,20.284,26.757,20.301 M26.688,20.38c0.008-0.009,0.017-0.021,0.028-0.033
		c0.034-0.007,0.067-0.014,0.102-0.02c-0.028,0.016-0.052,0.03-0.073,0.043C26.726,20.374,26.707,20.378,26.688,20.38"/>
	<path d="M29.091,18.231c-0.126,0.815-0.502,1.424-0.839,1.366c-0.335-0.063-0.503-0.77-0.378-1.586
		c0.122-0.816,0.496-1.426,0.835-1.366C29.043,16.705,29.212,17.415,29.091,18.231"/>
	<path fill="#FFFFFF" d="M28.989,17.727c-0.03,0.322-0.172,0.57-0.326,0.553c-0.15-0.014-0.249-0.289-0.22-0.609
		c0.025-0.321,0.172-0.568,0.321-0.553C28.916,17.131,29.015,17.403,28.989,17.727"/>
	<path fill="#E9ECF4" d="M30.093,19.996c-0.009-0.001-0.02-0.004-0.029-0.005c0.004,0,0.007,0,0.011,0
		C30.082,19.992,30.088,19.995,30.093,19.996 M27.145,20.208c0.122-0.072,0.25-0.135,0.382-0.191
		c0.361-0.121,0.816-0.222,1.33-0.222c0.11,0,0.223,0.005,0.338,0.015C28.544,19.907,27.864,20.038,27.145,20.208 M26.945,20.335
		c0.02-0.014,0.04-0.027,0.061-0.042c0.102-0.018,0.209-0.036,0.32-0.053c-0.045,0.017-0.087,0.035-0.128,0.054
		C27.112,20.307,27.027,20.321,26.945,20.335"/>
	<path fill="#DDE1EC" d="M30.093,19.997c-0.006-0.002-0.011-0.003-0.018-0.006h0.001C30.083,19.993,30.088,19.994,30.093,19.997
		 M27.527,20.016c0.396-0.165,0.834-0.253,1.289-0.253c0.156,0,0.315,0.01,0.474,0.032c-0.031,0.004-0.063,0.009-0.095,0.014
		c-0.115-0.01-0.228-0.015-0.337-0.015C28.343,19.794,27.888,19.895,27.527,20.016"/>
	<path fill="#9297B0" d="M30.078,12.211c-0.515-0.773-1.035-1.025-1.491-1.025c-0.849,0-1.483,0.868-1.483,0.868
		c0.51-1.129,1.006-1.588,1.465-1.588C29.146,10.466,29.663,11.186,30.078,12.211"/>
	<path fill="#5B6072" d="M27.189,11.707c0,0,1.502-2.052,2.974,0.159C29.417,10.023,28.339,9.166,27.189,11.707"/>
	<path fill="#9297B0" d="M41.584,13.671c-0.701-0.851-1.375-1.12-1.948-1.12c-0.988,0-1.675,0.801-1.675,0.801
		c0.545-1.087,1.109-1.531,1.653-1.531C40.329,11.821,41.012,12.588,41.584,13.671"/>
	<path fill="#5B6072" d="M38.045,13.007c0,0,1.715-1.999,3.624,0.317C40.663,11.417,39.308,10.494,38.045,13.007"/>
	<path fill="#F5A2C5" d="M18.495,19.065c-0.969-3.488,1.696-6.734,7.459-12.644c-1.017-2.229-2.7-3.463-8.968,1.439
		C8.668,14.438,2.502,14.784,0.39,14.664c-1.003,1.674,0.244,5.161,0.244,5.161l1.604-0.77c0,0,0.064,0.514-0.835,1.477
		c-0.898,0.963,1.542,3.722,1.542,3.722l0.771-0.064l-0.322,1.026c2.054,3.466,5.134,6.033,10.141,7.317
		c0,0,0.214-0.292,1.424-1.987C7.983,25.555,13.505,21.146,18.495,19.065"/>
	<path fill="#F5A2C5" d="M59.714,11.596c-2.952-4.038-4.458-4.098-8.075-1.748c-3.617,2.352-0.784,9.462,2.711,11.873
		c3.617,2.049,6.087,2.652,6.448,5.364c0.362,2.712-3.233,5.886-10.385,10.025c0.884,1.608,6.911,1.767,7.956,1.608
		c1.044-0.162,1.044-1.287,1.044-1.287l0.482,1.125c6.509-0.643,8.438-2.653,8.438-2.653l-0.321-1.525l1.285,1.124
		c2.01-1.205,4.018-4.5,4.018-4.5l-1.124-1.847l1.769,0.803c1.354-2.085,2.168-3.494,2.448-4.578
		c-0.626-0.562-1.662-1.307-3.373-2.273C67.912,20.215,64.957,18.347,59.714,11.596"/>
	<path fill="#F5A2C5" d="M6.881,59.378c0.813-1.623,1.333-3.133,3.099-3.764c0.281-1.242-1.416-0.979-5.495-0.237
		c-2.144,0.392-4.557,1.156-3.466,2.889c0.063,0.083,0.128,0.16,0.192,0.24c0.303,0.228,0.696,0.468,1.208,0.71
		C4.813,60.353,6.029,61.083,6.881,59.378"/>
	<path fill="#FACFE1" d="M1.244,58.551c-0.021-0.015-0.042-0.03-0.061-0.045c-0.064-0.081-0.128-0.157-0.192-0.241
		c-1.083-1.721,1.289-2.486,3.421-2.879c-0.042,0.009-0.083,0.02-0.125,0.029c-1.721,0.33-3.538,0.91-3.539,2.041
		c0,0.242,0.083,0.512,0.271,0.809c0.016,0.021,0.032,0.042,0.047,0.062C1.125,58.402,1.184,58.476,1.244,58.551"/>
	<path fill="#BC9EBB" d="M1.244,58.551L1.244,58.551c-0.06-0.075-0.118-0.149-0.177-0.225C1.125,58.402,1.184,58.476,1.244,58.551"
		/>
	<path fill="#A88FAE" d="M5.505,60.388c-0.753,0-1.74-0.519-3.115-1.172c-0.476-0.227-0.852-0.451-1.146-0.665
		c-0.059-0.075-0.118-0.149-0.176-0.225c0.048,0.062,0.096,0.118,0.145,0.18c0.303,0.228,0.696,0.468,1.208,0.71
		c1.366,0.649,2.349,1.166,3.1,1.172H5.505"/>
	<path fill="#F38AB6" d="M5.765,55.858c-0.845,0-3.546,0.706-3.675,1.05c-0.106,0.283,0.144,0.557,0.587,0.557
		c0.242,0,0.539-0.08,0.866-0.283c0.005-0.002,0.009-0.004,0.014-0.008c0.084-0.051,0.171-0.103,0.261-0.152
		c0.301-0.168,0.631-0.33,0.942-0.471c-0.002,0-0.003,0-0.005,0.002c0.634-0.291,1.176-0.496,1.176-0.496
		C6.096,55.916,6.006,55.858,5.765,55.858 M7.661,55.982c-0.345,0-0.939,0.229-1.482,0.814c0,0-0.467,0.632-1.262,1.182
		c-0.753,0.518-0.082,0.964,0.69,0.964c0.043,0,0.087-0.001,0.132-0.005c0.823-0.055,1.29-1.865,2.003-2.471
		c0.057-0.047,0.099-0.09,0.131-0.133C8.044,56.12,7.927,55.982,7.661,55.982 M5.519,60.388c-0.75-0.006-1.734-0.522-3.101-1.172
		c-0.511-0.242-0.904-0.482-1.207-0.71c-0.048-0.062-0.097-0.118-0.145-0.18c-0.016-0.02-0.031-0.04-0.047-0.062
		c-0.187-0.297-0.271-0.566-0.271-0.809c0.001-1.131,1.818-1.711,3.538-2.041c-0.808,0.188-1.851,0.492-2.395,0.898
		c-0.123,0.075-0.134,0.107-0.058,0.107c0.367,0,2.777-0.758,4.275-0.99c0.965,0,0.361,0.32-0.804,1.084
		c-0.682,0.447-0.744,0.784-0.45,0.784c0.206,0,0.589-0.167,1.054-0.584c0.95-0.847,1.47-1.063,1.851-1.063
		c0.071,0,0.137,0.007,0.2,0.02c0.4,0.08,0.241,0.48-0.322,1.165c-0.245,0.298-0.323,0.458-0.252,0.458
		c0.09,0,0.43-0.27,0.974-0.859c0.85-0.92,1.637-1.436,0.549-1.682c0.847,0.01,1.182,0.256,1.043,0.861
		c-1.766,0.631-2.287,2.141-3.098,3.764C6.494,60.097,6.069,60.383,5.519,60.388"/>
	<path fill="#F062A1" d="M5.606,58.942c-0.771,0-1.443-0.446-0.689-0.964c0.794-0.55,1.261-1.18,1.261-1.18
		c0.543-0.587,1.137-0.816,1.482-0.816c0.268,0,0.384,0.138,0.214,0.352c0.016-0.02,0.029-0.039,0.04-0.059
		c-0.467,0.168-0.898,0.416-1.247,0.826c-0.289,0.338-0.558,0.72-0.905,1c-0.216,0.174-0.737,0.389-0.761,0.739
		c0.173,0.065,0.386,0.102,0.607,0.102c0.042,0,0.086-0.001,0.131-0.005C5.694,58.941,5.65,58.942,5.606,58.942"/>
	<path fill="#F062A1" d="M3.557,57.173c0.084-0.052,0.171-0.102,0.261-0.152C3.728,57.072,3.641,57.122,3.557,57.173 M2.677,57.464
		c-0.443,0-0.693-0.271-0.587-0.557c0.129-0.344,2.83-1.049,3.676-1.049c0.241,0,0.331,0.058,0.166,0.197
		c0,0-0.542,0.205-1.178,0.495c-0.189,0.06-0.377,0.116-0.566,0.165c-0.451,0.117-1.55,0.191-1.808,0.698
		c0.086,0.031,0.187,0.05,0.301,0.05c0.24,0,0.535-0.081,0.862-0.283C3.215,57.384,2.917,57.464,2.677,57.464"/>
	<path fill="#F062A1" d="M5.739,58.938L5.739,58.938c0.823-0.056,1.29-1.866,2.003-2.472c0.055-0.047,0.099-0.092,0.132-0.133
		c-0.033,0.043-0.075,0.087-0.132,0.133C7.029,57.072,6.563,58.882,5.739,58.938"/>
	<path fill="#EE4495" d="M5.608,58.942c-0.221,0-0.434-0.037-0.608-0.102c0.025-0.351,0.545-0.565,0.761-0.739
		c0.347-0.28,0.616-0.662,0.905-1c0.349-0.41,0.78-0.658,1.248-0.827c-0.012,0.02-0.025,0.04-0.041,0.06
		c-0.033,0.041-0.077,0.086-0.132,0.133c-0.713,0.605-1.18,2.416-2.003,2.472C5.695,58.941,5.651,58.942,5.608,58.942"/>
	<path fill="#F062A1" d="M3.818,57.021c0.299-0.167,0.629-0.328,0.937-0.469c0.001-0.002,0.003-0.002,0.004-0.002
		C4.449,56.693,4.119,56.853,3.818,57.021 M3.543,57.181L3.543,57.181c0.004-0.002,0.009-0.006,0.013-0.008
		C3.552,57.175,3.547,57.179,3.543,57.181"/>
	<path fill="#EE4495" d="M2.681,57.464c-0.114,0-0.215-0.019-0.3-0.05c0.257-0.507,1.356-0.58,1.808-0.698
		c0.188-0.049,0.377-0.105,0.565-0.164c-0.307,0.141-0.636,0.301-0.936,0.469c-0.09,0.051-0.179,0.102-0.262,0.152
		c-0.004,0.002-0.008,0.006-0.013,0.008C3.216,57.383,2.92,57.464,2.681,57.464"/>
	<path fill="#A88FAE" d="M11.19,11.71L11.19,11.71c1.769-0.95,3.7-2.196,5.764-3.825C14.891,9.515,12.959,10.76,11.19,11.71
		 M1.013,14.68c-0.23,0-0.433-0.005-0.609-0.016c0.173,0.011,0.373,0.016,0.6,0.016c0.245,0,0.521-0.007,0.825-0.025c0,0,0,0,0,0
		C1.527,14.673,1.256,14.68,1.013,14.68"/>
	<path fill="#F38AB6" d="M13.534,32.532L13.534,32.532c-5.006-1.285-8.087-3.851-10.141-7.317l0.322-1.026l-0.771,0.064
		c0,0-1.737-1.964-1.74-3.156c0-0.22,0.059-0.415,0.199-0.566c0.788-0.842,0.836-1.34,0.836-1.452c0-0.016-0.001-0.024-0.001-0.024
		l-1.604,0.77c0,0-0.634-1.772-0.634-3.396c0-0.654,0.103-1.285,0.39-1.766c0.005,0,0.009,0,0.013,0
		c0.176,0.011,0.379,0.016,0.609,0.016c0.243,0,0.515-0.007,0.815-0.025c-0.367,1.644-0.186,3.375,1.983,3.374
		c0.196,0,0.409-0.014,0.639-0.043c-1.928,2.652-2.169,5.183,0.724,5.303c-0.313,1.878,1.1,3.146,2.294,3.146
		c0.647,0,1.229-0.371,1.441-1.217c0.603-2.411,2.17-4.459,5.786-6.508c3.616-2.05,2.049-5.183,5.424-8.317
		c2.326-2.159,2.991-4.203,1.724-4.203c-0.573,0-1.541,0.418-2.928,1.431c-4.46,3.254-7.714,4.099-7.714,4.099l-0.011-0.008
		c1.77-0.949,3.7-2.195,5.765-3.824c0.01-0.007,0.021-0.016,0.032-0.024c3.179-2.487,5.179-3.395,6.51-3.395
		c1.292,0,1.957,0.857,2.458,1.955c-4.987,5.114-7.654,8.232-7.654,11.24c-0.001,0.468,0.064,0.934,0.195,1.403
		c-3.299,1.377-6.831,3.771-6.829,6.677c0,1.49,0.929,3.113,3.292,4.804C13.748,32.241,13.534,32.532,13.534,32.532"/>
	<path fill="#A88FAE" d="M63.367,15.921c-1.117-1.188-2.311-2.596-3.652-4.324C61.057,13.325,62.25,14.733,63.367,15.921
		 M73.034,23.107c-2.099-1.185-3.833-2.198-5.511-3.445c-0.006-0.005-0.012-0.009-0.018-0.014
		C69.189,20.902,70.928,21.918,73.034,23.107"/>
	<path fill="#F38AB6" d="M57.323,38.766c-2.078,0-6.192-0.35-6.91-1.656c6.831-3.954,10.418-7.026,10.41-9.657
		c0-0.124-0.009-0.247-0.025-0.368c-0.359-2.712-2.832-3.315-6.447-5.364c-2.345-1.617-4.393-5.349-4.394-8.341
		c0-1.469,0.492-2.757,1.682-3.532c1.548-1.006,2.708-1.57,3.762-1.57c1.409,0,2.624,1.009,4.313,3.318
		c1.342,1.729,2.535,3.137,3.652,4.325l-0.096,0.016c0,0-2.652-1.808-4.582-4.099c-0.705-0.836-1.585-1.287-2.391-1.287
		c-1.399,0-2.571,1.36-2.188,4.42c0.603,4.822,3.616,6.389,6.63,7.714c3.012,1.327,3.615,5.062,1.566,8.075
		c-1.854,2.726-1.341,5.647,0.645,5.647c0.211,0,0.438-0.033,0.681-0.102c2.532-0.724,3.134-0.845,3.255-3.857
		c0.949,0.475,1.479,0.873,2.063,0.873c0.452,0,0.938-0.241,1.674-0.873c1.688-1.447,0.844-2.893-0.121-4.581
		c0.432,0.09,0.834,0.131,1.206,0.131c2.636,0,3.62-2.101,1.085-4.108c-1.969-1.558-4.105-3.285-5.27-4.229
		c1.676,1.248,3.41,2.261,5.511,3.445c1.712,0.966,2.747,1.71,3.373,2.273c-0.28,1.084-1.095,2.492-2.448,4.578l-1.769-0.803
		l1.124,1.848c0,0-2.008,3.295-4.017,4.5l-1.286-1.125l0.321,1.525c0,0-1.929,2.009-8.437,2.653l-0.483-1.125
		c0,0,0,1.125-1.044,1.288C58.173,38.748,57.803,38.766,57.323,38.766L57.323,38.766"/>
	<path fill="#A5A9BE" d="M43.674,23.91c0,0-0.313-0.152-0.853-0.429c-0.265-0.147-0.607-0.289-0.986-0.47
		c-0.19-0.093-0.396-0.182-0.616-0.269c-0.217-0.093-0.446-0.19-0.685-0.291c-0.486-0.18-1.004-0.392-1.569-0.573
		c-0.279-0.096-0.569-0.194-0.868-0.276c-0.3-0.083-0.6-0.185-0.915-0.258c-0.623-0.168-1.275-0.308-1.939-0.435
		c-0.335-0.059-0.669-0.125-1.009-0.167l-0.51-0.072l-0.512-0.054c-0.683-0.083-1.37-0.118-2.048-0.143
		c-0.308-0.004-0.613-0.009-0.916-0.009c-0.362,0-0.719,0.006-1.07,0.026c-1.291,0.056-2.489,0.208-3.511,0.387
		c-1.019,0.183-1.861,0.382-2.441,0.557c-0.583,0.167-0.909,0.29-0.909,0.29s0.078-0.037,0.226-0.107
		c0.149-0.065,0.367-0.166,0.653-0.271c0.569-0.214,1.396-0.5,2.416-0.739c0.339-0.081,0.698-0.157,1.076-0.227
		c-0.024,0.03-0.035,0.047-0.035,0.047s0.031-0.022,0.092-0.057c0.066-0.012,0.133-0.024,0.201-0.035
		c-0.12,0.083-0.233,0.175-0.338,0.275c0,0,0.211-0.153,0.59-0.317c0.026-0.003,0.052-0.007,0.078-0.012
		c0.593-0.089,1.223-0.173,1.879-0.213c0.554-0.042,1.127-0.062,1.708-0.062c0.104,0,0.209,0.001,0.314,0.002
		c0.689,0.02,1.391,0.051,2.087,0.128l0.522,0.059l0.519,0.078c0.345,0.046,0.687,0.113,1.025,0.178
		c0.679,0.13,1.336,0.3,1.968,0.482c0.004,0.001,0.008,0.002,0.013,0.004c1.478,0.437,3.027,1.055,4.606,1.912
		c-0.136-0.075-0.271-0.149-0.406-0.223c0.143,0.074,0.279,0.147,0.406,0.223c0.367,0.212,0.696,0.381,0.953,0.548
		C43.383,23.721,43.674,23.91,43.674,23.91"/>
	<path fill="#848AA5" d="M26.653,20.428c0,0,0.011-0.018,0.035-0.048c0.019-0.003,0.038-0.006,0.057-0.01
		C26.685,20.406,26.653,20.428,26.653,20.428"/>
	<path fill="#CBCFDD" d="M26.606,20.611c0.105-0.1,0.219-0.191,0.339-0.275c0.083-0.015,0.167-0.028,0.251-0.042
		C26.817,20.458,26.606,20.611,26.606,20.611"/>
	<path fill="#A5A9BE" d="M20.422,34.407c0,0-0.086-0.006-0.236-0.024c-0.149-0.013-0.355-0.057-0.605-0.083
		c-0.125-0.014-0.258-0.033-0.398-0.054c-0.143-0.014-0.291-0.027-0.444-0.049c-0.152-0.021-0.312-0.019-0.473-0.038
		c-0.16-0.015-0.323-0.014-0.485-0.024c-0.072-0.004-0.144-0.004-0.216-0.004c-0.012,0-0.024,0-0.037,0
		c-0.078,0-0.156,0-0.233-0.004c-0.16,0.011-0.319,0.002-0.469,0.018c-0.152,0.013-0.3,0.018-0.439,0.037
		c-0.141,0.013-0.271,0.035-0.396,0.049c-0.12,0.024-0.235,0.038-0.333,0.059c-0.101,0.022-0.188,0.041-0.259,0.056
		c-0.143,0.036-0.226,0.061-0.226,0.061s0.062-0.061,0.188-0.146c0.125-0.086,0.314-0.194,0.555-0.295
		c0.122-0.045,0.255-0.101,0.401-0.135c0.143-0.042,0.297-0.079,0.458-0.105c0.163-0.03,0.329-0.047,0.501-0.064
		c0.129-0.003,0.258-0.01,0.391-0.01c0.042,0,0.085,0.001,0.127,0.002c0.174,0.013,0.349,0.013,0.517,0.041
		c0.17,0.025,0.334,0.049,0.493,0.084c0.157,0.035,0.31,0.077,0.452,0.115c0.142,0.042,0.274,0.094,0.393,0.139
		c0.244,0.083,0.432,0.192,0.567,0.259C20.348,34.363,20.422,34.407,20.422,34.407"/>
	<path fill="#A5A9BE" d="M23.483,36.958c0,0-0.141-0.028-0.383-0.081c-0.12-0.028-0.266-0.063-0.433-0.102
		c-0.165-0.046-0.359-0.073-0.563-0.116c-0.208-0.036-0.426-0.092-0.666-0.126c-0.236-0.034-0.487-0.071-0.744-0.113
		c-0.258-0.027-0.527-0.049-0.797-0.085c-0.272-0.013-0.549-0.035-0.826-0.042c-0.195,0-0.391-0.01-0.585-0.01
		c-0.08,0-0.161,0.001-0.24,0.006c-0.273,0.012-0.542,0.009-0.8,0.038c-0.258,0.017-0.508,0.045-0.747,0.072
		c-0.236,0.032-0.46,0.064-0.667,0.099c-0.206,0.039-0.396,0.071-0.562,0.109c-0.168,0.035-0.312,0.072-0.433,0.102
		c-0.239,0.062-0.375,0.105-0.375,0.105s0.118-0.08,0.341-0.194c0.111-0.054,0.248-0.125,0.411-0.187
		c0.162-0.068,0.346-0.137,0.551-0.203c0.205-0.065,0.429-0.129,0.669-0.184c0.242-0.05,0.497-0.111,0.764-0.14
		c0.268-0.04,0.543-0.067,0.829-0.081c0.132-0.01,0.266-0.013,0.4-0.013c0.051,0,0.102,0,0.153,0c0.054,0,0.107,0.001,0.16,0.001
		c0.049,0,0.097-0.001,0.146-0.002c0.286,0.013,0.574,0.042,0.854,0.063c0.282,0.036,0.556,0.086,0.821,0.128
		c0.262,0.056,0.515,0.122,0.753,0.181c0.24,0.055,0.457,0.145,0.661,0.211c0.201,0.069,0.389,0.13,0.546,0.207
		c0.157,0.072,0.296,0.136,0.409,0.186C23.357,36.894,23.483,36.958,23.483,36.958"/>
	<path fill="#A5A9BE" d="M17.214,44.247c0,0,0.148-0.106,0.427-0.264c0.142-0.072,0.309-0.171,0.515-0.258
		c0.201-0.097,0.434-0.192,0.692-0.288c0.259-0.096,0.542-0.19,0.845-0.273c0.306-0.08,0.625-0.17,0.967-0.226
		c0.338-0.07,0.69-0.119,1.051-0.157c0.358-0.048,0.727-0.048,1.094-0.075c0.03,0,0.058,0,0.087,0c0.338,0,0.676,0.013,1.009,0.018
		c0.359,0.029,0.713,0.069,1.055,0.103c0.34,0.052,0.667,0.115,0.977,0.171c0.31,0.053,0.594,0.147,0.859,0.214
		c0.265,0.072,0.507,0.133,0.714,0.215c0.209,0.078,0.391,0.145,0.541,0.2c0.297,0.114,0.465,0.184,0.465,0.184
		s-0.18-0.033-0.493-0.091c-0.154-0.032-0.342-0.07-0.559-0.115c-0.213-0.052-0.462-0.078-0.727-0.123
		c-0.133-0.021-0.272-0.043-0.416-0.065c-0.143-0.022-0.292-0.052-0.443-0.064c-0.306-0.032-0.63-0.069-0.964-0.104
		c-0.334-0.021-0.679-0.033-1.031-0.059c-0.254,0-0.513-0.005-0.773-0.005c-0.097,0-0.194,0-0.291,0.002
		c-0.355,0.021-0.713,0.017-1.062,0.058c-0.173,0.018-0.349,0.033-0.519,0.046c-0.172,0.012-0.339,0.045-0.505,0.065
		c-0.333,0.042-0.651,0.102-0.953,0.156c-0.301,0.062-0.584,0.124-0.846,0.189c-0.26,0.067-0.5,0.128-0.709,0.196
		c-0.21,0.06-0.39,0.125-0.542,0.173c-0.147,0.056-0.266,0.095-0.344,0.129C17.258,44.23,17.214,44.247,17.214,44.247"/>
	<path fill="#A5A9BE" d="M21.152,47.091c0,0,0.021-0.065,0.089-0.166l0.139-0.168c0.06-0.059,0.129-0.126,0.215-0.185
		c0.083-0.063,0.179-0.124,0.288-0.175c0.106-0.055,0.224-0.105,0.349-0.145c0.123-0.031,0.253-0.078,0.389-0.094l0.203-0.029
		l0.204-0.012c0.047-0.004,0.094-0.004,0.141-0.004c0.09,0,0.179,0.004,0.266,0.014c0.135,0.004,0.264,0.027,0.389,0.051
		c0.123,0.023,0.246,0.043,0.353,0.08c0.111,0.031,0.215,0.068,0.31,0.102c0.19,0.064,0.336,0.148,0.441,0.201
		c0.103,0.057,0.161,0.092,0.161,0.092s-0.045,0.002-0.124,0.002c-0.019,0-0.039,0-0.063-0.002h-0.003
		c-0.117,0-0.279-0.014-0.47-0.022c-0.097-0.003-0.201-0.007-0.31-0.017c-0.109-0.013-0.225-0.003-0.34-0.013l-0.18-0.011
		l-0.183,0.003c-0.051-0.001-0.104-0.001-0.157-0.001c-0.07,0-0.141,0.001-0.21,0.008C23.04,46.6,23.033,46.6,23.024,46.6
		c-0.116,0-0.231,0.012-0.342,0.023c-0.12,0.007-0.235,0.025-0.349,0.042c-0.109,0.023-0.22,0.039-0.321,0.066
		c-0.102,0.028-0.199,0.053-0.284,0.083c-0.09,0.03-0.169,0.063-0.24,0.094l-0.182,0.087C21.206,47.049,21.152,47.091,21.152,47.091
		"/>
	<path fill="#A5A9BE" d="M29.024,56.275c0,0-0.216-0.021-0.495-0.102c-0.136-0.045-0.306-0.068-0.475-0.119
		c-0.087-0.021-0.171-0.055-0.264-0.074c-0.091-0.018-0.181-0.045-0.272-0.069c-0.178-0.06-0.364-0.09-0.533-0.147
		c-0.087-0.023-0.17-0.045-0.249-0.066c-0.081-0.021-0.155-0.051-0.225-0.068c-0.142-0.039-0.26-0.081-0.342-0.107
		c-0.086-0.03-0.135-0.048-0.135-0.048s0.194-0.089,0.5-0.119c0.078-0.012,0.16-0.016,0.245-0.017c0.042,0,0.084,0,0.129,0
		c0.048,0,0.098,0.001,0.147,0.006c0.094,0.01,0.193,0.021,0.292,0.037c0.1,0.012,0.197,0.037,0.295,0.064
		c0.098,0.029,0.197,0.058,0.291,0.09c0.095,0.027,0.183,0.078,0.269,0.118c0.086,0.042,0.167,0.087,0.243,0.13
		c0.079,0.039,0.143,0.09,0.203,0.141C28.892,56.115,29.024,56.275,29.024,56.275"/>
	<path fill="#A5A9BE" d="M26.91,61.159c0,0-0.055-0.018-0.145-0.056c-0.091-0.036-0.21-0.102-0.356-0.164
		c-0.073-0.032-0.153-0.067-0.23-0.107c-0.083-0.037-0.17-0.074-0.255-0.115c-0.086-0.044-0.183-0.074-0.272-0.116
		c-0.089-0.044-0.186-0.071-0.278-0.11c-0.092-0.038-0.189-0.063-0.283-0.099c-0.093-0.026-0.185-0.061-0.275-0.082
		c-0.091-0.022-0.179-0.048-0.265-0.063c-0.084-0.021-0.166-0.033-0.243-0.049c-0.152-0.023-0.284-0.041-0.38-0.051
		c-0.094-0.006-0.152-0.008-0.152-0.008s0.043-0.037,0.133-0.084c0.089-0.045,0.223-0.1,0.391-0.135
		c0.084-0.013,0.179-0.034,0.277-0.035c0.038-0.003,0.076-0.004,0.115-0.004c0.063,0,0.129,0.004,0.195,0.009
		c0.108,0.007,0.216,0.029,0.329,0.05c0.107,0.031,0.22,0.058,0.328,0.1c0.102,0.045,0.212,0.08,0.309,0.139
		c0.098,0.053,0.196,0.103,0.281,0.166c0.085,0.063,0.168,0.122,0.242,0.182c0.072,0.064,0.136,0.131,0.195,0.189
		c0.122,0.113,0.198,0.236,0.256,0.314C26.882,61.111,26.91,61.159,26.91,61.159"/>
	<path fill="#A5A9BE" d="M21.687,62.023l-0.044-0.059l-0.054-0.076l0.091-0.013c0.011-0.001,0.024-0.001,0.037-0.001
		c0.053,0,0.117,0.006,0.188,0.021C21.832,61.939,21.759,61.981,21.687,62.023 M22.9,63.126c0,0-0.133-0.06-0.267-0.166
		l-0.109-0.084l-0.116-0.094l-0.114-0.104l-0.117-0.104c-0.062-0.068-0.131-0.128-0.191-0.194c0.122-0.093,0.24-0.188,0.356-0.29
		l0.025,0.018l0.143,0.119l0.127,0.135l0.1,0.149l0.078,0.149l0.047,0.146C22.911,62.992,22.9,63.126,22.9,63.126"/>
	<path fill="#A5A9BE" d="M17.334,63.225c-0.06,0-0.119-0.001-0.177-0.003c0-0.004-0.001-0.008-0.002-0.012l-0.013-0.085
		c0,0,0.119,0.017,0.257,0.099C17.377,63.225,17.356,63.225,17.334,63.225 M17.871,64.583c0,0-0.101-0.094-0.18-0.221l-0.073-0.101
		l-0.071-0.109c-0.042-0.077-0.101-0.155-0.138-0.241l-0.001-0.002c0.171,0,0.342-0.004,0.513-0.016
		c0.011,0.034,0.02,0.07,0.026,0.105c0.016,0.109,0.031,0.207,0.014,0.297C17.933,64.477,17.871,64.583,17.871,64.583"/>
	<path fill="#A5A9BE" d="M9.853,62.763c0,0,0.027-0.141,0.09-0.282c0.035-0.067,0.048-0.165,0.087-0.241l0.052-0.127l0.052-0.131
		l0.055-0.131l0.06-0.126c0.03-0.087,0.08-0.167,0.113-0.239c0.037-0.072,0.076-0.135,0.103-0.179l0.046-0.075l0.049,0.072
		c0.028,0.049,0.06,0.123,0.078,0.21c0.028,0.09,0.026,0.193,0.025,0.306l-0.028,0.173l-0.053,0.172
		c-0.056,0.11-0.104,0.224-0.189,0.304l-0.119,0.115l-0.059,0.05l-0.066,0.032C9.979,62.751,9.853,62.763,9.853,62.763"/>
	<path fill="#A5A9BE" d="M8.48,60.726c-0.054,0-0.087-0.005-0.087-0.005s0.056-0.126,0.146-0.249l0.072-0.1l0.074-0.106l0.086-0.103
		l0.083-0.106l0.179-0.202l0.087-0.094l0.088-0.086l0.144-0.136l0.064-0.058l0.026,0.08c0.015,0.055,0.025,0.131,0.02,0.219
		l-0.02,0.141l-0.044,0.151l-0.074,0.151l-0.1,0.141L9.105,60.49l-0.137,0.098L8.83,60.662l-0.137,0.041
		C8.606,60.721,8.532,60.726,8.48,60.726"/>
	<path fill="#626A87" d="M41.781,34.886c-0.098,0-0.197-0.014-0.295-0.017c-0.139-0.025-0.283-0.052-0.414-0.103
		c-0.006-0.002-0.013-0.006-0.02-0.008c0.089-0.083,0.139-0.129,0.139-0.129s-0.07,0.035-0.196,0.105
		c-0.102-0.044-0.198-0.096-0.287-0.157c-0.116-0.063-0.204-0.16-0.292-0.239c-0.082-0.088-0.157-0.17-0.208-0.259
		c-0.062-0.082-0.102-0.168-0.138-0.241c-0.035-0.074-0.059-0.142-0.075-0.198c-0.035-0.111-0.041-0.177-0.041-0.177
		s0.043,0.05,0.123,0.129c0.079,0.079,0.191,0.189,0.334,0.301c0.066,0.06,0.153,0.109,0.232,0.169
		c0.089,0.046,0.175,0.106,0.274,0.147l0.147,0.064l0.157,0.049c0.104,0.031,0.216,0.047,0.327,0.067
		c0.094,0.002,0.188,0.021,0.282,0.021c0.018,0,0.037-0.001,0.055-0.002c0.033-0.004,0.067-0.004,0.101-0.004
		c0.014,0,0.027,0,0.041,0c0.013,0,0.026,0,0.039,0c0.052,0,0.104-0.002,0.156-0.015c0.108-0.02,0.218-0.022,0.32-0.042
		c0.101-0.025,0.2-0.044,0.292-0.062c0.185-0.032,0.334-0.085,0.447-0.105c0.11-0.023,0.18-0.034,0.18-0.034
		s-0.047,0.046-0.135,0.12l-0.164,0.129c-0.063,0.05-0.137,0.106-0.227,0.148c-0.088,0.047-0.183,0.1-0.29,0.147
		c-0.105,0.047-0.223,0.082-0.346,0.117c-0.122,0.042-0.258,0.05-0.394,0.067C41.864,34.884,41.822,34.886,41.781,34.886"/>
	<path fill="#626A87" d="M36.995,41.971l-0.036-0.095c-0.021-0.063-0.06-0.152-0.095-0.272c-0.023-0.122-0.074-0.269-0.089-0.443
		c-0.011-0.087-0.025-0.18-0.032-0.279c-0.002-0.098-0.004-0.202-0.005-0.31c0.007-0.109,0.014-0.222,0.022-0.34
		c0.012-0.116,0.036-0.235,0.055-0.359c0.026-0.123,0.058-0.245,0.088-0.374c0.037-0.126,0.08-0.252,0.125-0.381
		c0.1-0.253,0.207-0.515,0.345-0.761c0.132-0.252,0.288-0.496,0.449-0.733c0.166-0.234,0.341-0.46,0.523-0.674
		c0.181-0.215,0.372-0.417,0.561-0.604c0.376-0.378,0.758-0.696,1.099-0.951c0.424-0.323,0.784-0.541,0.993-0.659
		c0.124-0.07,0.196-0.104,0.196-0.104s-0.05,0.045-0.139,0.128c-0.169,0.159-0.483,0.456-0.869,0.843
		c-0.293,0.295-0.63,0.645-0.972,1.032c-0.173,0.191-0.337,0.4-0.51,0.609c-0.169,0.211-0.334,0.429-0.487,0.654
		c-0.155,0.225-0.307,0.451-0.438,0.684c-0.129,0.233-0.252,0.464-0.356,0.695c-0.047,0.118-0.096,0.233-0.142,0.345
		c-0.039,0.115-0.081,0.227-0.115,0.337c-0.063,0.223-0.114,0.436-0.15,0.637c-0.026,0.203-0.051,0.388-0.054,0.555
		c-0.014,0.167,0.002,0.313,0,0.436C36.981,41.831,36.995,41.971,36.995,41.971"/>
	<path fill="#626A87" d="M15.541,30.642c0.115-2.729,2.531-5.425,8.194-7.232C16.503,27.265,15.541,30.642,15.541,30.642"/>
	<path fill="#9297B0" d="M39.316,17.402c-0.343,0-0.665,0.646-0.727,1.473c-0.066,0.851,0.165,1.567,0.514,1.606
		c0.009,0.001,0.018,0.002,0.027,0.002c0.343,0,0.667-0.646,0.73-1.476c0.063-0.85-0.167-1.57-0.517-1.604
		C39.335,17.402,39.326,17.402,39.316,17.402 M40.491,21.732c-0.11-0.079-0.218-0.15-0.322-0.217
		c-0.631-0.511-1.382-0.769-2.113-0.769c-0.046,0-0.091,0-0.137,0.003l0.455-0.227c0,0-0.568-1.735,0.377-3.1
		c0.185-0.267,0.378-0.385,0.56-0.385c0.743,0,1.278,1.993,0.183,3.819C39.947,21.235,40.491,21.732,40.491,21.732"/>
	<path d="M39.861,19.007c-0.065,0.852-0.405,1.509-0.757,1.475c-0.35-0.039-0.581-0.756-0.514-1.607
		c0.063-0.85,0.401-1.508,0.755-1.471C39.694,17.437,39.924,18.157,39.861,19.007"/>
	<path fill="#FFFFFF" d="M39.717,18.495c-0.005,0.334-0.133,0.602-0.292,0.596c-0.155-0.004-0.279-0.277-0.277-0.611
		c0.003-0.333,0.135-0.599,0.291-0.596C39.595,17.887,39.719,18.161,39.717,18.495"/>
	<path fill="#E9ECF4" d="M37.812,20.802c-0.031-0.012-0.063-0.024-0.094-0.038c0.067-0.007,0.134-0.013,0.202-0.016L37.812,20.802
		 M40.657,21.99c-1.03-0.867-2.106-1.096-2.752-1.149c-0.025-0.01-0.05-0.021-0.076-0.031c0.057-0.011,0.151-0.024,0.282-0.024
		c0.386,0,1.088,0.114,2.057,0.729C40.341,21.654,40.505,21.813,40.657,21.99"/>
	<path fill="#DDE1EC" d="M40.169,21.515c-0.969-0.616-1.672-0.729-2.057-0.729c-0.132,0-0.228,0.013-0.283,0.024
		c-0.006-0.002-0.011-0.005-0.017-0.008l0.108-0.053c0.045-0.002,0.09-0.003,0.136-0.003C38.787,20.745,39.538,21.004,40.169,21.515
		"/>
	<path fill="#E9ECF4" d="M27.326,20.24c0.435-0.172,1.048-0.34,1.79-0.34c0.296,0,0.614,0.027,0.949,0.09
		C28.977,20.021,28.048,20.126,27.326,20.24 M26.818,20.328c0.041-0.024,0.09-0.049,0.146-0.079c0.061-0.014,0.12-0.028,0.181-0.042
		c-0.047,0.028-0.093,0.057-0.139,0.087C26.941,20.305,26.877,20.317,26.818,20.328 M25.798,20.555
		c0.327-0.092,0.647-0.177,0.959-0.254c-0.016,0.016-0.03,0.032-0.042,0.046C26.292,20.43,25.98,20.506,25.798,20.555 M41.51,22.627
		c-0.267-0.138-0.56-0.275-0.866-0.429c-0.478-0.212-0.992-0.457-1.558-0.66c-0.28-0.109-0.568-0.218-0.868-0.314
		c-0.295-0.098-0.597-0.203-0.908-0.285c-2.465-0.73-4.73-0.957-6.598-0.957c-0.215,0-0.424,0.003-0.628,0.008
		c-0.168-0.108-0.314-0.187-0.44-0.244c0.808-0.104,1.567-0.154,2.288-0.154c2.156,0,3.979,0.44,5.786,1.171
		c-0.138,0.016-0.274,0.04-0.409,0.075c0,0,0.097-0.012,0.266-0.012c0.091,0,0.202,0.004,0.332,0.014
		C39.079,21.329,40.251,21.938,41.51,22.627"/>
	<path fill="#DDE1EC" d="M30.078,19.99c-0.263-0.096-0.526-0.161-0.788-0.196c0.119-0.017,0.237-0.032,0.355-0.047
		c0.125,0.057,0.27,0.135,0.439,0.244C30.082,19.99,30.08,19.99,30.078,19.99 M26.715,20.348c0.012-0.014,0.026-0.03,0.042-0.046
		c0.068-0.018,0.138-0.034,0.207-0.05c-0.056,0.027-0.105,0.054-0.146,0.077C26.783,20.335,26.749,20.341,26.715,20.348"/>
	<path fill="#F7F9FD" d="M27.006,20.293c0.045-0.03,0.091-0.059,0.139-0.086c0.719-0.169,1.399-0.301,2.05-0.399
		c0.281,0.025,0.576,0.081,0.881,0.182c-0.004,0-0.008,0-0.011,0.001c-0.334-0.063-0.652-0.091-0.948-0.091
		c-0.742,0-1.356,0.168-1.79,0.34C27.213,20.258,27.107,20.275,27.006,20.293"/>
	<path fill="#F3F6FB" d="M30.076,19.99c-0.306-0.101-0.6-0.157-0.881-0.182c0.032-0.005,0.063-0.01,0.095-0.015
		c0.262,0.036,0.525,0.1,0.788,0.196H30.076"/>
	<path fill="#E3E6F0" d="M41.916,22.85c-1.579-0.857-3.128-1.475-4.606-1.912c0.311,0.083,0.613,0.188,0.909,0.286
		c0.3,0.096,0.589,0.206,0.868,0.314c0.565,0.204,1.08,0.448,1.559,0.659c0.304,0.153,0.597,0.292,0.865,0.429
		C41.645,22.701,41.779,22.775,41.916,22.85"/>
	<path fill="#F7F9FD" d="M37.905,20.841c-0.128-0.01-0.24-0.014-0.331-0.014c-0.168,0-0.265,0.012-0.265,0.012
		c0.134-0.033,0.271-0.059,0.409-0.074c0.03,0.013,0.062,0.026,0.093,0.039l-0.043,0.022c0,0,0.021-0.007,0.06-0.015
		C37.855,20.819,37.88,20.831,37.905,20.841"/>
	<path fill="#F3F6FB" d="M37.769,20.824l0.043-0.021c0.006,0.002,0.011,0.004,0.018,0.006C37.79,20.817,37.769,20.824,37.769,20.824
		"/>
	<path fill="#E9ECF4" d="M25.612,20.607c0,0,0.064-0.02,0.186-0.053C25.737,20.572,25.675,20.589,25.612,20.607"/>
	<path fill="#E9ECF4" d="M17.463,44.648c-4.731-4.408-5.591-10.859,0.431-13.762C17.894,30.886,10.151,35.402,17.463,44.648"/>
	<path fill="#E9ECF4" d="M30.968,29.676c-0.379-0.597-1.372-1.365-2.864-1.941c-1.613-0.732-3.187-0.937-4.441-0.937
		c-1.028,0-1.843,0.138-2.285,0.233c-0.079,0.01-0.157,0.021-0.235,0.031c1.138-0.507,2.262-0.717,3.322-0.717
		C27.663,26.346,30.28,28.257,30.968,29.676"/>
	<path fill="#E3E6F0" d="M21.012,27.123c0.042-0.021,0.087-0.041,0.131-0.06c0.079-0.011,0.157-0.021,0.235-0.031
		C21.142,27.084,21.012,27.123,21.012,27.123 M30.968,29.676c-0.928-0.88-1.903-1.504-2.864-1.941
		C29.596,28.312,30.589,29.079,30.968,29.676"/>
	<path fill="#E9ECF4" d="M22.343,62.089l-0.126-0.08l-0.155-0.068l-0.148-0.043c-0.003-0.001-0.006-0.002-0.009-0.002
		c0.562-0.337,1.133-0.747,1.71-1.242C23.247,61.197,22.819,61.677,22.343,62.089 M17.92,63.893
		c-0.023-0.069-0.055-0.138-0.086-0.206c-0.106-0.198-0.264-0.363-0.415-0.449c-0.006-0.006-0.013-0.009-0.02-0.013
		c1.315-0.011,2.765-0.339,4.289-1.202l0.087,0.112l0.086,0.106l0.1,0.108c0.009,0.009,0.018,0.021,0.026,0.028
		C20.812,63.275,19.393,63.795,17.92,63.893 M17.407,63.911c-2.305,0-4.69-1.03-6.448-3.257c0,0,2.543,2.49,6.198,2.57
		c0.009,0.049,0.022,0.113,0.045,0.184c0.023,0.077,0.048,0.165,0.086,0.248l0.056,0.13L17.407,63.911"/>
	<path fill="#E3E6F0" d="M21.987,62.378c-0.009-0.008-0.018-0.02-0.026-0.028l-0.1-0.108l-0.086-0.105l-0.088-0.113
		c0.073-0.041,0.146-0.084,0.218-0.127c0.002,0,0.006,0.001,0.009,0.002l0.148,0.043l0.155,0.068l0.126,0.08
		C22.227,62.191,22.108,62.287,21.987,62.378"/>
	<path fill="#E3E6F0" d="M17.408,63.911l-0.063-0.125l-0.055-0.13c-0.039-0.083-0.064-0.171-0.087-0.248
		c-0.022-0.07-0.035-0.135-0.046-0.184c0.059,0,0.118,0.001,0.177,0.001c0.022,0,0.043,0,0.065,0
		c0.007,0.004,0.013,0.007,0.021,0.013c0.151,0.086,0.309,0.251,0.416,0.449c0.031,0.068,0.063,0.137,0.084,0.206
		C17.75,63.906,17.579,63.911,17.408,63.911"/>
	<path fill="#E9ECF4" d="M39.887,5.852c-1.863-0.771-3.779-1.003-5.408-1.003c-2.441,0-4.234,0.521-4.234,0.521
		c0.868-0.608,3.189-1.215,5.369-1.215C37.469,4.154,39.222,4.595,39.887,5.852"/>
	<path fill="#FAD3E4" d="M5.334,14.369c0,0,5.143-1.447,9.321-3.857C12.246,14.049,6.781,14.208,5.334,14.369"/>
	<path fill="#FAD3E4" d="M69.779,21.601c-3.054-0.643-6.911-4.983-7.875-6.589C61.904,15.012,66.725,19.673,69.779,21.601"/>
</g>
</svg>
