<?xml version="1.0" encoding="utf-8"?>
<!-- Generator: Adobe Illustrator 16.0.0, SVG Export Plug-In . SVG Version: 6.00 Build 0)  -->
<!DOCTYPE svg PUBLIC "-//W3C//DTD SVG 1.0//EN" "http://www.w3.org/TR/2001/REC-SVG-20010904/DTD/svg10.dtd">
<svg version="1.0" id="Layer_1" xmlns="http://www.w3.org/2000/svg" xmlns:xlink="http://www.w3.org/1999/xlink" x="0px" y="0px"
	 width="94.567px" height="95.214px" viewBox="0 0 94.567 95.214" enable-background="new 0 0 94.567 95.214" xml:space="preserve">
<g>
	<path d="M81.904,95.214c-0.434,0-0.855-0.071-1.283-0.203c-0.119-0.036-0.238-0.077-0.357-0.124
		c-2.396-0.93-5.486-5.641-6.57-8.035c-3.143-0.135-7.557-0.847-8.686-1.036l-0.016,0.036c-0.041,0.112-0.082,0.215-0.119,0.303
		c-0.318,0.76-0.939,1.266-1.773,1.573c-0.707,0.261-1.563,0.376-2.514,0.376c-2.178,0-4.846-0.607-7.305-1.468
		c-4.795-1.681-6.232-4.077-6.232-4.077s-0.137,0.016-0.379,0.035c-0.479,0.041-1.379,0.104-2.461,0.104
		c-1.133,0-2.465-0.068-3.715-0.299c-0.148,1.444-0.689,2.563-1.48,3.426l0.002,0.008l-0.186,0.175
		c-0.121,0.122-0.244,0.243-0.377,0.356l-0.023,0.016l-0.215,0.16c-0.156,0.118-0.313,0.235-0.482,0.339
		c-0.076,0.047-0.154,0.089-0.23,0.132c-0.174,0.1-0.352,0.196-0.535,0.283c-0.086,0.041-0.176,0.074-0.264,0.113
		c-0.18,0.077-0.361,0.152-0.549,0.219l-0.088,0.035l-0.002-0.006c-0.096,0.031-0.189,0.061-0.285,0.091l0.002,0.006l-0.145,0.04
		c-0.131,0.037-0.264,0.072-0.395,0.105c-0.117,0.027-0.232,0.055-0.35,0.08l-0.191,0.043c-0.096,0.02-0.191,0.037-0.289,0.053
		l-0.031,0.007v-0.001c-0.57,0.099-1.158,0.162-1.746,0.189l-0.158,0.006c-0.215,0.008-0.434,0.012-0.648,0.012
		c-0.074,0-0.15,0-0.229-0.001l-0.086,0.001l-0.002-0.004l-0.213-0.006l0.002,0.007l-0.188-0.013
		c-0.24-0.01-0.477-0.025-0.715-0.043c-0.104-0.01-0.205-0.016-0.307-0.026c-0.342-0.032-0.678-0.071-1.006-0.122
		c-0.266-0.042-0.52-0.086-0.768-0.133c-0.09-0.018-0.176-0.035-0.262-0.055l-0.068-0.012l-0.168-0.035
		c-0.074-0.016-0.148-0.033-0.221-0.049c-0.098-0.021-0.193-0.045-0.287-0.069c-0.123-0.031-0.248-0.063-0.365-0.096l-0.107-0.028
		l-0.047-0.014l-0.156-0.048l-0.109-0.031v-0.003c-0.197-0.063-0.391-0.129-0.574-0.199l-0.186-0.074
		c-0.242-0.098-0.471-0.2-0.684-0.313l-0.047-0.021c-0.229-0.121-0.434-0.253-0.627-0.389l-0.123-0.09
		c-0.176-0.133-0.34-0.271-0.49-0.416l-0.037-0.035c-0.16-0.162-0.305-0.332-0.436-0.514l-0.072-0.105
		c-0.115-0.169-0.223-0.346-0.314-0.533l-0.023-0.038l0.002,0.004c-0.234-0.481-0.402-1.017-0.508-1.62
		c-0.322,1.694-0.871,3.492-1.814,5.292c-1.752,3.335-7.326,6.595-10.465,6.595c-0.49,0-0.92-0.078-1.268-0.25l-0.137-0.067
		c-0.145-0.087-0.295-0.188-0.445-0.3l-0.053-0.035l-0.117-0.095c-0.1-0.077-0.197-0.155-0.303-0.242l-0.107-0.093L7.58,93.858
		c-0.088-0.077-0.174-0.157-0.262-0.243l-0.176-0.168l-0.098-0.1c-0.076-0.076-0.154-0.16-0.232-0.244
		c-0.078-0.085-0.158-0.168-0.238-0.259l-0.043-0.047L6.5,92.765c-0.068-0.077-0.137-0.161-0.205-0.241
		c-0.084-0.099-0.166-0.195-0.252-0.299l-0.092-0.113c-0.061-0.08-0.125-0.163-0.188-0.245c-0.129-0.163-0.254-0.329-0.383-0.505
		c-0.072-0.099-0.145-0.201-0.217-0.305l-0.137-0.189v-0.002c-0.082-0.115-0.162-0.24-0.24-0.36
		c-0.08-0.117-0.158-0.237-0.234-0.358c-0.119-0.184-0.236-0.375-0.354-0.57c-0.049-0.078-0.098-0.15-0.145-0.231l0.002-0.009
		c-1.398-2.365-2.707-5.377-3.57-8.926c-0.105-0.42-0.189-0.826-0.26-1.229l-0.002-0.011v0.003
		c-1.309-7.463,3.33-11.815,8.406-12.713l0.025-0.004c0.346-0.061,0.695-0.105,1.045-0.135l0.037-0.002
		c0.289-0.022,0.578-0.035,0.869-0.035c0.059,0,0.117,0,0.176,0.002c-0.172-1.904,0.809-5.027,2.025-7.938l-0.002,0.001
		c0.053-0.124,0.105-0.246,0.158-0.37c0.039-0.091,0.078-0.182,0.115-0.273c0.086-0.196,0.172-0.387,0.258-0.58
		c0.041-0.09,0.082-0.184,0.123-0.273c0.115-0.256,0.234-0.508,0.35-0.753c0.059-0.12,0.113-0.235,0.168-0.353
		c0.07-0.143,0.139-0.283,0.207-0.422c0.057-0.115,0.113-0.227,0.17-0.339c0.068-0.138,0.137-0.271,0.203-0.403
		c0.053-0.102,0.105-0.2,0.156-0.297c0.076-0.148,0.152-0.287,0.227-0.425c0.041-0.074,0.08-0.151,0.119-0.224
		c0.115-0.209,0.227-0.407,0.332-0.592c0.98-1.703,1.85-3.564,2.457-4.95c0.021-0.176,0.053-0.352,0.082-0.526
		c0.025-0.17,0.051-0.342,0.082-0.512c0.049-0.257,0.105-0.513,0.166-0.769c0.037-0.17,0.074-0.342,0.121-0.514
		c0.068-0.26,0.148-0.521,0.229-0.782c0.053-0.167,0.098-0.333,0.156-0.501c0.096-0.28,0.207-0.566,0.32-0.85
		c0.057-0.146,0.107-0.292,0.17-0.438c0.18-0.433,0.379-0.866,0.598-1.306c0.221-0.439,0.447-0.845,0.678-1.224l-0.002-0.001
		c0.184-0.306,0.371-0.586,0.561-0.856c0.115-0.164,0.23-0.312,0.346-0.463c0.123-0.162,0.248-0.331,0.375-0.481
		c0.109-0.131,0.219-0.244,0.328-0.364c0.113-0.121,0.223-0.248,0.334-0.36c0.115-0.114,0.227-0.215,0.34-0.319
		c0.109-0.099,0.217-0.202,0.324-0.292c0.111-0.096,0.223-0.181,0.336-0.268c0.105-0.082,0.209-0.165,0.314-0.238
		c0.111-0.078,0.219-0.149,0.328-0.219c0.086-0.055,0.172-0.115,0.258-0.166c-0.332-0.071-0.68-0.168-1.074-0.339
		c-0.258-0.11-0.484-0.232-0.689-0.359c-0.111-0.07-0.197-0.144-0.295-0.216c-0.074-0.057-0.162-0.11-0.227-0.167l0.016,0.007
		c-0.805-0.7-0.91-1.456-0.455-1.757h-0.004l0.004-0.001c0.094-0.062,0.207-0.105,0.344-0.125c0.383-0.055,0.756-0.162,1.113-0.297
		c-1.047-0.882-2.129-1.973-3.004-3.228c-1.447-0.016-4.383-1.297-5.479-1.861c-1.424-0.732-5.125-2.819-4.969-4.731
		c-3.844-0.62-6.252-7.311-5.213-8.376c-0.115-0.023-0.225-0.067-0.33-0.119l-0.078-0.046c-0.086-0.05-0.17-0.11-0.25-0.179
		l-0.049-0.041c-0.096-0.088-0.186-0.189-0.27-0.301l-0.037-0.055c-0.072-0.101-0.141-0.209-0.203-0.325l-0.045-0.082
		c-0.146-0.277-0.268-0.593-0.363-0.933l-0.023-0.085c-0.043-0.159-0.08-0.323-0.111-0.49l-0.008-0.044
		c-0.035-0.188-0.061-0.378-0.082-0.574l-0.002-0.015c-0.066-0.698-0.037-1.425,0.104-2.102c0.023-0.108,0.059-0.205,0.104-0.298
		l0.059-0.095l0.109-0.162l0.098-0.099l0.135-0.121l0.133-0.09l0.16-0.098l0.164-0.083l0.182-0.081l0.201-0.077l0.201-0.067
		c0.076-0.024,0.154-0.049,0.236-0.072l0.209-0.057c0.094-0.025,0.188-0.05,0.287-0.074l0.166-0.04
		c0.641-0.15,1.381-0.298,2.215-0.487l0.111-0.027c0.189-0.044,0.383-0.09,0.58-0.139C8.044,7.62,8.13,7.598,8.214,7.576
		c0.158-0.04,0.316-0.082,0.48-0.126C8.8,7.422,8.91,7.39,9.017,7.358c0.146-0.041,0.297-0.085,0.449-0.132
		c0.117-0.036,0.24-0.074,0.361-0.113c0.498-0.161,1.014-0.341,1.545-0.554c3.125-1.27,5.65-2.532,7.826-3.559l-0.002-0.001
		l0.131-0.06l0.215-0.101c0.289-0.135,0.576-0.266,0.852-0.392l0.152-0.069c0.299-0.134,0.59-0.26,0.877-0.382
		c0.078-0.033,0.154-0.065,0.23-0.098c0.291-0.119,0.578-0.234,0.857-0.338l0.072-0.025c0.258-0.094,0.508-0.181,0.758-0.26
		l0.215-0.068c0.262-0.081,0.52-0.153,0.773-0.212l0.15-0.033c0.221-0.051,0.441-0.091,0.658-0.126l0.178-0.028
		c0.25-0.034,0.496-0.059,0.74-0.071l0.17-0.004c0.074-0.002,0.145-0.003,0.217-0.003c0.148,0,0.297,0.005,0.443,0.013l0.119,0.005
		c0.246,0.02,0.492,0.054,0.738,0.1l0.176,0.037c0.252,0.054,0.506,0.117,0.76,0.2c2.104,0.689,3.533,2.036,4.473,3.293
		c2.34-1.958,5.367-3.41,9.26-3.585c0.332-0.016,0.658-0.023,0.98-0.023c4.943,0,8.576,1.743,11.195,4.185L54.56,4.885
		c0,0,2.305-4.265,7.088-4.838C61.923,0.013,62.193,0,62.46,0c0.07,0,0.141,0.001,0.211,0.003c0.098,0.001,0.197,0.011,0.295,0.018
		c0.242,0.015,0.48,0.042,0.719,0.082c0.104,0.017,0.207,0.034,0.309,0.057c0.254,0.053,0.51,0.121,0.762,0.202l0.213,0.063
		c0.326,0.112,0.654,0.245,0.986,0.397l0.133,0.068c0.285,0.137,0.574,0.289,0.867,0.454c0.09,0.05,0.18,0.104,0.271,0.158
		C67.492,1.656,67.759,1.823,68.035,2c0.076,0.051,0.154,0.1,0.234,0.152c2.455,1.625,5.279,4.014,9.281,6.654
		c0.482,0.314,0.953,0.592,1.416,0.849c0.105,0.061,0.213,0.119,0.318,0.175c0.141,0.076,0.279,0.148,0.418,0.219
		c0.102,0.052,0.203,0.105,0.303,0.157c0.139,0.069,0.277,0.135,0.412,0.201c0.094,0.044,0.188,0.09,0.277,0.132
		c0.146,0.068,0.285,0.131,0.424,0.196c0.078,0.034,0.16,0.073,0.238,0.108c0.158,0.07,0.311,0.138,0.463,0.204
		c0.459,0.2,0.889,0.385,1.279,0.557l0.141,0.063c0.123,0.055,0.242,0.109,0.355,0.161l0.166,0.08
		c0.098,0.048,0.193,0.095,0.285,0.142l0.156,0.085c0.082,0.045,0.164,0.091,0.24,0.138l0.141,0.089l0.199,0.139l0.119,0.094
		l0.16,0.147l0.096,0.097l0.121,0.164l0.064,0.098l0.082,0.197l0.035,0.09c0.027,0.099,0.041,0.203,0.043,0.313
		c0.01,0.893-0.186,1.833-0.51,2.653l-0.002,0.006c-0.068,0.172-0.143,0.335-0.221,0.495l-0.031,0.062
		c-0.162,0.317-0.344,0.605-0.541,0.851l-0.061,0.073c-0.084,0.099-0.172,0.19-0.26,0.274l-0.053,0.05
		c-0.104,0.093-0.211,0.173-0.32,0.241l-0.064,0.035c-0.088,0.051-0.178,0.091-0.27,0.123l-0.092,0.03
		c-0.111,0.032-0.227,0.054-0.342,0.054c0.797,1.231-2.775,7.194-6.615,7.194c-0.047,0-0.092-0.001-0.139-0.002
		c-0.221,1.91-4.256,3.231-5.799,3.671c-0.996,0.285-3.379,0.815-4.953,0.815c-0.412,0-0.77-0.036-1.031-0.123
		c-0.754,1.207-1.674,2.366-2.748,3.433c0.076,0.046,0.15,0.085,0.229,0.136l0.129,0.095c0.158,0.108,0.318,0.218,0.479,0.343
		l0.137,0.115c0.162,0.131,0.324,0.263,0.488,0.411l0.143,0.139c0.16,0.153,0.322,0.306,0.484,0.478l0.182,0.203
		c0.15,0.165,0.301,0.328,0.449,0.51c0.066,0.079,0.131,0.17,0.197,0.253c0.143,0.182,0.287,0.361,0.43,0.559
		c0.078,0.107,0.154,0.231,0.232,0.345c0.127,0.187,0.256,0.368,0.383,0.569c0.104,0.163,0.201,0.342,0.303,0.514
		c0.096,0.164,0.193,0.321,0.287,0.494l-0.002-0.003c1.457,2.656,2.721,6.364,3.436,11.402l0.131,0.205l0.029,0.043
		c0.068,0.104,0.137,0.213,0.213,0.328l0.039,0.063c0.072,0.115,0.146,0.233,0.227,0.357l0.049,0.08
		c0.076,0.123,0.156,0.249,0.236,0.382l0.063,0.103c0.08,0.129,0.162,0.264,0.244,0.402l0.072,0.123
		c0.082,0.133,0.164,0.271,0.248,0.416l0.086,0.148c0.08,0.135,0.16,0.273,0.24,0.415l0.111,0.19
		c0.074,0.132,0.15,0.269,0.227,0.407c0.043,0.073,0.084,0.146,0.127,0.223c0.07,0.13,0.145,0.265,0.217,0.397
		c0.049,0.088,0.096,0.178,0.146,0.268c0.063,0.119,0.127,0.242,0.191,0.365c0.059,0.107,0.113,0.215,0.172,0.325
		c0.051,0.099,0.104,0.2,0.152,0.3c0.064,0.122,0.127,0.244,0.189,0.368l-0.002-0.005c1.26,2.51,2.486,5.438,3.117,8.293
		c0.121-0.072,0.256-0.156,0.402-0.258l0.018-0.014c0.072-0.049,0.146-0.104,0.223-0.16c1.682-1.262,4.316-4.295,2.996-10.439
		c-0.813-3.143-1.537-5.746-0.563-8.016l0.053-0.116c0.326-0.715,0.826-1.399,1.555-2.056l-0.002-0.003
		c0.074-0.067,0.158-0.133,0.238-0.2c-0.84-4.04,2.516-5.349,2.516-5.349s-0.539,0.663-0.539,1.702
		c0.828-2.117,3.441-2.117,6.264-2.282c0.166-0.009,0.318-0.027,0.461-0.05l0.143-0.029c0.088-0.017,0.172-0.035,0.248-0.057
		l0.148-0.049l0.176-0.065l0.135-0.065c1.213-0.632,0.723-1.965,0.723-1.965c0.352,0.846,0.553,1.625,0.641,2.345l0.002-0.003v0.013
		c0.037,0.303,0.051,0.594,0.049,0.876v0.098c-0.006,0.274-0.029,0.536-0.068,0.79l-0.014,0.088
		c-0.043,0.255-0.098,0.502-0.17,0.739l-0.008,0.021c-0.074,0.246-0.166,0.479-0.268,0.703l-0.004,0.008
		c-0.1,0.216-0.211,0.422-0.332,0.619l-0.037,0.061c-0.117,0.187-0.242,0.367-0.375,0.537l-0.043,0.057
		c-0.137,0.172-0.275,0.334-0.422,0.487l-0.018,0.019c-0.301,0.314-0.615,0.588-0.926,0.825l-0.041,0.031
		c-0.148,0.114-0.295,0.216-0.436,0.313l-0.049,0.033c-0.143,0.094-0.281,0.182-0.414,0.259l-0.025,0.015
		c-0.271,0.16-0.516,0.284-0.715,0.379l-0.031,0.016c-0.09,0.042-0.172,0.079-0.24,0.108l-0.033,0.015l-0.148,0.062l-0.021,0.008
		l-0.045,0.017c0,0,0.613,0.213,1.049,0.213c0.107,0,0.205-0.013,0.279-0.046c-0.852,0.866-1.949,1.219-3.041,1.219
		c-1.785,0-3.555-0.942-4.199-2.118c-0.785,0.643-2.551,2.597-1.451,6.608c1.352,4.931,2.855,11.101-3.396,15.344
		c0.105,0.68,0.176,1.353,0.195,2.008c0.164-0.016,0.334-0.029,0.504-0.04l0.139-0.005c0.123-0.007,0.248-0.014,0.375-0.018
		l0.178-0.002c0.084-0.003,0.168-0.004,0.254-0.004c0.031,0,0.063,0,0.092,0l0.193,0.004c0.113,0.001,0.229,0.004,0.342,0.01
		l0.203,0.01c0.115,0.008,0.229,0.015,0.344,0.024l0.205,0.018c0.117,0.011,0.234,0.024,0.352,0.038l0.203,0.025
		c0.123,0.019,0.246,0.037,0.369,0.058l0.193,0.033c0.133,0.022,0.268,0.052,0.402,0.079l0.166,0.035
		c0.164,0.038,0.328,0.079,0.494,0.123l0.08,0.022c0.391,0.107,0.783,0.234,1.182,0.385l0.152,0.062
		c0.146,0.057,0.293,0.116,0.439,0.18l0.193,0.088c0.137,0.061,0.27,0.123,0.406,0.189l0.211,0.105
		c0.129,0.066,0.26,0.135,0.391,0.209c0.074,0.039,0.148,0.081,0.221,0.123c0.131,0.072,0.26,0.15,0.387,0.229
		c0.076,0.047,0.152,0.092,0.225,0.141c0.131,0.082,0.264,0.168,0.395,0.259l0.141,0.093l-0.016-0.008
		c1.375,0.949,2.771,2.223,4.166,3.907l-0.004-0.01l0.078,0.097c0.07,0.086,0.143,0.178,0.213,0.266
		c0.111,0.141,0.225,0.281,0.334,0.426c0.086,0.108,0.168,0.221,0.252,0.334c0.102,0.133,0.199,0.269,0.299,0.405
		c0.09,0.122,0.178,0.247,0.266,0.373c0.098,0.139,0.195,0.28,0.293,0.425c0.088,0.127,0.174,0.256,0.262,0.389
		c0.102,0.153,0.203,0.311,0.305,0.471c0.08,0.127,0.164,0.255,0.244,0.387c0.109,0.176,0.221,0.355,0.33,0.538
		c0.072,0.124,0.146,0.245,0.221,0.372c0.125,0.212,0.25,0.432,0.375,0.65c0.057,0.104,0.115,0.205,0.176,0.312
		c0.182,0.331,0.367,0.67,0.549,1.019c0.053,0.078,0.096,0.158,0.139,0.24c1.01,2.004-1.004,5.801-5.16,9.883
		C85.816,93.912,83.765,95.214,81.904,95.214"/>
</g>
</svg>
