<?xml version="1.0" encoding="utf-8"?>
<!-- Generator: Adobe Illustrator 16.0.0, SVG Export Plug-In . SVG Version: 6.00 Build 0)  -->
<!DOCTYPE svg PUBLIC "-//W3C//DTD SVG 1.0//EN" "http://www.w3.org/TR/2001/REC-SVG-20010904/DTD/svg10.dtd">
<svg version="1.0" id="Layer_1" xmlns="http://www.w3.org/2000/svg" xmlns:xlink="http://www.w3.org/1999/xlink" x="0px" y="0px"
	 width="115.757px" height="89.286px" viewBox="0 0 115.757 89.286" enable-background="new 0 0 115.757 89.286"
	 xml:space="preserve">
<g>
	<path fill="#BBBECF" d="M13.63,21.58c-4.117,6.219-2.103,10.248-0.526,13.139c1.578,2.891,0.701,5.344-0.438,7.621
		c0.376,0.243,0.596,0.412,0.726,0.604l-0.024-0.079c3.24-4.644,0.174-7.709-0.877-11.213c-1.051-3.504-0.524-5.605,2.717-9.286
		c2.541-5.519,6.568-9.285,6.568-9.285S17.748,15.36,13.63,21.58"/>
	<path fill="#BBBECF" d="M12.666,42.339c0.684-1.369,1.273-2.799,1.293-4.351l0.001,0.001C13.939,39.541,13.35,40.972,12.666,42.339
		"/>
	<path fill="#9297B0" d="M13.392,42.944c-0.13-0.193-0.35-0.362-0.726-0.604c0.685-1.367,1.274-2.799,1.294-4.35
		c0.045,0.018,0.084,0.026,0.118,0.026c0.456,0,0.006-1.608-1.178-4.688c-1.528-3.974-1.406-5.44-0.245-8.191
		c1.083-2.563,4.976-6.982,4.367-6.982c-0.044,0-0.114,0.023-0.21,0.074c-1.052,0.548-2.684,2.703-3.44,3.755
		c0.084-0.135,0.169-0.269,0.259-0.404c4.118-6.22,8.146-8.498,8.146-8.498s-0.068,0.064-0.194,0.189
		c-2.66,2.508-4.872,5.298-6.096,8.51c-0.094,0.193-0.187,0.389-0.278,0.585c-2.266,2.572-3.205,4.375-3.206,6.423
		c0,0.882,0.173,1.809,0.489,2.862c0.707,2.355,2.322,4.511,2.324,7.081c0,1.255-0.384,2.608-1.448,4.132L13.392,42.944"/>
	<path fill="#6E717F" d="M12.666,42.339c-0.105-0.069-0.225-0.163-0.348-0.271c-3.301-2.408-5.363,0.582-5.872,1.935
		c-0.524,1.402-2.276,0.439-2.276,0.439s0.088,0.438,1.051,0.964c-6.045,0.263-5.432,3.329-4.906,5.956
		c1.84-3.942,5.256-2.277,8.672-1.664c3.38,0.606,5.217-4.275,4.405-6.754C13.261,42.751,13.042,42.582,12.666,42.339"/>
	<path fill="#ABAAB2" d="M2.243,45.908c0.741-0.269,1.71-0.446,2.967-0.502h0.001C3.953,45.461,2.984,45.639,2.243,45.908
		 M2.235,45.911c0.001,0,0.004-0.001,0.006-0.002C2.239,45.91,2.236,45.911,2.235,45.911 M2.226,45.914c0,0,0.002,0,0.002-0.001
		C2.228,45.914,2.227,45.914,2.226,45.914"/>
	<path fill="#575B68" d="M0.315,51.362L0.315,51.362c-0.415-2.074-0.884-4.422,1.911-5.448c0,0,0.002,0,0.003-0.001
		c0.001-0.001,0.003-0.002,0.005-0.002c0.002,0,0.004-0.001,0.006-0.002c0-0.001,0.001-0.001,0.002-0.001
		c0.742-0.269,1.71-0.446,2.969-0.502c0.712,0.456,1.42,0.718,1.408,0.718c-0.005,0-0.147-0.051-0.486-0.154
		c-0.561-0.137-1.078-0.199-1.549-0.199c-2.097,0-3.258,1.252-3.223,2.824c0.095-0.471,1.446-1.613,3.074-1.613
		c0.645,0,1.333,0.179,2.003,0.65c0.741,0.521,1.537,0.746,2.303,0.746c1.684,0,3.228-1.083,3.74-2.496
		c0.648-1.794,0.033-3.722-0.949-3.722c-0.145,0-0.296,0.042-0.453,0.131c-0.506-0.702-1.181-0.938-1.867-0.938
		c-0.129,0-0.258,0.008-0.387,0.023c0.332-0.135,0.696-0.214,1.089-0.214c0.705,0,1.507,0.255,2.4,0.907
		c0.124,0.108,0.242,0.202,0.349,0.271c0.375,0.243,0.597,0.412,0.726,0.604c0.128,0.393,0.19,0.845,0.19,1.326
		c0.002,2.385-1.517,5.481-4.026,5.48c-0.185,0-0.375-0.017-0.569-0.052c-1.709-0.307-3.417-0.876-4.927-0.876
		C2.549,48.822,1.235,49.391,0.315,51.362"/>
	<path fill="#A3ACBF" d="M7.082,44.537c-0.463-1.128,0.679-2.657,2.048-2.657c0.099,0,0.199,0.007,0.3,0.024
		C9.431,41.904,7.58,42.045,7.082,44.537"/>
	<path fill="#A3ACBF" d="M6.559,45.725c-0.399,0-0.82-0.215-1.11-0.43c-0.289-0.214-0.446-0.429-0.32-0.429
		c0.06,0,0.183,0.048,0.387,0.168c0.328,0.192,0.611,0.269,0.854,0.269c0.975,0,1.317-1.23,1.317-1.23
		C7.588,45.344,7.092,45.725,6.559,45.725"/>
	<path fill="#9C9FAF" d="M76.827,58.795c0,0,0.068,6.073-5.062,12.754c-5.128,6.68-15.115,10.796-15.115,10.796
		s-4.319-1.013-5.87-8.839c-0.135-2.834-0.202-3.779,1.214-4.859c1.416-1.079,10.384-8.326,12.682-9.46
		c2.299-1.134,6.549-3.833,6.549-3.833S73.182,57.715,76.827,58.795"/>
	<path fill="#7C8092" d="M72.219,70.94c-0.83-1.987-1.735-3.807-2.651-5.028c-2.567-3.425-4.892-6.725-4.892-6.725
		c0.051,0.02,0.102,0.028,0.15,0.028c0.24,0,0.475-0.195,0.602-0.322c0.227-0.092,0.492-0.203,0.789-0.332
		c1.418-0.605,3.424-1.545,4.243-2.327c0.327-0.239,0.628-0.487,0.89-0.74c0.23,0.247,0.775,0.796,1.615,1.403
		c0.357,0.269,0.729,0.506,1.109,0.717c0.77,0.441,1.689,0.865,2.752,1.182c0,0.006,0.014,1.416-0.543,3.619
		c-0.001-0.777-0.249-2.291-2.023-3.136c-0.508-0.242-0.93-0.344-1.293-0.344c-1.391,0-1.896,1.497-2.916,2.331
		c-1.131,0.926,1.713,4.469,3.133,8.25C72.887,69.987,72.567,70.461,72.219,70.94 M56.543,82.314
		c-0.678-0.218-4.357-1.715-5.764-8.808c-0.035-0.748-0.066-1.363-0.066-1.885c0-1.457,0.238-2.18,1.281-2.975
		c0.059-0.045,0.131-0.1,0.214-0.166c1.201,3.422,2.334,6.146,4.398,9.799c0,0.02-0.001,0.039-0.001,0.059
		C56.543,79.825,56.512,81.147,56.543,82.314"/>
	<path fill="#9C9FAF" d="M45.18,61.225c0,0-1.417,7.018-6.682,10.189c-5.263,3.17-14.507,4.453-17.071,3.508
		c-2.565-0.944-3.375-7.895-2.767-10.594c0.607-2.699,3.579-3.256,5.396-3.374c4.185-0.271,11.203-3.509,11.203-3.509
		S40.523,59.875,45.18,61.225"/>
	<path fill="#B6B7C3" d="M45.18,61.225L45.18,61.225 M45.18,61.225L45.18,61.225L45.18,61.225 M44.55,63.352
		C44.55,63.352,44.55,63.352,44.55,63.352c0.02-0.057,0.04-0.113,0.059-0.168C44.589,63.239,44.569,63.295,44.55,63.352
		 M38.583,71.362L38.583,71.362c1.11-0.683,2.047-1.537,2.834-2.458C40.631,69.825,39.693,70.679,38.583,71.362 M21.453,74.932
		c-0.001,0-0.002,0-0.002-0.002C21.451,74.932,21.452,74.932,21.453,74.932"/>
	<path fill="#7C8092" d="M38.583,71.362c-0.637-5.145-1.669-10.976-3.438-13.864c0.076-0.034,0.115-0.052,0.115-0.052
		s0.925,0.426,2.342,1.021c1.65,0.757,3.402,1.416,5.081,1.958c0.83,0.288,1.672,0.561,2.497,0.8l0,0
		c-0.005,0.027-0.167,0.81-0.57,1.959c-0.02,0.055-0.04,0.111-0.06,0.167c-0.39-0.553-0.883-1.056-1.506-1.384
		c-1.052-0.553-2.157-0.924-2.991-0.924c-0.927,0-1.52,0.457-1.334,1.626c0.284,1.794,1.101,6.029,2.7,6.234
		C40.63,69.825,39.693,70.679,38.583,71.362 M21.53,74.958c-0.026-0.008-0.052-0.018-0.077-0.025c-0.001,0-0.002,0-0.003-0.002
		c-0.007-0.002-0.016-0.006-0.023-0.008c-2.028-0.746-2.96-5.252-2.959-8.438c0-0.842,0.065-1.591,0.193-2.155
		c0.607-2.699,3.58-3.256,5.397-3.374c0.499-0.032,1.039-0.106,1.603-0.214c-0.139,0.47-0.369,0.988-0.678,1.646
		c-0.572,1.219-1.464,3.689-2.253,6.73l0,0C22.264,70.911,21.835,72.905,21.53,74.958"/>
	<path fill="#BBBECF" d="M50.372,5.697c0,0-1.589-0.366-5.257-2.077c-3.669-1.712-7.458-2.201-15.405,3.299
		c-7.947,5.502-16.261,12.104-15.161,22.252c1.101,10.148,4.036,17.607,9.537,26.287c2.12,3.913,2.12,4.319,0.896,6.93
		c-1.222,2.606-3.913,10.921-3.913,18.339c0.083,3.993,0.164,4.481,4.647,5.623c4.482,1.141,8.802,1.141,12.716-0.57
		c1.385-0.653,1.547-2.526,1.139-4.972c-0.407-2.445-1.181-18.87-4.727-23.76c5.013,2.934,12.419,4.905,15.206,5.031
		c2.407,7.158,3.378,10.577,6.556,16.201c-0.326,7.743,0.163,11.086,5.95,11.004c5.789-0.081,8.395-0.733,11.005-2.608
		c2.608-1.874,3.015-2.526,2.036-5.869c-0.977-3.342-3.465-11.472-6.03-14.895c-2.567-3.425-4.892-6.725-4.892-6.725
		s5.38-1.956,7.152-4.219c1.773-2.263-3.24-18.094-3.24-18.094L50.372,5.697"/>
	<path fill="#D9DBE4" d="M62.351,89.286c-4.489-0.002-5.68-2.163-5.809-6.972C56.671,87.123,57.863,89.284,62.351,89.286
		 M62.354,89.286L62.354,89.286"/>
	<path fill="#72778A" d="M56.543,82.314L56.543,82.314c-0.032-1.167,0-2.489,0.063-3.976c-0.046,1.083-0.075,2.08-0.076,2.992
		C56.53,81.67,56.534,81.999,56.543,82.314"/>
	<path fill="#D9DBE4" d="M25.811,59.78c0-1.007-0.52-2.098-1.724-4.322c-0.011-0.016-0.02-0.031-0.03-0.047
		c0.01,0.016,0.02,0.031,0.03,0.047C25.291,57.682,25.811,58.773,25.811,59.78 M31.635,87.144c-1.892,0-3.835-0.272-5.813-0.768
		C27.8,86.872,29.745,87.144,31.635,87.144 M31.64,87.144L31.64,87.144h0.003H31.64"/>
	<path fill="#72778A" d="M66.217,58.561c1.22-0.532,2.934-1.361,4.244-2.327C69.641,57.016,67.635,57.956,66.217,58.561"/>
	<path fill="#D9DBE4" d="M22.837,53.432c0,0-0.002-0.002-0.002-0.004C22.835,53.43,22.837,53.432,22.837,53.432 M22.863,53.477
		c-0.003-0.006-0.006-0.01-0.009-0.016C22.857,53.467,22.86,53.471,22.863,53.477 M22.896,53.528
		c-0.006-0.007-0.011-0.016-0.017-0.024C22.885,53.512,22.889,53.52,22.896,53.528 M22.93,53.586
		c-0.008-0.012-0.015-0.023-0.022-0.035C22.916,53.563,22.922,53.575,22.93,53.586 M22.959,53.635
		c-0.006-0.011-0.013-0.021-0.02-0.032C22.946,53.614,22.953,53.625,22.959,53.635 M23.022,53.741
		c-0.019-0.031-0.038-0.063-0.057-0.094C22.985,53.678,23.003,53.709,23.022,53.741 M23.053,53.792
		c-0.008-0.016-0.018-0.03-0.027-0.046C23.035,53.762,23.045,53.777,23.053,53.792 M23.115,53.893
		c-0.021-0.033-0.04-0.066-0.061-0.1C23.075,53.827,23.094,53.86,23.115,53.893 M24.021,55.354c-0.311-0.49-0.613-0.977-0.906-1.46
		C23.409,54.377,23.711,54.864,24.021,55.354 M24.05,55.401c-0.009-0.014-0.018-0.029-0.027-0.042
		C24.032,55.372,24.042,55.387,24.05,55.401"/>
	<path fill="#A5A9BE" d="M21.09,79.59c0-0.001,0-0.003,0-0.004C21.09,79.588,21.09,79.589,21.09,79.59 M21.089,79.639
		c0-0.006,0-0.007,0-0.011C21.089,79.631,21.089,79.635,21.089,79.639 M21.087,79.684c0-0.004,0-0.006,0-0.01
		C21.087,79.676,21.087,79.68,21.087,79.684 M21.085,79.735c0-0.006,0-0.012,0-0.019C21.085,79.723,21.085,79.729,21.085,79.735
		 M21.084,79.788c0-0.008,0-0.018,0-0.025C21.084,79.77,21.084,79.78,21.084,79.788 M21.083,79.833c0-0.009,0-0.019,0-0.026
		C21.083,79.815,21.083,79.825,21.083,79.833 M21.081,79.879c0.001-0.008,0.001-0.018,0.001-0.027
		C21.082,79.862,21.082,79.872,21.081,79.879 M21.081,79.926c0-0.01,0-0.02,0-0.029C21.081,79.907,21.081,79.917,21.081,79.926
		 M21.079,79.975c0-0.011,0-0.021,0-0.031C21.079,79.954,21.079,79.964,21.079,79.975 M21.078,80.022c0-0.012,0-0.021,0-0.031
		C21.079,80,21.078,80.01,21.078,80.022 M21.078,80.072c0-0.012,0-0.022,0-0.034C21.078,80.049,21.078,80.061,21.078,80.072
		 M21.076,80.118c0-0.012,0-0.023,0-0.035C21.076,80.094,21.076,80.106,21.076,80.118 M21.075,80.165
		c0-0.012,0.001-0.023,0.001-0.035C21.076,80.141,21.075,80.153,21.075,80.165 M21.074,80.21c0-0.012,0.001-0.024,0.001-0.037
		C21.075,80.186,21.074,80.199,21.074,80.21 M21.073,80.257c0-0.013,0-0.026,0-0.038C21.074,80.231,21.074,80.245,21.073,80.257
		 M21.072,80.304c0.001-0.013,0.001-0.026,0.001-0.039C21.073,80.278,21.073,80.292,21.072,80.304 M21.072,80.354
		c0-0.015,0-0.029,0-0.044C21.072,80.325,21.072,80.339,21.072,80.354 M21.071,80.399c0-0.014,0-0.029,0.001-0.043
		C21.071,80.37,21.071,80.385,21.071,80.399 M21.071,80.446c0-0.014,0-0.027,0-0.041C21.071,80.418,21.071,80.432,21.071,80.446
		 M21.07,80.491c0-0.014,0-0.025,0-0.039C21.07,80.464,21.07,80.479,21.07,80.491 M21.07,80.538c0-0.013,0-0.027,0-0.04
		C21.07,80.51,21.07,80.524,21.07,80.538 M21.07,80.584c0-0.014,0-0.028,0-0.042C21.07,80.556,21.07,80.571,21.07,80.584
		 M21.07,80.63c0-0.014,0-0.027,0-0.042C21.07,80.603,21.07,80.617,21.07,80.63 M21.07,80.678c0-0.014,0-0.029,0-0.044
		C21.07,80.649,21.07,80.665,21.07,80.678 M39.558,80.719c0,0,0,0,0-0.002C39.558,80.719,39.558,80.719,39.558,80.719 M21.07,80.726
		L21.07,80.726V80.68V80.726 M39.559,80.727v-0.002V80.727 M39.561,80.739c0-0.002,0-0.002,0-0.002S39.561,80.737,39.561,80.739
		 M39.562,80.747c0-0.002,0-0.004,0-0.006C39.562,80.743,39.562,80.745,39.562,80.747 M39.563,80.752c0-0.001,0-0.003,0-0.004
		C39.562,80.75,39.563,80.751,39.563,80.752 M39.564,80.759c0-0.001,0-0.002,0-0.002S39.564,80.758,39.564,80.759 M39.566,80.765
		C39.565,80.765,39.565,80.764,39.566,80.765C39.565,80.764,39.565,80.765,39.566,80.765 M39.567,80.777c0-0.001,0-0.001,0-0.003
		C39.566,80.776,39.567,80.776,39.567,80.777 M39.567,80.784c0-0.001,0-0.003,0-0.004C39.567,80.781,39.567,80.783,39.567,80.784
		 M39.569,80.792c0-0.002,0-0.004,0-0.005C39.569,80.788,39.569,80.79,39.569,80.792 M39.57,80.797c0-0.002-0.001-0.002-0.001-0.004
		C39.569,80.795,39.57,80.795,39.57,80.797 M39.767,82.864c0-0.619-0.07-1.312-0.195-2.057c0-0.002-0.001-0.005-0.001-0.008
		c0,0.003,0.001,0.006,0.001,0.008C39.697,81.552,39.767,82.245,39.767,82.864 M61.893,84.153c-4.358,0-1.427-4.159-4.308-8.318
		c-2.935-4.238-12.227-18.91-7.334-34.07c-1.794,2.282-4.078,9.781-2.935,15.323c0.344,1.673-0.53,2.321-2.042,2.321
		c-3.5,0-10.42-3.469-13.608-5.744c-4.564-3.261-7.172-3.098-9.292-12.227c-2.119-9.128-2.119-14.833-2.119-14.833
		s-2.935,14.833,5.542,25.103c5.511,4.881,9.351,4.746,11.22,10.755c-0.577-2.259-1.288-4.195-2.172-5.415
		c2.084,2.874,3.21,9.732,3.868,15.396l-0.037-0.033c0,0,0.651,6.031-3.75,6.684c-3.583,0.531-4.682,3.654-7.252,3.654
		c-0.587,0-1.251-0.162-2.04-0.557c-3.93-1.964-4.076-6.454-2.906-13.074c0.789-3.041,1.682-5.512,2.254-6.73
		c0.528-1.127,0.828-1.844,0.828-2.607c0-1.007-0.52-2.098-1.724-4.322c-0.011-0.016-0.02-0.031-0.03-0.047
		c-0.001-0.004-0.004-0.007-0.005-0.01c-0.01-0.014-0.018-0.029-0.027-0.042c0-0.002-0.002-0.004-0.003-0.005
		c-0.31-0.49-0.612-0.977-0.905-1.46c0,0,0-0.001-0.001-0.001c-0.02-0.033-0.04-0.066-0.06-0.1l-0.001-0.001
		c-0.01-0.016-0.018-0.03-0.027-0.046c-0.002-0.002-0.002-0.004-0.004-0.006c-0.018-0.031-0.037-0.063-0.056-0.094
		c-0.002-0.004-0.005-0.008-0.007-0.012c-0.006-0.011-0.013-0.021-0.02-0.032c-0.003-0.005-0.007-0.012-0.011-0.017
		c-0.007-0.012-0.013-0.023-0.021-0.035c-0.004-0.008-0.009-0.015-0.014-0.023c-0.004-0.008-0.009-0.016-0.015-0.024
		c-0.005-0.009-0.011-0.019-0.016-0.026c-0.002-0.006-0.005-0.01-0.008-0.016c-0.006-0.01-0.012-0.02-0.018-0.029
		c0,0-0.001-0.002-0.001-0.004c-3.399-5.67-5.684-10.934-7.073-16.949c1.269,4.819,4.203,11.478,7.051,15.593
		c3.421,4.939,5.068,6.207,4.434,8.487c-0.632,2.28-4.94,8.233,0.253,9.88c1.122,0.356,2.167,0.535,3.104,0.535
		c3.404,0,5.392-2.354,4.499-7.121c-1.141-6.082-3.432-6.082-8.424-10.537c-4.996-4.451-6.261-9.841-7.728-19.866
		c-0.981-6.699,0.769-10.669,1.964-10.669c0.594,0,1.051,0.978,0.97,3.088c0.733,13.204,4.728,22.251,15.65,25.023
		c1.057,0.268,1.986,0.391,2.805,0.391c7.644,0,5.723-10.591,9.258-11.475c0.175-0.044,0.333-0.066,0.474-0.066
		c2.986,0-1.632,9.723,1.481,20.932c2.232,8.035,6.481,11.176,10.216,11.176c1.719,0,3.33-0.666,4.582-1.827
		c3.976-3.68-3.386-8.097-5.742-13.986c-1.796-4.493,0.863-7.786,2.226-7.786c0.423,0,0.72,0.316,0.72,1.014
		c0,2.945-1.963,4.554,0.884,7.656c0.363,0.395,0.835,0.569,1.323,0.569c1.557,0,3.259-1.78,1.983-3.819
		c-1.673-2.678-1.226-5.576-1.226-5.576s0.168,0.488,0.469,1.241c0.64,1.825,1.514,3.681,2.643,5.292
		c0.33,0.504,0.677,0.975,1.037,1.381c-0.057,0.073-0.126,0.148-0.207,0.226c-1.311,0.966-3.025,1.795-4.244,2.327
		c-0.291,0.123-0.557,0.234-0.781,0.326c0.059-0.061,0.093-0.103,0.093-0.103s-4.366-2.464-3.583-8.508
		c-1.12,2.462-0.584,5.171,2.73,8.91c0,0,2.322,3.3,4.892,6.726c2.516,3.354,4.954,11.231,5.972,14.689
		c-0.012-0.037-0.021-0.072-0.033-0.111c-0.023-0.077-0.047-0.158-0.072-0.242c-0.002-0.007-0.003-0.013-0.004-0.02
		c-0.523-1.762-1.351-4.43-2.34-7.078c0.314,2.418,0.073,4.675-1.812,4.966c-4.237,0.652-4.401,5.869-9.128,6.032
		C62.062,84.151,61.977,84.153,61.893,84.153"/>
	<path fill="#CDCFDB" d="M21.09,79.586c0.054-1.537,0.213-3.1,0.44-4.629C21.303,76.487,21.145,78.049,21.09,79.586 M21.089,79.628
		c0-0.013,0-0.026,0.001-0.038C21.089,79.603,21.089,79.616,21.089,79.628 M21.087,79.674c0-0.013,0-0.024,0.001-0.035
		C21.088,79.65,21.088,79.662,21.087,79.674 M21.086,79.716c0-0.011,0-0.022,0.001-0.032C21.086,79.694,21.086,79.706,21.086,79.716
		 M21.085,79.762c0-0.01,0-0.018,0-0.027C21.085,79.745,21.085,79.752,21.085,79.762 M21.083,79.807c0-0.008,0-0.013,0-0.02
		C21.083,79.794,21.083,79.799,21.083,79.807 M21.081,79.852c0.001-0.007,0.001-0.012,0.001-0.019
		C21.083,79.84,21.083,79.845,21.081,79.852 M21.081,79.897c0-0.006,0-0.012,0-0.018C21.081,79.885,21.081,79.891,21.081,79.897
		 M21.079,79.944c0.001-0.006,0.001-0.012,0.001-0.018C21.08,79.932,21.08,79.938,21.079,79.944 M21.078,79.991
		c0-0.006,0-0.012,0.001-0.016C21.078,79.979,21.078,79.985,21.078,79.991 M21.078,80.038c0-0.006,0-0.012,0-0.016
		C21.078,80.026,21.078,80.032,21.078,80.038 M21.077,80.083c0-0.004,0-0.007,0-0.011C21.077,80.076,21.077,80.079,21.077,80.083
		 M21.076,80.129c0-0.004,0-0.008,0-0.012C21.076,80.122,21.076,80.125,21.076,80.129 M21.074,80.173c0-0.003,0-0.006,0.001-0.009
		C21.074,80.168,21.074,80.17,21.074,80.173 M21.074,80.219c0-0.004,0-0.006,0-0.009C21.074,80.213,21.074,80.217,21.074,80.219
		 M21.074,80.265c0-0.003,0-0.005,0-0.008C21.074,80.26,21.074,80.262,21.074,80.265 M21.073,80.31c0-0.001,0-0.003,0-0.006
		C21.073,80.307,21.073,80.309,21.073,80.31 M21.072,80.356v-0.002V80.356 M21.071,80.405c0-0.002,0-0.004,0-0.006
		C21.071,80.401,21.071,80.403,21.071,80.405 M21.071,80.452c0-0.002,0-0.004,0-0.006C21.071,80.448,21.071,80.45,21.071,80.452
		 M21.07,80.498v-0.007V80.498 M21.07,80.542v-0.005V80.542 M21.07,80.588v-0.004V80.588 M21.07,80.634V80.63V80.634 M21.07,80.68
		v-0.002V80.68 M39.558,80.717c-0.167-1.104-0.397-4.412-0.846-8.273C39.161,76.305,39.391,79.613,39.558,80.717 M39.559,80.725
		c0-0.002,0-0.004,0-0.006C39.558,80.721,39.558,80.723,39.559,80.725 M39.561,80.737c0-0.004,0-0.006-0.002-0.01
		C39.56,80.731,39.561,80.733,39.561,80.737 M39.562,80.741c0-0.001,0-0.002-0.001-0.002C39.562,80.739,39.562,80.74,39.562,80.741
		 M39.562,80.749c0,0,0-0.001,0-0.002C39.562,80.748,39.562,80.749,39.562,80.749 M39.564,80.757c0-0.001,0-0.003-0.001-0.005
		C39.564,80.754,39.564,80.756,39.564,80.757 M39.564,80.764c0-0.002,0-0.004,0-0.005C39.564,80.76,39.564,80.762,39.564,80.764
		 M39.566,80.774c0-0.004-0.001-0.006-0.001-0.009C39.565,80.768,39.566,80.77,39.566,80.774 M39.567,80.78c0-0.001,0-0.002,0-0.003
		C39.567,80.778,39.567,80.779,39.567,80.78 M39.568,80.787c0-0.001,0-0.001,0-0.003C39.568,80.786,39.568,80.786,39.568,80.787
		 M39.569,80.793c0-0.002,0-0.002,0-0.002S39.569,80.792,39.569,80.793 M39.571,80.799c0,0,0-0.001-0.001-0.002
		C39.571,80.798,39.571,80.799,39.571,80.799"/>
	<path fill="#878B9F" d="M21.53,74.958"/>
	<path fill="#6E7487" d="M21.53,74.958L21.53,74.958c0.305-2.053,0.734-4.047,1.199-5.84C22.264,70.913,21.835,72.905,21.53,74.958"
		/>
	<path fill="#9EA2B9" d="M25.822,86.376c-0.035-0.009-0.07-0.018-0.106-0.027C25.752,86.359,25.787,86.368,25.822,86.376
		 M31.643,87.144c1.908,0,3.761-0.276,5.539-0.88c0.026-0.01,0.051-0.019,0.078-0.027C35.458,86.858,33.578,87.144,31.643,87.144
		 M31.64,87.144h-0.004H31.64"/>
	<path fill="#8E93AC" d="M31.64,87.144h-0.004c-1.891,0-3.835-0.272-5.813-0.768c-0.035-0.009-0.07-0.018-0.106-0.027
		c-4.483-1.142-4.564-1.63-4.646-5.623V80.68v-0.002c0-0.014,0-0.029,0-0.044V80.63c0-0.014,0-0.027,0-0.042v-0.004
		c0-0.014,0-0.028,0-0.042v-0.005c0-0.014,0.001-0.027,0.001-0.04v-0.007c0-0.012,0-0.026,0-0.039c0-0.002,0-0.004,0-0.006
		c0-0.014,0-0.027,0-0.041c0-0.002,0-0.004,0-0.006c0-0.014,0-0.029,0-0.043v-0.002c0-0.015,0-0.029,0-0.044
		c0-0.001,0-0.003,0-0.006c0-0.013,0.001-0.026,0.001-0.039c0-0.003,0-0.005,0-0.008c0-0.013,0-0.026,0-0.038
		c0-0.002,0-0.006,0-0.009c0-0.012,0-0.024,0-0.037c0-0.003,0-0.005,0-0.009c0-0.012,0.001-0.023,0.001-0.035
		c0-0.004,0-0.008,0-0.012c0-0.012,0-0.023,0-0.035c0-0.004,0-0.007,0-0.011c0.001-0.011,0.001-0.022,0.001-0.034
		c0-0.006,0-0.012,0-0.016c0-0.012,0-0.021,0-0.031c0-0.006,0-0.012,0-0.016c0-0.011,0-0.021,0-0.031c0-0.006,0-0.012,0-0.018
		c0.001-0.01,0.001-0.02,0.001-0.029c0-0.006,0-0.012,0-0.018c0-0.008,0.001-0.018,0.001-0.027c0-0.007,0-0.012,0-0.019
		c0-0.009,0-0.019,0-0.026c0-0.008,0-0.013,0-0.02c0.001-0.008,0.001-0.017,0.001-0.025c0-0.01,0-0.018,0-0.027
		c0-0.006,0.001-0.012,0.001-0.019c0-0.011,0-0.022,0-0.032c0-0.004,0-0.008,0-0.01c0-0.013,0-0.024,0-0.035
		c0-0.004,0-0.008,0.001-0.011c0-0.013,0-0.025,0-0.037c0-0.002,0-0.003,0-0.005c0.127-3.604,0.827-7.34,1.639-10.469
		c-1.168,6.62-1.024,11.11,2.906,13.074c0.789,0.395,1.452,0.557,2.039,0.557c2.572,0,3.669-3.123,7.253-3.654
		c4.401-0.652,3.749-6.684,3.749-6.684l0.037,0.033c0.448,3.861,0.678,7.169,0.845,8.273c0,0.002,0,0.002,0,0.002
		c0,0.002,0,0.004,0,0.006c0,0,0,0.002,0.001,0.002c0,0.004,0,0.006,0.001,0.01c0,0,0,0,0,0.002c0,0,0,0.001,0,0.002
		c0.001,0.002,0.001,0.004,0.001,0.006c0,0.001,0,0.002,0,0.002c0,0.001,0,0.003,0,0.004c0,0.002,0,0.004,0.001,0.005
		c0,0,0,0.001,0,0.002s0.001,0.003,0.001,0.005v0.001c0.001,0.003,0.001,0.005,0.001,0.009c0,0.002,0,0.002,0,0.003
		c0,0.001,0,0.002,0,0.003s0,0.003,0,0.004c0,0.002,0,0.002,0.001,0.003c0,0.001,0,0.003,0,0.005c0,0,0,0,0,0.002
		s0,0.002,0.001,0.004c0,0.001,0,0.002,0,0.002c0,0.003,0,0.006,0.001,0.008c0.124,0.745,0.196,1.438,0.196,2.057
		c0,1.23-0.281,2.178-0.984,2.705c0.776-0.582,1.036-1.678,0.975-3.096c-0.198-0.27-0.434-0.491-0.682-0.491
		c-0.024,0-0.049,0.001-0.073,0.007c-0.673,0.122-0.736,3.057-0.736,3.057c0-0.002-0.016-0.041-0.047-0.107
		c-0.013-0.029-0.028-0.063-0.046-0.102l0,0c-0.297-0.635-1.256-2.505-2.263-2.505c-0.446,0-0.899,0.366-1.31,1.368
		c-0.392-0.875-1.035-1.429-1.717-1.429c-1.054,0-2.202,1.321-2.66,4.821c0.06,0.004,0.12,0.008,0.179,0.012h0.001
		c0.015,0,0.029,0.001,0.043,0.002c0.402,0.023,0.801,0.035,1.199,0.035c1.906,0,3.759-0.275,5.536-0.877
		c-1.778,0.604-3.631,0.88-5.539,0.88H31.64"/>
	<polyline fill="#8E93AC" points="38.447,85.772 38.451,85.77 38.447,85.772 	"/>
	<polyline fill="#8E93AC" points="38.461,85.764 38.466,85.762 38.461,85.764 	"/>
	<polyline fill="#8E93AC" points="38.479,85.756 38.48,85.754 38.479,85.756 	"/>
	<polyline fill="#8E93AC" points="38.495,85.749 38.5,85.746 38.495,85.749 	"/>
	<polyline fill="#8E93AC" points="38.509,85.741 38.513,85.738 38.509,85.741 	"/>
	<polyline fill="#8E93AC" points="38.525,85.731 38.527,85.731 38.526,85.731 	"/>
	<polyline fill="#8E93AC" points="38.542,85.723 38.546,85.72 38.542,85.723 	"/>
	<polyline fill="#8E93AC" points="38.556,85.715 38.561,85.713 38.556,85.715 	"/>
	<polyline fill="#8E93AC" points="38.57,85.708 38.574,85.705 38.57,85.708 	"/>
	<polyline fill="#8E93AC" points="38.587,85.698 38.592,85.694 38.587,85.698 	"/>
	<polyline fill="#8E93AC" points="38.601,85.69 38.606,85.686 38.601,85.69 	"/>
	<polyline fill="#8E93AC" points="38.615,85.68 38.62,85.678 38.615,85.68 	"/>
	<polyline fill="#8E93AC" points="38.632,85.67 38.639,85.667 38.632,85.67 	"/>
	<polyline fill="#8E93AC" points="38.645,85.663 38.651,85.659 38.645,85.663 	"/>
	<polyline fill="#8E93AC" points="38.658,85.655 38.664,85.651 38.658,85.655 	"/>
	<path fill="#8E93AC" d="M38.67,85.646c0.005-0.003,0.009-0.005,0.013-0.009C38.679,85.641,38.675,85.644,38.67,85.646"/>
	<polyline fill="#8E93AC" points="38.689,85.634 38.696,85.629 38.689,85.634 	"/>
	<polyline fill="#8E93AC" points="38.701,85.626 38.708,85.622 38.701,85.626 	"/>
	<path fill="#8E93AC" d="M38.711,85.62c0.006-0.004,0.011-0.008,0.016-0.012C38.723,85.612,38.717,85.616,38.711,85.62"/>
	<polyline fill="#8E93AC" points="38.731,85.606 38.74,85.6 38.731,85.606 	"/>
	<polyline fill="#8E93AC" points="38.743,85.598 38.751,85.591 38.743,85.598 	"/>
	<path fill="#8E93AC" d="M38.752,85.591c0.006-0.005,0.013-0.011,0.02-0.015C38.766,85.581,38.759,85.586,38.752,85.591"/>
	<polyline fill="#8E93AC" points="38.772,85.577 38.782,85.569 38.772,85.577 	"/>
	<path fill="#9EA2B9" d="M56.604,78.338c0.001-0.02,0.001-0.039,0.002-0.059C56.606,78.299,56.605,78.319,56.604,78.338
		 M62.354,89.286c0.066,0,0.135-0.001,0.203-0.002C62.489,89.285,62.422,89.286,62.354,89.286 M62.354,89.286h-0.003H62.354"/>
	<path fill="#8E93AC" d="M62.354,89.286h-0.003c-4.783-0.002-5.822-2.457-5.821-7.955c0-0.912,0.029-1.909,0.074-2.992
		c0.001-0.02,0.001-0.039,0.002-0.059c-3.178-5.624-4.149-9.043-6.556-16.201c-1.492-0.067-4.306-0.663-7.37-1.653
		c-1.678-0.542-3.43-1.201-5.08-1.958c-0.965-0.442-1.896-0.916-2.755-1.42c0.883,1.22,1.594,3.156,2.172,5.415
		c-1.871-6.009-5.709-5.874-11.22-10.755c-8.477-10.27-5.543-25.103-5.543-25.103s0,5.705,2.12,14.833
		c2.119,9.129,4.727,8.966,9.291,12.227c3.188,2.275,10.109,5.744,13.609,5.744c1.512,0,2.386-0.648,2.041-2.321
		c-1.142-5.542,1.142-13.041,2.935-15.323c-4.892,15.16,4.4,29.832,7.335,34.07c2.88,4.159-0.05,8.318,4.31,8.318
		c0.082,0,0.168-0.002,0.256-0.004c4.728-0.163,4.889-5.38,9.127-6.032c1.887-0.291,2.126-2.548,1.813-4.966
		c0.989,2.648,1.816,5.316,2.338,7.078c-0.022-0.003-0.045-0.004-0.068-0.004c-0.318,0-0.643,0.33-0.643,1.676
		c0,0.363,0.024,0.802,0.078,1.328c-0.609-0.942-1.527-1.633-2.298-1.633c-0.778,0-1.404,0.707-1.403,2.574
		c0,0.361,0.023,0.766,0.074,1.218c-0.66-1.319-1.758-2.318-2.656-2.318c-0.766,0-1.385,0.728-1.459,2.604
		c-0.004,0.133-0.006,0.264-0.006,0.395c0.002,1.154,0.105,2.226,0.348,2.92c0.01-0.002,0.02-0.004,0.03-0.004
		c0.002-0.002,0.005-0.002,0.007-0.002c0.008-0.002,0.017-0.002,0.023-0.004c0.005,0,0.012,0,0.016-0.002
		c0.005,0,0.011,0,0.016-0.002c0.006,0,0.012-0.002,0.018-0.002s0.01,0,0.014-0.002c0.006-0.001,0.015-0.002,0.022-0.002
		c0.001-0.002,0.005-0.002,0.007-0.002c0.009-0.002,0.018-0.003,0.025-0.004c0.002,0,0.004-0.001,0.005-0.001
		c2.56-0.36,4.255-1.052,5.942-2.258c-2.596,1.853-5.205,2.498-10.963,2.579C62.489,89.285,62.42,89.286,62.354,89.286"/>
	<path fill="#8E93AC" d="M73.523,86.704c0.005-0.004,0.011-0.008,0.017-0.012C73.534,86.696,73.528,86.7,73.523,86.704"/>
	<path fill="#8E93AC" d="M73.542,86.689c0.007-0.005,0.013-0.009,0.02-0.014C73.555,86.68,73.549,86.684,73.542,86.689"/>
	<path fill="#8E93AC" d="M75.506,80.491c-0.023-0.078-0.047-0.159-0.071-0.242C75.459,80.332,75.483,80.413,75.506,80.491"/>
	<path fill="#DADBE8" d="M75.598,80.806c-0.052-0.178-0.108-0.372-0.17-0.577c-0.424-0.059-0.898,0.392-0.633,3
		c-1.346-2.08-4.197-2.936-3.627,2.159c-1.223-2.445-3.953-3.79-4.115,0.286c-0.025,1.302,0.072,2.541,0.342,3.314
		c2.684-0.357,4.426-1.063,6.167-2.313C76.17,84.801,76.577,84.149,75.598,80.806"/>
	<path fill="#DADBE8" d="M39.003,81.989c-0.673,0.122-0.735,3.057-0.735,3.057s-2.14-5.074-3.668-1.346
		c-0.998-2.228-3.623-2.371-4.375,3.393c2.866,0.196,5.625-0.184,8.208-1.313c1.049-0.495,1.396-1.691,1.326-3.306
		C39.541,82.176,39.278,81.939,39.003,81.989"/>
	<path fill="#8187A3" d="M30.403,87.104c-0.06-0.004-0.119-0.009-0.179-0.012C30.284,87.095,30.343,87.1,30.403,87.104
		 M30.447,87.106c-0.014-0.001-0.028-0.002-0.042-0.002C30.418,87.104,30.433,87.105,30.447,87.106"/>
	<path fill="#BEC2D8" d="M31.641,87.141c-0.396,0-0.794-0.012-1.194-0.035c-0.014-0.001-0.029-0.002-0.042-0.002h-0.003
		c-0.058-0.004-0.119-0.008-0.177-0.012c0.458-3.5,1.604-4.821,2.659-4.821c0.681,0,1.324,0.554,1.716,1.429
		c0.411-1.002,0.865-1.367,1.311-1.367c0.322,0,0.639,0.191,0.93,0.471c-0.25,0.008-0.512,0.109-0.767,0.331
		c-0.563,0.491-1.011,1.27-1.144,1.991c-0.25-0.914-0.652-1.977-1.478-2.128c-0.054-0.01-0.107-0.015-0.159-0.015
		c-1.106,0-1.638,2.176-1.491,2.973c0.122,0.667,0.593,0.969,1.233,0.969c0.032,0,0.064-0.002,0.096-0.002
		c0.582-0.026,1.134-0.3,1.716-0.357c0.583-0.058,1.168-0.037,1.749-0.117C34.998,86.922,33.341,87.141,31.641,87.141"/>
	<polyline fill="#DADCE8" points="38.432,85.779 38.432,85.779 38.439,85.775 38.432,85.779 	"/>
	<path fill="#8187A3" d="M38.221,84.938c-0.013-0.029-0.029-0.063-0.046-0.102l0,0C38.192,84.875,38.208,84.909,38.221,84.938
		 M38.268,85.045L38.268,85.045"/>
	<path fill="#BEC2D8" d="M37.33,86.211c0.513-0.293,0.767-0.799,0.845-1.375c0.018,0.039,0.033,0.072,0.046,0.102
		c0.03,0.066,0.046,0.105,0.047,0.106c0,0,0.062-2.934,0.735-3.056c0.023-0.006,0.049-0.007,0.073-0.007
		c0.248,0,0.484,0.221,0.682,0.491c0.003,0.096,0.007,0.191,0.007,0.285c-0.051-0.018-0.103-0.025-0.155-0.025
		c-0.12,0-0.242,0.047-0.365,0.162c-0.425,0.402-0.557,1.423-0.604,1.955c-0.021,0.241-0.035,0.536,0.017,0.801
		c-0.07,0.045-0.143,0.087-0.219,0.124c-0.001,0.001-0.005,0.002-0.007,0.004C38.066,85.938,37.7,86.081,37.33,86.211"/>
	<path fill="#7F85A0" d="M45.114,3.619c-0.096-0.044-0.19-0.088-0.285-0.13C44.923,3.531,45.019,3.574,45.114,3.619"/>
	<path fill="#6A728E" d="M70.736,56.024c-0.393-0.438-0.76-0.906-1.104-1.396c-1.158-1.767-2.109-3.95-2.643-5.292
		c-1.223-3.485-1.592-6.862-1.252-8.224c-2.607-0.814-5.381-2.771-6.357-5.217c-0.671,1.787-2.104,2.732-4.146,2.732
		c-0.939,0-2.008-0.201-3.19-0.611C42.914,35.732,38.35,27.582,37.37,25.789c-0.978-1.793-0.162-2.609-0.162-2.609
		s-0.049,0.019-0.133,0.019c-0.353,0-1.328-0.319-1.986-3.605c-1.957-7.499,0.815-12.225,3.261-12.225s7.172-0.491,7.662-2.119
		c0.144-0.479-0.421-1.13-1.285-1.806c0.034,0.015,0.067,0.029,0.102,0.045c0.096,0.042,0.19,0.085,0.286,0.131
		c1.84,0.858,3.157,1.377,4.012,1.683c-1.572,0.587-3.108,1.136-4.5,1.576c-3.192,1.012-4.648,1.153-5.546,1.153
		c-0.177,0-0.331-0.005-0.474-0.011c-0.142-0.006-0.272-0.011-0.397-0.011c-0.089,0-0.178,0.003-0.266,0.011
		c-0.961,0.08-2.784,2.515-2.852,6.38v0.002c-0.001,0.023-0.001,0.047-0.001,0.07c0,0,0,0.002,0,0.003
		c-0.001,0.011-0.001,0.022-0.001,0.034c0,0.002,0,0.003,0,0.005c0,0.01,0,0.02,0,0.03c0,0.001,0,0.002,0,0.004
		c0,0.01,0,0.021,0,0.032v0.008v0.033c0.245,3.993,0.815,4.238,0.815,4.238s0.815-0.245,1.304-0.245
		c-0.48,0.384-0.658,0.844-0.658,1.339c0,0.766,0.426,1.618,0.82,2.41c0.326,0.082,0.569,0.102,0.732,0.102
		c0.165,0,0.247-0.021,0.247-0.021s-0.397,0.651-0.399,1.52c0,0.435,0.099,0.925,0.399,1.415c0.896,1.467,4.076,6.766,8.314,8.885
		c2.445,1.363,5.404,3.296,7.909,3.296c1.839,0,3.432-1.041,4.4-4.11c1.992,3.188,5.076,5.909,7.727,7.399l0.002,0.001
		c0.009,0.004,0.018,0.01,0.027,0.014c0.002,0.002,0.004,0.002,0.006,0.004c0.008,0.004,0.016,0.008,0.022,0.013
		c0.005,0.001,0.007,0.004,0.012,0.006c0.007,0.003,0.013,0.006,0.018,0.009c0.006,0.003,0.011,0.006,0.015,0.008
		c0.006,0.004,0.012,0.006,0.016,0.008c0.006,0.004,0.013,0.007,0.02,0.011c0.004,0.002,0.008,0.004,0.011,0.006
		c0.011,0.005,0.021,0.011,0.03,0.016c0,0-0.113,0.556-0.113,1.563c0,2.288,0.586,6.905,4.434,12.62
		c0.076,0.099,0.15,0.195,0.229,0.288C71.219,55.625,70.987,55.828,70.736,56.024"/>
	<path fill="#626A87" d="M69.631,54.627c-1.129-1.611-2.003-3.467-2.643-5.292C67.523,50.678,68.473,52.861,69.631,54.627"/>
	<path fill="#BBBECF" d="M113.192,11.861c0,0-8.49-2.354-15.693-8.559c-2.996-2.711-5.563-3.139-7.563-1.999
		c-1.996,1.142-2.781,1.213-2.781,1.213s-2.854-2.782-9.844-2.497c-6.063,0.499-9.699,3.852-9.699,3.852s-2.713-3.495-5.207-3.281
		C59.906,0.804,50.846,4.91,44.625,6.878c-3.819,1.21-5.152,1.177-6.019,1.143c-0.244-0.009-0.449-0.019-0.664,0
		c-0.979,0.081-2.854,2.607-2.854,6.602c0.245,3.993,0.815,4.238,0.815,4.238s0.815-0.245,1.304-0.245
		c-1.222,0.978-0.488,2.445,0.162,3.749c0.654,0.164,0.979,0.082,0.979,0.082s-0.897,1.469,0,2.935
		c0.897,1.467,4.075,6.766,8.314,8.885c4.239,2.364,10.025,6.439,12.31-0.814c2.036,3.259,5.215,6.03,7.904,7.498
		c0,0-1.222,5.951,4.32,14.183c3.667,4.809,9.861,3.752,14.67,4.89c6.195,1.468,13.939,3.913,17.118,8.804
		c-0.488,1.631,3.261,2.689,5.786,2.037c2.529-0.65,2.934-1.629,2.039-3.667c-0.896-2.038-1.143-2.201-0.814-3.179
		c0.325-0.979-0.488-1.957-2.121-1.63c-1.629,0.325-1.33-0.08-5.623-3.75c-5.053-4.319-9.535-7.417-11.492-8.64
		s-2.609-2.201-1.061-5.543s2.607-5.461,2.936-7.906c1.384,2.689,3.83,2.608,6.193,1.466c2.363-1.14,3.586-2.2,3.586-2.2
		l0.026-1.071c0,0,0.396,0.355,0.751,0.316c0.357-0.04,3.625-2.017,5.864-5.889c2.245-3.871,3.222-5.787,2.691-6.725l0.611-0.121
		c0,0,1.142-2.121,1.181-2.568c0.041-0.448-0.283-1.1-0.283-1.1s0.529,0.245,0.979,0.164c0.447-0.083,1.018-1.59,1.303-3.342
		C115.824,13.726,116.347,12.849,113.192,11.861"/>
	<path fill="#9297B0" d="M72.394,13.321c-0.354,0-0.65,0.682-0.668,1.536c-0.017,0.866,0.26,1.579,0.618,1.595h0.012
		c0.352,0,0.65-0.681,0.666-1.537c0.018-0.864-0.258-1.578-0.615-1.595H72.394 M70.793,17.538c0,0,0.221-0.482,1.012-0.878
		c-0.516-0.731-0.652-3.65,0.494-3.65c0.025,0,0.051,0,0.076,0.004c1.231,0.131,0.791,3.339,0.791,3.339s0.049-0.021,0.161-0.021
		c0.165,0,0.469,0.046,0.954,0.271c-0.004,0.001-0.01,0.003-0.013,0.004c-0.28-0.061-0.558-0.09-0.83-0.09
		c-0.651,0-1.263,0.167-1.778,0.467C71.112,17.25,70.793,17.538,70.793,17.538"/>
	<path fill="#9297B0" d="M85.811,12.771c-0.354,0-0.652,0.683-0.666,1.537c-0.019,0.865,0.258,1.579,0.616,1.594h0.013
		c0.354,0,0.65-0.681,0.666-1.535c0.016-0.865-0.258-1.58-0.616-1.595C85.82,12.772,85.816,12.771,85.811,12.771 M87.755,16.748
		c-0.351-0.187-0.698-0.331-1.032-0.44c-0.557-0.206-1.22-0.346-1.822-0.346c-0.067,0-0.133,0.001-0.199,0.005
		c-0.029-0.001-0.057-0.001-0.084-0.001C84.245,15.966,84.02,16,84.02,16s0.213-0.32,0.736-0.32c0.059,0,0.121,0.004,0.187,0.013
		c-0.261-1.087-0.263-3.208,0.802-3.208h0.033c1.582,0.219,0.748,3.559,0.748,3.559S86.963,16.088,87.755,16.748"/>
	<path fill="#D9DBE4" d="M109.999,64.008v-0.002c0,0,0.002-0.001,0.002-0.002c0-0.002,0.002-0.004,0.002-0.008
		c0,0,0.002-0.001,0.002-0.002c0-0.002,0-0.004,0-0.007c0,0,0-0.001,0.002-0.003c0-0.002,0.002-0.004,0.002-0.008
		c0-0.001,0.002-0.002,0.002-0.004s0.001-0.004,0.001-0.004c0-0.002,0-0.004,0.001-0.006c0,0,0-0.002,0-0.004
		c0.021-0.072,0.037-0.145,0.045-0.216C110.047,63.831,110.028,63.919,109.999,64.008"/>
	<path fill="#A5A9BE" d="M35.089,14.473c0.001-0.023,0.001-0.047,0.002-0.07C35.09,14.426,35.09,14.45,35.089,14.473 M35.089,14.51
		c0-0.011,0-0.023,0-0.034C35.089,14.487,35.089,14.499,35.089,14.51 M35.089,14.546c0-0.01,0-0.021,0-0.03
		C35.089,14.525,35.089,14.536,35.089,14.546 M35.089,14.582c0-0.011,0-0.021,0-0.032C35.089,14.56,35.089,14.571,35.089,14.582
		 M35.089,14.623L35.089,14.623V14.59V14.623 M66.727,40.866c-0.007-0.004-0.018-0.01-0.025-0.014
		C66.709,40.856,66.72,40.861,66.727,40.866 M66.757,40.883c-0.009-0.005-0.015-0.009-0.022-0.013
		C66.743,40.874,66.749,40.878,66.757,40.883 M66.786,40.898c-0.004-0.003-0.011-0.007-0.017-0.009
		C66.775,40.892,66.782,40.896,66.786,40.898 M66.817,40.915c-0.005-0.002-0.01-0.005-0.015-0.008
		C66.807,40.91,66.812,40.913,66.817,40.915 M66.848,40.933c-0.004-0.002-0.008-0.004-0.012-0.006
		C66.84,40.929,66.844,40.93,66.848,40.933 M110.011,63.969c0-0.002,0-0.004,0.001-0.006
		C110.011,63.965,110.011,63.967,110.011,63.969 M110.008,63.977c0-0.001,0.002-0.002,0.002-0.004
		C110.01,63.975,110.008,63.976,110.008,63.977 M110.004,63.988c0,0,0-0.001,0.002-0.003
		C110.004,63.987,110.004,63.987,110.004,63.988 M110.002,63.997c0,0,0.002-0.001,0.002-0.002
		C110.004,63.996,110.002,63.997,110.002,63.997 M109.999,64.006c0,0,0.002-0.001,0.002-0.002
		C110,64.005,109.999,64.006,109.999,64.006 M103.284,67.305c-0.668,0-1.857-0.774-4.495-3.167
		c-5.258-4.768-15.405-5.502-19.929-6.235c-4.523-0.732-6.604-0.732-9.17-6.725c-2.568-5.991-0.549-10.206-2.08-11.896
		c-1.533-1.692-2.59-4.015-1.691-5.072c0.732-0.861,1.359-2.179,0.908-2.179c-0.104,0-0.261,0.068-0.485,0.224
		c-1.185,1.049-2.3,1.235-3.103,1.235c-0.221,0-0.418-0.014-0.586-0.028c-0.169-0.014-0.309-0.028-0.414-0.028
		c-0.158,0-0.24,0.032-0.229,0.143c0.052,0.528,0.738,0.95,1.796,1.162c0.548,2.192,0.657,3.608-0.151,3.608
		c-0.183,0-0.412-0.072-0.692-0.222c1.24,1.115,2.532,2.047,3.738,2.725c-2.651-1.49-5.735-4.211-7.728-7.399
		c-2.493-2.782-3.337-4.977-3.335-6.723c0.004-3.167,2.79-4.861,3.578-5.912c1.223-1.631,1.548-2.444,2.364-5.624
		c0.574-2.241,1.674-4.32,1.674-6.438c0-0.885-0.191-1.777-0.697-2.69c-0.848-1.534-2.096-2.088-3.516-2.088
		c-1.447,0-3.072,0.574-4.634,1.274c-1.537,0.686-4.113,1.774-6.87,2.697c0.001,0,0.003-0.001,0.004-0.001
		c-1.923,0.644-3.932,1.206-5.734,1.497c-0.25,0.039-0.495,0.073-0.733,0.102c-0.133,0.012-0.249,0.026-0.348,0.039
		c-0.421,0.042-0.828,0.067-1.21,0.068h-0.024c-1.718,0-2.895,0.441-3.695,0.988c-0.395,1.009-0.68,2.28-0.706,3.762
		c0.067-3.866,1.891-6.301,2.852-6.38c0.089-0.008,0.177-0.011,0.266-0.011c0.125,0,0.256,0.005,0.397,0.011
		s0.297,0.011,0.472,0.011c0.899,0,2.355-0.142,5.547-1.153c6.221-1.968,15.281-6.074,17.779-6.288
		c0.073-0.006,0.148-0.009,0.223-0.009c2.431,0,4.984,3.291,4.984,3.291s3.637-3.353,9.699-3.852C77.649,0.007,77.974,0,78.292,0
		c0.555,0,1.083,0.02,1.581,0.056l-0.18,0.1c0,0-8.518,0.089-11.093,5.945c-0.084,0.196-0.166,0.283-0.257,0.283
		c-0.482,0-1.193-2.452-3.557-3.743c-0.918-0.5-1.627-0.695-2.121-0.695c-1.082,0-1.136,0.939-0.098,1.671
		c1.508,1.065,3.193,3.195,1.508,8.075c-1.416,4.096-1.268,5.567,0.391,5.567c0.318,0,0.689-0.054,1.119-0.154
		c0,0-5.434,2.284-5.678,5.34c-0.025,0.311,0.083,0.448,0.316,0.448c0.816,0,3.16-1.668,6.664-3.336
		c1.068-0.507,2.242-1.016,3.515-1.476c-0.075,0.036-0.152,0.072-0.229,0.11c0,0,0.229-0.102,0.65-0.26
		c1.906-0.663,4.021-1.214,6.311-1.499c1.016-0.122,2.115-0.197,3.27-0.197c2.445,0,5.154,0.338,7.922,1.301
		c-0.408-0.177-0.83-0.347-1.266-0.506c0.839,0.209,1.693,0.465,2.557,0.77c-2.022-0.357-4.547-0.676-7.378-0.676
		c-5.895,0-13.114,1.381-19.887,6.667c-2.845,2.069-2.527,5.719,0.95,5.719c1.454,0,3.461-0.639,6.02-2.297
		c0.193-0.119,0.357-0.175,0.498-0.175c2.885,0-4.6,24.11,6.594,28.541c5.99,1.835,17.116,2.323,22.862,7.703
		c1.174,1.101,2.128,1.485,2.964,1.485c1.95,0,3.26-2.097,5.229-2.097c0.393,0,0.771-0.129,1.129-0.343
		c1.014,0.044,1.545,0.695,1.459,1.415c-0.008,0.071-0.023,0.144-0.045,0.216c0.184-0.633-0.111-1.253-0.793-1.51
		c-0.006,0-0.008,0-0.014,0c-1.678,0-3.674,2.226-4.568,3.388C104.096,66.542,103.948,67.305,103.284,67.305"/>
	<path fill="#D9DBE4" d="M87.155,2.517L87.155,2.517L87.155,2.517 M92.629,36.589c0-0.003,0-0.007,0-0.01
		C92.629,36.583,92.629,36.586,92.629,36.589 M92.624,36.623c0.001-0.004,0.002-0.008,0.002-0.012
		C92.625,36.616,92.625,36.619,92.624,36.623 M92.62,36.655c0-0.004,0.001-0.007,0.002-0.011
		C92.621,36.648,92.62,36.651,92.62,36.655 M92.616,36.687c0-0.003,0-0.005,0-0.008C92.616,36.681,92.616,36.685,92.616,36.687
		 M92.604,36.752c0,0,0.002,0,0.002,0C92.606,36.752,92.604,36.752,92.604,36.752 M92.6,36.786L92.6,36.786L92.6,36.786"/>
	<path fill="#A5A9BE" d="M91.596,40.019c2.355-8.13-1.264-14.966-4.789-16.838c-2.521-1.392-5.026-1.839-7.209-1.839
		c-3.957,0-6.852,1.474-6.852,1.474s2.51-1.642,5.983-2.094c0.444-0.05,0.913-0.089,1.399-0.109c0.062,0,0.123,0,0.186,0
		c4.693,0,7.799,1.577,9.994,3.154c2.195,1.577,3.484,3.154,4.549,3.154c0.348,0,0.673-0.169,0.996-0.561
		c2.323-2.812,0.489-7.947-5.258-10.148c0.088,0.009,0.174,0.013,0.254,0.013c3.453,0-0.898-7.512-2.333-9.305
		c-1.442-1.803,4.324-5.26,2.775-5.26c-0.024,0-0.055,0.001-0.085,0.002c-1.491,0.101-2.982,2.221-3.882,2.221
		c-0.206,0-0.382-0.112-0.519-0.386c-0.734-1.468-4.891-3.177-4.891-3.177l0.002-0.006c3.65,0.671,5.226,2.192,5.236,2.204v0
		c0,0,0.785-0.072,2.781-1.213c0.676-0.385,1.415-0.592,2.215-0.592c1.566,0,3.363,0.794,5.348,2.59
		c7.203,6.205,15.693,8.559,15.693,8.559c2.088,0.654,2.565,1.259,2.565,2.103c0,0.427-0.121,0.917-0.218,1.503
		c0.08-0.497,0.182-0.923,0.21-1.302c-0.53-0.224-1.19-0.428-1.994-0.546c-0.804-0.117-2.173-0.552-3.813-1.214
		c0,0.001,0.002,0.001,0.002,0.001c-1.807-0.729-3.942-1.734-6.02-2.898c0.004,0,0.005,0.001,0.006,0.002
		c-1.334-0.749-2.646-1.562-3.826-2.41c-0.594-0.425-1.152-0.857-1.666-1.296c-2.336-1.988-3.645-3.126-4.864-3.126
		c-1.177,0-2.271,1.06-4.13,3.436c4.217,6.637,4.527,10.544,4.527,10.544s5.768,1.861,6.203,5.521
		c0.021,0.179,0.031,0.359,0.031,0.539c-0.003,3.507-3.941,7.26-7.6,10.563c0.063,1.301,0.078,2.167,0.078,2.709
		c0,0.309-0.004,0.512-0.009,0.631c0.822,1.543,2.005,2.143,3.316,2.143c0.66,0,1.353-0.151,2.05-0.412
		c-0.697,0.261-1.392,0.413-2.053,0.413c-1.333,0-2.531-0.619-3.354-2.218c-0.002,0.01-0.004,0.02-0.006,0.032
		c0,0.003,0,0.007,0,0.01c-0.002,0.008-0.002,0.015-0.004,0.021c0,0.003-0.001,0.008-0.002,0.012
		c-0.001,0.007-0.002,0.014-0.002,0.021c-0.001,0.004-0.002,0.008-0.002,0.011c-0.002,0.007-0.002,0.015-0.004,0.023
		c0,0.003,0,0.005,0,0.009c-0.004,0.022-0.007,0.044-0.01,0.065l-0.002,0c-0.002,0.011-0.003,0.022-0.004,0.033v0.001
		c-0.152,0.988-0.426,1.931-0.803,2.931c0.051-0.136,0.101-0.271,0.148-0.404C91.845,39.522,91.729,39.76,91.596,40.019"/>
	<path fill="#F5A2C5" d="M59.216,20.816c1.223-1.631,1.548-2.444,2.364-5.624c0.814-3.179,2.688-6.031,0.977-9.129
		s-5.053-2.201-8.15-0.814C51.31,6.635,43.974,9.651,39.492,9.651c-1.718,0-2.895,0.441-3.695,0.988
		c-0.415,1.059-0.708,2.406-0.708,3.984c0.244,3.993,0.815,4.238,0.815,4.238s0.815-0.245,1.304-0.245
		c-1.223,0.978-0.489,2.445,0.163,3.749c0.653,0.164,0.979,0.082,0.979,0.082s-0.897,1.469,0,2.935
		c0.897,1.467,4.075,6.766,8.314,8.885c4.239,2.364,10.025,6.439,12.309-0.814C51.961,25.626,57.993,22.446,59.216,20.816"/>
	<path fill="#F5A2C5" d="M98.438,5.804c-4.592-3.909-5.211-4.527-8.994,0.31c4.217,6.637,4.527,10.544,4.527,10.544
		s5.768,1.861,6.203,5.521c0.432,3.659-3.723,7.628-7.568,11.102c0.098,2.043,0.08,3.015,0.069,3.34
		c1.392,2.612,3.813,2.523,6.153,1.393c2.363-1.14,3.586-2.2,3.586-2.2l0.026-1.071c0,0,0.396,0.355,0.751,0.316
		c0.357-0.04,3.625-2.016,5.864-5.889c2.245-3.871,3.222-5.787,2.691-6.725l0.611-0.121c0,0,1.142-2.121,1.181-2.568
		c0.041-0.448-0.283-1.1-0.283-1.1s0.529,0.245,0.979,0.164c0.447-0.083,1.018-1.59,1.303-3.342
		c0.081-0.502,0.184-0.932,0.212-1.313c-0.53-0.224-1.19-0.428-1.994-0.546C111.213,13.248,103.026,9.711,98.438,5.804"/>
	<path d="M73.022,14.916c-0.018,0.866-0.321,1.553-0.678,1.537c-0.357-0.016-0.635-0.729-0.617-1.595
		c0.018-0.864,0.32-1.552,0.68-1.536C72.764,13.336,73.04,14.051,73.022,14.916"/>
	<path fill="#FFFFFF" d="M72.846,14.407c0.016,0.337-0.1,0.615-0.258,0.62s-0.301-0.265-0.316-0.603
		c-0.016-0.338,0.1-0.616,0.26-0.622C72.688,13.799,72.831,14.068,72.846,14.407"/>
	<path d="M86.44,14.367c-0.016,0.865-0.322,1.552-0.679,1.535c-0.358-0.016-0.635-0.729-0.616-1.594
		c0.016-0.864,0.32-1.552,0.679-1.536C86.182,12.788,86.456,13.502,86.44,14.367"/>
	<path fill="#FFFFFF" d="M86.264,13.857c0.015,0.338-0.102,0.616-0.26,0.621s-0.3-0.265-0.315-0.603
		c-0.017-0.337,0.101-0.615,0.259-0.62C86.106,13.249,86.247,13.519,86.264,13.857"/>
	<path fill="#9297B0" d="M69.893,11.688c0.202-1.566,0.551-2.188,0.963-2.188c0.416,0,0.896,0.627,1.358,1.553
		c-0.429-0.568-0.798-0.774-1.108-0.774C70.295,10.28,69.893,11.688,69.893,11.688"/>
	<path fill="#9297B0" d="M83.959,10.089c0.5-1.35,1.037-1.884,1.52-1.884c0.567,0,1.059,0.739,1.332,1.758
		c-0.461-0.867-0.922-1.162-1.336-1.162C84.612,8.802,83.959,10.089,83.959,10.089"/>
	<path fill="#5B6072" d="M69.893,11.28c0,0,0.77-2.689,2.321-0.634C71.292,8.8,70.299,8.14,69.893,11.28"/>
	<path fill="#5B6072" d="M83.959,9.681c0,0,1.426-2.81,2.852-0.126C86.307,7.669,85.049,6.745,83.959,9.681"/>
	<path fill="#A5A9BE" d="M74.428,30.759c1.029-1.135,2.135-1.968,3.266-2.554c1.078-0.439,2.955-1.044,5.085-1.044
		c1.015,0,2.088,0.137,3.159,0.495c-0.037-0.021-0.072-0.04-0.109-0.059c1.04,0.352,1.936,0.845,2.609,1.398
		c-2.072-1.036-4.008-1.42-5.738-1.42C77.719,27.575,74.428,30.759,74.428,30.759"/>
	<path fill="#A5A9BE" d="M77.661,33.698c1.686-1.734,3.68-2.45,5.574-2.45c1.957,0,3.809,0.766,5.104,1.96
		c-1.543-0.979-3.129-1.32-4.594-1.32C80.375,31.888,77.661,33.698,77.661,33.698"/>
	<path fill="#A5A9BE" d="M87.752,38.889c-1.313-1.163-2.783-1.521-4.098-1.521c-2.12,0-3.838,0.934-3.838,0.934
		c1.221-0.968,2.602-1.394,3.892-1.394C85.42,36.908,86.969,37.66,87.752,38.889"/>
	<path fill="#A5A9BE" d="M72.959,44.375c3.703-3.553,7.303-4.729,10.162-4.729c2.737,0,4.795,1.079,5.609,2.181
		c-1.779-1.242-3.648-1.709-5.455-1.709C77.823,40.119,72.959,44.375,72.959,44.375"/>
	<path fill="#A5A9BE" d="M82.756,46.726c0.564-0.565,1.157-0.835,1.721-0.835c0.509,0,0.994,0.221,1.412,0.64
		c-0.427-0.161-0.854-0.218-1.25-0.218C83.584,46.313,82.756,46.726,82.756,46.726"/>
	<path fill="#A5A9BE" d="M76.289,52.506c2.473-3.93,5.642-5.111,7.995-5.111c0.672,0,1.276,0.096,1.78,0.252
		c-0.055,0.107-0.101,0.213-0.138,0.313c-0.334-0.039-0.662-0.058-0.983-0.058C79.836,47.903,76.289,52.506,76.289,52.506"/>
	<path fill="#A5A9BE" d="M83.147,56.817c1.44-2.963,3.996-4.551,6.431-4.551c0.545,0,1.084,0.078,1.603,0.24
		c-0.113-0.004-0.229-0.006-0.34-0.006C85.682,52.5,83.147,56.817,83.147,56.817"/>
	<path fill="#A5A9BE" d="M91.473,57.502c0.691-1.458,1.742-2.373,3.012-2.373c0.352,0,0.721,0.069,1.103,0.219
		C92.747,55.446,91.473,57.502,91.473,57.502"/>
	<path fill="#A5A9BE" d="M96.667,61.225c0.16-1.37,1.449-2.873,3.48-2.873c0.18,0,0.363,0.013,0.555,0.037
		c0.072,0.057,0.121,0.082,0.148,0.082c0.023,0,0.028-0.02,0.018-0.058c0.225,0.037,0.457,0.091,0.697,0.166
		c-0.121-0.007-0.24-0.009-0.355-0.009C97.856,58.571,96.667,61.225,96.667,61.225"/>
	<path fill="#A5A9BE" d="M100.78,60.343c0.533-0.652,1.031-0.946,1.428-0.946c0.26,0,0.475,0.127,0.629,0.358
		c-0.072-0.007-0.144-0.01-0.215-0.01C101.635,59.746,100.78,60.343,100.78,60.343"/>
	<path fill="#A88FAE" d="M103.93,9.511c-0.001-0.001-0.002-0.002-0.006-0.002c-1.332-0.748-2.641-1.561-3.82-2.408
		C101.285,7.949,102.596,8.762,103.93,9.511 M113.755,13.619c-0.804-0.118-2.171-0.551-3.812-1.213c0,0-0.002,0-0.002-0.001
		C111.583,13.067,112.952,13.501,113.755,13.619"/>
	<path fill="#F38AB6" d="M95.992,38.765c-1.312,0-2.494-0.6-3.316-2.143c0.005-0.119,0.009-0.322,0.009-0.631
		c0-0.542-0.016-1.408-0.078-2.709c3.658-3.304,7.597-7.056,7.6-10.563c0-0.18-0.01-0.36-0.031-0.539
		c-0.436-3.66-6.203-5.521-6.203-5.521s-0.311-3.907-4.527-10.544c1.858-2.376,2.953-3.436,4.13-3.436
		c1.22,0,2.528,1.138,4.864,3.126c0.514,0.438,1.072,0.871,1.666,1.296c1.18,0.847,2.488,1.66,3.82,2.408
		c-0.361-0.144-0.73-0.312-1.102-0.511c-2.959-1.577-5.678-3.551-7.453-3.551c-0.426,0-0.799,0.113-1.105,0.374
		c-1.589,1.345,1.59,8.437,4.891,11.003c3.301,2.568,3.789,5.624,1.469,9.048c-2.324,3.423-2.69,6.113-2.202,8.192
		c0.159,0.679,0.397,0.915,0.672,0.915c0.565,0,1.28-0.995,1.774-1.16c0.732-0.245,0.488-2.567,1.223-3.791
		c0.119-0.2,0.223-0.286,0.315-0.286c0.474,0,0.659,2.221,1.274,2.731c0.03,0.026,0.066,0.039,0.111,0.039
		c0.969-0.001,4.83-6.368,6.001-8.476c1.222-2.2-0.856-3.423-1.101-3.912c-0.244-0.489,2.078,0,2.812-1.222
		s-1.468-3.668-1.468-3.668s1.1,0.518,1.935,0.518c0.313,0,0.589-0.073,0.756-0.273c0.534-0.642-2.11-2.593-2.782-3.072
		c1.641,0.662,3.008,1.096,3.812,1.213c0.804,0.118,1.464,0.322,1.994,0.546c-0.028,0.382-0.131,0.811-0.212,1.313
		c-0.285,1.752-0.855,3.259-1.303,3.342c-0.064,0.011-0.131,0.016-0.195,0.016c-0.394,0-0.783-0.179-0.783-0.179
		s0.287,0.578,0.287,1.02c0,0.028,0,0.054-0.004,0.081c-0.039,0.447-1.181,2.568-1.181,2.568l-0.611,0.121
		c0.095,0.167,0.141,0.364,0.141,0.599c0.001,1.082-0.986,2.943-2.832,6.126c-2.239,3.873-5.507,5.849-5.864,5.889
		c-0.019,0.002-0.036,0.003-0.055,0.003c-0.342,0-0.696-0.319-0.696-0.319l-0.026,1.071c0,0-1.223,1.061-3.586,2.2
		C97.872,38.478,96.901,38.765,95.992,38.765"/>
	<path fill="#A88FAE" d="M47.537,7.946c2.757-0.923,5.334-2.011,6.87-2.697c-1.535,0.687-4.112,1.774-6.866,2.696
		C47.54,7.945,47.539,7.946,47.537,7.946 M39.516,9.651c0.382,0,0.789-0.026,1.21-0.068c-0.017,0.002-0.033,0.004-0.049,0.006
		C40.273,9.629,39.885,9.65,39.516,9.651"/>
	<path fill="#F38AB6" d="M54.573,37.562c-2.505,0-5.464-1.933-7.91-3.296c-4.238-2.119-7.417-7.417-8.314-8.885
		c-0.299-0.49-0.399-0.98-0.398-1.415c0-0.869,0.398-1.52,0.398-1.52s-0.083,0.021-0.247,0.021c-0.163,0-0.406-0.021-0.732-0.102
		c-0.394-0.792-0.821-1.644-0.82-2.41c0-0.495,0.178-0.955,0.658-1.339c-0.488,0-1.304,0.245-1.304,0.245s-0.57-0.245-0.815-4.238
		c0-1.578,0.293-2.925,0.708-3.984c0.8-0.546,1.978-0.988,3.695-0.988h0.024c0.368,0,0.758-0.022,1.161-0.062
		c-0.286,0.042-0.414,0.088-0.406,0.128c-1.688,0.485-3.417,1.875-2.913,4.272c0.569,2.706,0.285,3.844,2.278,4.414
		c-1.731,1.065-0.6,2.876,0.834,2.876c0.101,0,0.203-0.01,0.304-0.028c-1.138,1.566,1.282,6.692,5.412,9.824
		c1.409,1.069,2.586,1.525,3.537,1.525c1.834,0,2.824-1.695,3.012-3.945c0.285-3.417-2.989-6.123,0.428-8.542
		c3.417-2.421,6.407-4.556,6.835-10.821c0.186-2.73-1.034-3.595-2.93-3.595c-2.454,0-6.041,1.448-9.172,2.169
		c-0.123,0.028-0.237,0.055-0.353,0.079c2.753-0.922,5.33-2.009,6.866-2.696c1.563-0.7,3.187-1.274,4.634-1.274
		c1.42,0,2.668,0.554,3.516,2.088c0.506,0.914,0.697,1.805,0.697,2.69c0,2.118-1.1,4.197-1.674,6.438
		c-0.816,3.179-1.142,3.993-2.364,5.624c-0.789,1.051-3.574,2.745-3.578,5.912c-0.002,1.747,0.842,3.941,3.335,6.723
		C58.005,36.521,56.412,37.562,54.573,37.562"/>
	<path fill="#FAD3E4" d="M109.231,12.52c-0.645,0-6.242-1.64-10.557-5.627c0,0,7.898,4.599,10.23,5.409
		C109.282,12.444,109.368,12.52,109.231,12.52"/>
	<path fill="#FCE3EE" d="M41.048,9.549l0.024-0.005c0.24-0.028,0.484-0.063,0.735-0.102C41.549,9.483,41.296,9.52,41.048,9.549"/>
	<path fill="#FAD3E4" d="M41.269,9.838c-0.622,0-0.987-0.053-0.998-0.12c0.217-0.063,0.435-0.11,0.646-0.142l0.131-0.027
		c0.248-0.029,0.501-0.065,0.759-0.107c4.477-0.69,10.521-2.767,10.521-2.767C48.177,9.26,43.324,9.838,41.269,9.838"/>
	<path fill="#FCE3EE" d="M40.726,9.583c0.099-0.013,0.215-0.027,0.347-0.039C40.956,9.559,40.84,9.571,40.726,9.583"/>
	<path fill="#FAD4E4" d="M40.677,9.589c0.016-0.002,0.033-0.004,0.049-0.006c0.115-0.012,0.23-0.024,0.347-0.039l-0.024,0.004
		C40.923,9.564,40.799,9.578,40.677,9.589"/>
	<path fill="#F9C8DD" d="M40.271,9.718c-0.008-0.04,0.12-0.086,0.406-0.128c0.123-0.012,0.247-0.025,0.371-0.041l-0.131,0.027
		C40.705,9.608,40.488,9.655,40.271,9.718"/>
	<path fill="#E9ECF4" d="M70.404,18.082c1.317-0.629,2.601-1.112,3.845-1.469c0.021,0,0.041,0.001,0.061,0.003
		c-0.01-0.005-0.02-0.009-0.027-0.013c2.035-0.581,3.965-0.825,5.773-0.825c2.607,0,4.963,0.509,7.004,1.254
		c-2.278-0.571-4.464-0.81-6.534-0.81c-1.167,0-2.298,0.077-3.39,0.212c-2.967,0.355-5.25,1.102-6.311,1.499
		C70.684,17.98,70.543,18.03,70.404,18.082"/>
	<path fill="#DDE1EC" d="M74.309,16.616L74.309,16.616c-0.014-0.003-0.027-0.006-0.04-0.01c0.005,0,0.007-0.002,0.013-0.003
		C74.29,16.606,74.299,16.611,74.309,16.616"/>
	<path fill="#E3E6F0" d="M88.327,17.538c-2.767-0.962-5.475-1.301-7.922-1.301c-1.154,0-2.252,0.075-3.269,0.197
		c1.091-0.135,2.222-0.212,3.389-0.212c2.07,0,4.257,0.239,6.536,0.81C87.497,17.19,87.918,17.36,88.327,17.538 M70.174,18.192
		c0.077-0.038,0.154-0.074,0.229-0.11c0.14-0.051,0.28-0.101,0.421-0.149C70.404,18.09,70.174,18.192,70.174,18.192"/>
	<path fill="#E9ECF4" d="M87.295,5.819c-2.344-4.313-6.843-4.815-8.814-4.815c-0.599,0-0.967,0.046-0.967,0.046
		c0.92-0.229,1.795-0.334,2.62-0.334C84.129,0.716,86.891,3.184,87.295,5.819"/>
	<path fill="#5F6885" d="M66.702,40.852L66.7,40.85L66.702,40.852 M66.735,40.87c-0.002-0.002-0.004-0.002-0.006-0.004
		C66.731,40.868,66.733,40.868,66.735,40.87 M66.769,40.889c-0.005-0.002-0.007-0.005-0.012-0.006
		C66.762,40.884,66.764,40.887,66.769,40.889 M66.801,40.907c-0.004-0.002-0.009-0.005-0.015-0.009
		C66.792,40.902,66.797,40.905,66.801,40.907 M66.836,40.926c-0.007-0.003-0.014-0.007-0.02-0.011
		C66.823,40.919,66.83,40.923,66.836,40.926 M66.877,40.949c-0.01-0.005-0.02-0.011-0.03-0.016
		C66.858,40.938,66.868,40.943,66.877,40.949"/>
	<path fill="#B5B8C9" d="M110.012,63.963c0,0,0-0.002,0-0.004C110.012,63.961,110.012,63.963,110.012,63.963 M110.01,63.973
		c0-0.002,0.001-0.004,0.001-0.004S110.01,63.971,110.01,63.973 M110.006,63.985c0-0.002,0.002-0.004,0.002-0.008
		C110.008,63.981,110.006,63.983,110.006,63.985 M110.004,63.995c0-0.002,0-0.004,0-0.007
		C110.004,63.991,110.004,63.993,110.004,63.995 M110,64.004c0-0.002,0.002-0.004,0.002-0.008C110.002,64,110,64.002,110,64.004
		 M109.858,64.708c0-0.207,0.048-0.416,0.139-0.691c0.001-0.002,0.002-0.006,0.002-0.01v0.002c-0.001,0.003-0.002,0.006-0.002,0.008
		C109.906,64.292,109.858,64.5,109.858,64.708"/>
	<path fill="#8E93AC" d="M64.319,34.213c-0.111,0.832,0.831,4.822,2.493,5.931c-0.998-1.608-2.124-3.752-1.996-6.046
		c0.637-0.357,0.833-0.994,0.833-0.994s-0.61,0.777-2.272,0.887c-0.313,0.089,0.099,0.253,0.589,0.253
		C64.083,34.244,64.202,34.233,64.319,34.213 M106.584,70.573L106.584,70.573c0.391,0,0.824-0.025,1.297-0.072
		c0.02-0.002,0.04-0.004,0.062-0.006c0.011-0.002,0.021-0.002,0.03-0.003c2.256-0.235,2.657-1.435,2.48-2.666
		c0-0.001,0-0.001,0-0.002c0-0.003,0-0.005-0.001-0.007v-0.001c0-0.002,0-0.005,0-0.007c-0.001-0.002-0.001-0.004-0.001-0.005
		s0-0.001-0.002-0.001c-0.024-0.179-0.063-0.357-0.109-0.534c-0.199-0.757-0.548-1.473-0.743-1.927
		c-0.024-0.059-0.046-0.115-0.063-0.172c0.002,0.004,0.004,0.009,0.007,0.013c-0.315-0.997,0.383-1.946-0.136-2.236
		c-0.002-0.001-0.002-0.001-0.004-0.001c0-0.001,0-0.001-0.001-0.002c0,0,0,0-0.001-0.001c-0.104-0.056-0.254-0.086-0.471-0.086
		c-0.049,0-0.102,0.002-0.158,0.005c-1.623,0.092-3.689,3.153-3.689,3.153c-0.005,0.008-0.009,0.017-0.014,0.023
		c-0.023,0.039-0.047,0.077-0.068,0.114c-1.881,3.163-1.218,4.418,1.584,4.42H106.584 M107.116,71.058
		c-2.055,0-4.17-0.8-4.173-1.943c0-0.095,0.015-0.19,0.043-0.29c-3.179-4.891-10.923-7.336-17.118-8.803
		c-3.705-0.878-8.232-0.451-11.793-2.408c-0.381-0.211-0.752-0.448-1.109-0.717c-0.547-0.413-1.063-0.899-1.539-1.478
		c-0.078-0.093-0.154-0.189-0.229-0.288c-3.848-5.715-4.434-10.332-4.434-12.62c0-1.007,0.113-1.563,0.113-1.563
		c-0.01-0.005-0.02-0.011-0.029-0.016c-0.004-0.002-0.008-0.004-0.012-0.006c-0.006-0.003-0.014-0.007-0.02-0.011
		c-0.005-0.002-0.01-0.004-0.015-0.008c-0.005-0.002-0.01-0.005-0.017-0.009c-0.004-0.003-0.011-0.006-0.017-0.009
		c-0.004-0.002-0.007-0.005-0.012-0.006c-0.009-0.005-0.015-0.009-0.022-0.013c-0.002-0.002-0.004-0.002-0.008-0.004
		c-0.007-0.004-0.018-0.009-0.025-0.014l-0.001-0.001c-1.206-0.677-2.499-1.61-3.738-2.725c0.28,0.15,0.51,0.223,0.692,0.223
		c0.809,0,0.699-1.417,0.151-3.609c-1.056-0.211-1.744-0.634-1.796-1.162c-0.012-0.111,0.07-0.143,0.229-0.143
		c0.105,0,0.245,0.014,0.414,0.028c0.168,0.015,0.365,0.028,0.586,0.028c0.803,0,1.918-0.186,3.103-1.235
		c0.225-0.156,0.382-0.224,0.485-0.224c0.451,0-0.176,1.318-0.908,2.179c-0.898,1.057,0.158,3.381,1.691,5.072
		c1.531,1.689-0.488,5.904,2.08,11.895c2.566,5.992,4.646,5.992,9.17,6.725c4.523,0.733,14.671,1.468,19.929,6.235
		c2.638,2.393,3.827,3.167,4.495,3.167c0.664,0,0.813-0.764,1.354-1.468c0.895-1.162,2.891-3.388,4.568-3.388
		c0.006,0,0.008,0,0.014,0c0.682,0.257,0.977,0.877,0.793,1.512v0.002c-0.001,0.002-0.001,0.004-0.001,0.006
		c0,0-0.001,0.002-0.001,0.004s-0.002,0.004-0.002,0.004c0,0.004-0.002,0.006-0.002,0.008c-0.002,0.002-0.002,0.002-0.002,0.002
		c0,0.004,0,0.006,0,0.008s-0.002,0.002-0.002,0.002c0,0.004-0.002,0.006-0.002,0.008c0,0.001-0.002,0.002-0.002,0.002
		c0,0.004-0.001,0.008-0.002,0.01c-0.091,0.275-0.139,0.484-0.139,0.691c0.001,0.526,0.309,1.022,0.953,2.488
		c0.279,0.636,0.432,1.17,0.434,1.621c0.001,0.996-0.735,1.598-2.473,2.045C108.256,70.997,107.688,71.058,107.116,71.058"/>
	<path fill="#59627F" d="M66.813,40.144c-1.663-1.108-2.605-5.099-2.494-5.931c-0.116,0.021-0.237,0.031-0.354,0.031
		c-0.49,0-0.902-0.164-0.589-0.253c1.661-0.11,2.271-0.887,2.271-0.887s-0.195,0.636-0.832,0.994
		C64.688,36.391,65.814,38.536,66.813,40.144"/>
	<path fill="#F5A2C5" d="M105.081,66.015c0,0,2.066-3.062,3.689-3.153c1.625-0.094,0.271,1.182,0.827,2.48
		c0.558,1.3,2.365,4.732-1.624,5.149C103.985,70.909,102.809,69.758,105.081,66.015"/>
	<path fill="#E9ECF4" d="M70.773,17.736c0.242-0.301,0.544-0.556,0.888-0.753c0.471-0.229,1.112-0.443,1.869-0.443
		c0.234,0,0.48,0.021,0.736,0.068c-0.006,0.002-0.012,0.003-0.018,0.005c-0.094-0.006-0.186-0.008-0.275-0.008
		C71.963,16.604,70.773,17.736,70.773,17.736"/>
	<path fill="#DDE1EC" d="M71.661,16.983c0.517-0.299,1.129-0.466,1.778-0.466c0.271,0,0.55,0.029,0.829,0.089
		c0,0-0.001,0-0.002,0.002c-0.256-0.047-0.502-0.068-0.736-0.068C72.773,16.54,72.131,16.754,71.661,16.983"/>
	<path fill="#F7F9FD" d="M74.309,16.616c-0.02-0.001-0.04-0.002-0.061-0.003c0.006-0.002,0.012-0.003,0.018-0.005
		C74.28,16.61,74.294,16.613,74.309,16.616"/>
	<path fill="#F3F6FB" d="M74.309,16.616c-0.015-0.003-0.029-0.005-0.043-0.008c0.001-0.001,0.002-0.001,0.003-0.002
		C74.282,16.61,74.295,16.613,74.309,16.616"/>
	<path fill="#E9ECF4" d="M87.86,16.984c-1.25-0.817-3.115-0.884-3.694-0.884c-0.113,0-0.177,0.002-0.177,0.002
		c0.212-0.078,0.455-0.121,0.713-0.135c0.496,0.006,1.217,0.074,2.021,0.34C87.237,16.497,87.66,16.742,87.86,16.984"/>
	<path fill="#DDE1EC" d="M86.723,16.308c-0.805-0.266-1.525-0.334-2.021-0.34c0.066-0.004,0.132-0.005,0.199-0.005
		C85.503,15.962,86.167,16.102,86.723,16.308"/>
	<path fill="#917E9F" d="M109.4,62.944C109.4,62.944,109.4,62.944,109.4,62.944S109.4,62.944,109.4,62.944 M109.405,62.947
		c-0.002-0.001-0.002-0.001-0.004-0.001C109.403,62.946,109.403,62.946,109.405,62.947 M109.541,65.183
		c-0.003-0.004-0.005-0.009-0.007-0.013c-0.304-0.991,0.387-1.936-0.129-2.224C109.923,63.237,109.225,64.186,109.541,65.183
		 M104.999,66.153c0.021-0.037,0.045-0.075,0.068-0.114C105.043,66.078,105.02,66.116,104.999,66.153 M110.45,67.803
		c-0.024-0.179-0.063-0.357-0.109-0.534C110.386,67.446,110.425,67.625,110.45,67.803 M110.453,67.809
		c-0.001-0.002-0.001-0.004-0.001-0.005C110.452,67.805,110.452,67.807,110.453,67.809 M110.453,67.817L110.453,67.817
		L110.453,67.817 M110.454,67.826c0-0.001,0-0.001,0-0.002C110.454,67.825,110.454,67.825,110.454,67.826 M107.943,70.495
		c0.011-0.002,0.021-0.002,0.03-0.003C107.964,70.493,107.954,70.493,107.943,70.495 M106.584,70.573
		c0.391,0,0.824-0.025,1.297-0.072C107.409,70.547,106.975,70.573,106.584,70.573 M106.584,70.573h-0.002H106.584"/>
	<path fill="#F38AB6" d="M108.933,65.724c-0.063,0-0.064,0.18,0.003,0.432c0,0,0.469,0.958-0.225,2.14s-0.123,1.406,0.428,1.406
		s0.939-0.795,0.408-2.568C109.235,66.09,109.021,65.724,108.933,65.724 M107.395,65.614c-0.209,0-1.032,0.688-1.557,1.5
		c-0.672,1.039-1.203,2.139-0.57,2.629c0.178,0.137,0.365,0.206,0.537,0.206c0.445,0,0.803-0.456,0.686-1.409
		c-0.164-1.324,0.916-2.75,0.916-2.75C107.465,65.668,107.455,65.614,107.395,65.614 M106.584,70.573h-0.002
		c-2.802-0.002-3.463-1.258-1.584-4.42c0.021-0.037,0.045-0.075,0.068-0.114c0.005-0.007,0.009-0.016,0.014-0.023
		c0,0,2.066-3.062,3.689-3.153c0.057-0.003,0.107-0.004,0.158-0.004c0.215,0,0.365,0.029,0.471,0.085
		c0.001,0.001,0.001,0.001,0.001,0.001c0.001,0.001,0.001,0.001,0.001,0.002c0.002,0,0.002,0,0.004,0.001
		c0.516,0.288-0.175,1.232,0.129,2.224c-0.033-0.08-0.063-0.168-0.085-0.271c-0.093-0.465-0.12-1.441-0.731-1.441
		c-0.281,0-0.683,0.207-1.272,0.762c-1.867,1.766-2.817,2.717-2.817,3.633c0,0.127,0.03,0.184,0.082,0.183
		c0.331,0,1.592-2.153,2.498-2.593c0.251-0.119,0.428-0.178,0.547-0.178c0.379,0,0.148,0.594-0.24,1.604
		c-0.236,0.617-0.01,0.939,0.298,0.939c0.351,0,0.808-0.424,0.79-1.313c-0.018-0.81,0.07-1.193,0.252-1.193
		c0.189,0,0.484,0.426,0.867,1.229c0.269,0.56,0.461,0.74,0.601,0.74c0.007,0,0.012,0,0.019-0.001
		c0.046,0.177,0.085,0.355,0.109,0.534c0.002,0,0.002,0,0.002,0.001s0,0.003,0.001,0.005c0,0.002,0,0.005,0,0.008l0,0
		c0.001,0.002,0.001,0.004,0.001,0.007c0,0.001,0,0.001,0,0.002c0.177,1.231-0.225,2.43-2.48,2.666
		c-0.009,0.001-0.02,0.001-0.03,0.003c-0.021,0.002-0.042,0.004-0.062,0.006C107.409,70.547,106.975,70.573,106.584,70.573"/>
	<path fill="#F062A1" d="M105.805,69.949c-0.172,0-0.359-0.069-0.537-0.206c-0.633-0.49-0.102-1.59,0.57-2.629
		c0.524-0.813,1.348-1.5,1.557-1.5c0.06,0,0.07,0.055,0.012,0.176c0,0-1.08,1.426-0.916,2.75
		C106.608,69.493,106.25,69.949,105.805,69.949"/>
	<path fill="#F062A1" d="M109.139,69.702c-0.551,0-1.121-0.225-0.428-1.406s0.225-2.14,0.225-2.14
		c-0.067-0.252-0.066-0.432-0.003-0.432c0.088,0,0.302,0.366,0.614,1.409C110.079,68.907,109.69,69.702,109.139,69.702"/>
	<path fill="#E9ECF4" d="M89.561,41.568c4.646-12.838-3.791-18.064-3.791-18.064C94.451,28.276,91.761,39.069,89.561,41.568"/>
	<path fill="#CDCFDB" d="M88.838,47.388c0.002-0.731,0.271-1.661,0.861-2.934c0.174-0.373,0.34-0.73,0.5-1.075
		c-0.16,0.344-0.326,0.702-0.5,1.075C89.11,45.727,88.84,46.657,88.838,47.388"/>
	<path fill="#9EA2B9" d="M96.007,53.647l-0.124-0.063c0,0-4.605-3.527-8.131-3.92c-1.742-0.192-2.146-0.816-1.826-1.704
		c0.404,0.048,0.816,0.124,1.238,0.235c-0.266-0.214-0.641-0.406-1.101-0.549c0.435-0.863,1.413-1.93,2.47-3.077
		c1.348-1.457,2.404-3.269,3.063-4.552c-0.086,0.298-0.18,0.598-0.283,0.899c0.177-0.412,0.338-0.81,0.484-1.199
		c-0.414,1.103-0.953,2.277-1.598,3.661c-0.16,0.344-0.326,0.702-0.5,1.075c-0.59,1.273-0.859,2.203-0.861,2.934
		c-0.001,1.188,0.711,1.851,1.922,2.608C91.844,50.674,93.704,51.928,96.007,53.647"/>
	<path fill="#8E93AC" d="M91.313,40.917c0.104-0.301,0.197-0.601,0.283-0.899c0.133-0.259,0.249-0.497,0.35-0.705
		c-0.048,0.134-0.098,0.269-0.148,0.405C91.651,40.107,91.49,40.505,91.313,40.917"/>
	<path fill="#8E93AC" d="M87.165,48.196c-0.422-0.111-0.834-0.188-1.238-0.235c0.037-0.101,0.083-0.206,0.138-0.313
		C86.524,47.79,86.899,47.982,87.165,48.196"/>
	<path fill="#6E7487" d="M64.829,59.215c-0.051,0-0.102-0.009-0.152-0.028c0,0,0.287-0.105,0.752-0.294
		C65.301,59.02,65.067,59.215,64.829,59.215"/>
	<path fill="#9EA2B9" d="M64.676,59.187c0,0,0.297-0.112,0.76-0.3c-0.003,0.002-0.005,0.004-0.007,0.006
		C64.963,59.082,64.676,59.187,64.676,59.187"/>
	<path fill="#8E93AC" d="M64.676,59.187L64.676,59.187c-3.314-3.739-3.851-6.448-2.73-8.91c-0.783,6.046,3.583,8.508,3.583,8.508
		s-0.034,0.042-0.093,0.103C64.973,59.075,64.676,59.187,64.676,59.187"/>
	<path fill="#E9ECF4" d="M15.251,28.629c-0.487-4.708-1.136-13.312,19.969-23.864C35.22,4.765,14.765,15.805,15.251,28.629"/>
	<path fill="#E9ECF4" d="M100.868,58.413c-0.057-0.008-0.111-0.017-0.166-0.023c-0.082-0.063-0.191-0.161-0.33-0.301
		c-3.459-3.459-10.377-7.041-10.377-7.041C96.807,53.352,100.695,57.848,100.868,58.413"/>
	<path fill="#E3E6F0" d="M100.85,58.471c-0.027,0-0.076-0.025-0.148-0.082c0.055,0.007,0.109,0.016,0.166,0.024
		C100.878,58.452,100.874,58.471,100.85,58.471"/>
	<path fill="#E9ECF4" d="M86.856,21.76c-2.022-0.873-4.097-1.163-5.965-1.163c-0.259,0-0.512,0.006-0.762,0.016
		c-0.016,0-0.031,0-0.048,0c-0.463,0.014-0.914,0.052-1.352,0.108c-2.64,0.301-4.483,1.039-4.483,1.039
		c2.473-1.287,4.801-1.75,6.789-1.75C83.831,20.01,85.953,20.926,86.856,21.76"/>
	<path fill="#E3E6F0" d="M78.73,20.721c0.438-0.057,0.889-0.095,1.352-0.108c0.017,0,0.031,0,0.048,0
		C79.643,20.632,79.174,20.671,78.73,20.721"/>
	<path fill="#E9ECF4" d="M76.724,28.65c0.94-1,3.067-1.922,5.409-1.922c1.219,0,2.496,0.25,3.695,0.87
		c-1.012-0.342-2.162-0.552-3.373-0.552c-1.535,0-3.172,0.336-4.762,1.16C77.081,28.455,76.724,28.65,76.724,28.65"/>
	<path fill="#E3E6F0" d="M77.694,28.205c1.59-0.824,3.227-1.16,4.762-1.16c1.211,0,2.361,0.209,3.373,0.552
		c0.037,0.019,0.072,0.039,0.109,0.059c-1.071-0.358-2.145-0.495-3.159-0.495C80.649,27.161,78.773,27.766,77.694,28.205"/>
	<path fill="#E9ECF4" d="M64.815,63.61c-0.566,0-8.868-6.35-5.668-13.28c0,0-1.989,5.353,5.353,12.847
		C64.815,63.471,64.899,63.61,64.815,63.61"/>
	<path fill="#8187A3" d="M67.573,88.963c0.002,0,0.004-0.001,0.005-0.001C67.577,88.962,67.575,88.963,67.573,88.963 M67.541,88.968
		c0.001-0.001,0.005-0.001,0.007-0.001C67.545,88.967,67.543,88.967,67.541,88.968 M67.504,88.973c0.006,0,0.008-0.002,0.014-0.002
		C67.512,88.973,67.51,88.973,67.504,88.973 M67.471,88.977c0.005,0,0.011,0,0.016-0.002C67.482,88.977,67.476,88.977,67.471,88.977
		 M67.432,88.983c0.008-0.002,0.017-0.002,0.023-0.004C67.449,88.981,67.44,88.981,67.432,88.983 M67.395,88.989
		c-0.242-0.694-0.346-1.766-0.346-2.92C67.049,87.223,67.153,88.294,67.395,88.989c0.01-0.002,0.02-0.004,0.031-0.005
		C67.417,88.985,67.405,88.987,67.395,88.989"/>
	<path fill="#BEC2D8" d="M67.395,88.989c-0.242-0.694-0.346-1.766-0.346-2.92c0-0.131,0-0.262,0.004-0.395
		c0.074-1.877,0.693-2.604,1.459-2.604c0.898,0,1.996,0.999,2.656,2.317c-0.051-0.451-0.074-0.855-0.074-1.217
		c-0.001-1.869,0.625-2.574,1.403-2.574c0.771,0,1.688,0.689,2.298,1.633c-0.054-0.526-0.078-0.965-0.078-1.328
		c0.002-1.346,0.324-1.676,0.643-1.676c0.023,0,0.047,0.001,0.068,0.004c0.059,0.194,0.113,0.379,0.163,0.55
		c-0.31,0.192-0.431,0.828-0.457,1.093c-0.066,0.697,0.029,1.392,0.056,2.088c-0.495-0.674-1.486-1.711-2.266-1.711
		c-0.241,0-0.463,0.1-0.643,0.34c-0.424,0.564-0.483,1.359-0.52,2.041c-0.027,0.506-0.025,1.045,0.051,1.559
		c-0.18-0.188-0.383-0.35-0.596-0.514c-0.41-0.319-0.703-0.694-1.023-1.102c-0.297-0.384-0.778-0.879-1.293-0.879
		c-0.135,0-0.272,0.033-0.408,0.111c-0.478,0.272-0.512,1.036-0.51,1.51c0.004,0.726,0.188,1.488,0.546,2.119
		c0.31,0.545,0.797,0.745,1.35,0.745c1.132,0,2.546-0.838,3.309-1.27c0.081-0.046,0.159-0.093,0.238-0.14
		c-1.655,1.162-3.335,1.839-5.848,2.192c-0.001,0-0.003,0.001-0.005,0.001c-0.008,0.001-0.017,0.002-0.025,0.004
		c-0.002,0-0.006,0-0.007,0.001c-0.008,0.001-0.015,0.002-0.022,0.003c-0.006,0-0.008,0.002-0.014,0.002s-0.012,0.002-0.018,0.002
		c-0.005,0.002-0.011,0.002-0.016,0.002c-0.005,0.002-0.01,0.002-0.016,0.002c-0.007,0.002-0.016,0.002-0.023,0.004
		c-0.002,0-0.004,0-0.006,0.001C67.415,88.985,67.405,88.987,67.395,88.989"/>
	<path fill="#FFFFFF" d="M75.504,81.583c0,0,0.293,1.172,0.074,2.367c-0.096,0.658,0.514,0.098,0.341-1.195
		C75.75,81.461,75.504,81.022,75.504,81.583"/>
	<path fill="#FFFFFF" d="M73.411,82.947c0,0,0.804,0.901,1.167,2.06c0.22,0.629,0.634-0.236-0.12-1.301
		C73.703,82.641,73.149,82.45,73.411,82.947"/>
	<path fill="#FFFFFF" d="M69.444,84.741c0,0,0.807,0.9,1.17,2.061c0.219,0.629,0.632-0.238-0.121-1.303
		C69.74,84.435,69.184,84.245,69.444,84.741"/>
	<path fill="#FFFFFF" d="M36.732,83.448c0,0,0.455,1.024,0.408,2.15c-0.002,0.617,0.674-0.024,0.324-1.18
		C37.11,83.264,36.652,82.934,36.732,83.448"/>
	<path fill="#FFFFFF" d="M33.853,83.756c0,0,0.455,1.023,0.408,2.15c-0.003,0.616,0.674-0.025,0.324-1.18
		C34.231,83.571,33.773,83.243,33.853,83.756"/>
	<path fill="#FFFFFF" d="M39.417,83.102c0,0,0.004,0.875-0.38,1.663c-0.196,0.438,0.487,0.192,0.598-0.739
		C39.744,83.09,39.52,82.713,39.417,83.102"/>
</g>
</svg>
