<?xml version="1.0" encoding="utf-8"?>
<!-- Generator: Adobe Illustrator 16.0.0, SVG Export Plug-In . SVG Version: 6.00 Build 0)  -->
<!DOCTYPE svg PUBLIC "-//W3C//DTD SVG 1.0//EN" "http://www.w3.org/TR/2001/REC-SVG-20010904/DTD/svg10.dtd">
<svg version="1.0" id="Layer_1" xmlns="http://www.w3.org/2000/svg" xmlns:xlink="http://www.w3.org/1999/xlink" x="0px" y="0px"
	 width="118.345px" height="88.007px" viewBox="0 0 118.345 88.007" enable-background="new 0 0 118.345 88.007"
	 xml:space="preserve">
<g>
	<path d="M115.461,38.322l-0.002-0.001L115.461,38.322 M59.033,63.642c-0.047,0.109-0.084,0.22-0.125,0.33
		C58.949,63.862,58.986,63.752,59.033,63.642 M58.346,65.962c-0.02,0.097-0.039,0.192-0.057,0.289
		C58.307,66.155,58.326,66.059,58.346,65.962 M44.344,88.007c-0.178,0-0.352-0.002-0.527-0.005
		c-0.121-0.001-0.238-0.005-0.359-0.009c-0.465-0.015-0.93-0.037-1.393-0.076c-0.256-0.022-0.496-0.051-0.73-0.082l-0.188-0.027
		L41,87.787c-0.123-0.02-0.24-0.043-0.357-0.064l-0.176-0.035c-0.076-0.016-0.148-0.033-0.221-0.05l-0.154-0.04l-0.211-0.055
		l-0.023-0.006c-0.145-0.043-0.285-0.09-0.42-0.138l-0.08-0.033l-0.146-0.06c-0.113-0.047-0.221-0.098-0.326-0.15l-0.098-0.046
		l-0.07-0.039c-0.121-0.065-0.236-0.137-0.346-0.213l-0.086-0.062L38.1,86.645c-0.086-0.069-0.166-0.14-0.24-0.216l-0.17-0.178
		l-0.064-0.066V86.17c-1.246-1.499-1.271-3.981-1.471-7.694c-0.01-0.403-0.002-0.822,0.014-1.248
		c0.002-0.086,0.004-0.174,0.008-0.26c0.006-0.113,0.016-0.229,0.02-0.342c0.008-0.102,0.01-0.199,0.018-0.3l0.008-0.002
		c0.021-0.314,0.041-0.628,0.072-0.951c0.023-0.216,0.051-0.437,0.076-0.657c0.039-0.333,0.08-0.667,0.129-1.006
		c0.033-0.233,0.07-0.467,0.109-0.701c0.055-0.336,0.111-0.673,0.174-1.012c0.043-0.236,0.088-0.473,0.135-0.709
		c0.07-0.348,0.143-0.692,0.217-1.041c0.051-0.229,0.102-0.459,0.154-0.69c0.084-0.362,0.172-0.722,0.262-1.083
		c0.053-0.212,0.105-0.426,0.16-0.638c0.102-0.39,0.207-0.774,0.316-1.159c0.049-0.18,0.1-0.361,0.15-0.54
		c0.133-0.465,0.271-0.922,0.412-1.374c0.027-0.084,0.051-0.172,0.078-0.256v-0.002c1.129-3.584,2.424-6.694,3.398-8.357
		c1.361-2.322,0.576-4.363-0.234-5.595l-0.086-0.128l-0.139-0.193l-0.086-0.117l-0.072-0.09c-0.563,1.063-1.287,2.162-2.711,2.483
		c-0.107,0.025-0.213,0.036-0.314,0.036c-0.918,0-1.549-0.96-2.219-1.922c-0.668-0.959-1.371-1.92-2.436-1.92
		c-0.385,0-0.82,0.127-1.316,0.428c-1.166,0.705-3.883,1.409-7.275,1.409c-6.449,0-15.34-2.546-20.67-12.477
		c-2.754-5.134-6.133-10.266-3.629-16.274S8.143,7.883,10.914,5.042c2.443-2.574,2.092-2.79,1.389-3.102
		c-0.092-0.041-0.166-0.082-0.234-0.124l-0.053-0.036l-0.125-0.097l-0.035-0.033l-0.1-0.132l-0.041-0.135l-0.002-0.03l0.008-0.116
		l0.004-0.023c0.023-0.094,0.074-0.187,0.143-0.281l0.02-0.026l0.102-0.12L12,0.775v0c0.178-0.191,0.416-0.379,0.631-0.551
		c0.193-0.155,0.457-0.213,0.756-0.213c0.719,0,1.648,0.337,2.35,0.477c0.205,0.042,0.41,0.06,0.619,0.06
		c0.779,0,1.598-0.261,2.746-0.521C19.178,0.008,19.254,0,19.33,0c0.02,0,0.037,0.001,0.057,0.002h0.004l-0.002,0
		c1.303,0.068,2.16,2.569,0.373,3.061c-1.914,0.528-4.621,2.112-6.604,6.141c-1.629,3.317-4.059,8.515-2.762,13.346l0.047,0.027
		L10.4,22.572c0.279,1.025,0.715,2.033,1.373,3.003c3.434,4.623,9.771,8.319,9.771,8.319v-1.121c0,0-0.215-0.061-0.557-0.188
		l-0.027-0.01l-0.025-0.009c-0.066-0.025-0.133-0.053-0.207-0.083l-0.033-0.012l-0.086-0.037c-0.072-0.03-0.145-0.062-0.225-0.096
		l-0.17-0.079c-0.07-0.032-0.139-0.063-0.213-0.1l-0.217-0.109l-0.092-0.047l-0.092-0.048l-0.178-0.098l-0.031-0.018l-0.086-0.049
		l-0.17-0.098l-0.182-0.109L18.9,31.55c-0.084-0.052-0.168-0.105-0.254-0.161l-0.203-0.137c-0.105-0.071-0.209-0.146-0.316-0.226
		l-0.043-0.029l-0.006-0.004l-0.141-0.105c-0.084-0.065-0.17-0.133-0.254-0.202l-0.066-0.055l-0.096-0.078l-0.092-0.075
		l-0.184-0.167l-0.063-0.055c-0.084-0.077-0.168-0.153-0.254-0.234l-0.131-0.133l-0.043-0.043c-0.105-0.11-0.213-0.221-0.318-0.337
		l-0.18-0.206c-0.094-0.109-0.186-0.221-0.277-0.337l-0.031-0.04c-0.057-0.073-0.111-0.146-0.168-0.221
		c-0.064-0.088-0.127-0.177-0.189-0.268l-0.033-0.05l-0.072-0.11c-0.047-0.073-0.098-0.143-0.143-0.218l-0.117-0.195l-0.006-0.006
		h0.002c-0.096-0.164-0.191-0.328-0.281-0.5c-0.057-0.121-0.092-0.242-0.111-0.362l-0.008-0.133l-0.014-0.214l0.025-0.169
		l0.027-0.156l0.063-0.199l0.023-0.073l0.004-0.005l-0.004,0.003v0.002l-0.004,0.003l-0.09,0.112l-0.006,0.009l-0.098,0.104
		l-0.008,0.007l-0.098,0.085l-0.014,0.013l-0.098,0.062l-0.02,0.012l-0.094,0.038l-0.027,0.011l-0.092,0.011l-0.033,0.003
		l-0.092-0.016L14.143,26.5l-0.123-0.064l-0.156-0.148l-0.051-0.064l-0.145-0.182l-0.066-0.096
		c-0.051-0.072-0.104-0.148-0.158-0.232l-0.074-0.117c-0.055-0.091-0.115-0.186-0.176-0.287l-0.07-0.122
		c-0.064-0.108-0.127-0.22-0.191-0.336l-0.068-0.126c-0.066-0.123-0.133-0.25-0.199-0.378l-0.063-0.121
		c-0.068-0.134-0.133-0.272-0.197-0.411l-0.055-0.114c-0.068-0.149-0.137-0.299-0.201-0.448l-0.031-0.069v-0.001
		c-0.496-1.164-0.799-2.273-0.475-2.625c0.725-0.793,6.863-7.724,11.816-12.412c2.912-2.758,5.121-4.381,7.373-4.381
		c1.574,0,3.172,0.795,5.045,2.553l0.064-0.026l0.006-0.002c0.043-0.016,0.104-0.04,0.184-0.07l0.029-0.009
		c0.084-0.032,0.184-0.067,0.301-0.107l0.023-0.006c0.246-0.084,0.566-0.184,0.943-0.284l0.037-0.01
		c0.186-0.049,0.385-0.098,0.6-0.148l0.059-0.014C38.34,5.593,38.57,5.544,38.813,5.5l0.023-0.005c0.58-0.107,1.223-0.2,1.92-0.255
		l0.109-0.007c0.154-0.012,0.311-0.022,0.469-0.029l0.176-0.007c0.141-0.004,0.285-0.009,0.43-0.01l0.205,0
		c0.139,0,0.277,0.001,0.418,0.005c0.074,0.002,0.148,0.004,0.225,0.007c0.139,0.005,0.281,0.014,0.424,0.022
		c0.074,0.005,0.148,0.01,0.227,0.016c0.15,0.012,0.303,0.028,0.455,0.044l0.203,0.021c0.195,0.025,0.387,0.053,0.584,0.085
		L44.766,5.4c0.227,0.038,0.453,0.082,0.682,0.131l0.184,0.044c0.164,0.038,0.332,0.077,0.498,0.123
		c0.084,0.022,0.17,0.049,0.254,0.073c0.145,0.042,0.291,0.085,0.436,0.132c0.094,0.03,0.186,0.063,0.277,0.095
		c0.141,0.048,0.279,0.099,0.418,0.152c0.096,0.036,0.191,0.074,0.285,0.114c0.139,0.056,0.277,0.116,0.416,0.178
		c0.094,0.043,0.188,0.087,0.283,0.132c0.143,0.066,0.283,0.139,0.424,0.211c0.09,0.048,0.182,0.094,0.273,0.143
		c0.152,0.085,0.305,0.177,0.457,0.268c0.078,0.046,0.152,0.089,0.23,0.137c0.227,0.144,0.457,0.294,0.684,0.456
		c2.986-2.502,5.691-4.911,8.334-4.911c0.793,0,1.58,0.217,2.369,0.713c1.264,0.798,3.037,1.966,5.137,3.158l0.064-0.107
		c0.729-0.364,1.451-0.698,2.168-1.019c0.24-0.107,0.479-0.209,0.719-0.313c0.174-0.074,0.348-0.155,0.521-0.228L69.83,5.116
		c5.385-2.253,10.314-3.332,13.914-3.814c0.48-0.041,0.965-0.063,1.453-0.063c4.533,0,9.488,1.871,14.988,7.822
		c4.615,4.996,9.322,11.998,12.023,16.951v-0.004c0.047,0.087,0.088,0.168,0.135,0.255c0.158,0.294,0.316,0.588,0.461,0.866
		c0.076,0.149,0.141,0.284,0.213,0.428c0.105,0.213,0.219,0.432,0.314,0.634c0.105,0.217,0.193,0.415,0.285,0.618
		c0.049,0.113,0.109,0.238,0.158,0.346c0.133,0.306,0.248,0.591,0.346,0.854c0.838,2.249,0.855,4.336,0.482,6.702l0.045-0.175
		c0.16,0.284,0.307,0.576,0.441,0.873l0.023,0.061c0.127,0.279,0.242,0.562,0.346,0.85v0.002c1.084,2.994,1.059,6.373,0.656,9.076
		v0.008c-0.014,0.094-0.031,0.184-0.045,0.275c-0.021,0.125-0.039,0.25-0.061,0.371c-0.025,0.131-0.051,0.258-0.074,0.385
		c-0.021,0.109-0.043,0.219-0.064,0.324c-0.029,0.141-0.061,0.272-0.092,0.406c-0.02,0.084-0.037,0.172-0.059,0.254
		c-0.053,0.213-0.107,0.418-0.16,0.611c0.113,0.145,0.248,0.297,0.389,0.458c0.463,0.523,1.035,1.149,1.506,1.913l0.002,0.003
		h-0.002c0.531,0.862,0.93,1.903,0.887,3.19c-0.012,0.354-0.051,0.689-0.113,1.01v-0.001c-0.059,0.293-0.139,0.57-0.236,0.838
		c-0.035,0.101-0.082,0.194-0.125,0.292c-0.07,0.165-0.143,0.33-0.227,0.487c-0.055,0.104-0.119,0.203-0.182,0.304
		c-0.086,0.141-0.176,0.279-0.271,0.411c-0.07,0.098-0.145,0.19-0.223,0.284c-0.104,0.127-0.213,0.254-0.324,0.375
		c-0.08,0.084-0.16,0.17-0.244,0.254c-0.125,0.123-0.256,0.24-0.389,0.357c-0.082,0.07-0.164,0.145-0.248,0.215
		c-0.156,0.125-0.318,0.247-0.48,0.367c-0.072,0.052-0.141,0.106-0.213,0.157c-0.238,0.169-0.484,0.331-0.738,0.485
		c-2.143,1.322-2.416,2.052-1.867,4.696c-3.832-2.325-0.777-6.794-0.777-6.794s-0.213,0.179-0.619,0.179
		c-0.242,0-0.555-0.063-0.932-0.269c2.828-1.23,1.508-2.69,1.051-5.061c-0.457-2.373,1.732-3.74,3.648-4.425
		c2.355-5.957-0.279-10.543-0.605-11.073l-0.008,0.033l0.004-0.015l-0.014,0.051c-0.266,1.217-0.596,2.528-0.947,3.978
		c-0.102,0.421-0.205,0.849-0.309,1.295c-2.586,8.428-5.842,14.939-5.342,21.113c0.502,6.177,1.42,12.603,1.504,15.022
		c0.064,1.894-1.57,4.191-5.92,5.225v0.008c-0.084,0.019-0.174,0.033-0.26,0.053c-0.148,0.031-0.299,0.063-0.455,0.094
		c-0.201,0.039-0.41,0.074-0.623,0.107c-0.15,0.022-0.301,0.049-0.457,0.068c-0.256,0.035-0.521,0.063-0.791,0.09
		c-0.131,0.014-0.256,0.028-0.387,0.04c-0.416,0.033-0.844,0.06-1.291,0.074c-0.426,0.013-0.826,0.022-1.213,0.03
		c-0.072,0.001-0.146,0.002-0.219,0.002c-0.24,0.004-0.477,0.006-0.701,0.006c-0.125,0-0.248-0.002-0.367-0.002l-0.123-0.002
		c-0.309-0.003-0.604-0.012-0.881-0.021l-0.133-0.006c-0.291-0.014-0.563-0.03-0.82-0.053l-0.146-0.016
		c-0.246-0.023-0.484-0.049-0.701-0.082l-0.025-0.004c-0.221-0.033-0.422-0.074-0.613-0.116l-0.125-0.03
		c-0.184-0.043-0.355-0.093-0.514-0.148l-0.066-0.024c-0.139-0.052-0.266-0.107-0.387-0.165l-0.082-0.041
		c-0.127-0.068-0.242-0.141-0.35-0.219l-0.07-0.055c-0.094-0.074-0.182-0.152-0.262-0.236l-0.031-0.031l-0.008-0.008v-0.004
		c-0.572-0.635-0.746-1.539-0.838-2.779c-0.029-0.674-0.035-1.366-0.029-2.072c0.002-0.227,0.014-0.461,0.02-0.691
		c0.01-0.485,0.027-0.972,0.053-1.47c0.016-0.277,0.037-0.559,0.057-0.839c0.033-0.465,0.068-0.93,0.113-1.402
		c0.027-0.297,0.059-0.595,0.092-0.893c0.051-0.471,0.107-0.943,0.168-1.42c0.023-0.172,0.039-0.341,0.063-0.514l-0.008,0.113
		c0.188-1.385,0.418-2.783,0.688-4.186l-0.012,0.027c0.031-0.168,0.07-0.335,0.105-0.504c0.098-0.498,0.201-0.996,0.309-1.494
		c0.064-0.303,0.131-0.605,0.199-0.908c0.127-0.553,0.262-1.103,0.396-1.651c0.059-0.239,0.115-0.48,0.176-0.718
		c0.201-0.782,0.408-1.559,0.629-2.326c0.037-0.129,0.076-0.255,0.113-0.383c0.186-0.638,0.375-1.271,0.572-1.895
		c0.082-0.258,0.166-0.51,0.25-0.766c0.158-0.488,0.318-0.973,0.484-1.449c0.094-0.273,0.189-0.541,0.287-0.809
		c0.162-0.454,0.326-0.898,0.494-1.338c0.098-0.256,0.195-0.513,0.295-0.764c0.18-0.457,0.363-0.9,0.547-1.338
		c0.088-0.208,0.176-0.422,0.264-0.626c0.273-0.628,0.549-1.239,0.828-1.819c-5.613,7.668-12.986,11.207-12.986,11.207l0.014,0.037
		l0.023,0.073l0.012,0.031c0.297,0.896,2.061,6.276,2.66,9.954c0.346,2.123,0.83,4.929,1.039,7.289l0.002-0.017
		c0.006,0.08,0.01,0.156,0.018,0.235c0.012,0.129,0.02,0.257,0.029,0.383c0.012,0.14,0.018,0.275,0.025,0.41
		c0.006,0.119,0.014,0.238,0.018,0.353c0.006,0.134,0.008,0.262,0.01,0.391c0,0.107,0.004,0.216,0.004,0.319
		c0,0.127-0.004,0.244-0.008,0.365c-0.002,0.094-0.004,0.19-0.01,0.279c-0.008,0.119-0.02,0.227-0.029,0.336
		c-0.008,0.08-0.016,0.16-0.025,0.234c-0.014,0.109-0.035,0.204-0.055,0.301l-0.037,0.188c-0.027,0.1-0.061,0.182-0.094,0.268
		l-0.045,0.121c-0.053,0.113-0.113,0.21-0.184,0.284c-0.938,1.005-5.531,2.663-8.309,2.663c-0.627,0-1.164-0.085-1.541-0.281
		c-2.791,2.109-5.352,2.693-7.408,2.693c-0.428,0-0.832-0.025-1.213-0.066c-0.131-0.015-0.262-0.039-0.393-0.072l-0.16-0.048
		l-0.197-0.06l-0.002-0.006c-1.98-0.719-4.053-3.445-6.965-8.764c-0.193-0.35-0.377-0.696-0.557-1.043h0.002
		c-1.09-2.104-1.926-4.125-2.418-6.081l0.008,0.05l-0.041-0.177c-0.053-0.225-0.104-0.45-0.148-0.673
		c-0.027-0.138-0.057-0.274-0.078-0.412c-0.039-0.225-0.072-0.449-0.102-0.674c-0.018-0.131-0.037-0.264-0.051-0.395
		c-0.023-0.236-0.037-0.47-0.049-0.705c-0.006-0.116-0.02-0.232-0.021-0.35c-0.006-0.284,0-0.565,0.012-0.847l0.004-0.175v0.025
		l0.002-0.041l-0.002,0.016l0.002-0.023l0.01-0.109c0.059-1.938,0.566-3.471,1.219-4.82l0.158,0.098l-0.158-0.1v0.002l-0.104-0.066
		c-0.123-0.077-0.242-0.154-0.361-0.23l-0.096-0.063c-0.133-0.086-0.266-0.174-0.393-0.261l-0.021-0.012
		c-1.184-0.794-2.193-1.556-3.422-2.366l-0.049-0.031c-0.133-0.088-0.27-0.175-0.406-0.264l-0.098-0.061
		c-0.129-0.082-0.262-0.164-0.395-0.248l-0.135-0.082c-0.125-0.076-0.254-0.152-0.385-0.23l-0.176-0.105
		c-0.125-0.074-0.258-0.147-0.389-0.222l-0.211-0.121c-0.133-0.073-0.273-0.148-0.412-0.225c-0.076-0.042-0.15-0.083-0.23-0.126
		c-0.221-0.118-0.451-0.238-0.689-0.36c-2.461,4.27-1.477,5.337-0.164,10.344c1.314,5.007,2.791,14.776,2.709,16.993
		c-0.053,1.418-2.561,2.529-5.863,3.02l-0.002,0.004l-0.098,0.01c-0.387,0.058-0.783,0.104-1.188,0.141
		c-0.082,0.008-0.164,0.018-0.246,0.024c-0.449,0.037-0.904,0.065-1.369,0.081L45.031,88C44.803,88.005,44.572,88.007,44.344,88.007
		"/>
</g>
</svg>
