<?xml version="1.0" encoding="utf-8"?>
<!-- Generator: Adobe Illustrator 16.0.0, SVG Export Plug-In . SVG Version: 6.00 Build 0)  -->
<!DOCTYPE svg PUBLIC "-//W3C//DTD SVG 1.0//EN" "http://www.w3.org/TR/2001/REC-SVG-20010904/DTD/svg10.dtd">
<svg version="1.0" id="Layer_1" xmlns="http://www.w3.org/2000/svg" xmlns:xlink="http://www.w3.org/1999/xlink" x="0px" y="0px"
	 width="115.588px" height="85.963px" viewBox="0 0 115.588 85.963" enable-background="new 0 0 115.588 85.963"
	 xml:space="preserve">
<g>
	<path fill="#BBBECF" d="M111.977,35.684c-0.312,1.158-0.445,2.049-0.445,2.049s3.072,4.677,0.624,10.868
		c0.422,0.021,0.555,0.125,0.711,0.266C113.759,45.706,114.382,39.959,111.977,35.684"/>
	<path fill="#6E717F" d="M112.156,48.601c-1.871,0.666-4.008,2.004-3.563,4.32c0.445,2.315,1.736,3.741-1.025,4.944
		c0.98,0.533,1.514,0.086,1.514,0.086s-2.982,4.365,0.758,6.637c-0.535-2.584-0.267-3.295,1.826-4.588
		c2.094-1.291,3.83-2.982,3.92-5.7c0.09-2.717-1.826-4.32-2.719-5.434C112.71,48.726,112.578,48.622,112.156,48.601"/>
	<path fill="#ABAAB2" d="M113.613,58.533c0,0,0.001,0,0.002-0.002C113.614,58.533,113.613,58.533,113.613,58.533 M109.601,62.789
		c0.002-1.232,0.564-1.863,2.064-2.789c0.703-0.434,1.363-0.91,1.938-1.457c-0.572,0.547-1.234,1.025-1.938,1.457
		C110.166,60.926,109.603,61.557,109.601,62.789"/>
	<path fill="#575B68" d="M109.839,64.588c-1.443-0.875-1.885-2.064-1.883-3.193c0-1.795,1.125-3.443,1.125-3.443
		s-0.209,0.176-0.605,0.176c-0.236,0-0.541-0.063-0.908-0.262c1.326-0.578,1.718-1.209,1.717-1.963c0-0.816-0.461-1.778-0.691-2.981
		c-0.039-0.207-0.06-0.408-0.06-0.602c-0.004-1.951,1.919-3.111,3.622-3.719c0.422,0.021,0.555,0.125,0.711,0.266
		c0.48,0.6,1.253,1.342,1.854,2.318c-0.409-0.408-0.922-0.762-1.371-0.762c-0.269,0-0.516,0.127-0.704,0.445
		c-0.053-0.572-0.579-0.877-1.148-0.877c-0.728,0-1.524,0.496-1.501,1.57c0.041,1.916,1.345,4.403-0.326,5.706
		c1.305-0.08,1.671-1.303,1.671-1.303s0.651,1.26-0.733,2.037c-1.385,0.773-1.508,2.527-1.183,2.973
		c0.612-1.426,2.446-2.443,4.118-3.584c1.179-0.809,1.707-1.451,1.93-2.105c-0.26,1.322-0.945,2.371-1.857,3.246
		c-0.001,0.002-0.002,0.002-0.002,0.002c-0.004,0.004-0.008,0.006-0.01,0.01c-0.574,0.547-1.234,1.023-1.938,1.457
		c-1.5,0.926-2.063,1.557-2.064,2.789C109.601,63.275,109.69,63.857,109.839,64.588"/>
	<path fill="#A3ACBF" d="M113.685,56.457c-0.041,0-0.035-0.041,0.047-0.125c2.193-2.134,0.432-4.821,0.432-4.821
		C116.757,54.458,113.985,56.457,113.685,56.457"/>
	<path fill="#A3ACBF" d="M111.174,58.047c-0.227,0-0.175-0.18,0.424-0.51c2.042-1.123,2.246-3.063,2.246-3.063
		C113.88,57,111.722,58.047,111.174,58.047"/>
	<path fill="#BBBECF" d="M112.867,48.866L112.867,48.866c-0.156-0.141-0.289-0.244-0.711-0.266
		C112.578,48.622,112.71,48.726,112.867,48.866c0.175-0.619,0.34-1.338,0.473-2.125C113.207,47.528,113.042,48.247,112.867,48.866"
		/>
	<path fill="#9297B0" d="M112.867,48.866c-0.156-0.141-0.289-0.244-0.711-0.266c0.698-1.766,0.947-3.408,0.947-4.854
		c-0.002-3.309-1.31-5.589-1.537-5.96c0.149-0.686,0.279-1.34,0.377-1.976c0.013-0.041,0.023-0.084,0.034-0.127
		c0.315,0.56,0.575,1.145,0.792,1.746c-0.152-0.287-0.279-0.391-0.389-0.391c-0.145,0-0.258,0.185-0.36,0.37
		c-0.204,0.368,1.63,2.895,1.345,6.808c-0.069,0.951-0.04,1.619,0.045,2.082c-0.022,0.148-0.047,0.297-0.07,0.441
		C113.207,47.528,113.042,48.247,112.867,48.866"/>
	<path fill="#9C9FAF" d="M81.304,75.525c0.246,1.955-5.182,7.697-5.182,7.697c2.004,1.041,8.498-1.121,9.619-2.324
		c1.123-1.205,0-7.537-0.641-11.467c-0.641-3.928-2.646-9.861-2.646-9.861s-5.143,3.893-8.322,4.381
		C78.615,69.168,81.059,73.568,81.304,75.525"/>
	<path fill="#BBBECF" d="M111.462,29.31c-1.549-4.157-7.662-14.02-13.611-20.458c-5.95-6.44-11.25-7.988-16.057-7.58
		c-4.238,0.57-10.352,1.956-16.873,5.216l-25.063,41.69c0,0,3.391,2.975,1.227,6.663c-2.166,3.686-5.933,14.672-5.773,21.807
		c0.321,6.014,0.16,8.742,5.773,9.219c5.612,0.484,11.545-0.961,11.625-3.125c0.081-2.164-1.363-11.705-2.646-16.596
		c-1.283-4.891-2.246-5.934,0.16-10.104c3.768,1.924,5.211,3.367,7.938,5.051c-2.646,4.893-1.203,10.104,2.005,15.955
		c3.206,5.855,5.371,8.5,7.535,8.74c2.166,0.24,5.131-0.08,8.42-2.566c0,0,5.428-5.742,5.182-7.697
		c-0.245-1.957-2.689-6.357-7.172-11.574c3.18-0.488,8.322-4.381,8.322-4.381s7.201-3.455,12.686-10.944
		c-3.951,8.198-7.396,21.683-6.988,31.384c0.243,3.26,1.059,4.154,8.477,3.91c7.418-0.246,10.025-3.26,9.943-5.623
		s-0.977-8.639-1.465-14.672c-0.491-6.031,2.688-12.39,5.215-20.622C111.708,37.053,113.011,33.468,111.462,29.31"/>
	<path fill="#E9ECF4" d="M74.937,3.79c0,0,0.155-0.072,0.445-0.179C75.234,3.668,75.087,3.728,74.937,3.79 M99.262,12.526
		c-6.396-8.106-13.161-9.917-17.928-9.917c-2.903,0-5.065,0.671-5.952,1.001c2.712-1.064,5.217-1.514,7.51-1.514
		C91.63,2.097,97.261,8.63,99.262,12.526"/>
	<path fill="#A0A3B7" d="M40.893,49.431c-0.139-0.217-0.279-0.406-0.41-0.57c0,0,0,0,0-0.002
		C40.614,49.024,40.754,49.214,40.893,49.431"/>
	<path fill="#767A94" d="M40.92,49.474c-0.009-0.016-0.018-0.029-0.027-0.043c-0.138-0.217-0.279-0.406-0.409-0.572
		c0.389-0.736,0.698-1.455,1.112-1.869c0.998-0.998,4.661-2.029,9.877-4.8c5.217-2.772,7.091-4.319,7.091-4.319
		c0.606,0.828,0.624,1.508,1.611,1.508h0.002c0.016,0,0.033,0,0.049,0c0.465-0.01,1.131-0.162,2.149-0.505c0,0,0.001,0,0.002-0.001
		c0.008-0.003,0.017-0.006,0.024-0.008c3.33-1.128,3.074-1.692,3.33-3.126c0,0.001,0.001,0.002,0.001,0.002
		c0.13,0.238,0.27,0.601,0.743,0.602h0.001c0.011,0,0.021,0,0.032-0.001c0.618-0.021,1.785-0.64,4.154-2.846
		c0.034-0.033,0.068-0.064,0.104-0.097c0.004-0.004,0.01-0.009,0.013-0.013c0.036-0.034,0.073-0.067,0.108-0.103
		c0.008-0.006,0.014-0.013,0.021-0.019c0.013-0.013,0.026-0.025,0.039-0.038c0.012-0.011,0.024-0.023,0.035-0.034
		c0.01-0.008,0.016-0.014,0.024-0.021c0.052-0.049,0.103-0.099,0.154-0.148c4.766-4.559,5.79-7.735,5.841-8.711
		c0.002-0.022,0.002-0.045,0.002-0.067c-0.002-0.959-1.077-2.084-1.077-2.084l1.333,0.358c0,0,1.28-1.536,1.69-3.689
		c0.001-0.006,0.001-0.012,0.004-0.018c0-0.002,0.001-0.003,0.001-0.005c0-0.006,0.002-0.011,0.002-0.016
		c0-0.003,0.002-0.006,0.002-0.008c0-0.004,0.002-0.006,0.002-0.01c0-0.005,0.001-0.01,0.002-0.016
		c0.001-0.001,0.001-0.003,0.001-0.004c0.042-0.241,0.061-0.457,0.06-0.651c-0.001-1.18-0.692-1.545-0.977-1.646
		c0.074,0.018,0.177,0.034,0.292,0.034c0.378,0,0.895-0.176,1.021-1.093c0-0.005,0.001-0.01,0.001-0.015
		c0-0.003,0-0.005,0.002-0.008c0-0.004,0-0.008,0-0.012c0.008-0.058,0.014-0.116,0.021-0.175c0-0.003,0-0.006,0-0.01
		c0-0.001,0-0.002,0.002-0.004c0-0.006,0-0.011,0.002-0.017v-0.001c0.014-0.117,0.031-0.233,0.047-0.349
		c0.068-0.492,0.143-0.974,0.142-1.421c-0.001-1.088-0.437-1.97-2.421-2.295c-4.445-0.483-8.829-2.525-12.301-4.498l0.064-0.106
		c1.125-0.562,2.236-1.067,3.328-1.521c-4.27,2.585,8.19,5.186,10.657,5.596c2.661,0.444,1.663,4.769,0.442,6.1
		c1.109,0.776,0.556,2.994,0.111,4.546c-0.443,1.555-1.663,1.665-1.663,1.665s0.776,1.772-0.665,4.768
		c-1.344,2.787-7.773,9.318-10.537,9.318c-0.207,0-0.393-0.036-0.555-0.113c-0.52,1.934-3.035,3.318-5.204,3.318
		c-1.065,0-2.047-0.334-2.668-1.101c-2.107,2.106-11.422,6.322-14.306,7.652C42.337,47.419,41.434,48.556,40.92,49.474"/>
	<path fill="#BBBECF" d="M35.041,6.174c0,0,7.737-3.279,14.347,1.436c3.792-3.178,7.122-6.201,10.453-4.1
		c3.329,2.1,10.247,6.814,17.317,7.583c3.125,0.513,2.41,2.408,2.204,4.305c-0.206,1.485-1.436,1.025-1.436,1.025
		s1.436,0.256,1.025,2.406c-0.41,2.153-1.69,3.689-1.69,3.689l-1.333-0.358c0,0,1.127,1.181,1.075,2.151
		c-0.051,0.976-1.075,4.152-5.841,8.711c-4.765,4.56-5.123,3.278-5.431,2.716c-0.256,1.434,0,1.998-3.33,3.126
		c-3.33,1.126-2.942,0.227-3.838-0.994c0,0-1.875,1.547-7.091,4.319c-5.216,2.771-8.879,3.802-9.877,4.8
		c-0.998,0.996-1.382,3.76-3.761,4.297c-1.067,0.242-1.748-0.801-2.473-1.842c-0.892-1.279-1.847-2.559-3.667-1.459
		c-3.3,1.996-19.348,3.996-27.293-10.809C1.712,32.162-1.59,27.15,0.856,21.281c2.446-5.868,7.097-13.58,9.805-16.354
		c2.386-2.515,2.042-2.726,1.355-3.032c-1.161-0.515-0.323-1.159,0.322-1.675c0.646-0.516,2.063,0.064,3.03,0.257
		c0.968,0.194,1.871-0.128,3.289-0.451c1.418-0.321,2.515,2.452,0.645,2.968c-1.87,0.514-4.514,2.062-6.448,5.996
		c-1.935,3.932-5.03,10.576-1.355,15.992c3.354,4.514,9.544,8.125,9.544,8.125v-1.096c0,0-4.321-1.161-6.448-5.289
		c-0.452-0.967,0.386-1.935,0.386-1.935s-0.645,1.483-1.289,1.032c-0.645-0.45-3.031-4.965-2.322-5.739
		c0.71-0.775,6.706-7.544,11.543-12.123C27.75,3.379,30.598,2.004,35.041,6.174"/>
	<path fill="#9297B0" d="M30.827,17.266c-0.335,0-0.729,0.587-0.907,1.376c-0.19,0.844-0.063,1.598,0.284,1.687
		c0.021,0.006,0.044,0.009,0.066,0.009c0.335,0,0.729-0.588,0.908-1.378c0.191-0.844,0.064-1.599-0.282-1.686
		C30.873,17.269,30.849,17.266,30.827,17.266 M28.729,21.098c0,0,0.202-0.605,1.01-0.895c-0.435-1.709,0.356-3.164,1.053-3.164
		c0.043,0,0.088,0.007,0.131,0.019c1.24,0.462-0.058,3.232-0.058,3.232s0.375,0.029,0.577,0.317
		c-0.087-0.032-0.171-0.06-0.254-0.082c-0.221-0.104-0.468-0.153-0.723-0.153c-0.585,0-1.215,0.255-1.679,0.673
		C28.748,21.079,28.729,21.098,28.729,21.098"/>
	<path fill="#9297B0" d="M42.896,18.298c-0.342,0-0.694,0.633-0.803,1.453c-0.113,0.858,0.083,1.599,0.437,1.654
		c0.015,0.003,0.028,0.004,0.042,0.004c0.341,0,0.694-0.632,0.803-1.455c0.112-0.857-0.083-1.598-0.436-1.653
		C42.925,18.299,42.911,18.298,42.896,18.298 M44.342,22.541L44.342,22.541c-0.412-0.478-1.339-0.846-2.183-0.846
		c-0.234,0-0.461,0.028-0.67,0.091c-0.166,0.021-0.282,0.047-0.328,0.057c-0.004-0.002-0.008-0.004-0.012-0.007
		c0.056-0.079,0.365-0.478,0.885-0.478c-0.386-0.744-0.219-3.25,0.777-3.25c0.047,0,0.096,0.006,0.147,0.017
		c1.241,0.29,0.202,3.406,0.202,3.406S44.024,21.877,44.342,22.541"/>
	<path fill="#D9DBE4" d="M13.083,0.012h-0.008H13.083 M18.579,0.044L18.579,0.044 M18.511,0.059
		c0.009-0.001,0.019-0.004,0.027-0.006C18.53,0.055,18.52,0.058,18.511,0.059 M18.266,0.117c0.006-0.001,0.011-0.002,0.018-0.004
		C18.277,0.115,18.272,0.116,18.266,0.117 M12.338,0.22c0.188-0.151,0.444-0.208,0.734-0.208C12.782,0.012,12.526,0.069,12.338,0.22
		 M15.312,0.466c-0.262-0.055-0.554-0.135-0.852-0.213C14.758,0.331,15.05,0.411,15.312,0.466 M15.369,0.477
		c-0.011-0.002-0.023-0.005-0.034-0.006C15.346,0.472,15.358,0.475,15.369,0.477 M15.98,0.536c0.653-0.001,1.333-0.188,2.219-0.403
		C17.313,0.348,16.633,0.535,15.98,0.536 M15.974,0.536L15.974,0.536L15.974,0.536 M57.53,2.812h-0.002H57.53 M59.81,3.491
		c-0.002-0.001-0.006-0.004-0.008-0.005C59.804,3.486,59.808,3.49,59.81,3.491 M49.729,7.322c2.776-2.333,5.309-4.501,7.783-4.51
		C55.038,2.822,52.505,4.989,49.729,7.322 M49.629,7.406c0.032-0.028,0.065-0.055,0.098-0.083
		C49.695,7.352,49.662,7.378,49.629,7.406 M49.603,7.428c0.006-0.005,0.011-0.01,0.017-0.015
		C49.614,7.418,49.609,7.422,49.603,7.428 M49.51,7.505c0.014-0.011,0.027-0.022,0.041-0.034C49.537,7.483,49.524,7.494,49.51,7.505
		 M49.387,7.609c-1.377-0.982-2.802-1.616-4.196-2.007C46.585,5.991,48.01,6.627,49.387,7.609"/>
	<path fill="#6C718C" d="M62.377,38.872c0.008-0.003,0.017-0.006,0.024-0.008C62.394,38.866,62.385,38.869,62.377,38.872
		 M60.226,39.377c0.465-0.01,1.131-0.162,2.149-0.505C61.357,39.215,60.691,39.368,60.226,39.377 M60.177,39.377h-0.002H60.177"/>
	<path fill="#A5A9BE" d="M79.388,15.158l0.002-0.001L79.388,15.158 M79.386,15.178c0-0.001,0-0.002,0-0.004
		C79.386,15.176,79.386,15.177,79.386,15.178 M79.365,15.363c0.006-0.058,0.014-0.116,0.021-0.175
		C79.378,15.247,79.371,15.305,79.365,15.363 M79.363,15.382c0-0.003,0-0.006,0.002-0.008
		C79.363,15.376,79.363,15.379,79.363,15.382 M78.048,16.456L78.048,16.456c-0.004-0.001-0.006-0.002-0.011-0.003
		C78.042,16.454,78.044,16.455,78.048,16.456 M26.333,48.095c-2.376,0-4.855-0.428-7.504-1.016
		C10.025,45.124,3.546,34.853,2.201,27.883C0.856,20.917,4.035,15.535,8.069,9.178c3.367-5.307,6.48-6.358,4.646-7.459
		c-0.577-0.306-0.871-0.638-0.995-0.961c-0.361,0.386-0.487,0.791,0.294,1.137c-0.42-0.186-0.578-0.388-0.579-0.596
		c-0.001-0.368,0.489-0.75,0.9-1.08c0.189-0.151,0.445-0.208,0.735-0.208h0.003h0.008c0.417,0.001,0.906,0.118,1.376,0.241
		c0.3,0.078,0.591,0.159,0.852,0.213c0.008,0.002,0.016,0.003,0.023,0.005c0.012,0.001,0.023,0.004,0.034,0.006
		c0.203,0.041,0.402,0.059,0.604,0.059h0.001h0.006c0.654-0.001,1.333-0.188,2.219-0.403c0.021-0.005,0.043-0.01,0.065-0.016
		c0.007-0.001,0.013-0.002,0.019-0.004c0.075-0.018,0.15-0.036,0.228-0.054c0.009-0.001,0.019-0.004,0.028-0.006
		c0.013-0.003,0.026-0.006,0.04-0.009h0.001c0.025-0.006,0.051-0.013,0.077-0.019c0.077-0.017,0.152-0.024,0.225-0.024
		c0.02,0,0.04,0,0.059,0.002c-0.666,0.149-0.988,0.509-0.356,0.983c0.674,0.506,0.34,0.675-0.36,0.675
		c-0.822,0-2.149-0.233-2.941-0.431C14.679,1.08,14.095,0.97,13.711,0.97c-0.547,0-0.687,0.224,0.104,0.872
		c1.344,1.1,2.079,0.366,0.367,2.566C12.471,6.61,9.048,11.256,6.48,19.327c-2.568,8.067,3.45,21.188,15.617,24.805
		c1.473,0.438,2.919,0.631,4.316,0.629c8.777,0,15.582-7.542,14.422-8.809c-1.071-1.167-1.677-2.8-1.324-2.8
		c0.091,0,0.244,0.106,0.469,0.355c1.614,1.957,3.716,2.798,5.847,2.798c3.195,0,6.452-1.892,8.213-4.753
		c2.933-4.77-1.468-7.458-5.869-8.437c0.233-0.026,0.479-0.036,0.731-0.036c0.331,0,0.671,0.017,1.011,0.032
		c0.34,0.017,0.68,0.032,1.005,0.032c1.444,0,2.612-0.316,2.387-2.352c-0.329-2.965-2.826-4.844-2.272-4.844
		c0.063,0,0.166,0.024,0.315,0.075c3.392,1.167,5.038,8.119,5.256,8.119c0.034,0,0.034-0.163,0-0.539
		c-0.244-2.812-2.323-7.091-3.79-8.436c-1.467-1.345-2.812-2.935-0.122-5.868c1.998-2.179,3.119-3.819,2.263-3.819
		c-0.297,0-0.832,0.197-1.651,0.639c-2.691,1.449-5.206,4.211-6.064,4.211c-0.155,0-0.257-0.091-0.293-0.298
		c-0.245-1.344,1.223-1.712-0.245-2.813c-2.045-1.767-5.575-1.978-7.149-1.978c-0.497,0-0.798,0.021-0.798,0.021L38.704,5.24
		c0.743-0.105,1.568-0.177,2.45-0.177c1.261,0,2.633,0.145,4.038,0.538c1.394,0.391,2.82,1.025,4.196,2.007
		c0.041-0.035,0.083-0.069,0.123-0.104c0.014-0.011,0.027-0.022,0.041-0.034c0.018-0.014,0.035-0.029,0.052-0.044
		c0.006-0.005,0.011-0.01,0.017-0.015c0.003-0.002,0.006-0.004,0.009-0.007c0.033-0.028,0.065-0.055,0.098-0.083
		c0-0.001,0.001-0.001,0.001-0.002c2.777-2.333,5.31-4.5,7.784-4.51h0.016h0.001c0.762,0.001,1.517,0.206,2.273,0.673
		c0.002,0.001,0.005,0.003,0.008,0.005c0.01,0.006,0.021,0.012,0.029,0.019c3.33,2.1,10.248,6.814,17.318,7.582
		c1.984,0.326,2.42,1.208,2.42,2.296c0.001,0.447-0.072,0.929-0.141,1.421c0.1-0.718,0.209-1.415,0.086-2.014
		c-0.936-0.523-2.366-1.069-4.533-1.411c-3.871-0.611-7.144-1.921-9.635-3.307c0.004,0.001,0.007,0.002,0.012,0.004
		c-0.903-0.501-1.706-1.013-2.395-1.504c-1.431-1.023-2.607-1.706-3.687-1.706c-0.873,0-1.68,0.446-2.506,1.521
		c-1.509,1.962-4.128,4.663-4.133,6.696c-0.002,0.457,0.129,0.881,0.435,1.253c1.664,2.035,3.976,5.641,4.899,13.129
		c0.587,4.752,1.158,9.557,2.96,11.813c0.387-0.082,0.863-0.219,1.461-0.42c-0.009,0.002-0.017,0.005-0.024,0.008
		c0,0.001-0.002,0.001-0.002,0.001c-1.017,0.343-1.687,0.495-2.149,0.505c-0.016,0-0.033,0-0.051,0l0,0
		c-0.987,0-1.005-0.68-1.612-1.509c0.607,0.828,0.625,1.509,1.612,1.509c0.018,0,0.037,0,0.055-0.001
		c-1.08-1.134-2.036-2.958-2.134-5.654c-0.22-6.014-1.687-7.772-1.687-7.772s1.393,3.373,0.22,9.02
		c-1.174,5.645-10.926,7.846-13.419,9.385c-0.969,0.598-1.64,0.898-2.037,0.898c-0.623,0-0.57-0.74,0.058-2.217
		c1.026-2.422,2.272-4.4,3.739-4.767c1.223-0.307,3.262-1.225,2.691-1.225c-0.114,0-0.331,0.036-0.677,0.12
		c0,0-0.752,0.094-1.603,0.171c-1.569-0.012-2.702-0.582-3.451-1.152c-0.757-0.575-1.12-1.151-1.142-1.151
		c-0.005,0,0.012,0.038,0.05,0.122c0.002,0.006,0.005,0.015,0.011,0.024c0.426,0.945,1.554,2.063,1.188,2.724
		C36.81,45.794,31.85,48.093,26.333,48.095"/>
	<path fill="#F5A2C5" d="M25.317,20.53c0.858-7.563,5.204-10.407,5.204-10.407s-1.823-3.701-2.415-3.701
		c-0.589,0-1.556,0.697-6.33,5.418c-3.833,3.79-8.322,8.926-9.942,10.805c0.604,1.421,1.499,2.924,1.857,3.175
		c0.331,0.231,0.662-0.048,0.907-0.374c0.155-0.391,0.383-0.658,0.383-0.658s-0.153,0.35-0.383,0.658
		c-0.141,0.356-0.219,0.815-0.004,1.276c1.762,3.419,5.026,4.801,6.096,5.175l0.013-0.049C15.287,25.573,18.88,22.353,25.317,20.53"
		/>
	<path d="M31.177,18.959c-0.191,0.844-0.627,1.456-0.974,1.369c-0.347-0.089-0.474-0.843-0.284-1.686
		c0.191-0.844,0.626-1.457,0.976-1.369C31.242,17.362,31.368,18.117,31.177,18.959"/>
	<path fill="#FFFFFF" d="M31.108,18.425c-0.053,0.334-0.222,0.584-0.379,0.557c-0.155-0.028-0.24-0.32-0.188-0.655
		c0.052-0.334,0.222-0.583,0.378-0.557C31.075,17.797,31.16,18.091,31.108,18.425"/>
	<path d="M43.375,19.955c-0.113,0.857-0.492,1.508-0.845,1.451c-0.354-0.055-0.55-0.796-0.437-1.654
		c0.113-0.855,0.491-1.506,0.846-1.45C43.293,18.357,43.488,19.097,43.375,19.955"/>
	<path fill="#FFFFFF" d="M43.256,19.427c-0.022,0.339-0.167,0.604-0.325,0.589c-0.159-0.012-0.269-0.296-0.248-0.633
		c0.022-0.34,0.167-0.603,0.326-0.59C43.167,18.807,43.278,19.091,43.256,19.427"/>
	<path fill="#9EA2B9" d="M29.833,16.167c0.207-1.145,0.517-1.572,0.819-1.572c0.354,0,0.698,0.584,0.852,1.288
		c-0.249-0.38-0.495-0.515-0.718-0.515C30.242,15.368,29.833,16.167,29.833,16.167"/>
	<path fill="#9EA2B9" d="M41.813,15.556c0.404-1.153,0.952-1.636,1.458-1.636c0.567,0,1.08,0.606,1.272,1.553
		c-0.4-0.591-0.828-0.792-1.223-0.792C42.495,14.681,41.813,15.556,41.813,15.556"/>
	<path fill="#5B6072" d="M29.833,15.862c0,0,0.815-1.589,1.672-0.285C31.217,14.273,30.28,13.375,29.833,15.862"/>
	<path fill="#5B6072" d="M41.813,15.25c0,0,1.491-1.912,2.73-0.082C44.177,13.375,42.67,12.804,41.813,15.25"/>
	<path fill="#F5A2C5" d="M62.972,6.577c-2.588-1.85-4.344-2.59-6.193-0.185c-1.849,2.403-5.362,5.916-3.698,7.95
		c1.664,2.034,3.976,5.64,4.899,13.128c0.587,4.753,1.158,9.557,2.96,11.814c0.387-0.083,0.863-0.22,1.461-0.421
		c3.33-1.128,3.074-1.692,3.33-3.126c0.308,0.563,0.666,1.844,5.432-2.716c4.765-4.559,5.789-7.735,5.84-8.711
		c0.052-0.971-1.075-2.151-1.075-2.151l1.332,0.358c0,0,1.28-1.536,1.691-3.689c0.341-1.782-0.585-2.263-0.914-2.376l-0.111-0.03
		l0.111,0.03c0.308,0.072,1.155,0.155,1.323-1.056c0.099-0.92,0.318-1.841,0.162-2.603c-0.936-0.522-2.366-1.069-4.533-1.41
		C69.721,10.552,65.562,8.425,62.972,6.577"/>
	<path fill="#CDCFDB" d="M30.116,3.68h-0.002H30.116 M34.961,6.099c-0.016-0.015-0.033-0.03-0.048-0.045
		C34.929,6.069,34.945,6.084,34.961,6.099 M35.043,6.172L35.043,6.172 M35.041,6.174L35.041,6.174 M22.995,7.88
		c2.803-2.644,4.938-4.198,7.112-4.2C27.932,3.684,25.797,5.236,22.995,7.88 M22.913,7.958c0.021-0.02,0.042-0.04,0.063-0.059
		C22.955,7.918,22.935,7.938,22.913,7.958"/>
	<path fill="#9EA2B9" d="M23.054,33.661c-0.62-0.02-1.293-0.186-2.011-0.554V32.01c0,0-2.141-0.575-4.151-2.355
		c1.438,1.274,2.943,1.931,3.683,2.201c0.042,0.015,0.08,0.028,0.117,0.041l0.014-0.049c-1.842-2.133-2.642-3.913-2.644-5.404
		c-0.004-2.897,3.007-4.709,7.256-5.914c0.858-7.563,5.204-10.407,5.204-10.407s-1.824-3.701-2.415-3.701
		c-0.59,0-1.556,0.697-6.329,5.418c-1.008,0.997-2.062,2.086-3.096,3.185c-2.899,3.08-5.651,6.235-6.847,7.62
		c0.604,1.421,1.5,2.924,1.857,3.175c-0.563-0.394-2.453-3.884-2.451-5.279c0-0.203,0.04-0.361,0.131-0.46
		c0.708-0.775,6.706-7.544,11.542-12.123c0.021-0.02,0.042-0.04,0.063-0.059c0.006-0.006,0.012-0.013,0.019-0.019
		c2.802-2.644,4.938-4.198,7.112-4.2h0.007h0.002c1.502,0,3.023,0.741,4.797,2.374c0.016,0.015,0.032,0.03,0.048,0.044
		c0.026,0.025,0.054,0.05,0.08,0.076c0.001-0.001,0.001-0.001,0.002-0.001c0.059-0.025,1.508-0.625,3.661-0.932
		c-4.829,1.215-10.938,7.42-12.121,13.039c-0.295,1.379,1.675,0.787,2.563,1.279c0.886,0.493-8.277,1.872-9.656,4.828
		c-0.84,1.8,0.072,2.576,1.158,2.576c0.699,0,1.471-0.322,1.896-0.9c0.491-0.671,3.413-3.164,7.325-4.56
		c-0.336,0.156-0.675,0.327-1.015,0.514c0,0,2.71-1.336,6.238-1.336c2.697,0,5.871,0.78,8.678,3.535
		c-0.119-0.154-0.243-0.306-0.371-0.453c0.819,0.72,1.622,1.579,2.399,2.596c-2.673-2.238-6.616-4.687-11.007-4.687
		c-3.54,0-7.371,1.591-11.064,6.164c-1.67,1.937-1.167,3.964,0.437,3.964c0.762,0,1.771-0.458,2.914-1.6
		c0.165-0.146,0.286-0.21,0.367-0.21c0.303,0,0.019,0.918-0.733,1.836c-0.712,0.872-1.844,1.744-3.29,1.831
		c-0.214-0.062-0.44-0.111-0.68-0.149C22.741,33.507,22.863,33.554,23.054,33.661"/>
	<polyline fill="#9EA2B9" points="16.89,29.653 16.878,29.642 16.89,29.653 	"/>
	<path fill="#9EA2B9" d="M16.875,29.64c-0.011-0.01-0.023-0.021-0.036-0.031C16.852,29.619,16.864,29.63,16.875,29.64"/>
	<polyline fill="#9EA2B9" points="16.835,29.605 16.826,29.596 16.835,29.605 	"/>
	<polyline fill="#9EA2B9" points="16.819,29.59 16.812,29.583 16.819,29.59 	"/>
	<polyline fill="#9EA2B9" points="16.804,29.575 16.796,29.569 16.804,29.575 	"/>
	<polyline fill="#9EA2B9" points="16.785,29.559 16.781,29.555 16.785,29.559 	"/>
	<polyline fill="#9EA2B9" points="16.766,29.542 16.764,29.54 16.766,29.542 	"/>
	<polyline fill="#9EA2B9" points="16.75,29.528 16.746,29.524 16.75,29.528 	"/>
	<polyline fill="#9EA2B9" points="16.734,29.511 16.73,29.509 16.734,29.511 	"/>
	<polyline fill="#9EA2B9" points="16.717,29.497 16.715,29.494 16.717,29.497 	"/>
	<polyline fill="#9EA2B9" points="16.028,28.797 16.026,28.795 16.028,28.797 	"/>
	<polyline fill="#9EA2B9" points="16.013,28.78 16.011,28.779 16.013,28.78 	"/>
	<polyline fill="#9EA2B9" points="15.964,28.726 15.963,28.723 15.964,28.726 	"/>
	<polyline fill="#9EA2B9" points="15.949,28.708 15.946,28.706 15.949,28.708 	"/>
	<polyline fill="#9EA2B9" points="15.934,28.691 15.931,28.687 15.934,28.691 	"/>
	<polyline fill="#9EA2B9" points="15.917,28.671 15.917,28.67 15.917,28.671 	"/>
	<polyline fill="#9EA2B9" points="15.901,28.653 15.898,28.65 15.901,28.653 	"/>
	<polyline fill="#9EA2B9" points="15.886,28.635 15.881,28.63 15.886,28.635 	"/>
	<polyline fill="#9EA2B9" points="15.872,28.619 15.866,28.613 15.872,28.619 	"/>
	<polyline fill="#9EA2B9" points="15.857,28.601 15.851,28.595 15.857,28.601 	"/>
	<polyline fill="#9EA2B9" points="15.842,28.583 15.836,28.578 15.842,28.583 	"/>
	<polyline fill="#9EA2B9" points="15.823,28.562 15.815,28.551 15.823,28.562 	"/>
	<polyline fill="#9EA2B9" points="15.809,28.544 15.8,28.536 15.809,28.544 	"/>
	<polyline fill="#9EA2B9" points="15.794,28.529 15.787,28.518 15.794,28.529 	"/>
	<polyline fill="#9EA2B9" points="15.781,28.511 15.772,28.5 15.781,28.511 	"/>
	<path fill="#9EA2B9" d="M15.768,28.496c-0.007-0.009-0.015-0.017-0.02-0.025C15.755,28.479,15.761,28.487,15.768,28.496"/>
	<polyline fill="#9EA2B9" points="15.746,28.468 15.736,28.456 15.746,28.468 	"/>
	<polyline fill="#9EA2B9" points="15.732,28.452 15.722,28.439 15.732,28.452 	"/>
	<polyline fill="#9EA2B9" points="15.718,28.435 15.708,28.422 15.718,28.435 	"/>
	<path fill="#9EA2B9" d="M15.706,28.418c-0.017-0.019-0.033-0.039-0.049-0.06C15.672,28.379,15.689,28.4,15.706,28.418"/>
	<path fill="#9EA2B9" d="M15.655,28.358c-0.003-0.006-0.007-0.01-0.012-0.017C15.648,28.348,15.652,28.352,15.655,28.358"/>
	<path fill="#9EA2B9" d="M15.643,28.341c-0.349-0.438-0.674-0.923-0.964-1.46C14.969,27.418,15.294,27.904,15.643,28.341"/>
	<path fill="#9EA2B9" d="M14.679,26.881c-0.013-0.025-0.026-0.05-0.04-0.074C14.651,26.832,14.666,26.856,14.679,26.881"/>
	<polyline fill="#9EA2B9" points="14.635,26.8 14.628,26.787 14.635,26.8 	"/>
	<polyline fill="#9EA2B9" points="14.624,26.778 14.617,26.766 14.624,26.778 	"/>
	<polyline fill="#9EA2B9" points="14.611,26.753 14.605,26.745 14.611,26.753 	"/>
	<path fill="#CC89B0" d="M14.598,25.446L14.598,25.446 M20.574,31.856c-0.74-0.271-2.244-0.927-3.683-2.201c0,0,0-0.002-0.002-0.002
		c-0.004-0.004-0.007-0.007-0.012-0.011c0-0.001-0.002-0.002-0.003-0.002c-0.012-0.01-0.024-0.021-0.036-0.031
		c-0.001-0.002-0.003-0.004-0.004-0.004c-0.003-0.003-0.006-0.006-0.009-0.009c-0.002-0.002-0.005-0.005-0.007-0.006
		c-0.002-0.003-0.006-0.006-0.008-0.008c-0.003-0.003-0.006-0.005-0.008-0.008c-0.003-0.001-0.005-0.003-0.007-0.006
		c-0.004-0.003-0.007-0.006-0.011-0.01c-0.002-0.001-0.002-0.002-0.004-0.004c-0.005-0.004-0.01-0.009-0.016-0.014
		c-0.001-0.001-0.002-0.002-0.002-0.002c-0.005-0.005-0.009-0.009-0.014-0.012c-0.001-0.002-0.002-0.003-0.004-0.004
		c-0.004-0.005-0.008-0.009-0.013-0.013c0-0.001-0.001-0.001-0.002-0.002c-0.005-0.005-0.01-0.009-0.014-0.013
		c-0.001-0.001-0.001-0.002-0.001-0.003c-0.022-0.02-0.044-0.04-0.066-0.061c-0.21-0.198-0.418-0.409-0.621-0.636
		c0,0,0,0-0.001-0.002c-0.005-0.005-0.01-0.011-0.015-0.016l-0.001-0.001c-0.016-0.018-0.032-0.035-0.047-0.054
		c-0.001,0-0.002-0.001-0.002-0.002c-0.004-0.005-0.009-0.01-0.013-0.015c-0.001-0.001-0.002-0.003-0.002-0.003
		c-0.004-0.005-0.009-0.01-0.013-0.015c-0.001-0.001-0.002-0.002-0.003-0.004c-0.005-0.005-0.009-0.01-0.014-0.016
		c0,0,0-0.001,0-0.001c-0.005-0.006-0.011-0.012-0.016-0.018c0-0.001-0.001-0.002-0.002-0.003c-0.004-0.005-0.008-0.01-0.013-0.015
		c-0.001-0.002-0.003-0.003-0.004-0.005c-0.003-0.004-0.006-0.008-0.009-0.012c-0.002-0.002-0.004-0.005-0.006-0.006
		c-0.003-0.005-0.006-0.008-0.009-0.012c-0.002-0.002-0.004-0.004-0.006-0.007c-0.003-0.004-0.006-0.008-0.009-0.011
		c-0.002-0.002-0.004-0.004-0.006-0.006c-0.004-0.006-0.008-0.011-0.013-0.016c-0.002-0.004-0.004-0.007-0.007-0.011
		c-0.003-0.002-0.004-0.004-0.006-0.007c-0.002-0.004-0.006-0.007-0.008-0.009l-0.006-0.008c-0.002-0.003-0.006-0.007-0.008-0.01
		c-0.002-0.003-0.003-0.006-0.005-0.008c-0.002-0.003-0.006-0.006-0.008-0.01c-0.002-0.002-0.003-0.004-0.005-0.005
		c-0.006-0.009-0.013-0.017-0.021-0.025l-0.001-0.002c-0.003-0.005-0.007-0.009-0.011-0.013c0-0.001-0.002-0.003-0.004-0.004
		c-0.003-0.004-0.007-0.008-0.009-0.013c-0.002-0.001-0.002-0.002-0.004-0.004c-0.003-0.004-0.007-0.009-0.011-0.013
		c0-0.002-0.001-0.002-0.002-0.004c-0.016-0.019-0.033-0.04-0.048-0.06c-0.001-0.001-0.001-0.001-0.001-0.001
		c-0.004-0.006-0.008-0.011-0.012-0.017l0,0c-0.349-0.438-0.676-0.923-0.965-1.46c-0.013-0.025-0.027-0.05-0.04-0.074
		c-0.001-0.003-0.002-0.005-0.003-0.007c-0.002-0.005-0.004-0.01-0.007-0.014c-0.001-0.003-0.003-0.006-0.005-0.009
		c-0.001-0.004-0.004-0.008-0.006-0.012c-0.001-0.004-0.003-0.009-0.005-0.013c-0.002-0.003-0.004-0.006-0.006-0.009
		c-0.004-0.008-0.008-0.016-0.011-0.022c-0.096-0.205-0.133-0.41-0.133-0.605c0-0.244,0.059-0.474,0.136-0.671
		c0.23-0.309,0.383-0.658,0.383-0.658s-0.228,0.268-0.383,0.658c-0.181,0.242-0.41,0.459-0.652,0.459
		c-0.084,0-0.169-0.025-0.254-0.085c-0.358-0.251-1.253-1.754-1.857-3.175c1.195-1.385,3.947-4.54,6.847-7.62
		c-0.213,0.226-0.425,0.452-0.635,0.678c2.113-1.934,6.258-5.509,8.158-5.628c0.035-0.002,0.069-0.004,0.102-0.004
		c2.352,0-3.202,5.737-3.363,7.666c-0.162,1.956-1.303,2.771-3.912,4.564c-2.608,1.793-3.097,2.282-2.935,4.239
		c0.045,0.532-0.262,0.726-0.732,0.726c-0.151,0-0.319-0.02-0.497-0.056C16.611,30.161,19.459,31.448,20.574,31.856"/>
	<path fill="#A189AA" d="M18.682,15.025c1.034-1.099,2.087-2.188,3.095-3.185C20.769,12.837,19.716,13.926,18.682,15.025
		 M20.691,31.897c-0.036-0.013-0.075-0.026-0.117-0.041C20.616,31.871,20.655,31.884,20.691,31.897l0.013-0.049L20.691,31.897"/>
	<path fill="#CB76A6" d="M20.691,31.897c-0.036-0.013-0.075-0.026-0.117-0.041c-1.115-0.408-3.963-1.695-5.705-4.646
		c0.179,0.036,0.346,0.056,0.497,0.056c0.471,0,0.777-0.193,0.733-0.726c-0.163-1.957,0.325-2.446,2.935-4.239
		c2.609-1.793,3.75-2.608,3.911-4.564c0.162-1.929,5.716-7.666,3.364-7.666c-0.033,0-0.067,0.002-0.102,0.004
		c-1.9,0.12-6.045,3.695-8.159,5.629c0.211-0.227,0.423-0.453,0.636-0.679c1.034-1.099,2.087-2.188,3.095-3.185
		c4.774-4.721,5.74-5.418,6.33-5.418c0.591,0,2.415,3.701,2.415,3.701s-4.346,2.843-5.204,10.407
		c-4.25,1.205-7.26,3.017-7.256,5.914c0.001,1.491,0.802,3.271,2.643,5.404L20.691,31.897"/>
	<path fill="#A5A9BE" d="M27.142,27.517c1.38-1.654,3.574-2.492,5.644-2.492c1.6,0,3.125,0.501,4.139,1.515
		c-1.561-0.605-2.971-0.829-4.204-0.829C29.217,25.71,27.142,27.517,27.142,27.517"/>
	<path fill="#A5A9BE" d="M24.819,31.307c0.56-0.933,1.208-1.681,1.909-2.268c0.781-0.581,2.653-1.745,5.105-1.745
		c1.471,0,3.15,0.419,4.928,1.632c-0.023-0.025-0.048-0.051-0.074-0.078c0.362,0.307,0.65,0.642,0.849,0.992
		c-2.14-1.358-4.072-1.85-5.747-1.85C27.435,27.991,24.819,31.307,24.819,31.307"/>
	<path fill="#A5A9BE" d="M33.133,33.142c-1.507-1.186-2.966-1.517-4.128-1.517c-1.477,0-2.474,0.536-2.474,0.536
		c0.67-0.67,1.649-0.947,2.653-0.947C30.929,31.214,32.745,32.055,33.133,33.142"/>
	<path fill="#A5A9BE" d="M25.431,38.031c0.097-2.711-1.647-3.965-2.377-4.37c0.044,0.002,0.087,0.003,0.13,0.003
		c0.08,0,0.159-0.003,0.236-0.007C25.271,34.19,26.088,35.62,25.431,38.031"/>
	<path fill="#8F93AC" d="M23.184,33.664c-0.043,0-0.086-0.001-0.13-0.003c-0.191-0.106-0.313-0.153-0.313-0.153
		c0.24,0.038,0.467,0.088,0.679,0.149C23.343,33.661,23.264,33.664,23.184,33.664"/>
	<path fill="#A5A9BE" d="M19.562,39.744c1.711-3.668,0.734-6.847,0.734-6.847C21.273,34.364,22.13,37.053,19.562,39.744"/>
	<path fill="#A5A9BE" d="M11.898,31.951c-0.166,0-0.341-0.01-0.526-0.033c3.056-1.467,3.056-3.544,3.056-3.544
		C14.771,29.407,14.469,31.951,11.898,31.951"/>
	<path fill="#A5A9BE" d="M8.069,24.583c0-1.194,0.89-1.659,1.749-1.659c0.197,0,0.391,0.024,0.575,0.07
		C10.393,22.994,8.559,23.482,8.069,24.583"/>
	<path fill="#D9DBE4" d="M10.201,22.051c0,0-0.018-0.003-0.051-0.005c-0.003-0.014-0.007-0.027-0.01-0.039
		C10.161,22.021,10.181,22.036,10.201,22.051"/>
	<path fill="#A5A9BE" d="M6.574,22.929c0.679-0.829,1.673-1.197,2.498-1.197c0.422,0,0.799,0.097,1.067,0.275
		c0.003,0.012,0.006,0.025,0.01,0.039c-0.069-0.007-0.204-0.016-0.389-0.016C9.104,22.031,7.81,22.147,6.574,22.929"/>
	<path fill="#A5A9BE" d="M7.51,18.659c0.316-0.432,0.787-0.622,1.226-0.622c0.455,0,0.877,0.206,1.056,0.563
		c0,0-0.536-0.243-1.183-0.243C8.252,18.357,7.863,18.43,7.51,18.659"/>
	<path fill="#B5B8C9" d="M32.985,47.569h-0.003H32.985 M31.717,47.972c0.475-0.283,0.89-0.402,1.261-0.402
		C32.607,47.569,32.192,47.688,31.717,47.972 M31.684,47.993c0.003-0.002,0.008-0.006,0.011-0.008
		C31.691,47.987,31.687,47.991,31.684,47.993 M24.59,49.362c3.287,0,5.925-0.678,7.078-1.361
		C30.515,48.685,27.878,49.362,24.59,49.362 M24.589,49.362h-0.028H24.589 M35.389,49.483c-0.009-0.014-0.018-0.025-0.028-0.039
		c-0.01-0.016-0.021-0.029-0.031-0.045c0.01,0.016,0.021,0.029,0.031,0.045C35.371,49.458,35.379,49.47,35.389,49.483
		 M37.529,51.321c0.091,0,0.185-0.01,0.283-0.029C37.714,51.312,37.621,51.321,37.529,51.321 M37.528,51.321h-0.005H37.528"/>
	<path fill="#8E93AC" d="M43.682,37.433c-0.082,0-0.158-0.001-0.228-0.004c-0.992-0.041-2.563-2.284-2.615-2.284
		c-0.002,0-0.002,0.004,0,0.009c-0.039-0.084-0.055-0.122-0.05-0.122c0.021,0,0.385,0.576,1.142,1.151
		c0.749,0.57,1.882,1.141,3.45,1.152C44.791,37.388,44.152,37.433,43.682,37.433 M37.528,51.321h-0.005
		c-0.881-0.004-1.493-0.914-2.134-1.838c-0.009-0.014-0.018-0.025-0.028-0.039c-0.01-0.016-0.021-0.029-0.031-0.045
		c-0.643-0.922-1.325-1.828-2.345-1.83h-0.003h-0.003c-0.371,0-0.786,0.119-1.261,0.402c-0.008,0.006-0.015,0.01-0.022,0.014
		c-0.003,0.002-0.008,0.006-0.011,0.008c-0.006,0.002-0.01,0.006-0.016,0.008c-1.153,0.684-3.791,1.361-7.078,1.361h-0.001h-0.028
		c-6.295-0.008-14.961-2.5-20.159-12.186C2.374,33.396-0.002,29.618,0,25.471c0.001-1.354,0.254-2.746,0.856-4.19
		c2.445-5.868,7.097-13.58,9.805-16.354c1.402-1.479,1.861-2.161,1.861-2.534c0-0.262-0.224-0.372-0.507-0.498
		c-0.781-0.347-0.656-0.751-0.294-1.137c0.125,0.323,0.418,0.655,0.995,0.961c1.833,1.101-1.279,2.152-4.647,7.459
		c-4.034,6.356-7.212,11.738-5.867,18.705c1.344,6.97,7.824,17.241,16.627,19.196c2.65,0.588,5.128,1.016,7.504,1.016
		c5.517-0.002,10.477-2.301,15.704-10.193c0.367-0.66-0.762-1.778-1.188-2.724c0.177,0.355,0.75,1.148,1.368,2.032
		c0.618,0.881-1.104,1.896-3.707,5.514c-2.604,3.621-5.826,4.81-5.826,4.81c0.382-0.107,0.716-0.154,1.008-0.154
		c2.242,0,2.117,2.775,3.534,2.775c0.573,0,0.794-1.039,1.897-4.568c1.104-3.531,3.093-7.01,3.8-7.715
		c0.145,0.009,0.29,0.014,0.435,0.014c1.842,0,3.625-0.721,3.625-0.721c0.346-0.084,0.563-0.12,0.677-0.12
		c0.572,0-1.467,0.918-2.69,1.225c-1.466,0.366-2.713,2.345-3.74,4.767c-0.627,1.477-0.679,2.217-0.056,2.217
		c0.396,0,1.066-0.301,2.036-0.898c2.494-1.54,12.247-3.741,13.42-9.385c1.173-5.646-0.221-9.02-0.221-9.02s1.467,1.759,1.687,7.772
		c0.098,2.696,1.054,4.521,2.135,5.654c-0.019,0.001-0.038,0.001-0.056,0.001c-0.986,0-1.004-0.681-1.611-1.509
		c0,0-1.875,1.548-7.092,4.32c-5.216,2.771-8.879,3.802-9.876,4.8c-0.415,0.414-0.724,1.133-1.113,1.869c0,0.002,0,0.002,0,0.002
		c-0.548,1.037-1.257,2.111-2.648,2.424c-0.008,0.004-0.015,0.006-0.022,0.008C37.714,51.312,37.621,51.321,37.528,51.321
		L37.528,51.321"/>
	<path fill="#626A87" d="M40.85,35.178L40.85,35.178c-0.006-0.01-0.009-0.019-0.011-0.024C40.843,35.162,40.846,35.169,40.85,35.178
		 M45.431,37.335h-0.05c0.851-0.077,1.603-0.171,1.603-0.171C46.426,37.285,45.908,37.335,45.431,37.335"/>
	<path fill="#59627F" d="M37.227,50.155c-1.416,0-1.291-2.775-3.533-2.775c-0.293,0-0.626,0.049-1.008,0.154
		c0,0,3.222-1.189,5.825-4.81c2.604-3.617,4.325-4.633,3.708-5.514c-0.618-0.884-1.192-1.677-1.368-2.032
		c-0.004-0.009-0.007-0.017-0.011-0.024c-0.001-0.005-0.001-0.008,0-0.008c0.053,0,1.624,2.242,2.615,2.284
		c0.07,0.002,0.147,0.003,0.229,0.003c0.471,0,1.109-0.045,1.7-0.098h0.05c0.478,0,0.995-0.051,1.553-0.17
		c0,0-1.783,0.72-3.625,0.72c-0.145,0-0.29-0.005-0.435-0.014c-0.707,0.706-2.695,4.185-3.798,7.715
		C38.022,49.116,37.8,50.155,37.227,50.155"/>
	<path fill="#EA576C" d="M34.352,46.983c0,0,0.857,0.113,1.342,0.672c0.122,0.141,0.218,0.309,0.293,0.479
		c0.517,0.512,0.756,1.08,1.023,1.08c0.469,0,0.614-0.209,1.253-2.211c0.458-2.053,1.235-4.37,2.389-6.618
		C36.85,45.456,34.352,46.983,34.352,46.983"/>
	<path fill="#F599A7" d="M36.254,48.431c0.34,0.412,0.54,0.783,0.756,0.783c0.469,0,0.614-0.209,1.254-2.211
		c0.101-0.455,0.221-0.926,0.355-1.404C36.995,45.634,36.441,47.351,36.254,48.431"/>
	<path fill="#D9DBE4" d="M111.464,29.31c-0.053-0.138-0.109-0.282-0.17-0.432C111.355,29.029,111.412,29.172,111.464,29.31
		 M35.307,76.127L35.307,76.127L35.307,76.127 M35.307,76.176L35.307,76.176L35.307,76.176 M35.308,76.32c0-0.002,0-0.002,0-0.004
		C35.308,76.318,35.308,76.318,35.308,76.32 M35.308,76.367v-0.004V76.367"/>
	<path fill="#A5A9BE" d="M56.807,65.836c-0.081,1.402,0.089,2.834,0.464,4.305c-0.048-0.443-0.121-0.953-0.227-1.543
		C56.859,67.586,56.791,66.674,56.807,65.836 M49.067,81.807c-0.577,0-1.115-0.289-1.391-0.719
		c-0.772-1.203-0.725-2.268-2.474-2.268c-0.444,0-1.005,0.07-1.725,0.221c-0.581,0.123-1.103,0.172-1.577,0.172
		c-0.877,0-1.591-0.164-2.205-0.328c-0.615-0.162-1.13-0.33-1.606-0.33c-0.371,0-0.72,0.102-1.073,0.381
		c-0.144,0.111-0.274,0.162-0.393,0.162c-1.114,0-1.114-4.58-1.114-4.58l-0.142,0.031c-0.043,0.627-0.065,1.236-0.061,1.82v-0.002
		v-0.004c0-0.014,0-0.027,0-0.043c0-0.002,0-0.002,0-0.004c0-0.049,0-0.094,0-0.141l0,0c0-0.016,0-0.033,0-0.049l0,0
		c0.014-3.918,1.117-8.861,2.458-13.121l0.178-0.113c0,0-3.424,9.129,2.281,10.434c0.571,0.131,1.109,0.191,1.618,0.191
		c4.571-0.002,6.566-5.018,5.393-10.299c-1.305-5.871,1.63-4.727-0.979-9.784c-1.425-2.762-1.73-3.916-1.235-3.916
		c0.411,0,1.373,0.795,2.702,2.123c2.191,2.193,4.837,4.747,7.258,4.747c0.821,0,1.617-0.295,2.361-0.996
		c2.934-2.772,1.793-5.054,1.141-7.009c-0.214-0.646-0.128-0.936,0.154-0.936c0.574,0,1.958,1.197,3.269,3.053
		c1.955,2.773-0.652,7.175-2.607,11.413c-1.85,4.008-0.02,10.666,3.938,10.666c0.23,0,0.465-0.025,0.707-0.07
		c7.255-1.385,5.787-8.314,3.669-12.553c-2.119-4.238,5.38-6.683,2.771-12.878c-0.172-0.689,0.009-0.992,0.346-0.992
		c0.941,0,3.104,2.35,2.264,5.23c-0.449,1.537,0.293,2.348,1.961,2.348c2.574,0,7.356-1.932,13.361-6.098
		c5.229-3.625,14.346-11.084,8.477-23.31c-5.197-10.832-6.348-14.554-5.523-14.554c1.395,0,8.451,10.692,11.066,15.614
		c4.156,7.824,5.623,11.98-0.733,19.317c-6.358,7.334-7.581,10.515-8.56,16.87c-0.477,3.104,1.605,4.865,4.033,4.863
		c2.553,0,5.486-1.945,6.238-6.328c1.467-8.558,3.668-11.493,6.357-18.584c2.028-5.348,2.386-10.14-0.076-16.053
		c0.73,1.34,1.313,2.527,1.701,3.477c0.061,0.149,0.117,0.294,0.168,0.432c0.498,1.34,0.702,2.62,0.701,3.939
		c0,0.83-0.082,1.676-0.221,2.562c-0.098,0.636-0.228,1.29-0.377,1.976c-0.339,1.543-0.783,3.235-1.236,5.182
		c0.452-1.939,0.895-3.626,1.23-5.165c-1.411,5.549-5.064,14.178-6.82,19.167c-2.045,5.814-1.291,8.721-0.322,15.182
		c0.637,4.254-0.967,5.615-2.507,5.615c-0.796,0-1.575-0.365-2.016-0.881c-0.646-0.752-1.722-0.996-3.161-0.996
		c-1.441,0-3.244,0.244-5.344,0.459c-0.107,0.012-0.209,0.018-0.307,0.018c-2.396,0-2.591-3.129-2.409-5.441
		c-0.438,3.195-0.642,6.297-0.522,9.084c-0.023-0.531-0.033-1.074-0.033-1.625c0.001-3.529,0.452-7.463,1.209-11.41
		c0.352-0.697,0.781-2.027,1.308-4.299c2.369-10.228,6.138-13.028,9.798-19.057c3.66-6.03,6.675-6.353,1.723-15.827
		c-4.951-9.475-9.26-14.32-9.26-14.32s10.875,15.613,10.766,21.104c-0.106,5.489-10.443,14.425-17.226,20.026
		c-4.663,3.85-8.666,6.018-11.341,6.018c-1.216,0-2.158-0.445-2.764-1.389c-1.938-3.016,0.108-5.169,0.108-7.321
		c0-2.154-1.399-3.984-1.399-3.984c1.721,3.445,0,6.677-1.509,9.474c-1.507,2.801,1.401,6.031,5.814,11.307
		c4.044,4.834,1.944,8.492-0.671,8.492c-0.242,0-0.484-0.031-0.729-0.094c-0.395-0.104-0.813-0.15-1.246-0.15
		c-2.757,0-6.107,1.891-7.691,3.381c-0.228,0.215-0.481,0.311-0.751,0.311c-1.886,0-4.523-4.617-4.523-4.617l-0.111,0.002
		c0.175,0.34,0.355,0.678,0.542,1.02c-2.047-3.736-3.376-7.213-3.379-10.512c-0.001-0.244,0.006-0.484,0.021-0.725
		c0,0.008,0,0.014,0,0.023c0.072-1.271,0.352-2.516,0.873-3.742c0.001-0.002,0.002-0.006,0.004-0.008
		c0.003-0.008,0.005-0.014,0.009-0.021c0.002-0.006,0.004-0.01,0.007-0.016c0-0.002,0.001-0.004,0.003-0.008
		c0.004-0.008,0.008-0.018,0.012-0.025c0-0.002,0-0.002,0-0.002c0.129-0.299,0.273-0.596,0.432-0.891
		c0.006-0.012,0.011-0.02,0.016-0.029l-0.155-0.096c0.7-1.449,1.557-2.689,2.158-4.027c1.399-3.124,1.4-4.415-0.645-7.431
		c2.045,3.445,0.105,6.569-1.293,8.29c-0.53,0.654-0.984,0.951-1.525,0.951c-0.884,0-2.001-0.799-4.075-2.135
		c-3.337-2.153-7.212-5.923-7.212-5.923l1.291,1.725c1.292,1.721,3.229,3.015,1.506,5.813c-1.722,2.799,0.109,7.32,2.37,15.719
		C52.199,79.984,50.513,81.807,49.067,81.807"/>
	<path fill="#A5A9BE" d="M89.638,65.432c1.303-6.164,3.309-12.239,5.469-16.739C92.947,53.194,90.943,59.268,89.638,65.432
		 M89.63,65.477c0.001-0.01,0.003-0.02,0.005-0.027C89.633,65.457,89.631,65.467,89.63,65.477 M89.617,65.537
		c0-0.002,0-0.006,0-0.006C89.617,65.533,89.617,65.535,89.617,65.537"/>
	<path fill="#A5A9BE" d="M58.008,60.998c-2.606-1.629-4.063-3.043-7.694-4.908C53.944,57.955,55.404,59.369,58.008,60.998"/>
	<path fill="#A5A9BE" d="M50.312,56.088c-0.007-0.004-0.014-0.008-0.021-0.01C50.298,56.08,50.305,56.084,50.312,56.088"/>
	<path fill="#A5A9BE" d="M50.29,56.078c-0.006-0.004-0.012-0.008-0.018-0.01C50.279,56.07,50.284,56.074,50.29,56.078"/>
	<path fill="#A5A9BE" d="M95.113,48.685c0.002-0.008,0.006-0.014,0.009-0.02C95.119,48.671,95.115,48.677,95.113,48.685
		 M50.269,56.066c-0.015-0.008-0.029-0.016-0.044-0.023C50.239,56.051,50.253,56.059,50.269,56.066"/>
	<path fill="#E9ECF4" d="M43.398,23.762c-2.698-2.368-5.575-3.222-8.307-3.222c-1.841,0-3.615,0.388-5.223,0.962
		c1.938-0.897,3.813-1.296,5.559-1.296c2.154,0,4.106,0.607,5.722,1.629c-0.006,0.008-0.009,0.013-0.009,0.013
		s0.007-0.001,0.022-0.006C42.006,22.378,42.757,23.029,43.398,23.762"/>
	<path fill="#DDE1EC" d="M41.139,21.848c0,0,0.003-0.004,0.009-0.013c0.004,0.003,0.009,0.005,0.013,0.007
		C41.147,21.847,41.139,21.848,41.139,21.848"/>
	<path fill="#E0E4EE" d="M43.77,24.215c-2.807-2.755-5.981-3.534-8.678-3.534c-3.527,0-6.237,1.335-6.237,1.335
		c0.339-0.187,0.678-0.357,1.015-0.514c1.607-0.574,3.38-0.962,5.222-0.962c2.73,0,5.608,0.854,8.307,3.222
		C43.526,23.91,43.651,24.061,43.77,24.215"/>
	<path fill="#CDCFDB" d="M56.807,65.813c0.041-1.947,0.552-3.471,1.202-4.814c0.05,0.033,0.103,0.063,0.154,0.096
		c-0.005,0.01-0.01,0.02-0.016,0.029c-0.159,0.295-0.303,0.592-0.433,0.891v0.002c-0.004,0.008-0.008,0.018-0.012,0.025
		c0,0.002-0.001,0.006-0.002,0.008c-0.002,0.006-0.006,0.012-0.008,0.018c-0.002,0.006-0.005,0.012-0.009,0.02
		c0,0.002-0.001,0.006-0.003,0.008C57.162,63.311,56.883,64.549,56.807,65.813"/>
	<path fill="#8E93AC" d="M58.147,61.123L58.147,61.123 M57.714,62.016v-0.002C57.714,62.014,57.714,62.014,57.714,62.016
		 M57.699,62.049c0-0.002,0.002-0.006,0.003-0.008C57.702,62.045,57.7,62.047,57.699,62.049 M57.684,62.086
		c0.003-0.008,0.005-0.014,0.008-0.02C57.688,62.072,57.687,62.078,57.684,62.086 M56.807,65.836c0-0.01,0-0.016,0.001-0.023
		c0.075-1.264,0.355-2.502,0.872-3.719C57.159,63.32,56.879,64.564,56.807,65.836"/>
	<path fill="#8E93AC" d="M58.163,61.094c-0.052-0.033-0.103-0.063-0.155-0.096L58.163,61.094"/>
	<path fill="#8E93AC" d="M57.27,70.141c-0.374-1.471-0.544-2.902-0.463-4.305c-0.016,0.838,0.052,1.75,0.236,2.762
		C57.151,69.188,57.224,69.697,57.27,70.141"/>
	<path fill="#CDCFDB" d="M40.116,85.756c-4.626-0.715-4.503-3.463-4.804-9.107c-0.002-0.088-0.004-0.18-0.005-0.266
		c0,0.01,0.001,0.02,0.001,0.029v0.002c0,0.031,0,0.061,0.001,0.09c0,0.004,0,0.004,0,0.004c0,0.018,0,0.029,0,0.045
		c0,0,0,0.002,0,0.004c0,0.014,0,0.029,0,0.043c0,0,0,0,0,0.004c0.001,0.014,0.001,0.029,0.002,0.045
		C35.613,82.293,35.49,85.041,40.116,85.756"/>
	<path fill="#9EA2B9" d="M35.308,76.412c0-0.01,0-0.02,0-0.031c0-0.004,0-0.008,0-0.012C35.308,76.385,35.308,76.398,35.308,76.412
		 M35.31,76.504c-0.001-0.029-0.002-0.059-0.002-0.09C35.308,76.445,35.309,76.475,35.31,76.504 M35.311,76.553
		c0-0.016,0-0.027,0-0.045C35.31,76.525,35.31,76.537,35.311,76.553 M35.312,76.6c-0.001-0.014-0.001-0.029-0.001-0.043
		C35.311,76.57,35.311,76.586,35.312,76.6 M35.312,76.648c0-0.016,0-0.031,0-0.045C35.312,76.617,35.312,76.633,35.312,76.648"/>
	<path fill="#CDCFDB" d="M50.272,56.068c-0.002,0-0.003-0.002-0.004-0.002C50.269,56.066,50.271,56.068,50.272,56.068
		 M50.292,56.078c-0.001,0-0.001,0-0.001,0S50.29,56.078,50.292,56.078 M50.314,56.09c0-0.002-0.001-0.002-0.001-0.002
		S50.313,56.088,50.314,56.09"/>
	<path fill="#B5B8C9" d="M35.308,76.414v-0.002V76.414 M35.31,76.508c0,0,0,0,0-0.004C35.31,76.508,35.31,76.508,35.31,76.508
		 M35.31,76.557c0-0.002,0-0.004,0-0.004C35.31,76.555,35.31,76.555,35.31,76.557 M35.312,76.604c0-0.004,0-0.004,0-0.004
		S35.312,76.6,35.312,76.604"/>
	<path fill="#8E93AC" d="M40.128,85.758h-0.003H40.128 M43.283,85.963c-0.729,0-1.467-0.031-2.198-0.096
		c0.729,0.064,1.466,0.096,2.193,0.096c1.285,0,2.544-0.096,3.704-0.268c0.173-0.277,0.248-0.607,0.247-0.967
		c-0.001-0.9-0.471-1.99-1.005-2.932c-0.427-0.75-1.087-1.133-1.708-1.133c-0.731,0-1.408,0.531-1.591,1.615
		c-0.193-1.17-0.968-1.695-1.771-1.695c-0.845,0-1.721,0.58-1.981,1.607c-0.068-0.988-0.683-1.791-1.228-1.791
		c-0.123,0-0.242,0.043-0.351,0.129c-0.807,0.531-0.876,2.506-0.845,3.648c0.427,0.51,0.999,0.902,1.776,1.188
		c0.004,0.002,0.007,0.002,0.011,0.002l0.001,0.002c0.453,0.164,0.976,0.293,1.58,0.387c-4.626-0.715-4.502-3.463-4.804-9.107
		c0-0.016-0.001-0.031-0.001-0.045c0-0.004,0-0.004,0-0.004c0-0.014,0-0.029,0-0.043c0-0.002,0-0.002,0-0.004
		c0-0.016,0-0.027,0-0.045c0,0,0,0,0-0.004c-0.001-0.029-0.001-0.059-0.002-0.09v-0.002c0-0.014,0-0.027,0-0.043
		c-0.004-0.584,0.018-1.193,0.061-1.82l0.141-0.031c0,0,0,4.58,1.115,4.58c0.118,0,0.248-0.051,0.393-0.162
		c0.355-0.279,0.702-0.381,1.075-0.381c0.475,0,0.989,0.168,1.604,0.33c0.614,0.164,1.329,0.328,2.205,0.328
		c0.475,0,0.996-0.049,1.577-0.172c0.719-0.15,1.281-0.221,1.725-0.221c1.75,0,1.702,1.064,2.474,2.268
		c0.275,0.43,0.814,0.719,1.391,0.719c1.446,0,3.132-1.822,1.516-7.826c-2.26-8.398-4.091-12.92-2.369-15.719
		c1.724-2.799-0.214-4.093-1.506-5.813l-1.291-1.725c0,0,3.875,3.77,7.212,5.923c2.073,1.336,3.191,2.135,4.076,2.135
		c0.539,0,0.993-0.297,1.523-0.951c1.398-1.721,3.338-4.845,1.293-8.29c2.045,3.016,2.044,4.307,0.645,7.431
		c-0.601,1.338-1.458,2.578-2.158,4.027c-2.604-1.629-4.064-3.043-7.694-4.908c0-0.002-0.001-0.002-0.001-0.002
		c-0.007-0.004-0.015-0.008-0.021-0.01c-0.001,0-0.001,0-0.001,0c-0.006-0.004-0.013-0.008-0.02-0.01c0,0-0.002-0.002-0.002-0.002
		c-0.015-0.008-0.029-0.016-0.044-0.023c-1.076,1.865-1.478,3.105-1.479,4.342c-0.002,1.531,0.61,3.059,1.318,5.762
		c1.25,4.762,2.651,13.932,2.65,16.41c0,0.068-0.001,0.129-0.003,0.186C52.64,84.627,48.146,85.963,43.283,85.963"/>
	<path fill="#CDCFDB" d="M95.122,48.665c0.005-0.014,0.012-0.025,0.019-0.039C95.133,48.64,95.126,48.653,95.122,48.665
		 M95.107,48.694c0.002-0.004,0.003-0.008,0.006-0.01C95.11,48.687,95.109,48.69,95.107,48.694 M89.635,65.451
		c0.001-0.008,0.003-0.014,0.003-0.02C89.638,65.438,89.636,65.443,89.635,65.451 M89.617,65.531
		c0.006-0.018,0.008-0.037,0.014-0.055C89.625,65.494,89.623,65.514,89.617,65.531 M89.328,66.977
		c0.092-0.48,0.188-0.961,0.289-1.439c-0.101,0.479-0.197,0.959-0.289,1.438V66.977"/>
	<path fill="#8E93AC" d="M67.409,85.74c-2.069-0.439-4.181-3.104-7.243-8.691c-0.187-0.342-0.367-0.68-0.542-1.02l0.111-0.002
		c0,0,2.638,4.617,4.523,4.617c0.269,0,0.523-0.096,0.751-0.311c1.584-1.49,4.935-3.381,7.691-3.381c0.433,0,0.852,0.047,1.246,0.15
		c0.244,0.063,0.486,0.094,0.729,0.094c2.615,0,4.715-3.658,0.671-8.492c-4.414-5.275-7.321-8.506-5.814-11.307
		c1.509-2.797,3.23-6.028,1.509-9.474c0,0,1.399,1.83,1.399,3.984c0,2.152-2.046,4.306-0.108,7.321
		c0.605,0.943,1.548,1.389,2.764,1.389c2.676,0,6.678-2.168,11.341-6.018c6.782-5.601,17.119-14.537,17.228-20.026
		c0.107-5.491-10.768-21.104-10.768-21.104s4.309,4.846,9.26,14.32c4.952,9.475,1.938,9.797-1.723,15.827
		c-3.66,6.029-7.429,8.83-9.798,19.057c-0.526,2.271-0.956,3.602-1.308,4.299c0.092-0.479,0.188-0.959,0.289-1.438
		c0-0.002,0-0.004,0-0.006c0.004-0.02,0.008-0.037,0.014-0.055c0.001-0.01,0.003-0.02,0.004-0.027
		c0.002-0.006,0.004-0.012,0.004-0.018c1.305-6.164,3.309-12.237,5.469-16.739c0.002-0.002,0.003-0.006,0.006-0.008
		c0.002-0.008,0.006-0.014,0.008-0.02c0.006-0.012,0.013-0.025,0.02-0.039C89.656,56.115,82.455,59.57,82.455,59.57
		s-5.143,3.893-8.322,4.381c4.482,5.217,6.927,9.617,7.172,11.574c0.006,0.045,0.008,0.092,0.008,0.139
		c-0.004,2.07-5.174,7.541-5.189,7.559c0.002-0.002,0.289-0.309,0.727-0.799c0.277-0.4,0.467-0.799,0.467-1.15
		c0-0.168-0.043-0.328-0.143-0.473c-0.566-0.822-2.273-2.139-3.628-2.139c-0.198,0-0.39,0.027-0.567,0.088
		c-0.604,0.211-0.775,0.693-0.775,1.178c0.001,0.633,0.299,1.262,0.299,1.262c-1.086-0.707-2.037-1.018-2.773-1.018
		c-1.018,0-1.629,0.592-1.629,1.549c0,0.027,0,0.053,0.002,0.08c-0.375-0.135-0.682-0.195-0.929-0.195
		c-1.563,0-0.833,2.4-0.353,3.637l0,0c0.045,0.115,0.088,0.219,0.125,0.311c0.01,0.021,0.018,0.041,0.026,0.061
		C67.117,85.666,67.263,85.709,67.409,85.74"/>
	<path fill="#CDCFDB" d="M105.056,62.348L105.056,62.348c0.004-5.656,2.916-11.69,5.266-19.344c0.002-0.012,0.006-0.022,0.008-0.035
		c-0.002,0.013-0.006,0.023-0.008,0.035C107.972,50.657,105.06,56.691,105.056,62.348"/>
	<path fill="#8E93AC" d="M90.583,83.607c-0.003,0-0.008-0.002-0.011-0.004C90.575,83.605,90.58,83.607,90.583,83.607 M90.597,83.611
		c-0.002,0-0.003,0-0.005-0.002C90.594,83.611,90.595,83.611,90.597,83.611 M90.614,83.615h-0.002H90.614 M98.425,83.799
		c0.865-0.09,1.653-0.225,2.364-0.395c0-2.898-1.849-5.188-3.194-5.188c-0.087,0-0.174,0.01-0.256,0.029
		c-1.193,0.289-1.296,2.209-1.296,2.861c0,0.135,0.005,0.217,0.005,0.217s-1.094-2.828-2.234-2.93
		c-0.045-0.002-0.086-0.006-0.129-0.006c-1.059,0-1.608,1.148-1.608,1.148s-0.546-1.188-1.354-1.188
		c-0.196,0-0.409,0.07-0.632,0.244c-0.825,0.646-1.055,2.9-1.118,4.102c0,0.01-0.002,0.02-0.002,0.033
		c0.354,0.391,0.859,0.676,1.598,0.875c-1.909-0.512-2.268-1.619-2.416-3.594c-0.117-2.787,0.084-5.889,0.523-9.084
		c-0.183,2.313,0.012,5.441,2.408,5.441c0.098,0,0.199-0.006,0.307-0.018c2.1-0.215,3.902-0.459,5.344-0.459
		c1.439,0,2.516,0.244,3.161,0.996c0.44,0.516,1.221,0.881,2.016,0.881c1.54,0,3.146-1.361,2.507-5.615
		c-0.969-6.461-1.723-9.367,0.322-15.182c1.756-4.989,5.409-13.619,6.82-19.167c-0.336,1.539-0.778,3.226-1.23,5.165
		c-0.002,0.013-0.006,0.023-0.008,0.035c-2.35,7.654-5.262,13.688-5.266,19.344c-0.002,0.428,0.016,0.854,0.051,1.277
		c0.488,6.033,1.383,12.309,1.465,14.672c0.002,0.035,0.002,0.072,0.002,0.109C106.571,80.549,104.369,83.176,98.425,83.799"/>
	<path fill="#796B8C" d="M79.39,15.157c0.014-0.116,0.031-0.233,0.047-0.349C79.421,14.923,79.404,15.04,79.39,15.157
		 M79.386,15.174c0.002-0.006,0.002-0.011,0.004-0.017C79.388,15.164,79.388,15.168,79.386,15.174 M79.386,15.188
		c0-0.003,0-0.006,0-0.01C79.386,15.182,79.386,15.185,79.386,15.188 M79.365,15.375c0-0.004,0-0.008,0-0.012
		C79.365,15.367,79.365,15.371,79.365,15.375 M79.362,15.397L79.362,15.397c0-0.005,0.001-0.01,0.001-0.015
		C79.363,15.387,79.362,15.392,79.362,15.397"/>
	<path fill="#A88FAE" d="M65.367,8.081c-0.005-0.002-0.008-0.003-0.012-0.004c-0.898-0.5-1.695-1.009-2.383-1.5
		C63.662,7.068,64.464,7.58,65.367,8.081 M79.362,15.397c0.021-0.196,0.048-0.394,0.075-0.589c-0.016,0.115-0.033,0.232-0.047,0.349
		v0.001c-0.002,0.006-0.002,0.011-0.004,0.017c0,0.002,0,0.003,0,0.004c0,0.004,0,0.007,0,0.01
		c-0.008,0.059-0.016,0.117-0.021,0.175c0,0.004,0,0.008,0,0.012c-0.002,0.003-0.002,0.005-0.002,0.008
		C79.363,15.387,79.362,15.392,79.362,15.397"/>
	<path fill="#F38AB6" d="M60.941,39.285c-1.803-2.258-2.374-7.062-2.96-11.814c-0.925-7.488-3.235-11.094-4.9-13.128
		c-0.305-0.373-0.436-0.797-0.435-1.254c0.005-2.033,2.624-4.733,4.133-6.696c0.827-1.076,1.634-1.521,2.508-1.521
		c1.077,0,2.255,0.683,3.686,1.706c0.688,0.491,1.484,1,2.383,1.5c-1.791-0.643-3.322-1.065-4.459-1.065
		c-1.32,0-2.105,0.571-2.143,2.029c-0.263,10.238,4.199,15.881,5.016,20.96c0.373,2.328,0.803,3.228,1.232,3.228
		c0.579,0,1.165-1.629,1.633-3.593c0.32-1.349,0.793-1.609,1.398-1.609c0.189,0,0.394,0.026,0.609,0.052
		c0.217,0.025,0.443,0.051,0.684,0.051c0.693,0,1.486-0.215,2.361-1.266c2.445-2.934,2.654-3.785,1.956-5.704
		c-0.651-1.793,3.423-0.979,3.423-3.098s0-1.956,1.629-2.771c0.258-0.127,0.504-0.295,0.742-0.482
		c-0.027,0.195-0.055,0.393-0.075,0.589c-0.127,0.916-0.644,1.092-1.021,1.092c-0.121-0.001-0.229-0.019-0.303-0.036
		c0.277,0.097,0.985,0.456,0.986,1.649c0,0.214-0.021,0.455-0.073,0.727c-0.41,2.153-1.69,3.689-1.69,3.689l-1.333-0.358
		c0,0,1.075,1.125,1.077,2.084c0,0.022,0,0.045-0.002,0.067c-0.051,0.976-1.075,4.152-5.841,8.711
		c-2.708,2.592-3.993,3.297-4.653,3.318c-0.012,0.001-0.021,0.001-0.033,0.001c-0.475,0-0.615-0.366-0.744-0.604
		c-0.256,1.434,0,1.998-3.33,3.126C61.804,39.065,61.328,39.202,60.941,39.285"/>
	<path fill="#DADBE8" d="M77.173,80.801c-0.649-0.943-2.797-2.537-4.195-2.051c-1.398,0.49-0.477,2.439-0.477,2.439
		c-2.629-1.711-4.463-1.1-4.402,0.611c-2.997-1.084-1.624,2.639-1.128,3.813c0.245,0.09,0.487,0.15,0.731,0.176
		c2.166,0.24,5.131-0.08,8.42-2.566c0,0,0.287-0.307,0.729-0.799C77.258,81.83,77.48,81.246,77.173,80.801"/>
	<path fill="#DADBE8" d="M97.339,78.246c-1.439,0.348-1.291,3.078-1.291,3.078s-1.094-2.828-2.234-2.93
		c-1.143-0.098-1.737,1.145-1.737,1.145s-0.845-1.84-1.986-0.945c-0.833,0.65-1.058,2.941-1.12,4.135
		c0.944,1.049,2.998,1.346,7.658,1.191c1.605-0.051,2.984-0.236,4.161-0.516C100.79,80.314,98.693,77.92,97.339,78.246"/>
	<path fill="#8187A3" d="M88.97,82.729c0-0.014,0.002-0.023,0.002-0.033C88.972,82.705,88.97,82.715,88.97,82.729"/>
	<path fill="#BEC2D8" d="M94.567,83.959c-3.233,0-4.805-0.352-5.597-1.23c0-0.014,0.002-0.023,0.002-0.033
		c0.004-0.068,0.009-0.141,0.012-0.211l0.086,0.055c1.205,0.73,2.442,0.869,3.826,0.873c1.185,0,2.347-0.004,3.529,0.07
		c0.226,0.012,0.476,0.029,0.732,0.029c0.645,0,1.332-0.09,1.795-0.498c0.572-0.502,0.561-1.201,0.444-1.906
		c-0.113-0.688-0.591-2.025-1.288-2.311c-0.094-0.039-0.186-0.055-0.271-0.055c-0.527,0-0.957,0.605-1.176,1.008
		c-0.408,0.752-0.365,2.068-0.739,2.832c-0.292-1.068-0.847-3.146-2.056-3.691c-0.162-0.074-0.304-0.105-0.432-0.105
		c-0.884,0-0.986,1.6-1.219,2.514c-0.224-0.898-0.494-1.838-1.051-2.566c-0.145-0.191-0.297-0.311-0.447-0.383h0.004
		c0.808,0,1.354,1.189,1.354,1.189s0.55-1.15,1.608-1.15c0.043,0,0.084,0.004,0.129,0.006c1.141,0.102,2.234,2.93,2.234,2.93
		s-0.005-0.082-0.005-0.217c0-0.652,0.103-2.572,1.296-2.861c0.082-0.02,0.169-0.029,0.256-0.029c1.346,0,3.194,2.289,3.194,5.188
		c-1.177,0.279-2.556,0.465-4.161,0.516C95.875,83.945,95.19,83.959,94.567,83.959"/>
	<path fill="#DADBE8" d="M46.223,81.797c-0.931-1.637-2.961-1.523-3.3,0.482c-0.394-2.398-3.243-2.09-3.75-0.088
		c-0.084-1.211-0.987-2.141-1.579-1.662c-0.808,0.531-0.876,2.506-0.845,3.648c0.801,0.957,2.116,1.502,4.336,1.689
		c2.021,0.174,4.083,0.098,5.897-0.172C47.59,84.721,46.972,83.113,46.223,81.797"/>
	<path fill="#DADCE8" d="M40.125,85.758c-0.002-0.002-0.006-0.002-0.009-0.002C40.119,85.756,40.123,85.756,40.125,85.758
		 M41.085,85.867L41.085,85.867c-0.34-0.027-0.659-0.064-0.957-0.109C40.426,85.803,40.745,85.84,41.085,85.867"/>
	<path fill="#8187A3" d="M38.535,85.367c-0.003,0-0.007,0-0.011-0.002C38.528,85.367,38.532,85.367,38.535,85.367 M41.085,85.867
		c-0.34-0.027-0.659-0.064-0.957-0.109h-0.003c-0.002-0.002-0.006-0.002-0.009-0.002c-0.604-0.094-1.126-0.223-1.58-0.387
		C39.216,85.617,40.053,85.779,41.085,85.867"/>
	<path fill="#BEC2D8" d="M43.278,85.963c-0.728,0-1.464-0.031-2.193-0.096c-1.032-0.088-1.869-0.25-2.549-0.498
		c0,0-0.001,0-0.001-0.002c-0.004,0-0.007,0-0.01-0.002c-0.408-0.148-0.759-0.328-1.062-0.539c0.596,0.287,1.219,0.523,1.876,0.689
		c1.176,0.299,2.376,0.279,3.578,0.34c0.236,0.012,0.487,0.025,0.74,0.025c0.738,0,1.501-0.105,2.032-0.629
		c0.595-0.59,0.376-1.637,0.187-2.346c-0.194-0.73-0.62-1.695-1.474-1.785c-0.04-0.004-0.079-0.006-0.115-0.006
		c-1.008,0-1.226,1.469-1.307,2.648c-0.087-0.387-0.205-0.77-0.338-1.135c-0.235-0.646-0.616-1.477-1.343-1.672
		c-0.077-0.021-0.153-0.031-0.227-0.031c-0.612,0-1.079,0.67-1.306,1.166c-0.331,0.717-0.42,1.506-0.611,2.266
		c-0.146-0.699-0.206-1.414-0.374-2.111c-0.127-0.525-0.399-1.32-0.888-1.629c-0.095-0.061-0.186-0.092-0.274-0.105
		c0.102-0.074,0.211-0.109,0.325-0.109c0.545,0,1.16,0.801,1.229,1.789c0.261-1.027,1.136-1.607,1.981-1.607
		c0.803,0,1.578,0.525,1.771,1.695c0.183-1.084,0.86-1.615,1.591-1.615c0.622,0,1.281,0.383,1.708,1.133
		c0.535,0.941,1.004,2.031,1.006,2.932c0.001,0.359-0.072,0.689-0.246,0.967C45.823,85.867,44.563,85.963,43.278,85.963"/>
	<path fill="#FFFFFF" d="M37.674,81.396c0,0-0.199,1.119-0.132,2.24c0.065,1.119-0.725,0.658-0.592-0.99
		C37.082,81.002,37.739,80.408,37.674,81.396"/>
	<path fill="#FFFFFF" d="M40.639,82.188c0,0-0.197,1.117-0.131,2.24c0.066,1.121-0.725,0.658-0.593-0.99
		C40.046,81.791,40.705,81.199,40.639,82.188"/>
	<path fill="#FFFFFF" d="M43.933,82.32c0,0-0.197,1.117-0.131,2.236c0.065,1.123-0.726,0.66-0.593-0.986
		C43.34,81.926,43.999,81.33,43.933,82.32"/>
	<path fill="#E9ECF4" d="M29.356,14.046c0.91-2.831,5.066-7.762,9.943-7.762c0.287,0,0.577,0.017,0.87,0.053h-0.01
		C39.908,6.337,35.088,6.438,29.356,14.046"/>
	<path fill="#E9ECF4" d="M38.105,69.412c-0.978-4.564,0.49-9.455,4.075-14.999C42.181,54.413,37.943,63.381,38.105,69.412"/>
	<path fill="#E9ECF4" d="M59.765,65.486c-0.316,0-0.613-5.719,4.912-14.005c0,0-4.646,10.513-4.77,13.327
		C59.889,65.268,59.827,65.486,59.765,65.486"/>
	<path fill="#B6B7C3" d="M82.456,59.572l-0.001-0.002L82.456,59.572 M82.456,59.572L82.456,59.572 M82.456,59.572L82.456,59.572
		L82.456,59.572 M82.456,59.572L82.456,59.572L82.456,59.572 M82.458,59.578L82.458,59.578 M77.629,83.498
		c-0.614,0-1.138-0.082-1.507-0.275C76.492,83.416,77.015,83.498,77.629,83.498c2.712,0,7.198-1.619,8.112-2.6
		c0.532-0.572,0.561-2.291,0.373-4.363c0.189,2.072,0.159,3.791-0.373,4.363C84.828,81.879,80.341,83.498,77.629,83.498"/>
	<path fill="#7C8092" d="M77.629,83.498c-0.614,0-1.138-0.082-1.507-0.275c0.016-0.018,5.186-5.488,5.189-7.559
		c0-0.047-0.002-0.094-0.008-0.139c-0.245-1.957-2.689-6.357-7.172-11.574c3.18-0.488,8.322-4.381,8.322-4.381l0.001,0.002l0,0l0,0
		c0.001,0.002,0.001,0.004,0.002,0.006c0.046,0.141,0.914,2.723,1.677,5.57c-0.481-1.223-1.384-2.828-2.801-2.828
		c-0.32,0-0.667,0.082-1.041,0.268c-3.044,1.523-0.943,5.436,1.014,8.264c1.959,2.824,2.176,5,0.363,6.957
		c-0.951,1.025,0.293,1.854,1.7,1.854c1.276,0,2.687-0.68,2.721-2.506c0.004-0.215,0.013-0.42,0.024-0.621
		c0.188,2.072,0.159,3.791-0.373,4.363C84.828,81.879,80.341,83.498,77.629,83.498"/>
	<path fill="#8187A3" d="M66.945,85.553c-0.038-0.092-0.08-0.195-0.125-0.311l0,0C66.865,85.357,66.908,85.461,66.945,85.553"/>
	<path fill="#BEC2D8" d="M68.888,85.854c-0.417,0-0.813-0.023-1.186-0.064c-0.244-0.025-0.486-0.086-0.731-0.176
		c-0.009-0.02-0.017-0.039-0.026-0.061c-0.038-0.092-0.08-0.195-0.125-0.311c0.354,0.119,0.737,0.18,1.128,0.18
		c0.598,0,1.212-0.141,1.759-0.436c0.316,0.107,0.705,0.162,1.123,0.162c1.172,0,2.578-0.438,3.287-1.443
		c1.203-0.32,3.609-2.166,1.043-3.848c-0.574-0.379-1.012-0.541-1.336-0.541c-1.125,0-0.89,1.977-0.268,3.906
		c-0.648-0.904-2.502-2.652-3.781-2.652c-0.303,0-0.574,0.098-0.789,0.328c-0.854,0.916,0.287,2.943,0.106,2.943
		c-0.058,0-0.246-0.199-0.667-0.699c-0.723-0.863-1.256-1.168-1.649-1.168c-0.177,0-0.323,0.061-0.448,0.158
		c0.129-0.32,0.389-0.527,0.846-0.527c0.246,0,0.553,0.061,0.928,0.195c-0.002-0.027-0.002-0.053-0.002-0.08
		c0-0.957,0.609-1.549,1.628-1.549c0.737,0,1.688,0.311,2.774,1.018c0,0-0.297-0.629-0.299-1.262c0-0.484,0.172-0.967,0.775-1.178
		c0.178-0.061,0.369-0.088,0.566-0.088c1.355,0,3.063,1.316,3.629,2.139c0.101,0.145,0.145,0.305,0.143,0.473
		c0,0.352-0.189,0.75-0.467,1.152c-0.438,0.488-0.725,0.795-0.727,0.797C73.399,85.283,70.898,85.854,68.888,85.854"/>
	<path fill="#9296AE" d="M76.123,83.223"/>
	<path fill="#FFFFFF" d="M66.847,82.467c0,0,0,1.385,0.418,2.125c0.414,0.74-0.326,0.463-0.648-1.018
		C66.293,82.096,66.847,82.096,66.847,82.467"/>
	<path fill="#FFFFFF" d="M73.735,80.105c0,0,0,1.389,0.417,2.129c0.414,0.74-0.324,0.461-0.648-1.016
		C73.181,79.738,73.735,79.738,73.735,80.105"/>
	<path fill="#FFFFFF" d="M69.554,81.656c0,0,0.189,1.736,0.811,2.604c0.621,0.869-0.342,0.625-0.949-1.186
		C68.808,81.268,69.502,81.193,69.554,81.656"/>
	<path fill="#FAD3E4" d="M75.744,13.253c-1.952,0-5.824-0.776-9.599-3.831c0,0,4.89,2.608,9.454,3.097
		C77.648,12.739,77.332,13.253,75.744,13.253"/>
	<path fill="#FFFFFF" d="M90.37,79.197c0,0-0.615,1.559-0.475,2.572c0.139,1.016-0.568,0.379-0.276-1.426
		C89.911,78.535,90.535,78.785,90.37,79.197"/>
	<path fill="#FFFFFF" d="M93.427,79.514c0,0-0.614,1.559-0.476,2.574c0.14,1.014-0.567,0.377-0.276-1.428
		C92.968,78.855,93.591,79.102,93.427,79.514"/>
	<path fill="#FFFFFF" d="M97.408,79.602c0,0-0.613,1.559-0.476,2.574c0.139,1.014-0.567,0.375-0.275-1.432
		C96.95,78.939,97.572,79.188,97.408,79.602"/>
	<path fill="#E9ECF4" d="M110.149,36.151c-0.092,0-0.159-0.231-0.159-0.74c0.425-8.369-4.979-15.149-4.979-15.149
		C112.2,27.541,110.711,36.151,110.149,36.151"/>
	<path fill="#E9ECF4" d="M28.13,26.452c1.616-1.315,3.253-1.786,4.675-1.786c1.908,0,3.425,0.849,3.965,1.64
		c-1.324-0.997-2.695-1.334-3.943-1.334C30.211,24.971,28.13,26.452,28.13,26.452"/>
	<path fill="#E9ECF4" d="M26.33,29.361c1.942-1.86,3.851-2.487,5.509-2.487c2.276,0,4.081,1.183,4.847,1.975
		c-1.119-0.949-2.932-1.622-4.884-1.622c-1.708,0-3.522,0.516-5.073,1.813C26.471,29.231,26.332,29.359,26.33,29.361 M26.33,29.361
		L26.33,29.361"/>
	<path fill="#E3E6F0" d="M26.728,29.04c1.551-1.298,3.366-1.813,5.074-1.813c1.953,0,3.766,0.673,4.885,1.622
		c0.026,0.027,0.05,0.053,0.074,0.078c-1.778-1.213-3.458-1.632-4.928-1.632C29.381,27.294,27.509,28.458,26.728,29.04"/>
	<path fill="#E9ECF4" d="M28.729,21.098c0.019-0.018,0.037-0.035,0.057-0.053c0.18-0.157,0.783-0.621,1.673-0.621
		c0.226,0,0.469,0.03,0.729,0.102c0.104,0.049,0.2,0.109,0.29,0.183c-0.27-0.135-0.562-0.187-0.851-0.187
		C29.664,20.522,28.729,21.098,28.729,21.098"/>
	<path fill="#DDE1EC" d="M28.785,21.045c0.464-0.418,1.094-0.673,1.679-0.673c0.255,0,0.503,0.049,0.723,0.153
		c-0.26-0.071-0.503-0.102-0.728-0.102C29.567,20.424,28.966,20.888,28.785,21.045"/>
	<path fill="#E9ECF4" d="M44.342,22.541c-0.873-0.594-2.101-0.675-2.714-0.675c-0.235,0-0.379,0.011-0.379,0.011
		c0.076-0.036,0.157-0.067,0.24-0.091c0.153-0.021,0.349-0.037,0.571-0.037C42.713,21.749,43.601,21.894,44.342,22.541"/>
	<path fill="#DDE1EC" d="M44.342,22.541c-0.742-0.646-1.629-0.792-2.282-0.792c-0.222,0-0.418,0.017-0.571,0.037
		c0.209-0.063,0.437-0.091,0.67-0.091C43.003,21.695,43.93,22.063,44.342,22.541"/>
</g>
</svg>
