<?xml version="1.0" encoding="utf-8"?>
<!-- Generator: Adobe Illustrator 16.0.0, SVG Export Plug-In . SVG Version: 6.00 Build 0)  -->
<!DOCTYPE svg PUBLIC "-//W3C//DTD SVG 1.0//EN" "http://www.w3.org/TR/2001/REC-SVG-20010904/DTD/svg10.dtd">
<svg version="1.0" id="Layer_1" xmlns="http://www.w3.org/2000/svg" xmlns:xlink="http://www.w3.org/1999/xlink" x="0px" y="0px"
	 width="116.442px" height="90.62px" viewBox="0 0 116.442 90.62" enable-background="new 0 0 116.442 90.62" xml:space="preserve">
<g>
	<path d="M70.921,90.62c-0.867-0.055-1.408-0.504-1.66-0.775v0.004l-0.029-0.035l-0.08-0.094L69.12,89.68l-0.033-0.045l-0.043,0.014
		l-0.037,0.01l-0.146,0.037l-0.074,0.02c-0.068,0.016-0.145,0.031-0.23,0.047l-0.092,0.016c-0.084,0.014-0.176,0.029-0.275,0.039
		l-0.08,0.01c-0.074,0.008-0.15,0.016-0.229,0.021v-0.004c-0.119,0.008-0.242,0.012-0.367,0.012c-0.426,0-0.885-0.055-1.324-0.221
		l-0.053,0.033h-0.002l-0.031,0.016l-0.045,0.018l-0.045,0.018l-0.078,0.023l-0.051,0.012l-0.17,0.029l-0.049,0.006l-0.18,0.012
		l-0.086,0.002c-0.02,0.002-0.039,0.002-0.059,0.002c-0.047,0-0.1-0.002-0.15-0.004l-0.1-0.002c-0.109-0.006-0.23-0.014-0.363-0.031
		c-0.145-0.016-0.271-0.045-0.377-0.086l-0.133-0.08l-0.137-0.082l-0.105-0.133l-0.074-0.098l-0.059-0.174L63.804,89v0.002
		c-0.088-0.443,0.004-1.045,0.123-1.76l0.045-0.207c-0.092,0.051-0.182,0.102-0.277,0.148c-0.234,0.145-0.598,0.324-1.01,0.475
		c-0.08,0.029-0.158,0.063-0.242,0.09v-0.002l-0.164,0.043c-0.744,0.262-1.512,0.432-2.248,0.432c-0.02,0-0.041,0-0.059-0.002
		l-0.004,0.002l-0.002-0.002l-0.006-0.002c-0.363,0.15-0.809,0.248-1.25,0.248c-0.305,0-0.609-0.047-0.879-0.154v0.004l-0.055-0.021
		c-0.105,0.066-0.213,0.115-0.318,0.156l-0.09,0.029l-0.115,0.039l-0.002-0.008c-0.174,0.045-0.344,0.063-0.5,0.063
		c-0.523,0-0.92-0.189-0.92-0.189c-0.531-0.971-0.994-2.389-1.045-3.41L54.78,84.86l0.002-0.156l0.004-0.125l0.018-0.135
		l0.021-0.121l0.027-0.109l0.037-0.105l0.041-0.092l0.057-0.088l0.055-0.068l0.088-0.068l0.057-0.041l0.182-0.055
		c0.037-0.004,0.074-0.008,0.107-0.008c0.041,0,0.08,0.004,0.119,0.008c-0.092-0.225-0.182-0.455-0.271-0.691l-0.018-0.045h0.002
		c-0.434-1.146-0.836-2.42-1.115-3.799v0.021l-0.023-0.121c-0.021-0.115-0.043-0.23-0.064-0.348
		c-0.055-0.309-0.105-0.619-0.148-0.936c-0.012-0.092-0.02-0.186-0.031-0.277c-0.033-0.291-0.063-0.584-0.08-0.883
		c-0.008-0.084-0.014-0.166-0.02-0.25c-0.02-0.348-0.023-0.703-0.021-1.059c0.002-0.102,0.002-0.205,0.004-0.307
		c0.01-0.363,0.029-0.727,0.063-1.098c0.008-0.096,0.02-0.191,0.029-0.285c0.041-0.395,0.092-0.785,0.162-1.186l0.033-0.156
		c0.07-0.385,0.158-0.773,0.26-1.166c0.018-0.072,0.035-0.145,0.055-0.219c0.113-0.412,0.246-0.834,0.395-1.254
		c0.033-0.092,0.064-0.184,0.098-0.273c0.158-0.426,0.334-0.855,0.531-1.293c0.033-0.072,0.07-0.148,0.105-0.223
		c0.215-0.461,0.447-0.93,0.713-1.398l-0.631-0.316c0,0-2.053,2.445-3.709,12.314c-0.211,1.725-0.941,2.389-2.303,2.389
		c-0.021,0-0.041,0-0.063,0l0.014,0.006l-0.09-0.006c-0.078-0.002-0.158-0.008-0.24-0.016c-0.084-0.004-0.174-0.012-0.264-0.023
		l-0.158-0.02L48.8,80.778l-0.09-0.016c-0.098-0.016-0.199-0.033-0.303-0.053c-0.088-0.018-0.176-0.033-0.268-0.055
		c-0.113-0.023-0.229-0.051-0.346-0.08c-0.092-0.021-0.184-0.043-0.277-0.068c-0.129-0.033-0.266-0.072-0.4-0.109
		c-0.09-0.025-0.178-0.051-0.271-0.076c-0.154-0.045-0.316-0.096-0.479-0.146c-0.082-0.025-0.164-0.051-0.25-0.076
		c-0.086-0.027-0.174-0.057-0.26-0.086h-0.002c-0.107-0.035-0.219-0.07-0.33-0.107l-0.193-0.063
		c-0.271-0.092-0.551-0.188-0.844-0.287c-0.281-0.098-0.568-0.203-0.852-0.314c-0.09-0.033-0.178-0.07-0.264-0.105
		c-0.199-0.08-0.398-0.16-0.594-0.244c-0.104-0.043-0.205-0.09-0.307-0.135c-0.184-0.084-0.367-0.164-0.547-0.25
		c-0.105-0.049-0.211-0.104-0.316-0.152c-0.178-0.088-0.352-0.174-0.525-0.264c-0.104-0.055-0.209-0.109-0.313-0.164
		c-0.156-0.084-0.313-0.172-0.467-0.256c-0.223,0.416-0.5,0.695-0.924,0.826l0.002,0.002l-0.039,0.008
		c-0.078,0.023-0.162,0.039-0.25,0.051l-0.08,0.01l-0.037,0.002l-0.047,0.004l-0.193,0.006l-0.104-0.006
		c-0.066,0-0.137-0.004-0.213-0.01l-0.039-0.006l-0.055-0.006l-0.129-0.018c-0.107-0.014-0.225-0.035-0.342-0.059l-0.16-0.033
		c-0.119-0.025-0.246-0.055-0.377-0.09l-0.193-0.051c-0.133-0.039-0.273-0.078-0.418-0.123c-0.076-0.023-0.148-0.045-0.225-0.068
		c-0.154-0.051-0.318-0.107-0.482-0.164c-0.082-0.025-0.156-0.051-0.238-0.082c-0.254-0.088-0.52-0.184-0.801-0.291
		c-3.621-1.365-10.17-4.021-11.715-5.727h-0.002c-0.145-0.158-0.242-0.311-0.293-0.449l-0.014-0.045L22.915,71.2v-0.049l0.053-0.178
		c0.178-0.564,0.361-1.049,0.543-1.475c-0.625,0.203-1.258,0.389-1.902,0.539c-0.828,0.193-1.705,0.289-2.615,0.289
		c-5.502,0-12.27-3.516-17.709-10.375l-0.074-0.05c-0.066-0.083-0.133-0.161-0.195-0.245c-1.111-1.763,1.318-2.548,3.502-2.95
		L4.38,56.739l0.211-0.04c0.271-0.05,0.529-0.096,0.779-0.143l0.051-0.008c0.225-0.039,0.439-0.077,0.648-0.113
		c0.08-0.015,0.152-0.026,0.23-0.04c0.143-0.024,0.285-0.05,0.42-0.071c0.084-0.014,0.166-0.025,0.248-0.039
		c0.117-0.018,0.232-0.036,0.342-0.053c0.09-0.014,0.174-0.024,0.26-0.037c0.092-0.013,0.186-0.027,0.273-0.038
		c0.09-0.011,0.172-0.021,0.256-0.029c0.074-0.008,0.152-0.019,0.223-0.025c0.084-0.009,0.16-0.013,0.236-0.019l0.189-0.014
		c0.074-0.004,0.141-0.006,0.209-0.008l0.162-0.002H9.12l-0.002-0.002l0.01,0.002l0.174,0.006l0.133,0.008l0.154,0.021l0.109,0.02
		l0.125,0.037l0.086,0.032l0.096,0.054l0.064,0.045l0.068,0.07l0.039,0.059l0.039,0.09l0.018,0.076l0.01,0.105l-0.002,0.092
		l-0.02,0.126l-0.006,0.04l-0.002,0.002l-0.037,0.148c-0.025,0.082-0.047,0.18-0.064,0.284l-0.021,0.172
		c-0.143,1.338,0.402,3.965,2.773,5.127l0.146,0.066c0.176,0.078,0.359,0.15,0.555,0.213l0.105,0.035
		c0.225,0.066,0.467,0.117,0.721,0.162l0.158,0.023c0.258,0.037,0.529,0.061,0.816,0.066h0.154c0.035,0.002,0.072,0.002,0.109,0.002
		c0.271,0,0.555-0.01,0.854-0.041c5.979-0.59,10.314-4.136,4.666-10.577c-5.65-6.439-12.156-11.105-7.293-19.317
		c-5.125-1.314-8.279-3.942-10.383-7.492l0.33-1.05l-0.789,0.066c0,0-2.498-2.825-1.578-3.812c0.92-0.985,0.855-1.511,0.855-1.511
		l-1.645,0.788l-0.016-0.05l-0.016-0.041l-0.035-0.111l-0.025-0.082l-0.051-0.167l-0.033-0.11c-0.027-0.099-0.059-0.206-0.09-0.324
		l-0.027-0.117c-0.023-0.088-0.045-0.176-0.068-0.273L0.245,18.84c-0.018-0.084-0.035-0.169-0.053-0.256l-0.039-0.209
		c-0.018-0.094-0.031-0.191-0.047-0.289l-0.031-0.199c-0.02-0.154-0.037-0.31-0.051-0.468l-0.01-0.197
		c-0.006-0.103-0.012-0.204-0.014-0.306c-0.002-0.074,0-0.146,0.002-0.22c0.002-0.097,0.006-0.191,0.014-0.285l0.018-0.211
		c0.014-0.11,0.033-0.216,0.053-0.323l0.027-0.146c0.035-0.143,0.08-0.28,0.133-0.409l0.068-0.143l0.082-0.167l0.014,0
		c0.273-0.457,0.705-0.788,1.379-0.874c0,0,6.693-1.159,18.213-10.555C22.628,1.421,24.509,0,26.239,0
		c1.41,0,2.723,0.943,4.254,3.197c1.943-0.557,4.002-0.893,6.063-0.893c4.834,0,9.682,1.843,13.086,6.976
		c3.727-3.067,6.398-5.322,8.9-5.322c1.859,0,3.627,1.248,5.66,4.335l0.109,0.165l0.113-0.046l0.199-0.079l0.188-0.072l0.17-0.063
		l0.031-0.012L65.03,8.18c0.07-0.025,0.139-0.051,0.213-0.077c0.078-0.027,0.16-0.055,0.24-0.082
		c0.08-0.026,0.154-0.054,0.236-0.081s0.172-0.055,0.26-0.083c0.086-0.027,0.168-0.054,0.258-0.081
		c0.094-0.029,0.193-0.058,0.291-0.085c0.088-0.027,0.174-0.052,0.264-0.077c0.111-0.031,0.227-0.06,0.342-0.09
		c0.109-0.03,0.217-0.059,0.33-0.085c0.174-0.045,0.35-0.085,0.535-0.126c0.096-0.022,0.199-0.042,0.299-0.063
		c0.121-0.024,0.236-0.05,0.361-0.073c0.107-0.021,0.221-0.04,0.332-0.059c0.119-0.021,0.236-0.042,0.359-0.062
		c0.115-0.019,0.236-0.035,0.354-0.052c0.123-0.018,0.242-0.035,0.365-0.051c0.123-0.016,0.248-0.029,0.373-0.042
		c0.125-0.014,0.246-0.027,0.371-0.038c0.131-0.013,0.26-0.022,0.391-0.031c0.129-0.01,0.254-0.018,0.383-0.025
		c0.133-0.007,0.266-0.012,0.4-0.017c0.131-0.005,0.264-0.008,0.395-0.011c0.096,0,0.195-0.001,0.293-0.001h0.121
		c0.131,0,0.264,0.003,0.398,0.006c0.141,0.004,0.283,0.008,0.428,0.016c0.133,0.006,0.268,0.015,0.402,0.024
		c0.146,0.011,0.291,0.02,0.439,0.035c0.135,0.012,0.273,0.028,0.408,0.044c0.148,0.017,0.297,0.033,0.447,0.053
		c0.137,0.02,0.277,0.044,0.416,0.066c0.15,0.024,0.301,0.048,0.453,0.076c0.137,0.027,0.275,0.058,0.414,0.088
		c0.154,0.033,0.309,0.063,0.465,0.101c0.111,0.027,0.227,0.061,0.338,0.09c0.33,0.088,0.662,0.187,0.998,0.296
		c0.135,0.044,0.27,0.085,0.406,0.134C78.97,7.873,79.128,7.938,79.288,8c0.139,0.055,0.275,0.105,0.416,0.164
		c0.158,0.068,0.318,0.142,0.477,0.215c0.141,0.063,0.279,0.125,0.418,0.193c0.16,0.078,0.32,0.162,0.479,0.246
		c0.141,0.073,0.279,0.146,0.418,0.224c0.16,0.09,0.318,0.186,0.479,0.282c0.086,0.05,0.17,0.096,0.254,0.149l-0.029-0.011
		c0.754,0.469,1.504,1.003,2.242,1.628c5.236,4.438,10.949,11.464,14.432,20.015l-0.018-0.05c0.059,0.141,0.111,0.285,0.168,0.426
		c0.119,0.299,0.238,0.599,0.352,0.901c0.057,0.153,0.109,0.309,0.166,0.462c0.119,0.333,0.242,0.666,0.355,1.001l0.025,0.077
		c0.285,0.856,0.547,1.726,0.783,2.607c0.02,0.074,0.043,0.146,0.063,0.219c0.082,0.315,0.156,0.633,0.232,0.952
		c0.049,0.197,0.1,0.394,0.143,0.594c0.066,0.293,0.125,0.59,0.186,0.885c0.045,0.228,0.092,0.455,0.137,0.682
		c0.051,0.285,0.098,0.572,0.145,0.857c0.041,0.246,0.082,0.491,0.117,0.737c0.041,0.279,0.078,0.559,0.113,0.838
		c0.031,0.259,0.063,0.519,0.088,0.778c0.029,0.275,0.055,0.551,0.078,0.827c0.023,0.271,0.043,0.542,0.063,0.813
		c0.016,0.271,0.031,0.542,0.043,0.815l0.006,0.1l0.02-0.252c0,0,0.225,1.557,0.926,3.196v0.002
		c0.777,1.813,2.141,3.723,4.436,3.723c0.27,0,0.551-0.027,0.844-0.082c5.088-0.954,7.076-6.999,5.01-11.213
		c-0.855-1.747-1.326-2.98-1.59-3.836l-0.002-0.001l-0.027-0.089c-0.021-0.076-0.039-0.145-0.061-0.213l-0.041-0.149
		c-0.055-0.204-0.092-0.378-0.119-0.524l-0.016-0.001c-3.814-0.377-4.021-3.059-3.23-4.537c0.789-1.478-1.135-1.579-1.135-1.579
		c0.188-0.031,0.359-0.044,0.518-0.044c1.637,0,1.752,1.486,1.752,1.486s0.961-2.2-0.689-3.265
		c-0.176-0.097-0.334-0.198-0.482-0.299l-0.152-0.113c-0.088-0.066-0.174-0.133-0.252-0.202l-0.148-0.138l-0.18-0.188l-0.127-0.151
		l-0.129-0.188l-0.098-0.157l-0.09-0.197c-0.045-0.104-0.08-0.209-0.107-0.315l-0.041-0.166l-0.021-0.208l-0.012-0.106l0.006,0.008
		c-0.041-1.226,0.918-2.515,2.281-3.557c-0.824,2.266-0.516,2.816,2.75,3.778c0.16,0.047,0.305,0.103,0.451,0.158l-0.016-0.011
		l0.057,0.026c0.111,0.043,0.213,0.092,0.314,0.142l0.191,0.093c0.1,0.052,0.191,0.108,0.279,0.166l0.156,0.104
		c0.086,0.061,0.166,0.124,0.242,0.187l0.129,0.112l0.205,0.203l0.105,0.117l0.17,0.214l0.086,0.119
		c0.049,0.074,0.096,0.148,0.139,0.222l0.066,0.118c0.039,0.075,0.076,0.15,0.109,0.223l0.051,0.117
		c0.029,0.074,0.059,0.147,0.084,0.22l0.037,0.111l0.063,0.213l0.025,0.104l0.043,0.2l0.018,0.096l0.025,0.179l0.012,0.087
		l0.014,0.156l0.002,0.076l0.008,0.125v0.059v0.094l-0.004,0.039l-0.004,0.09c0,0,0.756-1.374,0.516-2.507
		c2.275,3.95,0.215,8.123-3.098,8.475c0.145,0.875,0.576,2.471,1.842,4.906c2.066,3.977,0.873,12.407-6.125,12.882
		c-0.051,0.001-0.102,0.001-0.152,0.001c-3.598,0-5.373-2.158-5.969-3.084c-0.018,0.213-0.047,0.428-0.07,0.641
		c-0.027,0.238-0.049,0.477-0.08,0.715c-0.049,0.372-0.109,0.746-0.168,1.119c-0.031,0.201-0.057,0.398-0.092,0.6
		c-0.102,0.574-0.215,1.152-0.344,1.73c-2.139,9.542-14.975,13.655-18.594,14.974c-2.633,1.15-2.631,4.607-1.48,8.227
		c0.063,0.193,0.131,0.391,0.203,0.59c0.031,0.088,0.066,0.18,0.1,0.268c0.051,0.133,0.102,0.268,0.154,0.4
		c0.043,0.105,0.086,0.209,0.129,0.314c0.047,0.115,0.094,0.229,0.141,0.344c0.061,0.143,0.121,0.285,0.184,0.426l0.074,0.174
		c0.127,0.295,0.256,0.592,0.381,0.885l0.02,0.045c0.078,0.184,0.152,0.365,0.229,0.545l0.068,0.166
		c0.063,0.154,0.123,0.311,0.182,0.463l0.076,0.201c0.053,0.141,0.1,0.279,0.146,0.418l0.07,0.217
		c0.041,0.129,0.078,0.256,0.111,0.381c0.02,0.076,0.041,0.15,0.059,0.225c0.029,0.117,0.051,0.236,0.072,0.352
		c0.012,0.076,0.029,0.15,0.039,0.223c0.016,0.109,0.021,0.217,0.031,0.326l0.012,0.217c0,0.102-0.01,0.199-0.018,0.297
		l-0.018,0.207c-0.016,0.094-0.045,0.182-0.07,0.271l-0.053,0.191c-0.035,0.086-0.086,0.166-0.131,0.248l-0.094,0.168
		c-0.061,0.086-0.137,0.164-0.213,0.24l-0.117,0.131c-0.131,0.115-0.279,0.223-0.451,0.318c-1.498,0.842-5.457,2.096-9.275,2.096
		c-0.088,0-0.176-0.002-0.264-0.002L72.87,90.26l-0.037,0.021c-0.104,0.061-0.217,0.115-0.346,0.154l-0.004,0.002
		C72.089,90.569,71.571,90.62,70.921,90.62"/>
</g>
</svg>
