<?xml version="1.0" encoding="utf-8"?>
<!-- Generator: Adobe Illustrator 16.0.0, SVG Export Plug-In . SVG Version: 6.00 Build 0)  -->
<!DOCTYPE svg PUBLIC "-//W3C//DTD SVG 1.0//EN" "http://www.w3.org/TR/2001/REC-SVG-20010904/DTD/svg10.dtd">
<svg version="1.0" id="Layer_1" xmlns="http://www.w3.org/2000/svg" xmlns:xlink="http://www.w3.org/1999/xlink" x="0px" y="0px"
	 width="118.516px" height="91.416px" viewBox="0 0 118.516 91.416" enable-background="new 0 0 118.516 91.416"
	 xml:space="preserve">
<g>
	<polygon points="5.343,46.488 5.333,46.488 5.263,46.441 	"/>
	<path d="M73.138,56.729l-0.059,0.053l-0.029,0.035c0.266,0.287,0.961,0.984,2.063,1.719C74.402,58.057,73.74,57.459,73.138,56.729
		 M36.099,58.816c0,0,0.979,0.451,2.467,1.074c-1.014-0.461-1.99-0.957-2.893-1.482c0.104,0.143,0.207,0.299,0.305,0.461
		L36.099,58.816 M63.841,91.416c-4.598,0-5.818-2.219-5.949-7.139c-0.658-0.207-4.453-1.709-5.902-9.02
		c-0.139-2.9-0.207-3.869,1.242-4.975c0.057-0.043,0.145-0.111,0.221-0.17c-0.664-1.891-1.346-3.984-2.211-6.553
		c-1.545-0.07-4.48-0.699-7.662-1.734c0.889,0.309,1.793,0.602,2.676,0.859l-0.012,0.051l-0.014,0.061l-0.027,0.115l-0.029,0.119
		c-0.018,0.078-0.043,0.172-0.07,0.275l-0.051,0.178c-0.021,0.074-0.041,0.148-0.066,0.23c-0.021,0.072-0.041,0.141-0.066,0.219
		c-0.045,0.146-0.096,0.303-0.15,0.471l-0.063,0.176c-0.029,0.094-0.061,0.184-0.096,0.281l-0.002-0.002
		c-0.572,1.584-1.578,3.77-3.217,5.684l0.012,0.004c-0.068,0.08-0.143,0.154-0.213,0.232c-0.086,0.096-0.172,0.193-0.264,0.287
		c-0.154,0.166-0.316,0.324-0.484,0.484c-0.092,0.086-0.184,0.174-0.277,0.26c-0.186,0.166-0.381,0.324-0.576,0.479
		c-0.088,0.07-0.172,0.143-0.262,0.209c-0.264,0.199-0.541,0.385-0.826,0.563c0.045,0.373,0.09,0.744,0.133,1.109
		c0.078,0.674,0.148,1.33,0.215,1.963l0.002,0.012c0.225,2.15,0.385,4.01,0.506,5.256l0.018,0.168
		c0.008,0.08,0.016,0.154,0.023,0.229l0.021,0.195l0.02,0.172l0.023,0.195l0.014,0.123c0.014,0.094,0.027,0.182,0.039,0.252
		c0.1,0.607,0.164,1.178,0.188,1.705l0.002,0.002v0.012l0.004,0.088l0.004,0.189h-0.004c0,0.146,0,0.287-0.006,0.426
		c-0.002,0.08-0.01,0.16-0.016,0.24c-0.012,0.148-0.029,0.291-0.051,0.426l-0.033,0.205c-0.039,0.189-0.086,0.373-0.15,0.539
		l-0.031,0.068c-0.057,0.143-0.125,0.279-0.205,0.402l-0.094,0.133c-0.07,0.098-0.15,0.188-0.236,0.271l-0.111,0.104l-0.197,0.141
		l0.002,0.008c-0.074,0.047-0.15,0.092-0.232,0.129c-0.357,0.158-0.719,0.297-1.082,0.426l-0.047,0.02l0.008-0.006
		c-0.078,0.027-0.156,0.051-0.234,0.074c-0.111,0.039-0.225,0.076-0.336,0.109l-0.201,0.064h0.012l-0.035,0.01
		c-0.379,0.109-0.758,0.211-1.143,0.293l-0.119,0.023l-0.166,0.031c-0.096,0.018-0.191,0.035-0.287,0.053
		c-0.273,0.049-0.549,0.094-0.822,0.131c-0.141,0.018-0.283,0.037-0.424,0.053l-0.139,0.018l-0.086,0.01
		c-0.373,0.035-0.748,0.063-1.125,0.074c-0.061,0.004-0.121,0.004-0.182,0.004h-0.035c-0.037,0-0.072,0-0.107,0h-0.018
		c-0.115,0.002-0.23,0.004-0.344,0.004h-0.063c-0.229,0-0.459-0.004-0.689-0.012c-0.17-0.006-0.34-0.014-0.512-0.021
		c-0.076-0.006-0.15-0.006-0.229-0.012l0.002-0.008c-1.516-0.104-3.055-0.354-4.617-0.75c-4.59-1.17-4.672-1.67-4.756-5.76
		c0-0.49,0.01-0.984,0.033-1.48c0.008-0.172,0.021-0.346,0.031-0.518c0.02-0.326,0.039-0.65,0.064-0.977
		c0.016-0.207,0.041-0.414,0.061-0.621c0.029-0.291,0.057-0.582,0.09-0.875c0.027-0.221,0.059-0.441,0.088-0.664
		c0.035-0.26,0.066-0.518,0.105-0.777l-0.109-0.029c-2.625-0.967-3.453-8.084-2.832-10.846c0.623-2.764,3.666-3.336,5.525-3.455
		c0.512-0.033,1.064-0.113,1.641-0.221c0.42-1.424,0.012-2.414-1.609-5.408c-0.467-0.736-0.908-1.461-1.34-2.182
		c-0.105-0.178-0.213-0.355-0.316-0.531c-0.416-0.713-0.822-1.418-1.207-2.119l-0.018-0.033c-0.391-0.715-0.758-1.424-1.113-2.131
		c-0.084-0.166-0.166-0.334-0.248-0.502c-0.338-0.686-0.662-1.373-0.971-2.063l-0.031-0.068c-0.316-0.711-0.611-1.426-0.895-2.143
		c-0.064-0.164-0.129-0.328-0.191-0.492c-0.26-0.684-0.512-1.367-0.746-2.061l-0.041-0.121c-0.246-0.73-0.471-1.469-0.686-2.217
		c-0.049-0.17-0.094-0.342-0.145-0.512c-0.188-0.689-0.369-1.383-0.533-2.09l-0.043-0.166l0.018,0.057
		c-0.555-2.377-0.969-4.867-1.26-7.541c-0.301-2.76,0.088-5.262,0.963-7.559c-0.098,0.197-0.195,0.393-0.289,0.594
		c-3.318,3.766-3.857,5.918-2.781,9.506s4.215,6.727,0.896,11.48l0.027,0.08c0.781,2.393-0.842,6.969-3.928,6.969
		c-0.189,0-0.383-0.016-0.584-0.053c-1.748-0.314-3.496-0.896-5.043-0.896s-2.893,0.582-3.834,2.598
		c-0.369-1.836-0.773-3.883,0.977-5.082l0.027-0.02c0.109-0.074,0.238-0.139,0.365-0.205l0.18-0.102
		c0.088-0.041,0.197-0.074,0.295-0.113c0.121-0.047,0.234-0.1,0.369-0.143l0.188-0.047c0.193-0.057,0.389-0.111,0.605-0.154
		l0.037-0.008C3.929,46.6,4.58,46.52,5.333,46.488h0.002h0.008L5.24,46.426l0.023,0.016l-0.082-0.051
		c-0.09-0.055-0.174-0.105-0.246-0.156l-0.09-0.064l-0.18-0.146l-0.061-0.053l-0.139-0.143l-0.023-0.027l-0.1-0.139l-0.004-0.004
		l0.002,0.002c-0.061-0.1-0.074-0.16-0.074-0.16s0.602,0.332,1.213,0.332c0.443,0,0.893-0.176,1.117-0.781
		c0.303-0.803,1.145-2.166,2.455-2.691l-0.016,0.002l0.158-0.053l0.201-0.066c0.129-0.035,0.264-0.063,0.402-0.08l0.17-0.008
		c0.074-0.004,0.148-0.008,0.227-0.008c0.021,0,0.041,0,0.063,0l0.199,0.018c0.096,0.01,0.193,0.021,0.293,0.041l0.209,0.049
		c0.104,0.027,0.209,0.061,0.314,0.098l0.211,0.078c0.117,0.051,0.24,0.109,0.363,0.172l0.186,0.098
		c0.189,0.107,0.381,0.229,0.576,0.371c0.129,0.113,0.248,0.207,0.357,0.279c0.082-0.166,0.164-0.332,0.242-0.498l0.047-0.105
		c0.063-0.131,0.123-0.264,0.182-0.396l0.061-0.141c0.053-0.125,0.105-0.254,0.154-0.381l0.055-0.141
		c0.051-0.137,0.102-0.277,0.146-0.416l0.037-0.104c0.113-0.352,0.207-0.707,0.275-1.07l0.021-0.131
		c0.023-0.135,0.043-0.271,0.059-0.408l0.016-0.172c0.012-0.127,0.02-0.256,0.023-0.385c0.031-1.088-0.201-2.232-0.871-3.455
		c-1.584-2.908-3.59-6.947,0.338-13.127l-0.064,0.088c0.086-0.139,0.174-0.275,0.266-0.416c4.217-6.367,8.34-8.699,8.34-8.699
		s-0.092,0.09-0.246,0.242c2.539-2.402,5.477-4.547,8.371-6.551c4.916-3.404,8.277-4.568,11-4.568c1.627,0,3.025,0.416,4.389,1.02
		l-0.014-0.01c0.133,0.057,0.264,0.117,0.396,0.178c1.883,0.879,3.229,1.41,4.105,1.725c5.58-2.086,11.611-4.654,13.596-4.824
		c0.076-0.006,0.152-0.008,0.229-0.008c2.49,0,5.104,3.367,5.104,3.367s3.725-3.432,9.932-3.943C79.492,0.006,79.82,0,80.14,0
		c0.121,0,0.24,0.002,0.357,0.002c0.084,0.002,0.158,0.008,0.24,0.01c0.344,0.008,0.68,0.02,1,0.043l0.039,0.002l-0.002,0.002
		c0.762,0.055,1.459,0.145,2.096,0.262h0.002c0.248,0.045,0.488,0.096,0.721,0.148c0.096,0.023,0.186,0.047,0.277,0.07
		c0.16,0.039,0.316,0.08,0.465,0.121c0.102,0.027,0.199,0.059,0.295,0.086c0.143,0.045,0.277,0.088,0.41,0.133
		c0.08,0.027,0.164,0.053,0.238,0.08c0.188,0.066,0.363,0.135,0.531,0.203c0.08,0.033,0.154,0.066,0.229,0.098
		c0.1,0.045,0.197,0.088,0.289,0.129l0.213,0.102c0.094,0.047,0.18,0.092,0.268,0.137l0.162,0.086
		c0.117,0.064,0.223,0.125,0.322,0.186l0.135,0.084l0.172,0.111l0.111,0.074l0.162,0.117l0.061,0.043l0.143,0.113l0.049,0.039
		l0.061,0.053l0.021,0.02l0.025,0.023c0,0,0.805-0.072,2.85-1.242c0.689-0.395,1.447-0.605,2.266-0.605
		c1.605,0,3.443,0.813,5.475,2.652c7.375,6.354,16.068,8.762,16.068,8.762c2.305,0.723,2.691,1.387,2.617,2.359h0.002l-0.006,0.043
		c-0.016,0.18-0.045,0.369-0.08,0.57c-0.041,0.227-0.088,0.471-0.131,0.732c-0.291,1.793-0.877,3.338-1.334,3.42
		c-0.066,0.012-0.133,0.018-0.201,0.018c-0.402-0.002-0.801-0.186-0.801-0.186s0.334,0.668,0.293,1.129
		c-0.043,0.457-1.211,2.629-1.211,2.629l-0.627,0.123c0.543,0.961-0.459,2.922-2.754,6.885c-2.293,3.965-5.641,5.988-6.006,6.029
		c-0.018,0.004-0.037,0.004-0.057,0.004c-0.35,0-0.713-0.328-0.713-0.328l-0.025,1.098c0,0-1.252,1.086-3.67,2.252
		c-0.152,0.074-0.303,0.141-0.453,0.205l-0.193,0.076c-0.084,0.033-0.174,0.07-0.258,0.102c-0.088,0.031-0.174,0.057-0.26,0.084
		l-0.191,0.063c-0.098,0.027-0.195,0.053-0.293,0.076l-0.152,0.037c-0.107,0.023-0.215,0.041-0.322,0.059l-0.119,0.02
		c-0.113,0.018-0.227,0.025-0.34,0.033l-0.096,0.01c-0.055,0.004-0.109,0.004-0.166,0.004c-0.061,0-0.121,0-0.182-0.002h-0.078
		c-0.117-0.008-0.236-0.02-0.352-0.035l-0.066-0.008c-0.119-0.018-0.234-0.045-0.352-0.072l-0.053-0.014
		c-0.117-0.031-0.23-0.072-0.342-0.115l-0.051-0.018c-0.113-0.047-0.225-0.102-0.332-0.16L96.49,39.24
		c-0.105-0.061-0.211-0.131-0.314-0.205l-0.047-0.031c-0.102-0.074-0.199-0.16-0.297-0.25l-0.047-0.041
		c-0.094-0.09-0.186-0.191-0.273-0.295l-0.051-0.055c-0.086-0.105-0.17-0.221-0.25-0.338l-0.055-0.072
		c-0.076-0.119-0.15-0.246-0.223-0.377l-0.049-0.082V37.49l-0.041-0.072c-0.047,0.348-0.111,0.689-0.186,1.027
		c-0.025,0.111-0.055,0.223-0.082,0.334c-0.059,0.23-0.119,0.463-0.189,0.695c-0.037,0.121-0.078,0.248-0.117,0.371
		c-0.045,0.137-0.088,0.275-0.137,0.414l0.006-0.01l-0.051,0.131l-0.061,0.16c-0.043,0.117-0.086,0.234-0.133,0.352
		c-0.055,0.143-0.109,0.285-0.166,0.426c-0.049,0.117-0.1,0.238-0.15,0.357l-0.021,0.053l-0.066,0.164l0.004-0.016
		c-0.086,0.201-0.176,0.408-0.268,0.617c-0.061,0.133-0.121,0.27-0.184,0.408c-0.135,0.297-0.277,0.607-0.424,0.926
		c-0.063,0.137-0.129,0.281-0.195,0.424c-0.188,0.402-0.381,0.82-0.586,1.262c-1.586,3.422-0.918,4.422,1.086,5.676
		c0.135,0.084,0.281,0.178,0.439,0.279l0.086,0.055c0.133,0.086,0.273,0.178,0.422,0.275l0.113,0.076
		c0.15,0.098,0.303,0.201,0.465,0.311l0.113,0.076c0.172,0.115,0.35,0.236,0.533,0.363l0.1,0.07
		c0.199,0.137,0.404,0.281,0.619,0.432l0.07,0.049c2.322,1.633,5.438,3.979,8.807,6.859c3.641,3.111,4.055,3.932,5.039,3.932
		c0.203,0,0.432-0.035,0.717-0.094c0.209-0.041,0.4-0.055,0.578-0.055c0.053,0,0.102,0,0.15,0.002l0.012-0.006l0.164,0.021
		c0.076,0.01,0.16,0.014,0.232,0.031l0.199,0.066l0.023,0.008l0.016-0.002l0.049,0.021l0.158,0.076l0.123,0.08l0.094,0.064
		l0.102,0.098l0.043,0.049l0.08,0.098l0.006,0.01l0.066,0.107l0.039,0.07l0.035,0.1l0.021,0.061l0.021,0.074l0.004,0.025
		l0.016,0.107l0.006,0.143v0.072l-0.006,0.063c-0.012,0.096-0.029,0.189-0.061,0.285c-0.334,1-0.084,1.168,0.834,3.254
		s0.5,3.088-2.088,3.756c-0.527,0.137-1.109,0.199-1.693,0.199c-2.279,0-4.629-0.957-4.23-2.285
		c-3.256-5.008-11.182-7.512-17.525-9.014c-3.934-0.932-8.771-0.436-12.473-2.709c0.863,0.539,1.936,1.072,3.215,1.453
		c0,0,0.002,0.357-0.061,0.977l-0.004,0.031c-0.014,0.135-0.033,0.287-0.055,0.445l-0.012,0.104
		c-0.021,0.148-0.049,0.313-0.076,0.48l-0.027,0.168c-0.027,0.162-0.063,0.334-0.098,0.508c-0.018,0.08-0.031,0.158-0.049,0.24
		c-0.037,0.168-0.078,0.344-0.121,0.521c-0.02,0.078-0.033,0.15-0.055,0.23v-0.01c-0.49,1.951-1.424,4.506-3.176,7.275l0.004,0.006
		c-0.09,0.141-0.188,0.279-0.279,0.42c-0.113,0.17-0.219,0.338-0.338,0.508c-0.119,0.174-0.248,0.35-0.377,0.525
		c0.311,0.742,0.611,1.506,0.898,2.271l-0.002-0.004l0.039,0.104c0.092,0.252,0.182,0.498,0.271,0.748
		c0.043,0.119,0.088,0.238,0.131,0.357c0.102,0.285,0.199,0.566,0.297,0.848c0.027,0.08,0.055,0.162,0.082,0.242
		c0.113,0.324,0.221,0.645,0.324,0.963l0.037,0.102c0.488,1.486,0.902,2.838,1.213,3.883c0.061,0.201,0.113,0.391,0.166,0.566
		l0.008,0.025c1.002,3.424,0.586,4.09-2.086,6.01l-0.15,0.104l0.012-0.006l-0.047,0.031c-0.141,0.096-0.279,0.191-0.42,0.281
		l-0.146,0.094l-0.086,0.055c-0.137,0.08-0.273,0.162-0.41,0.238l-0.162,0.092c-0.238,0.129-0.48,0.252-0.727,0.363l-0.047,0.02
		c-0.18,0.082-0.365,0.16-0.553,0.232l-0.109,0.043l-0.096,0.031c-0.178,0.066-0.357,0.127-0.543,0.188l-0.133,0.041l-0.049,0.016
		c-0.498,0.148-1.029,0.273-1.604,0.379l-0.07,0.014l-0.113,0.02c-0.244,0.043-0.498,0.082-0.76,0.119L69,91.111v-0.002
		c-1.371,0.182-2.979,0.275-4.951,0.305C63.98,91.414,63.91,91.416,63.841,91.416"/>
</g>
</svg>
