<?xml version="1.0" encoding="utf-8"?>
<!-- Generator: Adobe Illustrator 16.0.0, SVG Export Plug-In . SVG Version: 6.00 Build 0)  -->
<!DOCTYPE svg PUBLIC "-//W3C//DTD SVG 1.0//EN" "http://www.w3.org/TR/2001/REC-SVG-20010904/DTD/svg10.dtd">
<svg version="1.0" id="Layer_1" xmlns="http://www.w3.org/2000/svg" xmlns:xlink="http://www.w3.org/1999/xlink" x="0px" y="0px"
	 width="119.186px" height="93.486px" viewBox="0 0 119.186 93.486" enable-background="new 0 0 119.186 93.486"
	 xml:space="preserve">
<g>
	<path fill="#BBBECF" d="M112.587,38.051c-0.011-0.445,0.273-0.98,0.9-1.723c1.873-2.225,3.395-7.846-1.992-16.043
		c-5.386-8.199-12.647-8.9-12.647-8.9l2.928,5.389c0,0,6.325-0.354,10.657,7.258c2.928,5.973,2.576,11.008-1.055,13.701
		l-0.109,0.086C111.718,37.744,112.169,37.799,112.587,38.051"/>
	<path fill="#A5A9BE" d="M112.587,38.051c-0.014-0.008-0.028-0.014-0.042-0.021c-0.003-0.004-0.007-0.006-0.009-0.008
		c-0.289-0.162-0.596-0.232-0.906-0.234h-0.008h-0.002c-0.117,0-0.234,0.01-0.352,0.031l0.109-0.086
		c2.008-1.488,3.013-3.691,3.016-6.375c0.002-2.17-0.652-4.654-1.961-7.326c-3.066-5.383-7.127-6.783-9.242-7.143
		c-1.086-2.225-2.359-4.002-3.731-5.404c0.418,0.086,1.03,0.232,1.778,0.49c-0.081,0.16-0.063,0.375,0.115,0.68
		c0.877,1.48,1.811,2.631,3.731,3.619c1.92,0.988,9.497,5.496,9.73,14.629c-0.081,1.463-0.162,2.564-0.013,2.879
		c-0.324,1.088-0.807,1.943-1.314,2.547c-0.617,0.729-0.9,1.26-0.9,1.701V38.051"/>
	<path fill="#6E717F" d="M115.83,40.66c-2.029-1.168-3.224-1.715-3.242-2.609c-0.418-0.252-0.869-0.307-1.318-0.232
		c-3.531,2.664-4.092,5.318-2.818,6.939c0.82,2.461,1.874,2.229,3.045,2.576c1.172,0.352,1.874,1.525,1.757,2.461
		c0.587,0.234,0.82-0.82,0.82-0.82s0.351,1.523-0.703,2.459c3.396-1.17,4.216-4.566,3.864-6.441
		C117.937,46.281,118.875,42.418,115.83,40.66"/>
	<path fill="#ABAAB2" d="M117.432,42.256c-0.003-0.002-0.004-0.002-0.005-0.004c-0.33-0.588-0.841-1.154-1.598-1.592
		C116.589,41.098,117.101,41.67,117.432,42.256 M113.436,51.41c0.001,0,0.003,0,0.003,0C113.437,51.41,113.437,51.41,113.436,51.41
		 M113.417,51.418c0.002,0,0.004,0,0.005-0.002C113.421,51.418,113.419,51.418,113.417,51.418 M113.398,51.426
		c0.002-0.002,0.006-0.002,0.007-0.004C113.404,51.424,113.4,51.424,113.398,51.426 M113.37,51.434L113.37,51.434
		c0.007,0,0.013-0.004,0.018-0.006C113.382,51.43,113.376,51.434,113.37,51.434"/>
	<path fill="#575B68" d="M113.37,51.434c0.633-0.563,0.76-1.334,0.76-1.863c0-0.352-0.057-0.596-0.057-0.596
		s-0.19,0.854-0.655,0.854c-0.052,0-0.107-0.01-0.165-0.033c0.009-0.068,0.014-0.141,0.011-0.213c0-0.893-0.684-1.922-1.768-2.248
		c-1.171-0.348-2.225-0.115-3.045-2.576c-0.403-0.512-0.622-1.127-0.622-1.816c0.001-1.486,1.026-3.303,3.44-5.123
		c0.119-0.021,0.237-0.031,0.354-0.031c0.33,0,0.656,0.08,0.965,0.264c0.019,0.895,1.213,1.441,3.242,2.609
		c0.757,0.438,1.268,1.004,1.598,1.592c-0.632-0.766-1.494-1.617-2.443-2.002c-1.936-0.785-2.197-0.629-2.563-1.256
		c-0.067-0.117-0.172-0.17-0.295-0.17c-0.549,0-1.502,1.043-1.588,2.367c0.07,0.512,0.041,0.719-0.023,0.719
		c-0.125,0-0.375-0.797-0.238-1.66c0.041-0.256-0.01-0.367-0.115-0.367c-0.438,0-1.82,1.912-1.609,3.557
		c0.101,0.371,0.191,0.508,0.28,0.508c0.188,0,0.376-0.607,0.661-0.928c0.025-0.031,0.047-0.043,0.066-0.043
		c0.264,0-0.277,3.051,2.025,3.443c1.829,0.365,1.986,1.359,1.986,1.984c0,0.111,0.029,0.164,0.072,0.164
		c0.199,0,0.723-1.074,0.294-2.148c-0.114-0.287-0.12-0.41-0.065-0.41c0.2,0,1.212,1.582,1.007,2.973
		c-0.067,0.453,0.049,0.646,0.262,0.646c0.622,0,2.065-1.678,2.144-3.473c0.004-0.102,0.013-0.186,0.023-0.262
		c-0.016,1.896-1.019,4.496-3.869,5.516c0,0-0.002,0-0.003,0c-0.005,0.002-0.009,0.004-0.014,0.006
		c-0.001,0.002-0.003,0.002-0.005,0.002c-0.004,0-0.008,0.002-0.013,0.004c-0.001,0.002-0.005,0.002-0.007,0.004
		c-0.004,0-0.008,0-0.011,0.002C113.382,51.43,113.376,51.434,113.37,51.434"/>
	<path fill="#A3ACBF" d="M116.063,47.102c2.016-3.189-2.292-6.717-2.292-6.717c3.897,1.555,3.91,4.291,3.91,4.291
		s-0.33-1.205-1.15-1.32C117.351,44.758,117.234,46.633,116.063,47.102"/>
	<path fill="#E9ECF4" d="M113.645,24.764c-2.651-6.627-8.78-10.16-8.78-10.16C108.564,15.873,112.486,20.844,113.645,24.764"/>
	<path fill="#9C9FAF" d="M72.941,69.297c0.32,8.08-0.803,13.404-0.803,13.404s2.357,2.258,8.545,1.865
		c6.188-0.391,8.25-3.338,8.25-5.596c0-4.52-1.277-10.215-1.67-12.572c-0.262-1.57-0.48-2.096-0.219-2.59l-0.102-0.035
		C84.704,66.014,76.781,69.055,72.941,69.297"/>
	<path fill="#B6B7C3" d="M88.217,71.703l-0.001-0.002c-0.065-0.408-0.135-0.807-0.202-1.193
		C88.083,70.896,88.151,71.295,88.217,71.703 M88.932,78.941v-0.008V78.941"/>
	<path fill="#7C8092" d="M79.269,84.613c-5.135,0-7.131-1.912-7.131-1.912c1.875,1.484,4.767,1.898,7.119,1.898
		c1.176,0,2.217-0.104,2.927-0.229c-0.001-0.016-0.001-0.027-0.003-0.045c-0.001-0.02-0.002-0.039-0.004-0.059
		c-0.163-2.15-1.226-3.689-2.068-3.699h-0.01c-0.021,0-0.041,0-0.061,0c-0.003,0.004-0.004,0.004-0.008,0.004c0,0-0.002,0-0.006,0
		c-0.867,0.092-0.961,1.617-0.961,1.617s-0.582-2.014-1.678-2.021h-0.007c-0.026,0-0.05,0-0.074,0.004
		c-1.55,0.166-2.183,2.51-2.183,2.51s-0.752-2.934-1.713-3.004c-0.012,0-0.021,0-0.031,0c-0.497,0-0.816,0.848-1.006,1.648
		c0.255-1.705,0.626-4.912,0.626-9.135c0-0.918-0.019-1.887-0.06-2.895c3.843-0.242,11.765-3.283,14.004-5.523l0.101,0.035
		c-0.083,0.158-0.118,0.322-0.118,0.518c0,0.42,0.159,1.006,0.338,2.072c0.155,0.938,0.451,2.402,0.751,4.109
		c0.067,0.387,0.137,0.785,0.202,1.193c-0.514-1.758-1.566-3.813-3.688-3.813c-0.43,0-0.903,0.086-1.426,0.275
		c-5.023,1.814-7.396,2.791-7.673,6.557c-0.223,2.98,0.256,3.951,1.5,3.951c0.328,0,0.712-0.066,1.149-0.184
		c0.329-0.088,0.578-0.123,0.774-0.123c0.447,0,0.609,0.188,0.785,0.377c0.178,0.189,0.369,0.379,0.875,0.379
		c0.172,0,0.379-0.021,0.635-0.074c0.24-0.049,0.453-0.068,0.646-0.068c1.479,0,1.604,1.344,1.728,2.58
		c0.039,0.385,0.458,0.578,1.049,0.578c1.478,0,4.023-1.211,4.357-3.676c0.003,0.16,0.005,0.316,0.005,0.473v0.008v0.029
		c0,2.258-2.062,5.203-8.249,5.596C80.187,84.598,79.716,84.613,79.269,84.613"/>
	<path fill="#9C9FAF" d="M27.924,57.445c0,0-7.963,7.572,0.859,24.281c1.56,2.652,3.824,6.557,8.587,5.619s8.899-2.654,9.524-7.26
		c0.468-3.201,0.39-4.295-1.015-5.699c-1.405-1.404-5.231-4.764-8.588-10.852C33.935,57.445,30.031,56.119,27.924,57.445"/>
	<path fill="#B6B7C3" d="M25.644,61.291c0,0,0-0.002,0-0.004C25.645,61.289,25.644,61.291,25.644,61.291 M25.639,61.305
		c0-0.002,0-0.002,0-0.002S25.639,61.303,25.639,61.305 M25.628,61.332c0-0.002,0-0.002,0-0.002S25.629,61.33,25.628,61.332
		 M25.623,61.348c0.001-0.002,0.001-0.002,0.001-0.004C25.624,61.344,25.624,61.346,25.623,61.348 M25.607,61.391l0.001-0.004
		C25.608,61.387,25.607,61.387,25.607,61.391 M25.602,61.404c0.001-0.002,0.001-0.002,0.001-0.004
		C25.603,61.4,25.603,61.404,25.602,61.404 M25.596,61.422c0-0.002,0.001-0.004,0.001-0.004S25.597,61.42,25.596,61.422
		 M25.586,61.449c0.001-0.004,0.001-0.008,0.003-0.01C25.588,61.441,25.587,61.445,25.586,61.449 M25.581,61.465
		c0.001-0.004,0.002-0.004,0.003-0.01C25.583,61.457,25.581,61.461,25.581,61.465 M25.574,61.482c0-0.002,0.002-0.006,0.004-0.01
		C25.576,61.477,25.574,61.48,25.574,61.482 M25.566,61.506c0.001-0.002,0.003-0.008,0.003-0.01
		C25.569,61.5,25.567,61.504,25.566,61.506 M25.559,61.525c0.002-0.004,0.004-0.008,0.004-0.012
		C25.562,61.518,25.561,61.521,25.559,61.525 M25.551,61.549c0.003-0.008,0.004-0.014,0.006-0.02
		C25.555,61.535,25.554,61.541,25.551,61.549 M25.545,61.566c0.001-0.006,0.003-0.01,0.005-0.016
		C25.548,61.557,25.546,61.561,25.545,61.566 M25.539,61.584c0.001-0.006,0.003-0.01,0.004-0.016
		C25.542,61.574,25.54,61.578,25.539,61.584 M25.524,61.623c0.004-0.01,0.009-0.023,0.013-0.035
		C25.533,61.6,25.528,61.613,25.524,61.623 M24.926,70.881c-0.646-4.004-0.158-7.068,0.597-9.254
		C24.769,63.813,24.281,66.877,24.926,70.881L24.926,70.881"/>
	<path fill="#7C8092" d="M24.927,70.881c-0.646-4.004-0.158-7.068,0.597-9.254c0,0,0,0,0-0.004c0.004-0.01,0.009-0.023,0.013-0.035
		c0-0.002,0-0.004,0.001-0.004c0.001-0.006,0.003-0.01,0.004-0.016c0.001,0,0.001-0.002,0.002-0.002
		c0.001-0.006,0.003-0.01,0.005-0.016c0-0.002,0.001-0.002,0.001-0.002c0.003-0.008,0.005-0.014,0.006-0.02
		c0.001-0.002,0.001-0.004,0.001-0.004c0.002-0.004,0.003-0.008,0.005-0.012c0.001-0.004,0.001-0.006,0.002-0.008
		c0.001-0.002,0.003-0.006,0.004-0.01c0.001-0.004,0.003-0.008,0.004-0.014c0-0.002,0.002-0.006,0.004-0.01
		c0.001-0.002,0.001-0.004,0.002-0.008c0.002-0.004,0.002-0.008,0.004-0.01c0-0.002,0.001-0.004,0.002-0.006
		c0.001-0.004,0.002-0.008,0.003-0.01c0.002-0.006,0.004-0.012,0.006-0.018c0-0.002,0.002-0.004,0.002-0.004
		c0.001-0.006,0.003-0.008,0.005-0.014c0,0,0-0.004,0.001-0.004c0-0.004,0.002-0.006,0.003-0.01s0.001-0.004,0.001-0.004
		c0.005-0.014,0.011-0.027,0.015-0.039c0-0.002,0-0.004,0-0.004c0.002-0.004,0.003-0.006,0.005-0.012c0-0.002,0-0.002,0-0.002
		c0.003-0.008,0.007-0.018,0.01-0.025c0-0.002,0-0.002,0-0.002c0.002-0.004,0.003-0.008,0.005-0.012c0,0,0-0.002,0-0.004
		c0.494-1.324,1.078-2.297,1.531-2.932c2.638,3.283,3.989,6.488,3.991,9.098c0.001,0.529-0.055,1.035-0.165,1.51
		c-3.059-3.785-2.559-7.061-3.633-7.061c-0.089,0-0.189,0.023-0.303,0.07c-1.992,0.82-2.109,8.902-2.109,8.902L24.927,70.881
		 M41.894,86.039c0.047-0.141,0.071-0.291,0.072-0.447c0.001-0.313-0.097-0.654-0.321-1.018c-0.645-1.043-1.87-1.799-2.838-1.799
		c-0.786,0-1.403,0.498-1.404,1.738c0,0.146,0.009,0.303,0.026,0.471c-0.869-1.119-1.857-1.732-2.62-1.732
		c-0.742,0-1.271,0.578-1.27,1.826c0,0.154,0.008,0.316,0.025,0.49c-0.829-1.008-1.738-1.648-2.326-1.648
		c-0.324,0-0.55,0.193-0.613,0.625c-0.424-0.539-0.8-1.102-1.142-1.65c0.289-0.295,0.652-0.393,1.052-0.393
		c0.385,0,0.803,0.09,1.218,0.18c0.417,0.092,0.83,0.18,1.207,0.18c0.336,0,0.645-0.072,0.898-0.277
		c0.284-0.234,0.597-0.318,0.916-0.318c0.417,0,0.844,0.145,1.23,0.289c0.386,0.143,0.732,0.287,0.986,0.287
		c0.177,0,0.31-0.07,0.381-0.258c0.241-0.641,0.975-1.338,1.827-1.338c0.393,0,0.811,0.148,1.217,0.518
		c0.885,0.805,1.826,1.721,2.669,1.721c0.384,0,0.749-0.188,1.078-0.666c0.878-1.268,1.106-3.266-4.187-7.08
		c1.345-1.273,2.361-2.68,3.119-4.158c1.207,1.309,2.204,2.225,2.786,2.807c0.922,0.924,1.272,1.709,1.272,3.047
		c0,0.701-0.097,1.553-0.258,2.652C46.482,83.127,44.538,84.91,41.894,86.039 M38.595,87.082c0.005-0.004,0.01-0.008,0.015-0.012
		c0,0,0,0,0,0c0.003-0.002,0.006-0.004,0.008-0.008c0.001,0,0.002,0,0.002,0c0.003-0.004,0.005-0.004,0.008-0.006
		c0,0,0-0.002,0.002-0.002c0.001-0.002,0.004-0.004,0.007-0.006c0.001-0.002,0.002-0.002,0.004-0.004
		c0.001-0.002,0.004-0.002,0.005-0.004c0.003-0.002,0.007-0.006,0.01-0.008c0.015,0.008,0.03,0.016,0.046,0.023
		C38.667,87.066,38.632,87.074,38.595,87.082"/>
	<path fill="#BBBECF" d="M114.97,58.773c-1.561,0-3.121,1.563-5.777-0.938c-4.684-4.684-3.436-9.055-2.498-17.174
		c1.25-25.297-8.431-32.633-16.082-33.727c-7.65-1.092-12.021,2.813-12.021,2.813S55.17,37.967,47.324,41.598
		c-7.846,3.631-12.999,12.881-7.612,19.439s13.374,7.619,15.338,7.227c-0.688,4.617-3.144,9.922-6.188,15.518
		c-1.03,1.895-1.349,3.096-1.043,4.018c0.84-0.486,2.518-0.689,5.79,0.014c6.243,1.348,14.404,3.129,15.683,4.699
		c3.411-1.969,2.847-9.811,2.847-9.811s1.123-5.324,0.801-13.404c3.843-0.242,11.765-3.283,14.004-5.523l0.101,0.035
		c0.131-0.248,0.382-0.488,0.808-0.846c1.277-1.082,2.684-2.393,2.684-2.393c0.234,14.166,12.782,16.525,15.48,17.219
		c2.695,0.693,3.157,0.848,5.854,2.234c3.004,1.154,7.317-5.951,7.317-12.039S116.531,58.773,114.97,58.773"/>
	<path fill="#D9DBE4" d="M90.834,6.971c-0.073-0.014-0.147-0.023-0.222-0.035C90.687,6.947,90.761,6.957,90.834,6.971"/>
	<path fill="#A5A9BE" d="M90.536,60.629c0-0.01,0-0.018-0.001-0.023C90.536,60.611,90.536,60.619,90.536,60.629 M112.545,80.146
		c-0.054,0-0.108-0.002-0.159-0.006c0.665-0.047,1.272-0.266,1.82-0.604C113.645,79.93,113.083,80.146,112.545,80.146
		 M67.536,90.354c-0.651,0-1.388-0.16-2.218-0.43c-3.355-1.094-4.279-1.309-5.165-2.945c-0.886-1.635-1.977-2.588-2.998-2.588
		c-0.438,0-0.814,0.074-1.158,0.074c-0.46,0-0.867-0.135-1.295-0.758c-0.554-0.803-1.396-1.227-2.148-1.227
		c-0.265,0-0.519,0.053-0.745,0.16c-0.078,0.035-0.15,0.053-0.216,0.053c-0.678,0-0.754-1.852,0.297-4.559
		c0.134-0.346,0.223-0.654,0.279-0.934c1.172-2.605,2.086-5.105,2.603-7.447c-0.021,0.09-0.041,0.182-0.062,0.273
		c0.133-0.25,0.258-0.518,0.37-0.803c1.06-2.709,1.585-7.203,1.238-7.203c-0.111,0-0.313,0.463-0.616,1.6
		c-0.607,1.943-2.233,2.725-3.982,2.725c-2.732,0.002-5.763-1.91-5.668-4.281c0-4.203-0.934-11.363-0.934-11.363
		s0.08,0.014,0.221,0.014c0.569,0,2.139-0.236,3.634-2.604c2.759-0.113,9.447-4.869,13.112-9.24
		c4.941-5.893,4.202-8.406,6.225-9.809c2.024-1.398,3.893-1.867,6.229-5.447c5.136-0.934,5.291-9.338,5.291-9.338
		s0.086,0.861,0.328,0.861c0.215,0,0.557-0.697,1.073-3.354c0.423-2.18,1.462-3.604,2.571-4.533
		c-0.936,0.236-1.754,0.537-2.447,0.842V8.092c1.576-0.695,3.798-1.348,6.59-1.348c0.839,0,1.729,0.057,2.668,0.191
		c0.074,0.012,0.148,0.021,0.222,0.035c0.309,0.047,0.62,0.107,0.934,0.176c-0.175-0.018-0.351-0.037-0.53-0.055
		c-0.325-0.033-0.65-0.049-0.975-0.049c-4.342,0-8.47,3.008-9.486,11.291c-1.094,8.898-6.246,10.615-10.462,12.803
		c-4.216,2.186-6.714,12.959-17.955,17.799c-5.309,2.344-6.451,6.164-4.84,10.305c1.201,3.088,3.391,4.904,5.173,4.904
		c1.461,0,2.648-1.223,2.79-3.967c0.125-2.443,0.502-3.555,0.867-3.555c0.545,0,1.067,2.473,0.694,6.678
		c-0.781,5.777-2.186,7.961,0.312,8.119c1.968,0.139,0.899,1.295-0.474,1.295c-0.152,0-0.308-0.014-0.463-0.045
		c-0.069-0.016-0.133-0.023-0.195-0.023c-1.229,0-1.456,2.865-3.238,6.582c-1.875,3.277,3.59,2.652,6.556,5.617
		c2.967,2.967,4.216,3.906,7.183,4.063c0.012,0,0.025,0,0.039,0c2.955-0.002,6.037-17.709,3.084-32.635
		c-0.213-1.021-0.182-1.428-0.008-1.428c0.461,0,1.938,2.891,2.506,4.709c0.179,0.57,0.35,0.809,0.512,0.809
		c0.546-0.002,1-2.68,1.361-4.244c0.125-0.541,0.295-0.807,0.456-0.807c0.44,0,0.813,1.982,0.013,5.646
		c-0.193,0.887,0.539,1.352,1.862,1.352c6.116-0.002,24.833-9.922,22.651-33.672c-0.138-0.662-0.105-0.967,0.037-0.967
		c0.823,0,5.322,10.396,1.056,20.795c-4.528,11.242-8.431,13.586-5.933,18.426c1.23,2.387,2.348,3.064,3.277,3.064
		c0.955,0,1.712-0.719,2.188-1.035c0.227-0.152,0.445-0.23,0.624-0.23c0.563,0,0.751,0.76-0.313,2.416
		c-1.336,2.078,3.824,4.863,7.422,4.863c0.186,0,0.366-0.006,0.543-0.021c3.59-0.314,7.962-3.906,7.65-9.682
		c-0.211-3.883-1.197-4.592-2.722-4.592c-0.742,0-1.615,0.17-2.587,0.221c-0.048,0.002-0.094,0.002-0.143,0.002
		c-2.999,0-8.402-4.834-5.791-14.057c1.082-3.818,1.803-6.889,2.272-9.625c-0.017,0.795-0.046,1.611-0.087,2.445
		c-0.412,3.576-0.885,6.422-0.885,8.893c-0.002,3.137,0.762,5.662,3.383,8.281c1.18,1.111,2.143,1.42,2.986,1.42
		c1.056,0,1.924-0.482,2.791-0.482c1.561,0,4.216,3.123,4.216,9.211c0,1.822-0.386,3.73-1.007,5.486
		c0.065-0.203,0.098-0.322,0.1-0.324c0,0-0.418-0.086-0.929-0.086h-0.003h-0.014c-0.57,0.002-1.249,0.109-1.586,0.553
		c-0.003,0.004-0.004,0.006-0.006,0.008c-0.004,0.004-0.006,0.008-0.008,0.014c-0.003,0.004-0.007,0.006-0.01,0.012
		c-0.191,0.273-0.258,0.568-0.258,0.844c0,0.613,0.335,1.131,0.335,1.131s-0.675-0.322-1.435-0.322h-0.002h-0.004
		c-0.408,0-0.84,0.094-1.204,0.381c-0.009,0.006-0.018,0.012-0.026,0.02c-0.349,0.285-0.465,0.697-0.465,1.123
		c0,0.848,0.465,1.74,0.465,1.74s-0.005,0-0.013-0.006c-0.157-0.084-1.671-0.881-2.597-0.881h-0.001
		c-0.263,0.002-0.479,0.066-0.602,0.229c-0.379,0.559,0.205,1.135,0.862,1.564c-1.801-0.893-2.479-1.094-4.766-1.68
		c-2.693-0.693-15.209-3.045-15.479-17.154c0.026,1.334,0.163,2.566,0.389,3.699c0.161-3.975,2.813-7.672,5.777-12.119
		c3.778-5.666,4.002-12.348,3.62-12.348c-0.092,0-0.221,0.387-0.34,1.262c-0.717,5.188-2.499,10.15-10.461,17.645
		c-5.281,4.969-10.682,7.123-13.856,7.123c-1.614,0-2.654-0.557-2.812-1.58c-0.252-1.637-1.068-4.477-1.336-4.477
		c-0.115,0-0.129,0.525,0.047,1.898c1.054,7.729,0.586,16.863-0.234,22.719C70.712,88.867,69.521,90.354,67.536,90.354"/>
	<path fill="#A0A3B7" d="M54.773,69.754c0.111-0.506,0.203-1.002,0.277-1.49C54.977,68.752,54.884,69.248,54.773,69.754"/>
	<path fill="#767A95" d="M54.711,70.027c0.021-0.092,0.042-0.184,0.062-0.273c0.111-0.506,0.204-1.002,0.276-1.49
		c-0.227,0.045-0.537,0.07-0.915,0.07c-1.917,0-5.581-0.668-9.222-2.84c0.145-1.125,0.204-2.242,0.203-3.326
		c0-1.422-0.102-2.791-0.241-4.047c0,0,0,0,0-0.002c0-0.004-0.001-0.01-0.002-0.016c-0.073-0.656-0.157-1.281-0.242-1.869
		c-0.63-4.344-0.712-6.236-0.711-6.926c0-0.24,0.009-0.334,0.009-0.334c0.41,0.408,1.032,0.623,1.688,0.623
		c1.031,0,2.145-0.531,2.646-1.676c9.133-3.045,15.926-11.828,17.799-18.855c4.254-2.977,6.867-4.988,6.871-6.561
		c0.002-0.158-0.024-0.314-0.078-0.465c0.359,0.289,0.732,0.42,1.111,0.42c2.211,0,4.561-4.393,4.86-6.393
		c0.03-0.195,0.043-0.377,0.043-0.541c-0.001-1.262-0.785-1.59-0.785-1.75c-0.001-0.066,0.132-0.104,0.509-0.166
		c0.797-0.135,1.707-1.211,2.26-2.631c0.313-0.799,0.51-1.705,0.51-2.613c0-0.092-0.001-0.184-0.006-0.273
		c0.694-0.305,1.512-0.605,2.448-0.842c-1.11,0.93-2.147,2.354-2.571,4.533c-0.516,2.656-0.859,3.354-1.074,3.354
		c-0.242,0-0.327-0.861-0.327-0.861s-0.155,8.404-5.294,9.338c-2.334,3.58-4.201,4.049-6.225,5.447
		c-2.023,1.402-1.284,3.914-6.227,9.809c-3.666,4.371-10.353,9.127-13.113,9.24c-1.494,2.367-3.065,2.604-3.633,2.604
		c-0.141,0-0.221-0.014-0.221-0.014s0.933,7.16,0.933,11.363c-0.094,2.371,2.936,4.283,5.668,4.281c1.749,0,3.375-0.781,3.982-2.725
		c0.303-1.137,0.505-1.6,0.616-1.6c0.347,0-0.178,4.494-1.239,7.203C54.969,69.51,54.844,69.777,54.711,70.027"/>
	<path fill="#DADBE8" d="M112.085,80.148c0,0-2.902-1.158-2.167-2.244c0.58-0.773,3.212,0.658,3.212,0.658s-1.045-2.012,0-2.863
		s2.671-0.078,2.671-0.078s-0.696-1.084-0.077-1.975c0.619-0.889,2.555-0.5,2.555-0.5S116.343,80.191,112.085,80.148"/>
	<path fill="#EDE6CD" d="M20.977,47.57c0,0-0.469,0.703-1.874,1.404c-1.406,0.703,0.82,2.225,3.395,2.342
		C21.679,48.975,20.977,47.57,20.977,47.57"/>
	<path fill="#EDE6CD" d="M22.292,51.305c-0.515-0.037-1.014-0.131-1.466-0.262C21.28,51.174,21.777,51.268,22.292,51.305"/>
	<path fill="#DFD5AB" d="M22.292,51.305c-0.515-0.037-1.013-0.131-1.466-0.262c-0.502-0.145-0.951-0.334-1.306-0.543
		c0.381,0.123,0.688,0.178,0.935,0.178c1.029-0.002,0.957-0.949,0.58-1.703c-0.162-0.322-0.289-0.43-0.438-0.43
		c-0.284,0-0.65,0.391-1.496,0.43c1.406-0.701,1.875-1.404,1.875-1.404s0.032,0.066,0.09,0.188
		C21.323,48.834,21.712,50.029,22.292,51.305"/>
	<path fill="#FFFFFF" d="M18.856,49.291c0,0,1.098,0.205,1.83-0.568C20.89,49.291,19.628,50.023,18.856,49.291"/>
	<path fill="#BBBECF" d="M26.242,13.748c0,0-2.487-4.246-6.751-4.41c-4.266-0.168-6.746,4.531-13.025,10.596
		c-3.493,3.342-6.641,3.914-6.458,5.842c0.229,2.406,1.676,5.049,2.965,4.914c-0.574,1.375,3.309,7.406,6.712,6.898
		c0.401,1.975,4.091,2.988,5.493,3.307c1.403,0.32,5.771,0.953,5.699-0.355C21.627,35.189,26.242,13.748,26.242,13.748"/>
	<path fill="#BCCEDE" d="M13.9,12.137c0.006-0.006,0.013-0.014,0.018-0.02C13.913,12.123,13.906,12.131,13.9,12.137 M12.054,14.053
		L12.054,14.053c0.65-0.703,1.258-1.348,1.846-1.916C13.313,12.705,12.704,13.35,12.054,14.053 M0.037,25.283
		c0.32-1.4,2.681-2.146,5.458-4.479h0C2.718,23.137,0.357,23.885,0.037,25.283 M0.035,25.293c0-0.002,0.002-0.004,0.002-0.006
		C0.037,25.289,0.035,25.291,0.035,25.293 M0.034,25.301c0,0,0-0.002,0-0.004C0.034,25.299,0.034,25.301,0.034,25.301 M0.032,25.313
		c0-0.004,0-0.004,0-0.004C0.032,25.309,0.032,25.309,0.032,25.313 M0.029,25.32c0-0.002,0-0.002,0-0.002S0.029,25.318,0.029,25.32
		 M0.028,25.33L0.028,25.33L0.028,25.33 M0.004,25.734c0-0.002,0-0.002,0-0.002S0.004,25.732,0.004,25.734 M0.006,25.744
		c0,0,0,0-0.001-0.002C0.006,25.744,0.006,25.744,0.006,25.744 M0.006,25.758c0-0.004,0-0.004,0-0.004S0.006,25.754,0.006,25.758
		 M2.962,30.689c0.003,0,0.008,0,0.011,0C2.97,30.689,2.966,30.689,2.962,30.689 M2.874,30.693
		c-1.263-0.004-2.643-2.572-2.866-4.918c0-0.006,0-0.008,0-0.012c0,0.004,0,0.006,0,0.012C0.231,28.121,1.61,30.689,2.874,30.693
		 M2.877,30.693L2.877,30.693"/>
	<path fill="#92A3BB" d="M2.877,30.693H2.874c-1.263-0.004-2.643-2.572-2.866-4.918c0-0.006,0-0.008,0-0.012
		c-0.001-0.004-0.001-0.004-0.001-0.006c0-0.004,0-0.004,0-0.004c0-0.004,0-0.008,0-0.01c0,0,0,0-0.001-0.002
		c0-0.002,0-0.004,0-0.008c0-0.002,0-0.002,0-0.002c-0.01-0.141-0.001-0.275,0.023-0.402l0,0c0-0.004,0.001-0.008,0.001-0.01
		s0-0.002,0-0.002c0-0.002,0-0.006,0.002-0.006c0-0.004,0-0.004,0-0.004c0-0.002,0-0.004,0.001-0.008c0,0,0-0.002,0-0.004l0-0.004
		c0-0.002,0.002-0.004,0.002-0.006c0-0.002,0-0.002,0-0.004c0.32-1.398,2.681-2.146,5.458-4.479c-0.07,0.086-0.143,0.17-0.224,0.254
		c-0.83,0.844-0.93,1.309-0.492,1.309c0.709,0,2.827-1.221,5.543-4.053c4.396-4.578,7.07-6.441,8.39-6.578
		c1.32-0.139,2.131-1.332,0.556-1.725c-0.183-0.041-0.373-0.063-0.568-0.063c-2.781,0-6.547,4.133-6.547,4.133l-0.098-0.029
		c0.65-0.703,1.258-1.348,1.846-1.916c0.006-0.006,0.013-0.014,0.018-0.02c1.796-1.736,3.392-2.783,5.354-2.783
		c0.073,0,0.146,0,0.22,0.004c3.245,0.123,5.461,2.613,6.335,3.795c-0.578,0.516-1.1,1.055-1.575,1.607
		c-1.59-1.475-2.998-2.287-4.472-2.287c-1.344,0-2.743,0.676-4.381,2.145c-0.219,0.193-0.435,0.393-0.65,0.592l0.001-0.002
		c-1.908,1.764-3.724,3.664-5.666,5.455l0.004-0.006c-1.568,1.445-3.216,2.818-5.062,3.986c-0.001,0-0.001,0.002-0.002,0.002
		c-0.013,0.008-0.026,0.018-0.04,0.025c-0.01,0.004-0.021,0.012-0.03,0.02c-0.005,0.002-0.01,0.006-0.016,0.008
		c-0.286,0.18-0.576,0.355-0.872,0.523c-0.003,0.002-0.009,0.004-0.013,0.008c-0.012,0.006-0.023,0.012-0.034,0.02
		c-0.013,0.008-0.028,0.016-0.042,0.023c-1.414,0.799-2.146,1.738-2.472,2.67C1.07,29.459,2.003,30.693,2.877,30.693
		c0.033,0,0.064-0.002,0.096-0.004c-0.003,0-0.007,0-0.011,0C2.934,30.693,2.906,30.693,2.877,30.693"/>
	<path fill="#F5A2C5" d="M2.979,25.252c4.928-2.791,8.424-7.076,12.419-10.654c3.967-3.555,6.525-2.467,10.317,1.617
		c-1.233,5.793-4.245,20.094-4.838,24.324c0.071,1.309-4.297,0.676-5.7,0.355c-1.402-0.318-5.091-1.332-5.493-3.307
		c-3.402,0.508-7.286-5.523-6.711-6.898c-0.903,0.092-1.883-1.174-2.468-2.768C0.833,26.99,1.564,26.051,2.979,25.252"/>
	<path fill="#9689AB" d="M14.748,15.189c0.216-0.199,0.432-0.398,0.65-0.592c-0.218,0.193-0.434,0.391-0.648,0.59L14.748,15.189
		 M4.025,24.623c1.846-1.168,3.494-2.541,5.063-3.986l-0.004,0.006C7.518,22.086,5.87,23.457,4.025,24.623 M3.985,24.65
		c0.013-0.008,0.026-0.018,0.04-0.025C4.011,24.633,3.998,24.643,3.985,24.65 M3.94,24.678c0.004-0.002,0.01-0.006,0.016-0.008
		C3.95,24.672,3.945,24.676,3.94,24.678 M3.055,25.209c0.004-0.004,0.008-0.006,0.012-0.008C3.063,25.203,3.059,25.205,3.055,25.209
		 M2.979,25.252c0.013-0.008,0.027-0.016,0.042-0.023C3.006,25.236,2.993,25.244,2.979,25.252"/>
	<path fill="#F38AB6" d="M15.647,31.236c-0.067-0.91,0.172-1.605,1.017-2.66c1.698-2.117,3.298-5.031,3.306-9.721
		c0.004-3.35-0.882-4.506-2.365-4.506c-0.784,0-1.735,0.322-2.809,0.818l-0.046,0.02c0.215-0.199,0.431-0.396,0.648-0.59
		c1.638-1.469,3.037-2.146,4.381-2.146c1.474,0,2.883,0.814,4.473,2.289c-4.806,5.59-4.619,12.631-4.615,12.742l0,0
		c-0.16,0.463-0.851,0.668-2.59,1.955c-0.093,0.07-0.188,0.143-0.287,0.217C16.242,30.047,15.872,30.59,15.647,31.236 M18.88,41.332
		L18.88,41.332h-0.008c-1.32,0-2.938-0.264-3.694-0.438c-1.402-0.318-5.092-1.332-5.493-3.307c-0.137,0.021-0.274,0.031-0.413,0.031
		H9.264c-3.064-0.01-6.35-4.861-6.347-6.598c0-0.129,0.018-0.24,0.057-0.332c-0.032,0.002-0.063,0.004-0.095,0.004
		c-0.876,0-1.809-1.234-2.374-2.771c0.327-0.932,1.059-1.871,2.474-2.67c0.014-0.008,0.027-0.016,0.042-0.023
		c0.011-0.008,0.022-0.014,0.034-0.02c0.004-0.004,0.008-0.006,0.012-0.008c0.296-0.17,0.587-0.344,0.873-0.523
		c0.005-0.002,0.01-0.006,0.016-0.01c0.009-0.006,0.02-0.014,0.029-0.018c0.013-0.008,0.026-0.018,0.04-0.025l0-0.002
		c1.845-1.166,3.493-2.537,5.058-3.98l-0.069,0.115c-1.992,3.162-6.787,4.84-6.257,6.754c0.292,1.053,0.977,1.291,1.532,1.291
		c0.453,0,0.821-0.156,0.821-0.156S4.28,29.42,4.777,31.832c0.421,2.033,3.519,3.719,5.073,3.719c0.288,0,0.521-0.059,0.677-0.182
		c0.355,1.83,2.026,2.773,3.516,2.773c1.006,0,1.931-0.432,2.312-1.305c0.187,0.391,0.4,0.781,0.64,1.17
		c1.175,1.898,1.983,2.723,2.593,3.295C19.367,41.324,19.129,41.332,18.88,41.332"/>
	<path fill="#E9ECF4" d="M9.675,17.652c-0.353,0,0.704-2.051,3.587-4.514c2.42-2.066,4.141-2.832,4.643-2.832
		c0.292,0,0.172,0.258-0.456,0.668c0,0-3.162,1.219-6.997,5.969C10.053,17.434,9.789,17.652,9.675,17.652"/>
	<path fill="#82ABC5" d="M75.824,7.885c-2.969-0.184-6.584-1.299-13.818-3.617C56.029,2.354,52.825,6.4,51.619,8.719
		c-1.205,2.318,4.544,9.83,7.234,12.799c4.637,0.742,7.604,2.316,7.207,7.549c4.685-3.277,7.378-5.385,6.793-7.025
		c2.459,1.99,5.619-3.629,5.972-5.973c0.351-2.34-1.64-2.223-0.233-2.457c0.797-0.135,1.707-1.211,2.26-2.631
		C80.435,8.83,78.261,8.039,75.824,7.885"/>
	<path fill="#BBBECF" d="M81.283,7.402c-0.294-1.766-5.151-1.99-10.538-3.861c-5.388-1.875-13.819-4.686-17.449-3.047
		c-3.629,1.641-6.792,9.02-6.792,9.02s-5.972-2.928-15.106,0.234c-12.179,4.801-11.761,17.734-11.761,17.734
		c-0.168,0.488-0.925,0.689-2.877,2.172c-1.953,1.482-1.796,5.072,0.234,8.354c2.029,3.279,2.966,3.355,3.669,4.449
		c-0.078,0.936-0.859,7.572,5.542,14.754c6.401,7.184,6.715,14.287,0.313,15.926c-6.401,1.639-10.607-4.334-11.902-8.262
		c-1.298-3.93-4.295-2.432-6.484,0.566c-2.188,2.998-1.255,5.105-0.566,5.471c0.688,0.363,0.809,0.281,1.231,1.131
		c3.514,6.209,10.657,10.424,21.429,8.668c16.278-4.1,15.458-17.215,14.404-24.477c-0.852-5.867-0.702-7.26-0.702-7.26
		c1.055,1.055,3.514,0.82,4.333-1.053c9.134-3.045,15.926-11.828,17.799-18.855c0.397-5.232-2.57-6.807-7.208-7.549
		c-2.689-2.969-8.439-10.48-7.233-12.799s4.41-6.365,10.386-4.451c7.234,2.318,10.85,3.434,13.818,3.617
		c2.438,0.154,4.611,0.945,5.027,3.096C81.272,9.898,81.488,8.619,81.283,7.402"/>
	<path fill="#9297B0" d="M28.881,25.34h-0.011c-0.343,0.014-0.578,0.695-0.526,1.52c0.052,0.82,0.367,1.475,0.706,1.475h0.01
		c0.343-0.014,0.579-0.693,0.526-1.52C29.534,25.994,29.22,25.34,28.881,25.34 M27.594,29.119c0,0,0.226-0.621,0.961-0.846
		c-0.707-1.498-0.289-3.148,0.321-3.148c0.025,0,0.049,0.002,0.075,0.01c1.073,0.281,0.621,3.053,0.621,3.053
		s0.764,0.055,1.16,0.539c-0.225-0.082-0.442-0.139-0.649-0.176c-0.216-0.053-0.451-0.084-0.692-0.084
		c-0.485,0-1.001,0.123-1.474,0.441C27.708,29.023,27.594,29.119,27.594,29.119"/>
	<path fill="#9297B0" d="M43.173,22.479c-0.04,0-0.077,0.008-0.112,0.021c-0.314,0.137-0.288,0.857,0.061,1.607
		c0.31,0.668,0.769,1.137,1.089,1.137c0.039,0,0.077-0.006,0.113-0.023c0.314-0.135,0.287-0.855-0.06-1.605
		C43.953,22.945,43.493,22.479,43.173,22.479 M43.07,27.387c0,0,0.272-1.559,0.82-1.793c-1.211-0.936-1.757-2.93-1.054-3.357
		c0.092-0.037,0.183-0.053,0.271-0.053c1.141,0,1.914,2.824,1.914,2.824s0.609-0.23,1.396-0.23c0.286,0,0.595,0.031,0.908,0.113
		c-0.046-0.002-0.09-0.002-0.134-0.002c-0.308,0-0.596,0.027-0.866,0.076c-1.172,0.16-2.357,0.857-2.882,1.832
		C43.188,27.139,43.07,27.387,43.07,27.387"/>
	<path d="M29.586,26.814c0.052,0.826-0.183,1.506-0.526,1.52c-0.343,0.012-0.663-0.646-0.716-1.475
		c-0.052-0.824,0.184-1.506,0.526-1.52S29.534,25.986,29.586,26.814"/>
	<path fill="#FFFFFF" d="M29.377,26.34c0.042,0.322-0.046,0.598-0.197,0.615c-0.151,0.016-0.308-0.23-0.35-0.551
		c-0.042-0.322,0.046-0.596,0.197-0.611C29.179,25.773,29.335,26.021,29.377,26.34"/>
	<path d="M44.263,23.615c0.347,0.75,0.374,1.471,0.061,1.605c-0.315,0.137-0.853-0.361-1.202-1.113
		c-0.349-0.752-0.375-1.471-0.06-1.607C43.376,22.365,43.914,22.861,44.263,23.615"/>
	<path fill="#FFFFFF" d="M43.896,23.25c0.155,0.285,0.172,0.572,0.038,0.643c-0.134,0.07-0.369-0.102-0.525-0.389
		c-0.156-0.283-0.172-0.568-0.039-0.643C43.505,22.793,43.741,22.965,43.896,23.25"/>
	<path fill="#9297B0" d="M38.313,20.596c0.744-2.773,1.723-3.865,2.913-3.865c0.87,0,1.854,0.584,2.942,1.523
		c-0.61-0.223-1.173-0.316-1.689-0.316C39.725,17.938,38.313,20.596,38.313,20.596"/>
	<path fill="#9297B0" d="M25.899,23.523c0.113-1.924,0.581-2.727,1.232-2.727c0.698,0,1.606,0.922,2.514,2.375
		c-1.002-0.787-1.741-1.061-2.285-1.061C26.126,22.111,25.899,23.523,25.899,23.523"/>
	<path fill="#5B6072" d="M38.19,20.168c0,0,1.99-3.748,5.854-2.342C41.469,15.6,39.478,15.365,38.19,20.168"/>
	<path fill="#5B6072" d="M25.777,23.096c0,0,0.469-2.928,3.748-0.352C27.767,19.934,26.011,19.113,25.777,23.096"/>
	<path fill="#D57BA9" d="M19.637,27.482 M19.637,27.482L19.637,27.482 M19.637,27.482L19.637,27.482"/>
	<path fill="#D9DBE4" d="M53.274,0.506c0.001,0,0.003-0.002,0.006-0.002C53.278,0.504,53.276,0.506,53.274,0.506 M50.676,2.627
		c0.804-0.924,1.681-1.697,2.586-2.115C52.356,0.93,51.48,1.703,50.676,2.627 M50.663,2.643c0.003-0.002,0.006-0.008,0.01-0.01
		C50.669,2.635,50.666,2.641,50.663,2.643 M50.648,2.658C50.648,2.658,50.648,2.658,50.648,2.658L50.648,2.658"/>
	<path fill="#A5A9BE" d="M19.341,36.551c-0.379,0-0.732-0.105-1.058-0.338c-3.686-2.65-1.144-6.768-1.059-6.902
		c-0.059,0.039-0.117,0.082-0.177,0.127c1.739-1.287,2.43-1.492,2.59-1.955l0,0c-0.003-0.088-0.119-4.516,2.211-9.127
		c-0.476,1.473-1.517,5.197-1.028,8.254c0.055,0.715,0.324,0.926,0.766,0.926c0.316,0,0.718-0.105,1.193-0.213
		c0.476-0.105,1.024-0.213,1.63-0.213c0.347,0,0.713,0.033,1.095,0.125c1.561,0.152-7.339,1.715-7.027,5.621
		C18.605,34.447,19.279,35,20.159,35c1.277,0,2.987-1.158,4.096-1.99c1.182-0.887,5.723-3.764,10.129-3.764
		c0.958,0,1.912,0.137,2.823,0.461c0.764,0.285,1.508,0.701,2.205,1.287c-1.907-1.143-3.702-1.6-5.383-1.6
		c-3.332,0-6.22,1.789-8.668,3.578C22.913,34.762,20.906,36.551,19.341,36.551 M40.538,46.863c0.067-1.309,0.647-2.123,2.219-2.572
		c0.19-0.053,0.379-0.109,0.564-0.164c-0.67,0.871-1.717,2.09-2.768,2.729h-0.001c-0.002,0.002-0.005,0.002-0.008,0.006
		C40.542,46.861,40.541,46.861,40.538,46.863 M45.84,48.793c-0.413,0-0.796-0.176-1.149-0.385c0.139-0.037,0.275-0.082,0.408-0.135
		c1.56-0.625,2.133-1.248,2.134-2.045c0-0.4-0.143-0.844-0.378-1.352c-0.095-0.207-0.212-0.396-0.343-0.568
		c-0.292-0.381-0.657-0.678-1.016-0.891c16.294-5.838,6.214-15.117,7.78-15.117c0.048,0,0.107,0.008,0.177,0.025
		c0.587,0.135,1.23,0.199,1.886,0.199c3.875,0,8.188-2.225,4.046-4.961c-1.26-0.834-2.93-1.137-4.544-1.137
		c-1.242,0-2.451,0.18-3.419,0.434c-0.564,0.148-1.061,0.213-1.428,0.213c-1.081,0-1.045-0.568,1.664-1.266
		c5.736-1.641-0.352-9.135-2.225-9.486c-1.873-0.352-0.468-2.574,2.107-6.09c1.632-2.227,3.733-3.322,6.482-3.322
		c1.592,0,3.402,0.369,5.462,1.1c3.896,1.379,7.174,1.971,8.74,1.971c0.693,0,1.052-0.115,0.979-0.332
		c-0.233-0.703-7.729-2.928-14.755-4.451c-0.73-0.158-1.42-0.229-2.07-0.229c-3.923,0-6.388,2.58-7.514,4.127
		c0.533-0.838,1.135-1.686,1.784-2.438h0c0.005-0.004,0.01-0.01,0.014-0.016c0.002-0.002,0.006-0.008,0.01-0.01
		c0.001-0.004,0.003-0.004,0.004-0.006c0.804-0.924,1.68-1.697,2.585-2.115c0.003-0.004,0.007-0.006,0.012-0.006
		c0.001,0,0.003-0.002,0.005-0.002c0.005-0.004,0.011-0.006,0.016-0.01C54.062,0.148,55.043,0,56.165,0
		c4.188,0,10.33,2.063,14.58,3.541c5.387,1.871,10.244,2.096,10.539,3.861c0.054,0.318,0.077,0.643,0.077,0.965
		c0,0.908-0.197,1.814-0.51,2.613c-0.416-2.15-2.59-2.941-5.027-3.096l-0.03-0.004c0,0.002,0,0.002,0.001,0.002
		c-2.938-0.188-6.518-1.285-13.61-3.557c0.002,0,0.003,0,0.005,0l-0.184-0.059c-0.014-0.004-0.027-0.008-0.041-0.012
		c-0.007-0.004-0.012-0.004-0.018-0.006c-0.01-0.002-0.02-0.006-0.029-0.01c-1.053-0.33-2.019-0.471-2.902-0.473h-0.002H59.01
		c-4.056,0.002-6.374,3.018-7.371,4.914c-0.004,0.006-0.007,0.012-0.011,0.02c-0.002,0.006-0.005,0.014-0.009,0.018
		c-0.111,0.215-0.164,0.473-0.164,0.77c-0.001,2.129,2.667,6.158,5.052,9.219c0.216,1.207-0.077,2.211-1.403,2.559
		c6.584,1.645,8.997,3.072,8.45,6.145c-0.55,3.072-7.813,1.539-6.914,5.047c1.184,4.613,0.286,10.314-7.561,12.652
		c0,0,0.362-0.936-0.037-1.693c-0.026-0.051-0.048-0.074-0.068-0.074c-0.272,0,0.026,4.631-2.799,5.412
		C46.063,48.781,45.95,48.793,45.84,48.793 M44.875,58.119c0-0.004-0.001-0.01-0.001-0.016
		C44.873,58.109,44.874,58.115,44.875,58.119 M7.394,70.787c-0.317-0.289-0.629-0.916-0.628-1.805
		c0.001-0.928,0.341-2.137,1.367-3.541c1.25-1.715,2.767-2.938,4.078-2.938c0.879,0,1.667,0.549,2.219,1.871
		c-0.44-1.051-1.03-1.611-1.696-1.797c0.284,0.246,0.524,0.564,0.707,0.953c0.566,1.213,0.766,2.992,0.044,4.195
		c-0.027,0.043-0.055,0.086-0.083,0.131c0.319-0.777,0.47-1.602,0.47-2.344c0-0.438-0.053-0.846-0.156-1.197
		c-0.001-0.006-0.003-0.01-0.004-0.016c-0.008-0.025-0.015-0.051-0.023-0.072c-0.001-0.006-0.002-0.008-0.004-0.014
		c-0.341-1.057-0.972-1.283-1.419-1.295c-0.015-0.002-0.03-0.002-0.045-0.002h0c-0.268,0-0.46,0.074-0.466,0.078
		c-0.042,0.014-0.088,0.031-0.136,0.051l-0.062,0.023c0.002,0,0.003,0,0.005,0c-0.985,0.402-2.692,1.363-3.935,4.211
		c-0.014,0.035-0.028,0.068-0.042,0.1c0,0.004-0.001,0.006-0.002,0.008C7.575,67.4,7.57,67.416,7.564,67.43
		c-0.003,0.006-0.006,0.014-0.009,0.021c-0.482,1.184-0.435,1.996-0.06,2.518c-0.232-0.092-0.458-0.213-0.674-0.363
		C6.924,70.166,7.157,70.572,7.394,70.787 M7.4,70.793c-0.002-0.002-0.004-0.002-0.006-0.004C7.396,70.791,7.398,70.791,7.4,70.793
		 M7.407,70.799c-0.001,0-0.003-0.004-0.005-0.004C7.404,70.795,7.406,70.799,7.407,70.799 M7.411,70.803l0-0.002L7.411,70.803
		 M7.542,70.898L7.542,70.898L7.542,70.898 M7.55,70.902c-0.001,0-0.002-0.002-0.002-0.002S7.549,70.902,7.55,70.902 M7.558,70.906
		c-0.001,0-0.002-0.002-0.004-0.002C7.555,70.904,7.557,70.906,7.558,70.906 M7.566,70.912c-0.002-0.002-0.004-0.002-0.005-0.004
		C7.562,70.91,7.563,70.91,7.566,70.912 M25.479,81.111c-8.151,0-13.713-3.822-16.682-9.068c-0.243-0.488-0.386-0.67-0.596-0.805
		c0.263,0.014,0.51,0.02,0.744,0.02c3.025,0,3.735-1.039,4.811-2.457c0.394-0.521,0.685-0.824,1.024-0.824
		c0.409,0,0.888,0.439,1.705,1.471c1.614,2.037,4.335,3.576,5.686,4.053c1.929,0.682,1.85,1.355,1.85,1.355
		c0.234-0.469,0.625-0.938,2.03-1.094c0.806-0.088,1.509-0.334,2.183-0.334c0.501,0,0.987,0.137,1.486,0.568
		c-0.391-0.545-0.391-1.014,0.039-1.719c0.796-1.301,1.639-2.576,3.513-2.576c-0.937-0.584-1.639-1.285-1.522-3.16
		c0.117-1.873,1.991-2.93,1.991-2.93c-0.702-0.23-3.044-0.23-3.865-2.691c-0.819-2.459,1.171-3.16,1.171-3.16
		c-0.363,0-1.176,0.404-1.994,0.404c-0.5,0-1.001-0.152-1.401-0.641c-1.055-1.289-1.523-2.576,1.874-3.396
		c-0.111-0.01-0.23-0.014-0.357-0.014c-0.229,0-0.481,0.014-0.75,0.025c-0.269,0.012-0.555,0.025-0.849,0.025
		c-1.15,0-2.439-0.191-3.43-1.324c-2.225-3.281-2.107-5.971,1.054-7.377c-0.543,0.146-1.036,0.223-1.472,0.223
		c-1.63,0-2.485-1.051-2.394-3.268c0.636-4.021,4.304-6.016,9.848-6.016c0.589,0,1.198,0.023,1.829,0.068
		c-0.774-0.246-2.439-0.965-5.098-0.965c-0.725,0-1.522,0.053-2.396,0.184c-0.193,0.029-0.411,0.049-0.622,0.049
		c-0.765,0-1.428-0.25-0.413-1.188c3.276-3.342,6.731-4.514,9.858-4.514c1.895,0,3.669,0.43,5.211,1.07
		c0.151,0.133,0.301,0.273,0.447,0.422c-0.018-0.029-0.038-0.061-0.058-0.09c0.481,0.48,0.93,1.051,1.341,1.729
		c-1.322-1.24-3.912-2.391-6.915-2.391c-2.669,0-5.667,0.91-8.387,3.482c-1.873,1.719,7.535-0.156,9.408,3.473
		c-1.967-0.732-3.784-1.063-5.4-1.063c-4.832,0-7.871,2.941-7.754,6.801c0.056,1.061,0.649,1.322,1.523,1.322
		c0.432,0,0.933-0.063,1.472-0.129c0.538-0.064,1.115-0.129,1.699-0.129c0.961,0,1.94,0.174,2.801,0.809
		c-4.372,0.158-8.119,1.875-5.31,6.715c0.866,1.111,1.901,1.344,3.1,1.344c0.428,0,0.877-0.029,1.347-0.057
		c0.47-0.031,0.959-0.061,1.47-0.061c0.136,0,0.273,0.002,0.413,0.004c1.073,0.072,2.177,0.254,2.977,0.654
		c-0.034-0.023-0.068-0.045-0.103-0.066c0.158,0.064,0.318,0.135,0.479,0.211c0,0-0.466-0.055-1.137-0.055
		c-1.14,0-2.87,0.16-3.926,1.027c-1.475,1.211-0.591,2.283,0.824,2.283c0.197,0,0.403-0.02,0.615-0.066
		c0.592-0.119,1.163-0.174,1.688-0.174c1.015,0,1.855,0.199,2.329,0.475c-2.758,0-4.258,1.68-3.718,3.42
		c0.54,1.738,1.68,1.799,3.179,2.037c1.499,0.242,2.098,1.02,2.098,1.02s-0.187-0.031-0.475-0.031c-0.946,0-2.986,0.355-3.162,3.402
		c-0.23,1.682,1.454,1.682,2.523,3.746c-0.695-0.484-1.308-0.717-1.869-0.717c-0.857,0-1.598,0.541-2.337,1.559
		c-1.224,1.684-0.688,1.912-0.077,3.75c-0.834-1.201-1.953-1.582-3.164-1.582c-0.564,0-1.147,0.082-1.731,0.203
		c-1.835,0.383-1.606,0.842-2.065,2.293c-0.076-2.141-0.72-1.705-3.881-3.58c-3.162-1.875-3.279-2.342-4.333-3.746
		c-0.224-0.299-0.412-0.424-0.585-0.424c-0.643,0-1.102,1.701-2.577,2.529c-1.874,1.055,2.108,7.262,10.422,8.199
		c0.666,0.076,1.354,0.115,2.056,0.115c8.073,0,18.047-5.146,17.616-19.906c-0.335-5.777-1.637-9.633-1.846-12.109
		c0.415,0.34,1.208,0.645,2.1,0.76c-0.464,1.654,0.799,5.418,1.572,11.959c0.844,7.135-0.389,11.027-4.541,15.508l-0.091,0.1
		c5.763-5.129,5.875-12.568,5.275-17.961c0.141,1.256,0.241,2.625,0.241,4.047c0,1.084-0.059,2.201-0.203,3.326
		c-0.264,2.051-0.815,4.129-1.82,6.086c-0.757,1.479-1.773,2.885-3.119,4.158c-2.232,2.117-5.372,3.871-9.747,4.973
		c-0.626,0.102-1.239,0.186-1.841,0.246C27.383,81.063,26.414,81.111,25.479,81.111"/>
	<path fill="#F5A2C5" d="M75.824,7.885c-2.969-0.184-6.584-1.299-13.818-3.617C56.029,2.354,52.825,6.4,51.619,8.719
		c-1.205,2.318,4.544,9.83,7.234,12.799c4.637,0.742,7.604,2.316,7.207,7.549c4.685-3.277,7.378-5.385,6.793-7.025
		c2.459,1.99,5.619-3.629,5.972-5.973c0.351-2.34-1.64-2.223-0.233-2.457c0.797-0.135,1.707-1.211,2.26-2.631
		C80.435,8.83,78.261,8.039,75.824,7.885"/>
	<path fill="#E9ECF4" d="M51.54,4.359c1.088-2.221,3.194-2.863,5.17-2.863c1.352,0,2.644,0.301,3.505,0.602
		c0.863,0.301,1.295,0.604,0.93,0.604c-0.114,0-0.307-0.031-0.588-0.1c-1.168-0.287-2.218-0.402-3.15-0.402
		C53.391,2.199,51.54,4.359,51.54,4.359"/>
	<path fill="#E9ECF4" d="M23.084,18.764c0.442-4.195,6.191-8.6,9.596-8.6c0.206,0,0.404,0.018,0.592,0.051
		C25.894,12.791,23.084,18.764,23.084,18.764"/>
	<path fill="#CDCFDB" d="M14.616,64.875c-0.058-0.18-0.12-0.346-0.186-0.5C14.496,64.529,14.558,64.695,14.616,64.875 M7.394,70.789
		v-0.002V70.789 M7.402,70.795C7.401,70.793,7.4,70.793,7.4,70.793S7.401,70.795,7.402,70.795 M7.409,70.801
		c-0.001,0-0.002-0.002-0.002-0.002C7.407,70.799,7.408,70.801,7.409,70.801 M7.542,70.898c-0.043-0.027-0.087-0.061-0.131-0.096
		C7.454,70.838,7.499,70.871,7.542,70.898 M7.548,70.9c-0.001-0.002-0.004-0.002-0.006-0.002C7.544,70.898,7.546,70.898,7.548,70.9
		 M7.553,70.904c0,0-0.002-0.002-0.003-0.002C7.551,70.902,7.553,70.904,7.553,70.904 M7.56,70.906c0,0,0,0-0.002,0
		C7.559,70.906,7.56,70.906,7.56,70.906 M8.201,71.238H8.199c-0.154-0.098-0.343-0.174-0.633-0.326
		C7.858,71.064,8.048,71.139,8.201,71.238"/>
	<path fill="#CB76A6" d="M16.76,29.654c0.1-0.074,0.194-0.146,0.287-0.217C16.954,29.508,16.858,29.58,16.76,29.654"/>
	<path fill="#8E93AC" d="M24.021,74.855c0,0,0.079-0.674-1.85-1.355c-1.35-0.477-4.073-2.016-5.686-4.053
		c-0.816-1.031-1.296-1.471-1.705-1.471c-0.34,0-0.63,0.303-1.024,0.824c-1.076,1.418-1.786,2.457-4.811,2.457
		c-0.233,0-0.481-0.006-0.744-0.02c-0.153-0.1-0.343-0.174-0.635-0.326c-0.002-0.002-0.004-0.002-0.005-0.004
		c-0.001,0-0.001-0.002-0.003-0.002c-0.001,0-0.002-0.002-0.004-0.002c0,0-0.002-0.002-0.003-0.002c0,0-0.001-0.002-0.002-0.002
		c-0.001-0.002-0.004-0.002-0.006-0.002c-0.043-0.027-0.087-0.061-0.131-0.096c0,0,0-0.002-0.001-0.002s-0.002-0.002-0.002-0.002
		c-0.001,0-0.003-0.004-0.004-0.004c-0.001,0-0.002-0.002-0.002-0.002c-0.002-0.002-0.003-0.002-0.006-0.004v-0.002
		c-0.237-0.215-0.47-0.621-0.573-1.182c0.217,0.15,0.442,0.271,0.675,0.363c0.353,0.488,0.995,0.721,1.761,0.764
		c0.115,0.006,0.23,0.014,0.344,0.014c0.279,0,0.553-0.029,0.808-0.078c0.061-0.008,0.122-0.018,0.184-0.029
		c0.047-0.014,0.094-0.031,0.14-0.049c0.264-0.078,0.493-0.184,0.66-0.313c0.954-0.561,1.612-1.453,2.009-2.42
		c0.029-0.045,0.057-0.088,0.083-0.131c0.722-1.203,0.521-2.982-0.044-4.195c-0.182-0.389-0.423-0.707-0.706-0.953
		c0.665,0.186,1.255,0.746,1.696,1.797c0.065,0.154,0.128,0.32,0.186,0.5c1.146,3.473,4.563,8.541,9.76,8.541
		c0.684,0,1.399-0.09,2.143-0.279c3.126-0.801,4.651-2.902,4.649-5.684c-0.003-2.912-1.686-6.566-4.961-10.242
		c-4.977-5.582-5.613-10.836-5.613-13.338c0-0.717,0.052-1.207,0.069-1.416c-0.295-0.461-0.632-0.74-1.076-1.154
		c-0.609-0.572-1.417-1.396-2.593-3.295c-0.24-0.389-0.453-0.779-0.64-1.17c-0.645-1.354-0.976-2.709-0.974-3.906
		c0.001-1.395,0.453-2.574,1.379-3.277c0.099-0.074,0.194-0.146,0.287-0.217c0.06-0.045,0.12-0.088,0.177-0.127
		c-0.085,0.135-2.627,4.252,1.058,6.902c0.327,0.232,0.681,0.338,1.059,0.338c1.564,0,3.571-1.789,6.02-3.578
		c2.448-1.789,5.336-3.578,8.668-3.578c1.681,0,3.477,0.457,5.383,1.6c0.044,0.035,0.088,0.074,0.131,0.113
		c-1.542-0.641-3.316-1.07-5.211-1.07c-3.127,0-6.582,1.172-9.858,4.514c-1.016,0.938-0.352,1.188,0.413,1.188
		c0.211,0,0.429-0.02,0.622-0.049c0.875-0.131,1.671-0.184,2.396-0.184c2.658,0,4.324,0.719,5.098,0.965
		c-0.63-0.045-1.24-0.068-1.829-0.068c-5.543,0-9.211,1.994-9.847,6.016c-0.093,2.217,0.762,3.268,2.394,3.268
		c0.435,0,0.927-0.076,1.47-0.223c-3.161,1.406-3.278,4.096-1.054,7.377c0.991,1.133,2.279,1.324,3.43,1.324
		c0.295,0,0.581-0.014,0.85-0.025c0.269-0.012,0.521-0.025,0.75-0.025c0.127,0,0.247,0.004,0.358,0.014
		c-3.397,0.82-2.928,2.107-1.874,3.396c0.399,0.488,0.901,0.641,1.401,0.641c0.817,0,1.631-0.404,1.994-0.404
		c0,0-1.99,0.701-1.17,3.16c0.819,2.461,3.162,2.461,3.864,2.691c0,0-1.874,1.057-1.99,2.93c-0.118,1.875,0.585,2.576,1.521,3.16
		c-1.874,0-2.717,1.275-3.513,2.576c-0.43,0.705-0.43,1.174-0.039,1.719c-0.5-0.432-0.985-0.568-1.486-0.568
		c-0.674,0-1.377,0.246-2.184,0.334C24.645,73.918,24.254,74.387,24.021,74.855"/>
	<path fill="#F5A2C5" d="M11.753,62.996c0,0,1.416-0.555,1.963,1.32c0.546,1.875-0.313,5.385-3.124,6.322
		c-2.264,0.391-4.294-0.311-2.966-3.357C8.954,64.236,10.813,63.35,11.753,62.996"/>
	<path fill="#F171A9" d="M8.198,69.236c-0.009,0-0.017,0-0.025-0.004c-0.78-0.074-0.39-1.482,0.312-2.732
		c0.443-0.785,0.917-1.168,1.208-1.168c0.169,0,0.276,0.131,0.276,0.389C9.968,65.721,8.976,69.236,8.198,69.236"/>
	<path fill="#F171A9" d="M10.769,68.463c-1.183,0-0.019-3.053-0.019-3.053c0.178-0.58,0.406-0.955,0.599-0.955
		c0.145,0,0.271,0.217,0.337,0.719c0.156,1.172,0.625,3.045-0.781,3.279C10.856,68.461,10.811,68.463,10.769,68.463"/>
	<path fill="#84809A" d="M10.409,70.668L10.409,70.668c0.061-0.008,0.123-0.018,0.184-0.029c0.047-0.014,0.094-0.031,0.14-0.049
		c-0.046,0.018-0.093,0.035-0.14,0.049C10.531,70.65,10.47,70.66,10.409,70.668"/>
	<path fill="#9B94AA" d="M12.265,62.92c-0.015-0.002-0.03-0.002-0.045-0.002C12.235,62.918,12.25,62.918,12.265,62.92
		 M11.754,62.996c0.005-0.004,0.197-0.078,0.465-0.078C11.951,62.918,11.759,62.992,11.754,62.996 M11.556,63.07l0.062-0.023
		c-0.019,0.008-0.038,0.016-0.057,0.023C11.559,63.07,11.558,63.07,11.556,63.07 M13.688,64.229
		c-0.001-0.006-0.003-0.008-0.004-0.014C13.686,64.221,13.687,64.223,13.688,64.229 M13.715,64.316
		c-0.001-0.006-0.003-0.012-0.004-0.016C13.712,64.305,13.714,64.311,13.715,64.316 M7.581,67.389
		c0.001-0.002,0.002-0.004,0.003-0.008C7.583,67.385,7.582,67.387,7.581,67.389 M7.555,67.451c0.002-0.008,0.006-0.016,0.01-0.021
		C7.562,67.436,7.558,67.443,7.555,67.451"/>
	<path fill="#F48FB2" d="M10.409,70.668c0.112-0.021,0.221-0.047,0.323-0.078c-0.046,0.018-0.092,0.035-0.14,0.049
		C10.531,70.65,10.47,70.66,10.409,70.668 M9.257,70.732c-1.581-0.088-2.636-0.984-1.702-3.281c0.002-0.008,0.006-0.016,0.01-0.021
		c0.005-0.014,0.01-0.029,0.016-0.041c0.001-0.002,0.002-0.004,0.003-0.008c0.014-0.031,0.028-0.064,0.042-0.1
		c0.168-0.385,0.344-0.732,0.526-1.053c-0.536,1.162-1.271,3.174-0.057,3.395c0.867,0,1.34-1.129,1.577-1.129
		c0.063,0,0.108,0.076,0.141,0.271c0.068,0.408,0.491,0.682,1.011,0.682c0.676,0,1.514-0.461,1.956-1.697
		c0.705-1.971,0.454-4.705-0.978-4.705c-0.077,0-0.157,0.008-0.24,0.025c0.019-0.008,0.038-0.016,0.057-0.023l0.137-0.055
		c0.005,0,0.197-0.074,0.465-0.074h0.001c0.015,0,0.03,0,0.045,0.002c0.447,0.012,1.078,0.238,1.419,1.295
		c0.001,0.006,0.003,0.008,0.004,0.014c0.008,0.021,0.015,0.047,0.022,0.072c0.001,0.004,0.003,0.01,0.004,0.016
		c0.103,0.352,0.156,0.76,0.156,1.197c0,1.664-0.761,3.754-2.479,4.764c0.036-0.029,0.07-0.059,0.101-0.09
		c-0.785,0.283-1.432,0.393-1.963,0.393c-1.793,0-2.268-1.244-2.268-1.244C7.376,70.236,8.29,70.652,9.257,70.732"/>
	<path fill="#FAD0E2" d="M8.552,66.279c0.332-1.135,1.631-2.773,2.849-2.773c0.146,0,0.291,0.023,0.433,0.072
		C11.833,63.578,10.247,63.74,8.552,66.279"/>
	<path fill="#824C53" d="M10.732,70.59c0.233-0.086,0.454-0.191,0.659-0.313C11.224,70.406,10.996,70.512,10.732,70.59
		 M9.601,70.744c-0.114,0-0.229-0.006-0.344-0.012c0.084,0.002,0.168,0.006,0.255,0.006h0.003h0.001c0.286,0,0.587-0.023,0.893-0.07
		C10.155,70.717,9.88,70.744,9.601,70.744"/>
	<path fill="#C54C56" d="M9.512,70.738c-0.087,0-0.171-0.004-0.255-0.006C9.341,70.734,9.425,70.738,9.512,70.738 M9.516,70.738
		L9.516,70.738L9.516,70.738L9.516,70.738"/>
	<path fill="#7A4750" d="M9.517,70.738c0.286,0,0.587-0.023,0.892-0.07C10.104,70.715,9.803,70.738,9.517,70.738"/>
	<path fill="#C54552" d="M9.516,70.738H9.512c-0.087,0-0.171-0.004-0.255-0.006c-0.968-0.08-1.882-0.496-1.995-1.396
		c0,0,0.474,1.244,2.269,1.244c0.531,0,1.178-0.109,1.962-0.393c-0.031,0.031-0.065,0.061-0.102,0.09
		c-0.206,0.121-0.426,0.227-0.659,0.313c-0.103,0.031-0.211,0.057-0.323,0.078C10.104,70.715,9.803,70.738,9.516,70.738
		L9.516,70.738"/>
	<path fill="#E9ECF4" d="M39.933,31.439c-0.831-0.832-1.754-1.389-2.726-1.732c-1.017-0.381-2.068-0.527-3.088-0.527
		c-3.55,0-6.717,1.789-6.717,1.789c2.601-1.719,4.88-2.355,6.775-2.355C37.045,28.613,39.036,30.07,39.933,31.439"/>
	<path fill="#E3E6F0" d="M39.991,31.529c-0.146-0.148-0.296-0.289-0.447-0.424c0.02,0.008,0.04,0.02,0.061,0.025l-0.071-0.064
		c-0.04-0.023-0.081-0.049-0.121-0.072c-0.698-0.586-1.442-1.002-2.206-1.287c0.971,0.344,1.895,0.9,2.725,1.732
		C39.953,31.469,39.972,31.5,39.991,31.529"/>
	<path fill="#DBE0EC" d="M39.604,31.131c-0.021-0.006-0.041-0.018-0.061-0.025c-0.043-0.037-0.087-0.076-0.131-0.111
		c0.041,0.023,0.082,0.049,0.123,0.072L39.604,31.131"/>
	<path fill="#A88FAE" d="M75.824,7.885c-0.01,0-0.02-0.002-0.03-0.002c0,0,0,0,0-0.002L75.824,7.885"/>
	<path fill="#A88FAE" d="M62.19,4.326c-0.002,0-0.003,0-0.006,0c-0.06-0.02-0.12-0.037-0.179-0.059L62.19,4.326"/>
	<path fill="#F38AB6" d="M66.06,29.066c0.025-0.316,0.035-0.619,0.035-0.91c-0.004-4.51-2.887-5.941-7.243-6.639
		c-0.649-0.717-1.479-1.701-2.346-2.814v0.004c-2.385-3.061-5.053-7.09-5.051-9.219c0-0.297,0.051-0.555,0.164-0.77
		c0.987-1.896,3.309-4.951,7.395-4.951c0.908,0,1.906,0.152,2.992,0.5c0.061,0.021,0.119,0.039,0.179,0.059
		c-0.271-0.025-0.54-0.035-0.806-0.035c-3.301,0-6.103,1.846-4.646,4.988c2.965,6.4,6.713,8.742,9.367,9.209
		c2.654,0.469,0.938,3.748,2.968,4.529c0.173,0.066,0.341,0.098,0.504,0.098c1.729,0,2.761-3.578,2.617-5.721
		c0.521,0.248,1.052,0.361,1.558,0.361c2.375,0,4.195-2.471,1.879-5.043c4.229-1.127,3.365-3.273,0.169-4.83
		c0.011,0,0.021,0.002,0.03,0.002c2.438,0.154,4.611,0.945,5.027,3.096c-0.554,1.42-1.463,2.496-2.26,2.631
		c-0.377,0.063-0.51,0.1-0.51,0.166c0.001,0.16,0.783,0.488,0.785,1.75c0,0.164-0.013,0.346-0.042,0.541
		c-0.3,2-2.649,6.393-4.861,6.393c-0.378,0-0.751-0.131-1.11-0.42c0.053,0.15,0.08,0.307,0.078,0.465
		C72.927,24.078,70.314,26.09,66.06,29.066"/>
	<path fill="#686F8B" d="M44.872,58.104c-0.073-0.656-0.156-1.281-0.242-1.869C44.715,56.822,44.8,57.447,44.872,58.104
		 M44.875,58.121c0,0,0,0,0-0.002C44.875,58.121,44.875,58.121,44.875,58.121"/>
	<path fill="#8E93AC" d="M39.599,76.082l0.091-0.1c4.151-4.48,5.385-8.373,4.541-15.508c-0.772-6.541-2.036-10.305-1.571-11.959
		c0.251,0.033,0.511,0.053,0.772,0.053c0.424,0,0.853-0.049,1.259-0.16c0.353,0.209,0.736,0.385,1.148,0.385
		c0.111,0,0.224-0.012,0.338-0.039c2.825-0.781,2.528-5.412,2.799-5.412c0.02,0,0.042,0.023,0.068,0.074
		c0.398,0.758,0.037,1.693,0.037,1.693c7.846-2.338,8.744-8.039,7.56-12.652c-0.899-3.508,6.363-1.975,6.912-5.047
		s-1.865-4.5-8.448-6.145c1.327-0.348,1.619-1.352,1.403-2.559c0.867,1.109,1.695,2.094,2.346,2.811
		c4.356,0.697,7.239,2.129,7.243,6.639c0,0.291-0.01,0.594-0.035,0.91c-1.873,7.027-8.666,15.811-17.798,18.855
		c-0.501,1.145-1.616,1.676-2.647,1.676c-0.654,0-1.276-0.215-1.687-0.623c0,0-0.01,0.094-0.01,0.334
		c0,0.689,0.082,2.582,0.713,6.926c0.084,0.588,0.168,1.213,0.241,1.869c0.001,0.006,0.002,0.012,0.002,0.016
		c0,0.002,0,0.002,0,0.002C45.474,63.514,45.362,70.953,39.599,76.082"/>
	<path fill="#CB76A6" d="M58.853,21.518c-0.65-0.717-1.479-1.701-2.346-2.811v-0.004C57.374,19.816,58.204,20.801,58.853,21.518"/>
	<path fill="#EDE6CD" d="M44.045,43.119c0,0-1.756,2.693-3.513,3.748c-1.288,0.818,2.225,2.342,4.567,1.406
		c2.343-0.939,2.46-1.875,1.756-3.396C46.154,43.355,44.278,42.771,44.045,43.119"/>
	<path fill="#E9ECF4" d="M27.462,29.289c0.146-0.15,0.297-0.277,0.455-0.381c0.322-0.182,0.872-0.408,1.581-0.408
		c0.185,0,0.38,0.016,0.584,0.051c0.364,0.088,0.681,0.24,0.907,0.416c-0.504-0.184-0.983-0.254-1.415-0.254
		C28.325,28.713,27.462,29.289,27.462,29.289"/>
	<path fill="#DDE1EC" d="M27.916,28.908c0.473-0.318,0.989-0.441,1.474-0.441c0.242,0,0.476,0.031,0.692,0.084
		c-0.204-0.035-0.399-0.051-0.584-0.051C28.788,28.5,28.238,28.727,27.916,28.908"/>
	<path fill="#E9ECF4" d="M43.173,27.645c0.032-0.301,0.126-0.584,0.269-0.848c0.466-0.627,1.388-1.561,2.883-1.832
		c0.168-0.023,0.336-0.033,0.503-0.033c0.333,0,0.655,0.045,0.954,0.146c-0.122-0.008-0.241-0.014-0.358-0.014
		C44.685,25.064,43.173,27.645,43.173,27.645"/>
	<path fill="#DDE1EC" d="M43.442,26.797c0.526-0.975,1.711-1.672,2.882-1.832C44.83,25.236,43.907,26.17,43.442,26.797"/>
	<polyline fill="#B2B1AE" points="40.532,46.867 40.538,46.863 40.532,46.867 	"/>
	<path fill="#9F9FA1" d="M46.855,44.877c-0.095-0.207-0.212-0.396-0.344-0.568C46.643,44.48,46.76,44.67,46.855,44.877
		 M40.552,46.855C40.552,46.855,40.552,46.855,40.552,46.855S40.552,46.855,40.552,46.855 M40.539,46.863L40.539,46.863
		c0.002-0.002,0.004-0.002,0.005-0.002C40.542,46.861,40.541,46.861,40.539,46.863"/>
	<path fill="#B2B1AE" d="M43.586,43.773c0.096-0.131,0.179-0.246,0.248-0.346l0,0C43.766,43.527,43.682,43.643,43.586,43.773"/>
	<path fill="#DFD5AB" d="M43.431,48.568c-1.619,0-3.176-0.699-3.175-1.303c0-0.143,0.086-0.277,0.276-0.396
		c0.001-0.002,0.004-0.004,0.006-0.006c0.002-0.002,0.004-0.002,0.005-0.002c0.004-0.004,0.006-0.004,0.009-0.006c0,0,0,0,0.001,0
		c1.203-0.73,2.401-2.219,3.033-3.082c0.096-0.131,0.179-0.246,0.247-0.346c-0.013,0.107-0.022,0.215-0.015,0.336
		c0.075,1.346-0.897,2.84-2.317,3.064c-1.037,0.164,0.473,1.045,2.121,1.045c0.611,0,1.241-0.123,1.768-0.445
		c1.546-0.953,1.293-2.521,0.523-3.725c0.215,0.17,0.421,0.373,0.6,0.605c0.131,0.172,0.249,0.361,0.344,0.568
		c0.235,0.508,0.378,0.951,0.377,1.352c-0.001,0.797-0.574,1.42-2.134,2.045C44.579,48.48,44.001,48.568,43.431,48.568"/>
	<path fill="#FFFFFF" d="M44.342,43.537c0,0-0.04,2.762-2.64,3.551C44.998,46.902,45.09,43.838,44.342,43.537"/>
	<path fill="#E9ECF4" d="M36.551,37.383c-2.568-2.248-7.384-2.344-8.197-2.344c-0.077,0-0.118,0-0.118,0
		c0.535-0.266,1.289-0.393,2.128-0.393C32.829,34.646,36.026,35.721,36.551,37.383"/>
	<path fill="#E9ECF4" d="M31.443,45.439c-1.651-0.803-3.36-1.02-4.721-1.02c-1.573,0-2.677,0.289-2.677,0.289
		c0.964-0.523,2.16-0.816,3.352-0.816C28.912,43.893,30.42,44.365,31.443,45.439"/>
	<path fill="#E9ECF4" d="M33.612,53.877c-1.015-0.41-1.974-0.555-2.874-0.588c-0.418-0.027-0.832-0.035-1.22-0.035
		c-1.304,0-2.329,0.119-2.329,0.119c1.119-0.434,2.073-0.631,2.942-0.631C31.392,52.742,32.474,53.158,33.612,53.877"/>
	<path fill="#E3E6F0" d="M33.715,53.943c-0.799-0.4-1.903-0.582-2.977-0.654c0.899,0.033,1.858,0.178,2.874,0.588
		C33.646,53.898,33.681,53.92,33.715,53.943"/>
	<path fill="#DADBE8" d="M31.341,87.512c0,0,2.973,0.777,3.119,0.193c0,0,2.384,0.793,4.198-0.672
		c1.64,0.879,4.215-0.469,2.986-2.459c-1.229-1.99-4.568-2.928-4.215,0.41c-1.816-2.342-4.158-2.457-3.866,0.584
		C31.691,83.287,29.409,82.891,31.341,87.512"/>
	<path fill="#DADBE8" d="M72.138,82.701c0,0,0.311-3.094,1.271-3.023s1.713,3.004,1.713,3.004s0.633-2.344,2.182-2.51
		c1.149-0.096,1.76,2.018,1.76,2.018s0.094-1.525,0.961-1.617c0.869-0.096,2.02,1.523,2.16,3.799
		C80.05,84.748,74.949,84.928,72.138,82.701"/>
	<path fill="#E9ECF4" d="M105.198,30.887C102.947,9.068,90.332,8.639,89.334,8.639h-0.062c0.407-0.035,0.809-0.051,1.205-0.051
		C100.738,8.588,106.55,20.063,105.198,30.887"/>
	<path fill="#E9ECF4" d="M57.447,70.211c-0.221,0-0.301-0.361-0.091-1.133c0.936-3.436,1.093-9.838,1.093-9.838
		C60.628,65.898,58.207,70.211,57.447,70.211"/>
	<path fill="#E9ECF4" d="M53.774,80.813c-0.21,0-0.223-0.279,0.117-0.863c0.982-1.684,2.524-5.75,2.524-5.75
		c0.147-0.324,0.264-0.469,0.345-0.469c0.306,0,0.12,2.041-0.766,4.254C55.261,79.818,54.17,80.813,53.774,80.813"/>
	<path fill="#BBBECF" d="M90.536,60.635v-0.006V60.635 M87.043,63.809L87.043,63.809c0.131-0.248,0.382-0.488,0.809-0.848
		c1.276-1.08,2.683-2.391,2.683-2.391v0.035V60.57c0,0-1.406,1.311-2.683,2.391C87.425,63.32,87.174,63.561,87.043,63.809
		 M48.862,83.779c1.226-2.252,2.353-4.455,3.31-6.588c0,0.004-0.002,0.008-0.003,0.01C51.213,79.332,50.086,81.533,48.862,83.779"/>
	<path fill="#848AA5" d="M69.292,92.512c-0.895-1.1-5.165-2.305-9.788-3.387c-0.039-2.518-1.625-4.049-2.53-4.049h-0.004h-0.004
		h-0.001c-0.581,0.008-1.194,0.799-1.565,1.375c0-0.002,0-0.002,0-0.002c-0.053,0.084-0.101,0.162-0.144,0.232
		c-0.123,0.205-0.196,0.35-0.201,0.357l0,0c-0.218-1.439-0.829-3.232-2.095-3.314c-0.034-0.002-0.067-0.004-0.099-0.004
		c-0.088,0-0.171,0.008-0.251,0.023c-0.004,0-0.007,0-0.01,0h-0.001c-0.003,0.002-0.006,0.002-0.008,0.002
		c-0.001,0-0.002,0.002-0.003,0.002c-0.002,0-0.004,0-0.007,0.002c-0.001,0-0.004,0.002-0.005,0.002h-0.001
		c-0.76,0.166-1.181,0.967-1.333,1.324c-0.046,0.107-0.068,0.174-0.068,0.174s0.007-0.129-0.008-0.316
		c-0.026-0.314-0.12-0.795-0.428-1.109c-0.002,0-0.003-0.002-0.004-0.004H50.73c-0.122-0.123-0.276-0.223-0.476-0.275
		c-0.062-0.014-0.125-0.021-0.189-0.021c-0.639,0-1.33,0.764-1.719,1.277c0.146-0.314,0.317-0.654,0.516-1.021
		c1.224-2.246,2.351-4.447,3.307-6.578c-0.056,0.279-0.144,0.588-0.278,0.932c-1.052,2.709-0.976,4.561-0.298,4.561
		c0.066,0,0.139-0.018,0.216-0.053c0.226-0.109,0.479-0.16,0.744-0.16c0.753,0,1.595,0.424,2.149,1.227
		c0.428,0.623,0.834,0.758,1.294,0.758c0.345,0,0.72-0.074,1.158-0.074c1.022,0,2.113,0.953,2.999,2.588
		c0.885,1.637,1.809,1.852,5.165,2.943c0.83,0.271,1.567,0.432,2.218,0.432c1.985,0,3.177-1.486,3.794-5.896
		c0.82-5.855,1.288-14.99,0.234-22.719c-0.176-1.375-0.162-1.898-0.047-1.898c0.268,0,1.084,2.84,1.336,4.477
		c0.157,1.023,1.197,1.58,2.81,1.58c3.177,0,8.577-2.154,13.858-7.123c7.962-7.494,9.744-12.457,10.461-17.645
		c0.121-0.875,0.248-1.262,0.34-1.262c0.382,0,0.158,6.682-3.619,12.348c-2.965,4.447-5.615,8.145-5.777,12.119
		c-0.227-1.133-0.363-2.365-0.39-3.699v-0.006c0-0.01,0-0.018-0.001-0.023V60.57c0,0-1.406,1.311-2.683,2.391
		c-0.427,0.359-0.678,0.6-0.809,0.848l-0.101-0.035c-2.239,2.24-10.161,5.281-14.004,5.523c0.041,1.008,0.06,1.977,0.06,2.895
		c0,4.223-0.371,7.43-0.626,9.135c-0.168,0.707-0.234,1.375-0.234,1.375s0.035,0.482,0.035,1.236
		C72.173,86.23,71.856,91.031,69.292,92.512"/>
	<path fill="#848AA5" d="M47.819,87.799c0.329-0.295,0.982-0.422,1.824-0.434C48.796,87.404,48.214,87.57,47.819,87.799
		 M57.71,88.713c-1.397-0.316-2.792-0.615-4.101-0.9c-0.025-0.004-0.049-0.01-0.073-0.014c-0.007-0.002-0.014-0.004-0.021-0.006
		c-0.031-0.006-0.061-0.012-0.091-0.018c-0.18-0.039-0.355-0.072-0.526-0.105c1.507,0.246,3.094,0.602,4.411,0.938
		c0.033,0.01,0.066,0.018,0.099,0.025c0.022,0.006,0.045,0.014,0.067,0.018c0.031,0.008,0.063,0.018,0.094,0.025
		c0.014,0.004,0.026,0.008,0.041,0.01C57.644,88.697,57.677,88.703,57.71,88.713"/>
	<path fill="#A6AAC2" d="M72.138,82.701L72.138,82.701c0,0,0.066-0.668,0.234-1.375C72.24,82.219,72.138,82.701,72.138,82.701"/>
	<path fill="#F5A2C5" d="M53.609,87.813c-3.272-0.703-4.95-0.5-5.79-0.014c0.375,1.125,1.686,1.832,3.792,2.857
		c6.09,2.65,13.848,3.729,17.482,1.965l0.198-0.109C68.013,90.938,59.852,89.16,53.609,87.813"/>
	<path fill="#DADBE8" d="M48.03,85.25c0,0,1.222-1.963,2.226-1.705c1.003,0.262,0.915,1.705,0.915,1.705s0.523-1.613,1.789-1.525
		c1.266,0.082,1.876,1.875,2.095,3.314c0,0,1.003-1.963,1.92-1.963s2.53,1.57,2.53,4.145c-2.53-0.785-10.239-2.713-11.686-1.422
		C47.419,86.822,47.638,85.949,48.03,85.25"/>
	<path fill="#F38AB6" d="M51.181,88.396c-2.985,0,1.956,2.592,6.411,3.588c2.155,0.48,4.664,0.775,6.383,0.775
		c2.08,0,3.007-0.432,0.761-1.484c-4.104-1.924-12.818-2.84-12.818-2.84C51.631,88.41,51.387,88.396,51.181,88.396 M64.263,93.486
		c-3.822,0-8.605-1.068-12.652-2.83c-2.106-1.025-3.417-1.732-3.792-2.857c0.396-0.229,0.978-0.395,1.824-0.434
		c0.044,0,0.089-0.002,0.134-0.002h0.002c0.117,0,0.237,0.004,0.361,0.008c0.014,0,0.029,0,0.043,0
		c0.153,0.006,0.31,0.014,0.471,0.027c0.009,0,0.018,0,0.026,0c0.687,0.049,1.442,0.145,2.219,0.271
		c0.228,0.043,0.464,0.09,0.71,0.143c1.31,0.285,2.704,0.584,4.101,0.9c0.01,0.004,0.021,0.004,0.03,0.008c0.002,0,0.003,0,0.005,0
		c0.034,0.008,0.068,0.018,0.102,0.027c0.013,0.004,0.026,0.008,0.04,0.012c0.014,0.004,0.029,0.008,0.043,0.01
		c0.006,0.002,0.013,0.004,0.02,0.006c0.001,0,0.001,0,0.001,0.002h0.002c0.022,0.006,0.044,0.012,0.065,0.018
		c0.01,0.002,0.021,0.004,0.031,0.008c0.016,0.004,0.031,0.008,0.046,0.014c0.011,0,0.022,0.004,0.033,0.008
		c0.012,0.004,0.024,0.006,0.036,0.008c0.159,0.045,0.312,0.088,0.457,0.129h0.001c0.035,0.008,0.07,0.02,0.104,0.029h0.001
		c0.064,0.018,0.127,0.035,0.188,0.053c0.001,0.002,0.001,0.002,0.001,0.002c0.009,0.002,0.017,0.006,0.025,0.006
		c0.098,0.031,0.192,0.059,0.281,0.084c0.009,0.002,0.018,0.006,0.027,0.008c0.012,0.002,0.022,0.006,0.034,0.01
		c0.004,0,0.009,0.002,0.013,0.004c0.019,0.006,0.037,0.01,0.055,0.016h0.001c0.015,0.006,0.03,0.01,0.046,0.016
		c0.001,0,0.003,0,0.004,0c0.006,0.002,0.01,0.004,0.015,0.004c0.024,0.008,0.047,0.018,0.071,0.023
		c0.006,0.002,0.01,0.006,0.016,0.006c0-0.033,0-0.064,0-0.096c4.622,1.082,8.893,2.287,9.787,3.387l-0.198,0.109
		C67.874,93.213,66.191,93.486,64.263,93.486"/>
	<path fill="#D8B6D0" d="M49.776,87.363h0.002H49.776 M50.183,87.371c-0.014,0-0.029,0-0.043,0
		C50.153,87.371,50.168,87.371,50.183,87.371 M50.68,87.398c-0.008,0-0.017,0-0.026,0C50.663,87.398,50.671,87.398,50.68,87.398
		 M57.74,88.721c-0.009-0.004-0.02-0.004-0.03-0.008C57.72,88.717,57.731,88.717,57.74,88.721 M57.847,88.748
		c-0.034-0.008-0.068-0.02-0.102-0.027C57.779,88.732,57.813,88.74,57.847,88.748 M57.93,88.77c-0.014-0.002-0.029-0.006-0.043-0.01
		C57.901,88.764,57.916,88.768,57.93,88.77 M57.951,88.777c0-0.002,0-0.002-0.001-0.002C57.951,88.775,57.951,88.775,57.951,88.777
		 M58.019,88.795c-0.021-0.006-0.043-0.012-0.065-0.018C57.975,88.783,57.997,88.789,58.019,88.795 M58.096,88.816
		c-0.015-0.006-0.03-0.01-0.046-0.014C58.065,88.807,58.081,88.811,58.096,88.816 M58.165,88.832
		c-0.012-0.002-0.024-0.004-0.036-0.008C58.141,88.828,58.152,88.83,58.165,88.832 M58.623,88.961h-0.001H58.623 M58.728,88.99
		L58.728,88.99L58.728,88.99 M58.917,89.045c0,0,0,0-0.001-0.002C58.917,89.045,58.917,89.045,58.917,89.045 M58.942,89.051
		c-0.008,0-0.016-0.004-0.025-0.006C58.926,89.047,58.935,89.051,58.942,89.051 M59.25,89.143c-0.009-0.002-0.019-0.006-0.027-0.008
		C59.231,89.137,59.241,89.141,59.25,89.143 M59.297,89.156c-0.004-0.002-0.009-0.004-0.013-0.004
		C59.288,89.152,59.292,89.154,59.297,89.156 M59.353,89.172L59.353,89.172L59.353,89.172 M59.403,89.188c-0.001,0-0.003,0-0.004,0
		C59.4,89.188,59.401,89.188,59.403,89.188 M59.489,89.215c-0.024-0.006-0.047-0.016-0.071-0.023
		C59.442,89.199,59.465,89.209,59.489,89.215"/>
	<path fill="#E9ECF4" d="M98.375,68.613c-0.739,0-4.301-2.855-2.766-6.875c0,0-0.156,3.283,2.342,5.936
		C98.558,68.32,98.613,68.613,98.375,68.613"/>
	<path fill="#E9ECF4" d="M107.475,74.664c-0.856,0-1.881-0.156-2.966-0.592c-3.423-1.367-3.604-2.738-2.648-2.738
		c0.134,0,0.29,0.027,0.463,0.086c0,0,3.903,2.186,6.557,2.186C110.798,73.605,109.703,74.664,107.475,74.664"/>
	<path fill="#E9ECF4" d="M24.276,79.406c-4.018,0-9.041-1.809-11.107-6.27c0,0,3.857,5.666,11.886,5.666
		c1.11,0,2.299-0.109,3.571-0.355C27.584,79.063,26.025,79.406,24.276,79.406"/>
	<path fill="#72788C" d="M38.639,87.049c0.001-0.002,0.002-0.002,0.004-0.004C38.642,87.047,38.64,87.047,38.639,87.049
		 M38.629,87.057c0,0,0.001-0.002,0.002-0.002C38.63,87.055,38.63,87.057,38.629,87.057 M38.704,87.057
		c-0.015-0.008-0.03-0.016-0.045-0.023c-0.004,0.002-0.007,0.006-0.01,0.008c0.003-0.002,0.006-0.006,0.01-0.008
		C38.673,87.041,38.688,87.049,38.704,87.057 M38.62,87.063L38.62,87.063L38.62,87.063 M38.61,87.07L38.61,87.07L38.61,87.07"/>
	<path fill="#BEC2D8" d="M37.395,87.709c0.419-0.229,0.761-0.563,0.935-1.047c0.381,0.326,0.846,0.492,1.321,0.492
		c0.326,0,0.657-0.078,0.969-0.24c0.852-0.441,1.001-1.514,0.529-2.291c-0.416-0.678-1.348-1.354-2.209-1.354
		c-0.165,0-0.327,0.023-0.483,0.078c-1.028,0.359-0.645,1.834-0.785,2.697c-0.883-0.643-1.355-2.076-2.563-2.076
		c-0.084,0-0.17,0.006-0.262,0.021c-1.289,0.205-0.938,1.631-1.012,2.617c-0.776-0.822-1.456-1.732-2.385-2.4
		c-0.12-0.086-0.269-0.182-0.428-0.252c0.066-0.025,0.139-0.035,0.217-0.035c0.588,0,1.497,0.641,2.326,1.648
		c-0.016-0.174-0.025-0.336-0.025-0.49c-0.001-1.248,0.528-1.826,1.27-1.826c0.763,0,1.752,0.613,2.619,1.732
		c-0.017-0.168-0.025-0.324-0.025-0.471c0.002-1.24,0.618-1.738,1.405-1.738c0.968,0,2.192,0.756,2.836,1.799
		c0.225,0.363,0.323,0.705,0.322,1.018c-0.002,1.027-1.076,1.715-2.176,1.715c-0.372,0-0.748-0.078-1.086-0.25
		c-0.015-0.008-0.03-0.016-0.046-0.023c-0.003,0.002-0.006,0.006-0.01,0.008c-0.001,0.002-0.004,0.002-0.005,0.004
		c-0.001,0.002-0.002,0.002-0.004,0.004c-0.002,0.002-0.004,0.004-0.007,0.006c0,0-0.002,0.002-0.002,0.002
		c-0.002,0.002-0.006,0.002-0.008,0.006c0,0-0.001,0-0.001,0c-0.003,0.004-0.007,0.006-0.009,0.008c0,0,0,0,0,0
		C38.22,87.377,37.805,87.578,37.395,87.709"/>
	<path fill="#78809E" d="M50.731,83.82C50.731,83.82,50.731,83.82,50.731,83.82S50.731,83.82,50.731,83.82 M51.164,84.934
		c-0.027-0.316-0.121-0.795-0.428-1.109C51.044,84.139,51.138,84.619,51.164,84.934"/>
	<path fill="#BEC2D8" d="M50.915,85.557c-0.192-0.654-0.565-1.543-1.054-2.008c0.07-0.014,0.14-0.023,0.209-0.023
		c0.062,0,0.125,0.006,0.185,0.02c0.198,0.053,0.354,0.152,0.476,0.275c0.001,0,0.001,0,0.001,0
		c0.002,0.002,0.002,0.004,0.003,0.004c0.309,0.314,0.401,0.793,0.429,1.109c0.009,0.115,0.01,0.207,0.009,0.262
		C51.079,85.311,50.992,85.434,50.915,85.557"/>
	<path fill="#DADCE8" d="M52.898,87.67"/>
	<path fill="#78809E" d="M57.476,88.65c-0.022-0.004-0.045-0.01-0.068-0.018C57.431,88.641,57.453,88.646,57.476,88.65
		 M57.61,88.686c-0.013-0.002-0.026-0.006-0.041-0.01C57.584,88.68,57.597,88.684,57.61,88.686"/>
	<path fill="#78809E" d="M52.609,83.744h0.001H52.609 M52.599,83.744L52.599,83.744L52.599,83.744 M52.587,83.748
		c0.001,0,0.002,0,0.003,0C52.589,83.748,52.588,83.748,52.587,83.748 M52.575,83.752c0.001,0,0.004-0.002,0.005-0.002
		C52.578,83.75,52.576,83.752,52.575,83.752 M51.24,85.076c0.152-0.357,0.573-1.158,1.333-1.324
		C51.815,83.918,51.395,84.715,51.24,85.076 M56.969,85.076h0.004H56.969 M56.964,85.076h0.001H56.964 M55.255,86.682
		c0.043-0.07,0.091-0.148,0.145-0.232c0,0,0,0,0,0.002C55.346,86.533,55.298,86.611,55.255,86.682 M55.055,87.039L55.055,87.039
		L55.055,87.039 M47.819,87.799c0.33-0.295,0.981-0.422,1.824-0.434C48.801,87.377,48.148,87.504,47.819,87.799 M57.31,88.609
		c-1.317-0.338-2.905-0.693-4.411-0.939C54.404,87.916,55.993,88.271,57.31,88.609"/>
	<path fill="#BEC2D8" d="M59.504,89.125c-0.594-0.139-1.194-0.277-1.794-0.412c-0.033-0.01-0.066-0.016-0.099-0.027
		c-0.015-0.002-0.028-0.006-0.041-0.01c-0.032-0.008-0.063-0.018-0.094-0.025c-0.022-0.004-0.045-0.01-0.068-0.018
		c-0.033-0.008-0.065-0.016-0.098-0.023c-1.317-0.338-2.904-0.693-4.411-0.939c-1.173-0.221-2.117-0.313-2.875-0.313
		c-0.132,0-0.26,0.002-0.381,0.008c-0.842,0.012-1.495,0.139-1.824,0.434c-0.1-0.244-0.16-0.48-0.19-0.709
		c0.317-0.066,0.646-0.115,0.984-0.139c0.15-0.008,0.3-0.014,0.45-0.014c0.688,0,1.374,0.096,2.057,0.191
		c0.685,0.096,1.369,0.191,2.053,0.191c0.364,0,0.727-0.027,1.091-0.096l0.086-0.113c-0.024-0.992-0.439-2.066-1.398-2.496
		c-0.185-0.086-0.363-0.123-0.535-0.123c-0.474,0-0.889,0.287-1.211,0.664c0.009-0.023,0.021-0.051,0.033-0.08
		c0.154-0.361,0.575-1.158,1.333-1.324c0.001,0,0.001,0,0.001,0c0.001,0,0.003-0.002,0.005-0.002c0.002,0,0.005,0,0.007-0.002
		c0.002,0,0.002,0,0.003,0c0.002-0.002,0.005-0.002,0.007-0.004H52.6c0.003,0,0.006,0,0.01,0c0.08-0.016,0.164-0.023,0.25-0.023
		c0.034,0,0.065,0.002,0.1,0.004c1.266,0.082,1.877,1.875,2.095,3.314l0,0c0.004-0.008,0.078-0.152,0.201-0.357
		c0.043-0.07,0.091-0.148,0.144-0.23c0.032,0.201,0.08,0.402,0.146,0.6c0.228,0.674,0.975,0.873,1.663,0.873
		c0.189,0,0.373-0.016,0.541-0.041c0.771-0.107,0.906-1.16,0.387-1.785c-0.425-0.516-0.964-0.752-1.65-0.752
		c-0.051,0-0.101,0.002-0.153,0.004c0.207-0.162,0.421-0.27,0.631-0.273h0.002h0.003h0.005
		C57.879,85.076,59.465,86.607,59.504,89.125"/>
	<path fill="#D67CAD" d="M49.643,87.365L49.643,87.365c0.044,0,0.089-0.002,0.135-0.002C49.732,87.363,49.687,87.365,49.643,87.365
		 M50.139,87.371c-0.123-0.004-0.244-0.008-0.361-0.008C49.896,87.363,50.016,87.367,50.139,87.371 M50.655,87.398
		c-0.162-0.014-0.319-0.021-0.473-0.027C50.335,87.377,50.493,87.385,50.655,87.398 M52.898,87.67
		c-0.777-0.127-1.532-0.223-2.218-0.271C51.366,87.447,52.121,87.543,52.898,87.67 M47.819,87.799L47.819,87.799 M57.745,88.721
		c-0.001,0-0.003,0-0.003,0S57.743,88.721,57.745,88.721 M57.887,88.76c-0.013-0.004-0.026-0.008-0.041-0.012
		C57.86,88.752,57.874,88.756,57.887,88.76 M57.949,88.775c-0.006-0.002-0.013-0.004-0.02-0.006
		C57.936,88.771,57.943,88.773,57.949,88.775 M57.954,88.777h-0.002H57.954 M58.051,88.803c-0.012-0.004-0.022-0.006-0.033-0.008
		C58.029,88.797,58.039,88.799,58.051,88.803 M58.128,88.824c-0.011-0.004-0.022-0.008-0.033-0.008
		C58.106,88.816,58.117,88.82,58.128,88.824 M58.622,88.961c-0.146-0.041-0.299-0.084-0.458-0.129
		C58.323,88.877,58.476,88.92,58.622,88.961 M58.728,88.99c-0.035-0.01-0.071-0.02-0.106-0.029
		C58.657,88.971,58.693,88.98,58.728,88.99 M58.917,89.043c-0.062-0.018-0.125-0.035-0.189-0.053
		C58.792,89.008,58.855,89.025,58.917,89.043 M58.917,89.045L58.917,89.045 M59.223,89.135c-0.089-0.025-0.182-0.053-0.281-0.084
		C59.04,89.082,59.133,89.109,59.223,89.135 M59.284,89.152c-0.012-0.004-0.023-0.008-0.034-0.01
		C59.261,89.145,59.272,89.148,59.284,89.152 M59.352,89.172c-0.018-0.004-0.037-0.01-0.056-0.016
		C59.315,89.162,59.334,89.168,59.352,89.172 M59.398,89.188c-0.015-0.006-0.03-0.01-0.045-0.016
		C59.368,89.178,59.383,89.182,59.398,89.188 M59.418,89.191c-0.005,0-0.01-0.002-0.014-0.004
		C59.408,89.189,59.413,89.191,59.418,89.191 M59.504,89.221c-0.005,0-0.01-0.004-0.016-0.006
		C59.494,89.217,59.499,89.221,59.504,89.221"/>
	<path fill="#BFA2C3" d="M52.898,87.67c-0.777-0.127-1.532-0.223-2.218-0.271c-0.009,0-0.017,0-0.025,0
		c-0.162-0.014-0.319-0.021-0.473-0.027c-0.014,0-0.028,0-0.043,0c-0.123-0.004-0.244-0.008-0.361-0.008h0
		c-0.046,0-0.091,0.002-0.135,0.002c0.121-0.006,0.248-0.008,0.381-0.008C50.782,87.357,51.725,87.449,52.898,87.67 M59.504,89.221
		c-0.005,0-0.01-0.004-0.016-0.006c-0.023-0.006-0.047-0.016-0.071-0.023c-0.005,0-0.01-0.002-0.014-0.004c-0.001,0-0.004,0-0.006,0
		c-0.015-0.006-0.03-0.01-0.045-0.016h-0.001c-0.018-0.004-0.037-0.01-0.056-0.016c-0.003-0.002-0.008-0.004-0.012-0.004
		c-0.012-0.004-0.023-0.008-0.034-0.01c-0.008-0.002-0.018-0.006-0.027-0.008c-0.089-0.025-0.183-0.053-0.281-0.084
		c-0.008,0-0.016-0.004-0.024-0.006c0,0,0,0,0-0.002c-0.062-0.018-0.125-0.035-0.189-0.053c-0.035-0.01-0.071-0.02-0.106-0.029
		c-0.146-0.041-0.299-0.084-0.458-0.129c-0.011-0.002-0.023-0.004-0.035-0.008c-0.011-0.004-0.022-0.008-0.033-0.008
		c-0.015-0.006-0.03-0.01-0.044-0.014c-0.012-0.004-0.021-0.006-0.033-0.008c-0.021-0.006-0.042-0.012-0.064-0.018h-0.002
		c0-0.002-0.002-0.002-0.002-0.002c-0.006-0.002-0.014-0.004-0.02-0.006c-0.015-0.002-0.028-0.006-0.043-0.01
		c-0.013-0.004-0.026-0.008-0.041-0.012c-0.034-0.008-0.067-0.016-0.102-0.027c-0.001,0-0.003,0-0.003,0
		c-0.011-0.004-0.021-0.004-0.032-0.008c0.6,0.135,1.2,0.273,1.794,0.412C59.504,89.156,59.504,89.188,59.504,89.221"/>
	<path fill="#72788C" d="M77.386,80.168h-0.007H77.386 M77.304,80.172c0.025-0.004,0.049-0.004,0.075-0.004
		C77.355,80.168,77.33,80.168,77.304,80.172 M80.109,80.568h-0.01H80.109 M80.039,80.568c0.02,0,0.04,0,0.061,0
		C80.079,80.568,80.058,80.568,80.039,80.568 M80.025,80.572c0.004,0,0.006,0,0.006,0S80.029,80.572,80.025,80.572 M82.181,84.326
		c-0.001-0.02-0.002-0.039-0.004-0.059C82.179,84.287,82.18,84.307,82.181,84.326"/>
	<path fill="#BEC2D8" d="M79.257,84.598h-0.025c0.297-0.049,0.594-0.105,0.889-0.184c0.51-0.131,0.922-0.381,1.084-0.904
		c0.137-0.436-0.262-0.961-0.504-1.279c-0.145-0.189-0.379-0.422-0.629-0.422c-0.076,0-0.152,0.021-0.227,0.068
		c-0.458,0.285-0.476,0.834-0.742,1.248c-0.568-0.801-1.074-1.795-2.166-1.854c-0.022-0.002-0.045-0.002-0.067-0.002
		c-1.047,0-1.267,1.285-1.728,2.023c-0.699-0.73-1.08-1.729-1.859-2.402c-0.244-0.211-0.471-0.299-0.677-0.299h-0.017
		c0.189-0.512,0.445-0.914,0.789-0.914c0.011,0,0.02,0,0.031,0c0.961,0.07,1.713,3.004,1.713,3.004s0.633-2.344,2.183-2.51
		c0.024-0.004,0.05-0.004,0.074-0.004h0.007c1.096,0.008,1.678,2.021,1.678,2.021s0.094-1.525,0.961-1.617c0.004,0,0.006,0,0.006,0
		c0.004,0,0.005,0,0.008-0.004c0.02,0,0.04,0,0.061,0h0.01c0.843,0.01,1.905,1.549,2.068,3.699c0.002,0.02,0.003,0.039,0.004,0.059
		c0.002,0.018,0.002,0.029,0.003,0.045C81.474,84.496,80.432,84.598,79.257,84.598"/>
	<path fill="#DADCE8" d="M117.923,74.213L117.923,74.213c0.024-0.072,0.05-0.141,0.074-0.203
		C117.973,74.074,117.948,74.141,117.923,74.213"/>
	<path fill="#9499B4" d="M117.35,73.061h-0.003H117.35 M118.279,73.146L118.279,73.146 M115.748,73.613
		c0.337-0.443,1.016-0.551,1.586-0.553C116.763,73.063,116.084,73.17,115.748,73.613 M115.735,73.635
		c0.001-0.006,0.003-0.01,0.007-0.014C115.738,73.625,115.736,73.629,115.735,73.635 M114.367,75.299h-0.002H114.367 M113.157,75.68
		c0.364-0.287,0.796-0.381,1.204-0.381C113.953,75.299,113.521,75.393,113.157,75.68 M109.918,77.904
		c0.122-0.162,0.339-0.227,0.602-0.229C110.257,77.678,110.041,77.742,109.918,77.904 M113.118,78.557
		c-0.157-0.084-1.671-0.881-2.597-0.881C111.447,77.676,112.96,78.473,113.118,78.557"/>
	<path fill="#BEC2D8" d="M113.557,79.047c-1.021-0.164-1.972-0.627-3.015-0.695c-0.048-0.004-0.094-0.004-0.14-0.004
		c-0.222,0-0.414,0.035-0.577,0.104c-0.051-0.18-0.031-0.363,0.093-0.547c0.122-0.162,0.339-0.227,0.602-0.229h0.001
		c0.926,0,2.439,0.797,2.597,0.881c0.008,0.006,0.013,0.006,0.013,0.006s-0.463-0.893-0.465-1.74c0-0.426,0.116-0.838,0.465-1.123
		c0.009-0.008,0.018-0.014,0.026-0.02c0.364-0.287,0.796-0.381,1.204-0.381h0.004h0.002c0.76,0,1.435,0.322,1.435,0.322
		s-0.335-0.518-0.335-1.131c0-0.275,0.066-0.57,0.258-0.844c0.003-0.006,0.007-0.008,0.011-0.012
		c0.001-0.006,0.003-0.01,0.007-0.014c0.002-0.002,0.003-0.004,0.006-0.008c0.337-0.443,1.016-0.551,1.586-0.553h0.014h0.003
		c0.511,0,0.929,0.086,0.929,0.086c-0.002,0.004-0.096,0.34-0.281,0.863c-0.024,0.063-0.05,0.131-0.074,0.203
		c-0.135-0.377-0.391-0.666-0.797-0.666c-0.104,0-0.218,0.018-0.345,0.059c-1.04,0.35-0.581,1.596-0.634,2.422
		c-0.465-0.246-1.043-0.441-1.594-0.441c-0.371,0-0.729,0.088-1.031,0.309C112.458,76.668,113.755,78.055,113.557,79.047"/>
	<path fill="#F2F4F9" d="M48.617,86.682c-0.167,0-0.584-0.592-0.319-1.225c0.305-0.727,0.977-1.479,1.115-1.479
		c0.031,0,0.035,0.039,0,0.125c0,0-1.115,1.354-0.784,2.23C48.713,86.578,48.688,86.682,48.617,86.682"/>
	<path fill="#F2F4F9" d="M112.453,80.049c-0.143,0-0.295-0.027-0.448-0.096c-0.802-0.361-1.622-1.176-1.421-1.176
		c0.021,0,0.053,0.008,0.095,0.027c0,0,1.03,0.891,1.88,0.891c0.113,0,0.225-0.016,0.33-0.051c0.103-0.031,0.181-0.049,0.236-0.049
		c0.158,0,0.135,0.115-0.002,0.227C112.987,79.938,112.74,80.049,112.453,80.049"/>
	<path fill="#F2F4F9" d="M114.918,78.574c-0.265,0-0.614-0.102-0.866-0.414c-0.527-0.658-0.883-1.695-0.75-1.695
		c0.02,0,0.049,0.023,0.09,0.072c0,0,0.66,1.623,1.59,1.748C115.492,78.369,115.292,78.574,114.918,78.574"/>
	<path fill="#F2F4F9" d="M117.04,75.541c-0.138,0-0.319-0.051-0.45-0.211c-0.273-0.342-0.459-0.883-0.391-0.883
		c0.01,0,0.025,0.012,0.047,0.037c0,0,0.344,0.846,0.828,0.91C117.336,75.438,117.234,75.541,117.04,75.541"/>
	<path fill="#F2F4F9" d="M51.726,86.932c-0.131,0-0.604-0.574-0.472-1.074c0.146-0.551,0.588-1.066,0.715-1.066
		c0.033,0,0.045,0.033,0.026,0.105c0,0-0.742,0.961-0.323,1.746C51.775,86.848,51.775,86.932,51.726,86.932"/>
	<path fill="#F2F4F9" d="M56.292,87.582c-0.131,0-0.603-0.576-0.472-1.074c0.146-0.551,0.587-1.068,0.715-1.068
		c0.033,0,0.044,0.033,0.027,0.107c0,0-0.742,0.961-0.323,1.742C56.342,87.496,56.342,87.582,56.292,87.582"/>
	<path fill="#F2F4F9" d="M31.884,87.148c-0.238,0-1.381-1.09-0.793-2.682c0,0,0.343,1.801,0.772,2.488
		C31.945,87.086,31.941,87.148,31.884,87.148"/>
	<path fill="#F2F4F9" d="M35.101,87.363c-0.237,0-1.382-1.09-0.793-2.684c0,0,0.343,1.803,0.772,2.49
		C35.163,87.301,35.158,87.363,35.101,87.363"/>
	<path fill="#F2F4F9" d="M39.089,86.59c-0.237,0-1.382-1.09-0.793-2.682c0,0,0.342,1.801,0.772,2.488
		C39.151,86.527,39.146,86.59,39.089,86.59"/>
	<path fill="#F2F4F9" d="M72.654,82.969c-0.154,0-0.568-1.125,0.281-2.002c0,0-0.266,1.168-0.232,1.834
		C72.708,82.916,72.687,82.969,72.654,82.969"/>
	<path fill="#F2F4F9" d="M76.02,83.803c-0.155,0-0.568-1.125,0.282-2.002c0,0-0.267,1.166-0.233,1.832
		C76.076,83.752,76.053,83.803,76.02,83.803"/>
	<path fill="#F2F4F9" d="M79.751,84.102c-0.154,0-0.566-1.125,0.281-2.002c0,0-0.266,1.166-0.232,1.834
		C79.806,84.051,79.785,84.102,79.751,84.102"/>
</g>
</svg>
