<?xml version="1.0" encoding="utf-8"?>
<!-- Generator: Adobe Illustrator 16.0.0, SVG Export Plug-In . SVG Version: 6.00 Build 0)  -->
<!DOCTYPE svg PUBLIC "-//W3C//DTD SVG 1.0//EN" "http://www.w3.org/TR/2001/REC-SVG-20010904/DTD/svg10.dtd">
<svg version="1.0" id="Layer_1" xmlns="http://www.w3.org/2000/svg" xmlns:xlink="http://www.w3.org/1999/xlink" x="0px" y="0px"
	 width="92.37px" height="93.003px" viewBox="0 0 92.37 93.003" enable-background="new 0 0 92.37 93.003" xml:space="preserve">
<g>
	<path fill="#BBBECF" d="M73.603,63.214c0,0,5.982-2.393,4.148-10.932c-1.116-4.307-2.075-7.576,1.516-10.371l0.239,0.561
		c0,0-3.11,1.752-1.755,6.701c1.355,4.945,2.873,11.17-3.829,15.318L73.603,63.214"/>
	<path fill="#E9ECF4" d="M78.558,42.767L78.558,42.767 M77.828,51.247c-1.367-2.779-1.706-6.824,0.73-8.48
		C78.538,42.782,75.74,44.739,77.828,51.247"/>
	<path fill="#A0A3B7" d="M74.2,62.903L74.2,62.903c0.188-0.113,0.413-0.26,0.655-0.445l0.001,0.002
		C74.613,62.644,74.388,62.79,74.2,62.903"/>
	<path fill="#81859F" d="M74.437,64.159c-0.064-0.418-0.145-0.834-0.237-1.256c0.188-0.113,0.413-0.26,0.656-0.443
		c0.058,0.217,0.118,0.432,0.18,0.617c4.177-2.771,4.06-8.316,2.849-12.102c-1.793-5.934,0.361-7.713,1.059-8.262
		c-0.049-0.088-0.109-0.232-0.172-0.383c0.071-0.066,0.145-0.131,0.221-0.195c0.032,0.158,0.072,0.32,0.119,0.488
		c0.016,0.033,0.033,0.064,0.051,0.098c-0.596,0.488-1.75,1.742-1.752,4.084c-0.001,0.693,0.098,1.479,0.342,2.367
		c0.572,2.086,1.172,4.4,1.172,6.689C78.923,58.856,77.898,61.81,74.437,64.159"/>
	<path fill="#6E717F" d="M89.036,34.118c0,0,0.771,2.064-1.985,2.227s-5.307,0.162-6.117,2.229c0-1.014,0.527-1.662,0.527-1.662
		s-3.564,1.379-2.35,5.713c0.932,1.904,4.902,3.24,7.129,0.973c-0.365,0.162-1.297-0.164-1.297-0.164S91.872,40.964,89.036,34.118"
		/>
	<path fill="#ABAAB2" d="M87.134,36.341c0.565-0.045,0.975-0.17,1.272-0.34c-0.001,0-0.001,0-0.003,0.002
		C88.109,36.173,87.699,36.298,87.134,36.341 M87.123,36.341c0.004,0,0.008,0,0.012,0C87.13,36.341,87.126,36.341,87.123,36.341
		 M87.109,36.343c0.003,0,0.008-0.002,0.011-0.002C87.117,36.341,87.113,36.343,87.109,36.343 M87.095,36.343
		c0.003,0,0.006,0,0.01,0C87.101,36.343,87.098,36.343,87.095,36.343 M87.08,36.343h0.01H87.08 M87.066,36.345
		c0.002-0.002,0.004-0.002,0.006-0.002C87.07,36.343,87.068,36.343,87.066,36.345 M84.947,43.433L84.947,43.433 M84.945,43.433
		L84.945,43.433 M84.945,43.433L84.945,43.433L84.945,43.433 M84.945,43.433L84.945,43.433 M84.943,43.433L84.943,43.433"/>
	<path fill="#575B68" d="M83.265,44.786c-1.744,0-3.475-0.916-4.104-2.064c-0.018-0.033-0.035-0.064-0.051-0.098
		c-0.047-0.168-0.087-0.33-0.119-0.488c-0.094-0.443-0.134-0.854-0.134-1.232c0.007-2.988,2.603-3.992,2.603-3.992
		s-0.527,0.648-0.527,1.662c0.811-2.066,3.361-2.066,6.117-2.229c0.005,0,0.01,0,0.016,0c0.002-0.002,0.004-0.002,0.006-0.002
		c0.004,0,0.006,0,0.008,0h0.01c0.001,0,0.004,0,0.006,0c0.003,0,0.006,0,0.01,0h0.004c0.004,0,0.008-0.002,0.011-0.002h0.003
		c0.004,0,0.008,0,0.012,0c0.564-0.043,0.975-0.168,1.27-0.338c-0.342,0.424-0.974,0.768-2.119,0.768c-0.028,0-0.057,0-0.089,0
		c-0.048,0-0.095,0-0.142,0c-2.979,0-4.744,1.355-4.834,2.754c-0.665-0.576-0.665-1.51-0.665-1.51s-2.074,2.504-0.222,4.486
		c0.877,0.938,2.084,1.176,3.018,1.176c0.436,0,0.813-0.053,1.068-0.109c-1.465-0.18-1.51-0.666-1.51-0.666s6.748-0.891,6.748-6.484
		l0.006-0.012c0.629,5.057-4.595,6.982-4.717,7.027h-0.002l0,0h-0.002c0,0,0.6,0.209,1.023,0.209c0.105,0,0.201-0.012,0.273-0.045
		C85.408,44.444,84.333,44.786,83.265,44.786"/>
	<path fill="#D3D9E5" d="M81.726,40.056c0-2.186,1.967-2.928,3.598-2.928c0.575,0,1.107,0.092,1.498,0.244
		c-0.081-0.002-0.16-0.004-0.238-0.004C82.5,37.368,81.726,40.056,81.726,40.056"/>
	<path fill="#BBBECF" d="M74.623,66.118c-0.225-7.85-7.395-17.963-7.395-17.963l-4,35.621c0,0,5.209,0.908,8.754,1.059
		c1.058,2.34,4.076,6.941,6.415,7.846c0.118,0.047,0.233,0.088,0.351,0.123c-0.346-0.885-0.039-2.219,0.555-3.59
		c1.436-3.324,7.246-9.813,11.095-10.494c0.721-0.127,1.283-0.051,1.722,0.158c-0.042-0.078-0.085-0.158-0.137-0.232
		C86.02,67.249,79.529,65.665,74.623,66.118"/>
	<path fill="#D9DBE4" d="M88.194,72.716c-0.103-0.131-0.205-0.256-0.308-0.381c-0.002,0-0.002-0.002-0.002-0.002
		C87.988,72.46,88.091,72.585,88.194,72.716 M91.911,78.507c-0.039-0.07-0.077-0.145-0.114-0.215
		c-0.003-0.002-0.006-0.008-0.007-0.012c-0.003-0.002-0.003-0.004-0.003-0.008c-0.295-0.547-0.588-1.074-0.884-1.574
		C91.24,77.272,91.576,77.874,91.911,78.507 M91.925,78.538c-0.005-0.01-0.008-0.018-0.014-0.023
		C91.917,78.521,91.92,78.528,91.925,78.538 M91.941,78.567c-0.003-0.008-0.006-0.014-0.01-0.02
		C91.935,78.554,91.938,78.56,91.941,78.567 M91.958,78.601c-0.003-0.006-0.006-0.012-0.01-0.02
		C91.953,78.589,91.956,78.595,91.958,78.601 M91.982,78.646L91.982,78.646c-0.006-0.012-0.012-0.021-0.018-0.033
		C91.97,78.624,91.976,78.634,91.982,78.646"/>
	<path fill="#A5A9BE" d="M70.31,53.196c-0.98-1.801-1.9-3.266-2.475-4.143v-0.002C68.41,49.931,69.331,51.396,70.31,53.196
		 M91.796,78.292c-0.003-0.004-0.006-0.008-0.007-0.012C91.791,78.284,91.793,78.29,91.796,78.292 M77.064,89.958
		c-0.568,0-1.271-0.463-2.223-1.666c-2.66-3.361-3.438-6.533-3.57-6.533c-0.014,0-0.021,0.043-0.021,0.131
		c0,0.744-0.702,1.545-1.803,1.545c-0.171,0-0.351-0.02-0.54-0.061c-1.406-0.314-4.059-0.156-2.42-7.809
		c2.89-13.191,2.107-21.857,3.123-21.936c0.018,0,0.035-0.002,0.054-0.002c0.54,0,1.092,0.613,1.489,1.178
		c1.713,3.41,3.363,7.613,3.469,11.313c0.465-0.043,0.94-0.066,1.43-0.066c2.371,0,5.033,0.578,7.782,2.482
		c-1.361-0.66-4.374-1.914-7.636-1.914c-1.328,0-2.697,0.209-4.012,0.75c-1.066,0.406-1.686,0.564-1.965,0.564
		c-0.582,0,0.309-0.688,1.73-1.268c2.107-0.859,1.326-6.479-0.781-9.602c-0.258-0.381-0.47-0.557-0.65-0.557
		c-1.297,0-0.903,9.166-3.096,17.184c-1.379,5.619,0.115,8.297,1.422,8.297c0.691,0,1.331-0.75,1.467-2.207
		c0.087-0.951,0.194-1.346,0.338-1.346c0.486,0,1.379,4.654,3.252,7.436c0.726,1.076,1.59,1.535,2.445,1.535
		c1.996,0,3.933-2.51,3.879-5.518c-0.078-4.293,0.779-5.621,3.357-5.621c2.404,0,5.488-1.564,4.301-3.934
		c0.103,0.125,0.205,0.25,0.308,0.381c0.907,1.139,1.812,2.457,2.709,3.982c0.296,0.5,0.589,1.027,0.884,1.574
		c-0.691-1.289-1.389-2.447-2.09-3.492c-0.371-0.102-0.675-0.146-0.924-0.146c-0.937,0-1.146,0.656-1.597,1.557
		c-0.216-0.105-0.452-0.156-0.693-0.156c-0.991,0-2.085,0.84-2.273,2.031c-0.244-0.244-0.784-0.551-1.349-0.551
		c-0.699,0-1.438,0.469-1.695,2.113c-0.471,2.967,0.467,4.447-1.172,6.713C78.88,87.878,78.269,89.958,77.064,89.958"/>
	<path fill="#CDCFDB" d="M71.155,54.808l-0.001-0.002c-0.281-0.561-0.564-1.098-0.844-1.609
		C70.589,53.708,70.873,54.245,71.155,54.808 M91.912,78.515c0-0.004-0.001-0.004-0.001-0.008
		C91.911,78.511,91.912,78.511,91.912,78.515 M91.931,78.548c-0.002-0.002-0.004-0.006-0.006-0.01
		C91.927,78.542,91.928,78.546,91.931,78.548 M91.949,78.581c-0.003-0.004-0.004-0.008-0.008-0.014
		C91.945,78.573,91.946,78.577,91.949,78.581 M91.964,78.612c-0.002-0.004-0.005-0.008-0.006-0.012
		C91.96,78.604,91.962,78.608,91.964,78.612"/>
	<path fill="#B5B8C9" d="M91.79,78.28c-0.003-0.002-0.003-0.004-0.003-0.008C91.787,78.276,91.787,78.278,91.79,78.28
		 M91.982,78.646c-0.063-0.119-0.125-0.236-0.186-0.354c0.037,0.07,0.075,0.145,0.114,0.215c0,0.004,0.001,0.004,0.001,0.008
		c0.006,0.006,0.009,0.014,0.014,0.023c0.002,0.004,0.004,0.008,0.006,0.01c0.004,0.006,0.007,0.012,0.01,0.02
		c0.004,0.006,0.005,0.01,0.008,0.014c0.004,0.008,0.007,0.014,0.01,0.02c0.001,0.004,0.004,0.008,0.006,0.012
		C91.97,78.624,91.976,78.634,91.982,78.646"/>
	<path fill="#8E93AC" d="M86.051,81.067c-0.004-0.029-0.011-0.057-0.017-0.088c0.025,0.016,0.052,0.027,0.077,0.037
		C86.091,81.034,86.072,81.05,86.051,81.067 M78.748,92.804c-0.117-0.035-0.232-0.076-0.351-0.123
		c-2.339-0.904-5.357-5.506-6.415-7.846c-3.064-0.131-7.373-0.826-8.484-1.012c0.23-0.586,0.551-1.48,0.918-2.637l0,0
		c0.023-0.078,0.049-0.156,0.074-0.236l0,0c0.002-0.004,0.003-0.008,0.005-0.014c0.001-0.002,0.001-0.006,0.003-0.008
		c0,0,0,0,0-0.004c1.859-5.916,4.814-18.133,3.513-30.496c-0.054-0.469-0.112-0.926-0.175-1.375
		c0.574,0.877,1.494,2.342,2.475,4.143c0.279,0.512,0.563,1.049,0.844,1.609c-0.397-0.564-0.949-1.178-1.489-1.178
		c-0.019,0-0.036,0.002-0.054,0.002c-1.016,0.078-0.233,8.744-3.123,21.936c-1.639,7.652,1.014,7.494,2.42,7.809
		c0.189,0.041,0.369,0.061,0.54,0.061c1.101,0,1.803-0.801,1.803-1.545c0-0.088,0.007-0.131,0.021-0.131
		c0.133,0,0.91,3.172,3.57,6.533c0.951,1.203,1.654,1.666,2.223,1.666c1.205,0,1.816-2.08,2.93-3.617
		c1.639-2.266,0.701-3.746,1.172-6.713c0.258-1.645,0.996-2.113,1.695-2.113c0.564,0,1.104,0.307,1.349,0.551
		c0.188-1.191,1.282-2.031,2.273-2.031c0.241,0,0.478,0.051,0.693,0.156c0.45-0.9,0.66-1.557,1.597-1.557
		c0.249,0,0.553,0.045,0.924,0.146c0.701,1.045,1.398,2.203,2.09,3.492c0,0.004,0,0.006,0.003,0.008
		c0.001,0.004,0.004,0.008,0.007,0.012c0.061,0.117,0.123,0.234,0.186,0.354c0.052,0.074,0.095,0.154,0.137,0.232
		c-0.244-0.115-0.525-0.189-0.852-0.213c0.361-0.559-0.008-1.273-0.377-1.924c-0.419-0.742-1.174-1.508-1.953-1.508
		c-0.031,0-0.061,0.002-0.093,0.002c-0.157,0.014-0.318,0.061-0.477,0.145c-0.521,0.283-0.641,0.889-0.642,1.379
		c0,0.279,0.039,0.521,0.063,0.648c-0.492-0.473-1.102-0.863-1.705-0.863c-0.255,0-0.51,0.07-0.754,0.234
		c-0.449,0.303-0.584,0.795-0.584,1.273c0,0.65,0.249,1.279,0.296,1.391c-0.611-0.643-1.324-1.055-1.919-1.055
		c-0.252,0-0.48,0.072-0.674,0.232c-0.543,0.453-0.727,1.18-0.727,1.961c0.002,1.705,0.886,3.682,0.886,3.682
		c0.069-0.029,0.138-0.061,0.204-0.088c-1.611,1.801-2.924,3.684-3.51,5.039c-0.421,0.975-0.698,1.93-0.699,2.721
		C78.603,92.253,78.647,92.548,78.748,92.804"/>
	<path fill="#F5A2C5" d="M90.397,78.72c-3.849,0.682-9.659,7.17-11.095,10.494c-0.594,1.371-0.9,2.705-0.555,3.59
		c2.205,0.688,4.314-0.328,8.329-4.271c4.06-3.986,6.028-7.695,5.042-9.654C91.68,78.669,91.118,78.593,90.397,78.72"/>
	<path fill="#F38AB6" d="M84.865,84.11c-1.561,1.545-2.91,3.357-3.436,4.576c-0.424,0.982-0.645,1.936-0.398,2.568
		c0.299,0.094,0.596,0.143,0.896,0.143c1.301,0,2.732-0.908,5.062-3.195c2.901-2.854,4.31-5.506,3.603-6.906
		c-0.207-0.098-0.455-0.154-0.75-0.154c-0.147,0-0.307,0.014-0.479,0.041c-0.652,0.117-1.384,0.465-2.134,0.963
		C86.4,82.626,85.585,83.321,84.865,84.11 M80,93.003c-0.423,0-0.837-0.07-1.253-0.199c-0.101-0.256-0.145-0.551-0.145-0.869
		c0.001-0.791,0.278-1.746,0.699-2.721c0.586-1.355,1.898-3.238,3.51-5.039c2.182-0.938,3.402-2.086,3.239-3.107
		c0.021-0.018,0.04-0.033,0.061-0.051c0.141,0.063,0.284,0.088,0.429,0.088c0.793,0,1.587-0.793,1.869-1.006
		c0.266-0.197,0.445-0.482,0.445-0.852c0.191,0.133,0.408,0.203,0.672,0.203c0.248,0,0.538-0.063,0.883-0.189
		c0.441-0.164,0.711-0.367,0.857-0.596c0.326,0.023,0.607,0.098,0.852,0.213c0.168,0.338,0.25,0.727,0.25,1.158
		c-0.003,2.084-1.93,5.193-5.292,8.496C83.82,91.729,81.817,93.003,80,93.003"/>
	<path fill="#DADBE8" d="M87.809,77.501c0,0-0.4-1.604,0.559-2.121c0.962-0.518,2.001,0.439,2.522,1.361
		c0.52,0.918,1.041,1.959-0.48,2.52C88.89,79.821,88.449,79.103,87.809,77.501"/>
	<path fill="#8187A3" d="M88.369,75.38c0.157-0.084,0.318-0.131,0.476-0.145C88.687,75.249,88.526,75.296,88.369,75.38"/>
	<path fill="#BEC2D8" d="M89.529,79.444c-0.264,0-0.482-0.068-0.674-0.201c-0.002-0.299-0.12-0.652-0.406-1.063
		c-0.172-0.25-0.399-0.523-0.66-0.773c-0.023-0.127-0.063-0.369-0.063-0.648c0.001-0.49,0.121-1.096,0.643-1.379
		c0.157-0.084,0.318-0.131,0.476-0.145c0.026,0,0.052-0.002,0.077-0.002c-0.226,0.469-0.184,1.088-0.102,1.576
		c0.135,0.814,0.619,1.945,1.316,2.439l0.108,0.064C89.972,79.401,89.736,79.444,89.529,79.444"/>
	<path fill="#DADBE8" d="M85.049,79.462c0,0-0.841-1.924,0.28-2.684c1.119-0.76,2.479,0.48,3.119,1.402
		c0.641,0.922,0.441,1.561-0.039,1.918C87.929,80.46,85.968,82.501,85.049,79.462"/>
	<path fill="#BEC2D8" d="M86.54,81.103c-0.17,0-0.341-0.035-0.505-0.123c-0.016-0.064-0.037-0.133-0.066-0.199
		c-0.245-0.502-0.568-0.959-0.927-1.338c-0.047-0.111-0.296-0.74-0.296-1.391c0-0.479,0.135-0.971,0.584-1.273
		c0.143-0.096,0.29-0.16,0.439-0.199c-0.195,0.453-0.109,1.123,0.068,1.684c0.309,0.973,1.02,1.871,1.934,2.344
		C87.419,80.86,86.98,81.103,86.54,81.103"/>
	<path fill="#DADBE8" d="M82.608,84.263c0,0-1.88-4.201-0.159-5.643c0.92-0.76,2.68,0.441,3.52,2.16
		C86.449,81.901,85.128,83.22,82.608,84.263"/>
	<path fill="#BEC2D8" d="M82.608,84.263c0,0-0.884-1.977-0.886-3.682c0-0.781,0.184-1.508,0.727-1.961l0.172-0.113
		c-0.154,0.523,0.044,1.279,0.25,1.814c0.414,1.072,1.052,2.098,1.979,2.717C84.279,83.468,83.525,83.882,82.608,84.263"/>
	<path fill="#F0F7FC" d="M85.638,81.438c-0.816-1.896-2.319-2.582-2.319-2.582c0.051-0.006,0.101-0.006,0.151-0.006
		C84.667,78.851,85.544,80.31,85.638,81.438"/>
	<path fill="#F0F7FC" d="M88.552,79.437c-0.816-1.895-2.32-2.582-2.32-2.582c0.053-0.004,0.104-0.008,0.154-0.008
		C87.583,76.847,88.457,78.308,88.552,79.437"/>
	<path fill="#F0F7FC" d="M91.111,78.302c-0.539-1.992-1.928-2.887-1.928-2.887C90.463,75.468,91.182,77.124,91.111,78.302"/>
	<path fill="#E9ECF4" d="M86.748,72.677c-4.264-3.957-8.429-4.648-10.82-4.648c-1.289,0-2.063,0.199-2.063,0.199
		c1.153-0.504,2.35-0.717,3.529-0.717C81.967,67.511,86.281,70.724,86.748,72.677"/>
	<path fill="#E9ECF4" d="M72.28,65.171c0.521-3.904-1.115-6.762-1.115-6.762C72.836,60.22,73.15,63.493,72.28,65.171"/>
	<path fill="#FAD0E2" d="M82.274,88.739c0.194-1.324,1.229-3.141,2.591-4.629c0.762-0.754,1.572-1.441,2.364-1.965
		c0.737-0.428,1.485-0.686,2.192-0.686c0.193,0,0.385,0.02,0.57,0.059C84.763,83.177,82.274,88.739,82.274,88.739"/>
	<path fill="#F8C3DA" d="M84.865,84.11c0.721-0.789,1.535-1.484,2.364-1.965C86.437,82.669,85.626,83.356,84.865,84.11"/>
	<path fill="#F5A2C5" d="M8.239,89.511c-0.306,1.559-0.068,2.514,0.42,3.086c2.515,1.238,9.48-2.432,11.458-6.197
		c1.199-2.281,1.749-4.563,1.999-6.619C20.954,73.981,9.552,82.796,8.239,89.511"/>
	<path fill="#F38AB6" d="M19.006,79.649c-2.679,0-6.7,5.035-7.619,6.494c-0.371,0.588-0.87,1.592-1.076,2.572
		c-0.218,1.031-0.111,2.043,0.82,2.523c0.274,0.143,0.578,0.205,0.9,0.205c1.465,0,3.29-1.273,4.298-1.938
		c1.88-1.244,3.332-2.932,4.121-5.063c0.43-1.158,0.877-2.822,0.104-3.939C20.138,79.903,19.605,79.649,19.006,79.649 M9.897,92.841
		c-0.478,0-0.899-0.078-1.238-0.244c-0.339-0.398-0.558-0.98-0.557-1.824c0-0.201,0.013-0.418,0.04-0.65l0,0
		c0.01-0.082,0.02-0.166,0.034-0.252c0.017-0.117,0.038-0.236,0.062-0.359c0.005-0.027,0.011-0.055,0.017-0.082
		c0.002-0.014,0.005-0.027,0.007-0.039c0.015-0.066,0.03-0.133,0.045-0.197c0,0,0,0,0-0.004c0.005-0.018,0.01-0.037,0.015-0.057
		c0.016-0.064,0.032-0.129,0.05-0.191c0.016-0.059,0.032-0.119,0.05-0.178c0,0,0,0,0,0c0.139-0.469,0.322-0.945,0.541-1.422
		c0.027-0.057,0.052-0.115,0.081-0.17c0.244-0.51,0.53-1.02,0.849-1.525c0.038-0.061,0.076-0.121,0.115-0.182
		c0.001,0,0.001,0.002,0.001,0.002c0.529-0.814,1.142-1.613,1.808-2.367c0,0,0,0,0.001,0c0.209-0.238,0.423-0.473,0.641-0.699
		c0.137-0.141,0.274-0.279,0.412-0.418c0.953-0.943,1.969-1.783,2.967-2.453c0.011-0.006,0.022-0.014,0.033-0.021l0.001-0.002
		c0.009-0.004,0.019-0.01,0.027-0.016c0.008-0.006,0.015-0.012,0.023-0.016c0.006-0.006,0.014-0.01,0.02-0.016
		c0.002,0,0.003,0,0.005-0.002c1.373-0.904,2.705-1.48,3.786-1.555c0.078-0.004,0.155-0.008,0.231-0.008h0
		c0.709,0,1.296,0.24,1.69,0.771c0.008,0.129,0.016,0.254,0.024,0.375c0.04,0.625,0.081,1.174,0.131,1.629
		c0.021,0.195,0.048,0.385,0.081,0.568c-0.314,1.654-0.852,3.408-1.773,5.162C18.406,89.657,12.963,92.841,9.897,92.841"/>
	<path fill="#BBBECF" d="M18.296,44.919c0,0-1.436,3.736-3.257,6.898c-1.82,3.16-4.79,9.771-4.502,12.932
		C4.598,64.653-1.821,69.442,0.479,78.542c1.821,7.475,5.651,12.553,8.047,13.99l0.133,0.064c-0.488-0.572-0.727-1.527-0.42-3.086
		c1.313-6.715,12.715-15.529,13.877-9.73c0.171-1.4,0.204-2.699,0.204-3.822C22.32,73.181,18.296,44.919,18.296,44.919"/>
	<path fill="#D9DBE4" d="M7.408,91.685c-2.342-2.107-5.372-6.746-6.93-13.143c-0.004-0.016-0.009-0.031-0.013-0.045
		c0.004,0.014,0.008,0.029,0.013,0.045C2.036,84.938,5.066,89.577,7.408,91.685"/>
	<path fill="#A5A9BE" d="M7.408,91.685c-2.342-2.107-5.372-6.746-6.93-13.143c-0.004-0.016-0.009-0.031-0.013-0.045
		c-0.098-0.398-0.175-0.785-0.242-1.164c0.388,1.617,0.948,3.082,1.74,4.127c0.967,1.275,1.736,1.809,2.351,1.809
		c1.022-0.002,1.616-1.473,1.982-3.447c0.214-1.158,1.232-1.391,2.541-1.391c0.431,0,0.893,0.027,1.368,0.051
		c0.476,0.025,0.964,0.051,1.447,0.051c1.564,0,3.072-0.262,3.898-1.639c2.106-3.514-7.027-8.078-7.027-8.078
		s2.922,0.537,6.183,2.535c1.824,1.115,3.132,2.498,3.866,2.498c0.605,0,0.818-0.941,0.606-3.746
		C18.716,63.981,17.36,55.46,15.51,55.46c-0.026,0-0.053,0-0.079,0.006c-2.77,0.361-4.688,8.686-3.147,9.381
		c1.608,0.641,2.86,1.869,2.518,1.869c-0.081,0-0.252-0.068-0.528-0.229c-1.69-0.963-3.484-1.281-5.126-1.281
		c-0.99,0-1.924,0.113-2.746,0.277c1.273-0.488,2.629-0.736,3.968-0.736c0.056,0,0.112,0,0.167,0.002
		c-0.012-0.143-0.02-0.291-0.02-0.445c-0.003-3.303,2.785-9.469,4.522-12.486c0.954-1.658,1.804-3.473,2.396-4.826
		c-0.592,1.354-1.441,3.168-2.396,4.826c-0.75,1.303-1.694,3.191-2.527,5.182l0.09-0.033c0,0,2.22-4.266,3.243-5.121
		c0.077-0.064,0.15-0.096,0.22-0.096c0.85,0,1.158,4.627,2.342,8.889c1.28,4.607,2.134,10.668,2.048,14.168
		c-0.036,1.084-0.142,1.537-0.432,1.537c-0.417,0-1.214-0.943-2.727-2.305c-2.56-2.307-6.913-4.695-6.913-4.695
		s4.183,2.986,6.659,5.377c2.475,2.391,0.511,2.561-1.109,3.33c-1.343,0.635-1.691,2.086-3.269,2.088
		c-0.33,0-0.713-0.064-1.17-0.211c-0.75-0.242-1.518-0.381-2.203-0.381c-1.738,0-2.936,0.895-1.895,3.283
		c-1.708,0-2.561,1.279-1.793,3.158c-0.09-0.018-0.185-0.023-0.279-0.023c-0.626,0-1.293,0.377-1.359,1.307
		c0.737,1.246,1.5,2.307,2.233,3.162c0.003,0.004,0.007,0.008,0.01,0.012c0.001,0,0.001,0.002,0.001,0.002
		C6.622,90.925,7.024,91.337,7.408,91.685"/>
	<path fill="#8E93AC" d="M6.21,90.446c0,0-0.001-0.002-0.002-0.002C6.209,90.444,6.209,90.446,6.21,90.446 M8.659,92.597
		L8.659,92.597c-0.339-0.398-0.558-0.98-0.557-1.824C8.101,91.616,8.32,92.198,8.659,92.597"/>
	<path fill="#8E93AC" d="M6.198,90.433c-0.733-0.855-1.497-1.916-2.233-3.162c0.065-0.93,0.732-1.307,1.359-1.307
		c0.094,0,0.188,0.006,0.279,0.023c-0.767-1.879,0.086-3.158,1.793-3.158c-1.041-2.389,0.157-3.283,1.895-3.283
		c0.685,0,1.453,0.139,2.203,0.381c0.457,0.148,0.84,0.211,1.17,0.211c1.577-0.002,1.926-1.453,3.269-2.088
		c1.621-0.77,3.584-0.939,1.109-3.33c-2.476-2.391-6.659-5.377-6.659-5.377s4.354,2.391,6.913,4.695
		c1.513,1.361,2.311,2.305,2.727,2.305c0.29,0,0.396-0.453,0.432-1.537c0.085-3.5-0.768-9.561-2.048-14.168
		c-1.184-4.262-1.492-8.889-2.342-8.889c-0.069,0-0.142,0.031-0.219,0.096c-1.024,0.855-3.244,5.121-3.244,5.121l-0.09,0.033
		c0.833-1.99,1.778-3.879,2.527-5.182c0.954-1.658,1.804-3.473,2.396-4.826c-0.542,4.338,0.496,8.879,2.076,15.125
		c1.675,6.461,1.915,12.768,2.145,16.549c-0.396-0.533-0.98-0.771-1.69-0.771h-0.001c-0.076,0-0.153,0.004-0.231,0.008
		c-1.081,0.074-2.413,0.65-3.786,1.555c-0.001,0.002-0.002,0.002-0.004,0.002c-0.007,0.006-0.013,0.01-0.02,0.016
		c-0.008,0.004-0.015,0.01-0.023,0.016c-0.009,0.006-0.018,0.01-0.027,0.016l-0.001,0.002c-1.009,0.672-2.037,1.521-2.999,2.475
		c-1.112-1.266-2.479-2.092-3.586-2.092c-0.584,0-1.096,0.229-1.461,0.75c-0.854,1.311,0.985,3.568,2.184,4.824
		c-0.038,0.061-0.077,0.121-0.116,0.182c0.021-0.035,0.043-0.068,0.065-0.102c-0.744-0.717-2.064-1.846-3.007-1.846
		c-0.263,0-0.497,0.088-0.68,0.299c-0.031,0.035-0.059,0.072-0.083,0.111c0,0.002,0,0.002,0,0.002
		c-0.001,0.002-0.002,0.002-0.002,0.004c-0.764,1.201,1.181,3.525,2.238,4.648c-0.018,0.059-0.034,0.119-0.051,0.178
		c-1.524-1.26-2.434-1.721-2.95-1.721H5.417H5.415c-0.002,0-0.004,0-0.006,0.002H5.405H5.401H5.394H5.392c-0.003,0-0.005,0-0.009,0
		H5.381H5.374H5.372c-0.218,0.016-0.359,0.117-0.443,0.279l0,0c-0.001,0.004-0.002,0.006-0.004,0.008
		c0,0.004-0.002,0.004-0.003,0.006c-0.001,0.002-0.001,0.004-0.002,0.004c0,0,0,0.002-0.001,0.002c0,0.002-0.001,0.002-0.002,0.006
		h0c-0.062,0.133-0.088,0.301-0.09,0.488h0.001c-0.001,0.225,0.033,0.48,0.088,0.742C5.344,89.38,5.776,89.94,6.198,90.433"/>
	<path fill="#8E93AC" d="M8.239,89.511c0.024-0.125,0.053-0.254,0.084-0.379c-0.004,0.02-0.01,0.039-0.015,0.057
		c0,0.004,0,0.004,0,0.004c-0.016,0.064-0.03,0.131-0.045,0.197C8.254,89.429,8.247,89.472,8.239,89.511"/>
	<path fill="#8E93AC" d="M8.965,87.341c0.026-0.057,0.053-0.115,0.081-0.172v0.002C9.018,87.226,8.991,87.284,8.965,87.341"/>
	<path fill="#DADBE8" d="M4.915,88.757c1.285,1.863,2.581,3.158,3.611,3.775l0.133,0.064c-0.488-0.572-0.727-1.527-0.42-3.086
		c0.036-0.188,0.082-0.379,0.134-0.57C4.912,86.083,4.618,87.341,4.915,88.757"/>
	<path fill="#DADBE8" d="M6.271,83.997c-0.98,1.16,1.062,3.607,2.153,4.766c0.314-1.057,0.848-2.152,1.534-3.219
		C9.006,84.628,7.11,83.036,6.271,83.997"/>
	<path fill="#DADBE8" d="M7.826,80.64c-0.854,1.311,0.985,3.568,2.185,4.826c0.798-1.23,1.79-2.422,2.862-3.484
		C11.173,80.048,8.878,79.136,7.826,80.64"/>
	<path fill="#FAD0E2" d="M10.804,88.718c0.188-1.955,3.216-7.002,7.19-8.451C17.994,80.267,13.832,82.597,10.804,88.718"/>
	<path fill="#D67CAD" d="M8.143,90.122L8.143,90.122c0.01-0.082,0.02-0.166,0.033-0.252C8.163,89.956,8.153,90.04,8.143,90.122"/>
	<path fill="#8187A3" d="M5.409,87.222c0.002-0.002,0.004-0.002,0.006-0.002C5.413,87.22,5.411,87.22,5.409,87.222 M5.401,87.222
		h0.004H5.401 M5.391,87.222h0.003H5.391 M5.381,87.222h0.002H5.381 M5.372,87.222h0.001H5.372 M4.928,87.501
		C4.929,87.501,4.929,87.501,4.928,87.501C4.929,87.501,4.929,87.501,4.928,87.501 M4.925,87.509L4.925,87.509 M4.92,87.519
		c0,0,0-0.002,0.001-0.004C4.921,87.517,4.921,87.519,4.92,87.519 M4.917,87.526c0-0.004,0.001-0.004,0.002-0.006
		C4.918,87.522,4.917,87.522,4.917,87.526 M4.826,88.015c0.002-0.188,0.029-0.355,0.09-0.488
		C4.855,87.659,4.828,87.827,4.826,88.015L4.826,88.015 M8.373,88.94c-1.524-1.26-2.435-1.721-2.95-1.721H5.417h0.006
		C5.939,87.22,6.849,87.681,8.373,88.94"/>
	<path fill="#BEC2D8" d="M8.143,90.122c-0.449-0.637-0.954-1.223-1.614-1.664c-0.402-0.268-0.956-0.457-1.467-0.457
		c-0.08,0-0.157,0.004-0.235,0.014c0.002-0.188,0.028-0.355,0.09-0.488l0,0c0.001-0.004,0.002-0.004,0.003-0.006l0-0.002
		c0,0,0.002-0.002,0.002-0.004c0.001-0.002,0.002-0.002,0.002-0.006h0.001c0.001-0.002,0.002-0.004,0.003-0.008l0,0
		c0.084-0.162,0.226-0.264,0.443-0.279h0.001h0.008h0.002c0.003,0,0.006,0,0.008,0h0.002h0.007h0.004H5.41
		c0.002-0.002,0.003-0.002,0.005-0.002h0.003h0.004c0.517,0,1.426,0.461,2.951,1.721c-0.053,0.191-0.098,0.383-0.135,0.57
		c-0.026,0.123-0.046,0.242-0.062,0.359C8.163,89.956,8.152,90.04,8.143,90.122"/>
	<path fill="#D67CAD" d="M9.045,87.171L9.045,87.171c0.243-0.512,0.53-1.02,0.848-1.525C9.575,86.151,9.29,86.661,9.045,87.171"/>
	<path fill="#8187A3" d="M6.188,84.108c0.024-0.039,0.052-0.076,0.083-0.111C6.24,84.032,6.212,84.069,6.188,84.108 M6.185,84.114
		c0-0.002,0-0.002,0.001-0.004C6.186,84.112,6.186,84.112,6.185,84.114 M9.045,87.171v-0.002c0.26-0.543,0.567-1.088,0.913-1.625
		c-0.021,0.033-0.043,0.066-0.064,0.102C9.575,86.151,9.289,86.659,9.045,87.171"/>
	<path fill="#BEC2D8" d="M9.045,87.169c-0.318-0.531-0.712-1.012-1.233-1.396c-0.416-0.305-1.135-0.777-1.796-0.916
		C6,84.581,6.048,84.327,6.185,84.114c0-0.002,0-0.002,0.001-0.004c0.001,0,0.001,0,0.002-0.002
		c0.024-0.039,0.052-0.076,0.083-0.111c0.184-0.211,0.417-0.299,0.681-0.299c0.942,0,2.262,1.129,3.007,1.846
		C9.612,86.081,9.305,86.626,9.045,87.169"/>
	<path fill="#D67CAD" d="M11.818,83.099C11.818,83.099,11.818,83.099,11.818,83.099c0.208-0.24,0.422-0.473,0.642-0.699
		C12.242,82.626,12.028,82.86,11.818,83.099"/>
	<path fill="#BEC2D8" d="M11.817,83.099c-1.216-1.156-2.783-2.354-3.974-2.484c0.363-0.502,0.868-0.725,1.443-0.725
		c1.106,0,2.473,0.826,3.585,2.092c-0.14,0.139-0.276,0.277-0.413,0.418C12.241,82.626,12.026,82.858,11.817,83.099"/>
	<path fill="#F0F7FC" d="M7.585,90.716c-1.613-0.242-2.591-1.668-2.34-2.516C5.245,88.2,5.708,89.437,7.585,90.716"/>
	<path fill="#F0F7FC" d="M8.323,87.274c-1.29-0.195-2.07-1.332-1.87-2.012C6.454,85.263,6.821,86.253,8.323,87.274"/>
	<path fill="#F0F7FC" d="M10.279,84.224c-1.508-0.229-2.424-1.561-2.189-2.355C8.09,81.868,8.522,83.028,10.279,84.224"/>
	<path fill="#E9ECF4" d="M2.613,79.765c-2.04-3.109-3.4-9.227,1.262-11.359C3.875,68.405-0.397,71.804,2.613,79.765"/>
	<path fill="#E9ECF4" d="M12.918,64.7c-0.515-2.883-0.207-6.281,2.162-7.207C15.08,57.493,12.918,59.862,12.918,64.7"/>
	<path fill="#BBBECF" d="M63.365,84.153c1.172-2.809,6.285-18.148,4.646-33.725c-1.288-11.242-5.313-16.133-8.341-17.783
		c-3.027-1.652-32.456,2.123-32.456,2.123s-4.623-0.385-7.896,6.162c-3.274,6.549-2.12,12.039,0.192,21.186
		c2.022,7.801,1.953,15.375,2.3,18.553c0.349,3.176,2.087,4.668,6.604,5.363c4.519,0.695,10.594-0.16,11.141-5.545
		c2.966,0.545,6.402,0.154,6.402,0.154s-1.249-1.523,0.429-2.068c1.678-0.545,4.957,1.68,7.69,3.512
		c1.964,1.318,5.199,3.889,7.558,3.605C62.447,85.392,63.056,84.896,63.365,84.153"/>
	<path fill="#D57BA9" d="M21.89,81.237c-0.033-0.184-0.059-0.373-0.081-0.568c-0.05-0.455-0.091-1.004-0.131-1.629
		c0.04,0.625,0.082,1.174,0.131,1.629C21.831,80.864,21.857,81.054,21.89,81.237"/>
	<path fill="#8186A1" d="M64.498,80.929c0-0.004,0,0,0-0.004C64.498,80.929,64.498,80.929,64.498,80.929 M64.49,80.95
		c0.002-0.004,0.003-0.008,0.005-0.014C64.493,80.942,64.492,80.946,64.49,80.95 M64.416,81.187
		c0.023-0.078,0.049-0.154,0.074-0.236C64.464,81.03,64.439,81.108,64.416,81.187"/>
	<path fill="#D9DBE4" d="M18.064,44.036c0.311-1.02,0.725-2.047,1.253-3.105C18.789,41.989,18.376,43.017,18.064,44.036
		 M18.058,44.06c0-0.002,0-0.004,0.001-0.006C18.059,44.056,18.059,44.058,18.058,44.06"/>
	<path fill="#A5A9BE" d="M27.828,59.278c-0.318-0.146-0.7-0.236-1.158-0.236h-0.002h-0.001c-0.109,0-0.225,0.006-0.343,0.016
		c0.179-0.041,0.364-0.064,0.548-0.064C27.2,58.993,27.53,59.071,27.828,59.278 M61.031,84.745c-0.367,0-0.73-0.09-1.102-0.199
		c-1.326-0.393-2.186-1.016-2.186-3.748c0-1.773-0.773-2.656-1.891-2.656c-0.51,0-1.089,0.182-1.699,0.549
		c0-1.514-1.303-2.725-2.742-2.725c-0.491,0-0.998,0.143-1.475,0.459c0.156-2.264-1.951-1.326-0.859-3.357
		c1.093-2.027,3.088-5.086,4.416-11.174c1.188-5.445,1.256-7.215,1.674-10.377c0.301-2.271,1.639-5.615,1.639-5.615
		s-0.779,0.934-1.248,2.734c-0.213,0.814-0.329,1.18-0.406,1.18c-0.094,0-0.133-0.523-0.219-1.416
		c-0.098-1.023-0.256-1.471-0.361-1.471c-0.063,0-0.107,0.162-0.107,0.457c0.391,2.496,0.313,4.371-0.858,11.006
		s-2.341,9.135-5.62,14.988c-1.623,2.896-3.712,4.264-5.519,4.264s-3.33-1.367-3.819-3.936c0.495-0.162,0.974-0.346,1.439-0.541
		c0.406-0.102,0.922-0.328,1.504-0.688c0.024-0.012,0.047-0.021,0.071-0.035c-0.015,0.006-0.031,0.014-0.046,0.02
		c2.736-1.703,6.855-6.301,7.306-14.307c0.587-10.422-0.351-18.385,1.991-19.205c2.342-0.818,5.269-1.873,7.377-3.514
		c0.701-0.545,1.365-0.805,2.012-0.805c1.292,0,2.516,1.041,3.844,2.916c0.1,0.139,0.21,0.254,0.325,0.352
		c1.554,2.836,2.892,6.881,3.539,12.527c0.182,1.732,0.282,3.463,0.31,5.174l-0.026-0.031c0,0-1.338-14.158-5.554-16.268
		c-0.197-0.1-0.391-0.148-0.58-0.148c-3.836,0-5.902,19.592-9.139,29.188c-2.242,6.053-0.516,8.566,3.229,8.566
		c0.168,0,0.342-0.006,0.519-0.016c0.085-0.004,0.168-0.006,0.247-0.006c3.741,0,1.217,5.289,3.968,5.861
		c0.101,0.021,0.196,0.031,0.294,0.031c2.293,0,4.096-5.607,5.346-10.123c-0.689,3.354-1.475,6.197-2.125,8.268c0,0.004,0,0,0,0.004
		c-0.002,0.002-0.002,0.006-0.003,0.008c-0.002,0.006-0.003,0.01-0.005,0.014l0,0c-0.025,0.082-0.051,0.158-0.074,0.236
		c-0.088,0.123-0.178,0.277-0.27,0.471C62.962,84.136,61.982,84.745,61.031,84.745 M26.438,85.628
		c-2.842-0.758-4.141-2.082-4.548-4.391c-0.033-0.184-0.059-0.373-0.081-0.568c-0.05-0.455-0.092-1.004-0.131-1.629
		c-0.011-0.148-0.02-0.301-0.029-0.459c0.395,2.672,1.763,3.83,2.792,3.83c0.527,0,0.965-0.305,1.142-0.859
		c0.419-1.33,0.947-2.553,2.45-2.553c0.454,0,0.996,0.111,1.653,0.367c0.74,0.285,1.443,0.416,2.065,0.416
		c1.753,0,2.871-1.035,2.401-2.516c-0.639-2.004-4.74-2.279-9.846-5.014c-5.06-2.709-3.737-8.203-2.006-10.848
		c1.11-1.693,2.932-3.498,4.696-3.498c0.989,0,1.961,0.568,2.779,2.041c1.008,1.813,2.141,2.736,2.893,2.736
		c0.95,0,1.295-1.471,0.024-4.469C29.795,50.97,24.506,42.13,21.222,42.13c-0.228,0-0.446,0.043-0.652,0.133
		c-3.19,1.367-3.1,9.297-3.1,9.297l-0.085-0.07c-0.227-2.611-0.064-4.998,0.673-7.43c0-0.002,0.001-0.004,0.001-0.006
		c0.002-0.004,0.004-0.01,0.005-0.018c0.312-1.02,0.725-2.047,1.253-3.105c1.374-2.748,2.985-4.275,4.393-5.121
		c0,0.002,0.001,0.002,0.001,0.002c-1.188,0.713-2.521,1.912-3.735,3.922l0.138,0.039c0,0,2.749-3.172,4.583-3.172
		c0.53,0,0.983,0.266,1.273,0.949c1.288,3.043,3.043,8.313,7.729,15.807c2.236,3.754,3.492,6.313,3.581,8.635
		c-0.125,0.746-0.406,1.344-0.777,1.807c-1.721-6.061-3.866-10.014-7.021-15.125c-1.105-1.791-2.063-4.057-2.141-4.057
		c-0.001,0-0.003,0-0.004,0.004c-0.026,0.137-0.108,0.109,0.625,1.688c0.299,0.639,0.377,0.883,0.312,0.883
		c-0.095,0-0.496-0.523-0.963-1.104c-0.428-0.529-0.72-0.805-0.787-0.805c-0.057,0,0.045,0.193,0.36,0.596
		c4.762,6.408,7.526,12.34,9.254,18.307c-0.713,0.65-1.634,0.936-2.449,0.941h-0.027h0c-0.161,0-0.318-0.01-0.468-0.031
		c-0.006,0-0.013-0.002-0.018-0.004c-0.392-0.055-0.763-0.168-1.11-0.318c-0.567-0.248-1.069-0.604-1.49-1.002
		c0,0-1.04-1.029-1.39-2.434c-0.068-0.484-0.236-0.988-0.55-1.4c-0.007-0.148-0.083-0.385-0.231-0.621
		c-0.24-0.383-0.67-0.766-1.317-0.766c-0.497,0-1.123,0.227-1.889,0.852c-1.626,0.881-3.009,3.27-3.631,5.387
		c0.447-2.221,1.886-3.844,1.886-3.844c-3.684,3.242-2.579,7.662-1.001,8.426c-0.02-0.029-0.04-0.061-0.058-0.088
		c0.069,0.07,0.141,0.145,0.216,0.215c-0.053-0.041-0.105-0.084-0.158-0.127c0,0,0.067,0.061,0.2,0.168
		c1.02,0.982,2.473,1.979,4.227,2.846c2.77,1.498,5.213,2.057,7.399,2.057c1.396,0,2.689-0.229,3.895-0.584
		c0.099,0.684,0.193,1.371,0.281,2.063c0.433,3.391-0.161,4.242-0.904,4.242c-0.343,0-0.719-0.182-1.039-0.379
		c-0.176-0.107-0.357-0.154-0.539-0.154c-0.871,0-1.726,1.084-1.726,1.793c-0.468-0.74-1.405-1.189-2.284-1.189
		c-0.878,0-1.697,0.449-1.932,1.504c-0.474-1.059-1.34-1.641-2.185-1.641c-0.961,0-1.895,0.756-2.186,2.42
		c-0.065,0.73-0.622,1.102-1.333,1.102c-0.605,0-1.322-0.27-1.943-0.807C23.057,84.181,24.318,85.063,26.438,85.628 M26.457,85.634
		c-0.004,0-0.006-0.002-0.009-0.002C26.45,85.634,26.453,85.634,26.457,85.634 M26.475,85.64c-0.002-0.002-0.003-0.002-0.006-0.002
		C26.471,85.638,26.473,85.638,26.475,85.64"/>
	<path fill="#BBBECF" d="M61.632,85.69L61.632,85.69c0.814-0.299,1.424-0.795,1.732-1.537c0.039-0.096,0.084-0.205,0.133-0.33
		c-0.049,0.125-0.094,0.234-0.133,0.33C63.056,84.896,62.447,85.392,61.632,85.69 M28.339,86.021
		c-0.685-0.109-1.304-0.234-1.864-0.381c0.558,0.146,1.175,0.271,1.856,0.381C28.334,86.021,28.336,86.021,28.339,86.021"/>
	<path fill="#757B97" d="M63.498,83.823L63.498,83.823c0.229-0.586,0.549-1.48,0.916-2.637c0.002,0,0.002,0,0.002,0
		C64.048,82.343,63.728,83.237,63.498,83.823"/>
	<path fill="#BBBECF" d="M26.448,85.632c-0.003,0-0.006,0-0.009-0.004C26.441,85.632,26.445,85.632,26.448,85.632 M26.469,85.638
		c-0.004-0.002-0.008-0.004-0.012-0.004C26.46,85.634,26.465,85.636,26.469,85.638"/>
	<path fill="#A5A9BE" d="M61.632,85.69L61.632,85.69c0.814-0.299,1.424-0.795,1.732-1.537c0.039-0.096,0.084-0.205,0.133-0.33
		c-0.049,0.125-0.094,0.234-0.133,0.33C63.056,84.896,62.447,85.392,61.632,85.69"/>
	<path fill="#6C728F" d="M63.498,83.823L63.498,83.823c0.229-0.586,0.549-1.48,0.918-2.637
		C64.046,82.343,63.726,83.237,63.498,83.823"/>
	<path fill="#848AA5" d="M54.075,82.085c-0.015-0.01-0.028-0.02-0.042-0.029c-0.002,0-0.002,0-0.002,0
		c-0.021-0.014-0.041-0.027-0.061-0.041c-0.018-0.012-0.034-0.023-0.053-0.035C53.97,82.015,54.023,82.05,54.075,82.085
		 M36.052,80.688c-0.122,0-0.249,0.027-0.38,0.084c-1.485,0.641-0.696,3.932-0.442,4.85c1.123-0.381,2.124-0.959,2.882-1.783
		c-0.175-0.658-0.485-1.621-0.923-2.309C36.876,81.04,36.497,80.688,36.052,80.688 M32.426,80.854c-0.07,0-0.142,0.006-0.216,0.02
		c-1.873,0.352-1.55,4.283-1.427,5.361c0.107,0.002,0.215,0.002,0.323,0.002c1.244,0,2.5-0.139,3.655-0.467
		c0.063-0.02,0.127-0.037,0.19-0.057C34.734,84.333,34.029,80.854,32.426,80.854 M31.105,86.239c-0.177,0-0.354-0.002-0.529-0.008
		c-0.077-1.895-0.995-5.502-2.934-5.502c-0.05,0-0.1,0.002-0.15,0.008c-1.743,0.164-1.673,3.443-1.578,4.738
		c0.684,0.219,1.466,0.393,2.359,0.533c0.019,0.004,0.038,0.006,0.057,0.01c-0.681-0.107-1.298-0.232-1.857-0.379
		c-0.001-0.002-0.003-0.002-0.005-0.002c-0.004-0.002-0.008-0.004-0.013-0.004c-0.003,0-0.005,0-0.009-0.002
		c-0.003,0-0.006,0-0.009-0.004c-2.121-0.564-3.381-1.447-4.055-2.818c0.621,0.537,1.337,0.807,1.943,0.807
		c0.711,0,1.268-0.371,1.332-1.102c0.292-1.664,1.225-2.42,2.188-2.42c0.844,0,1.71,0.582,2.184,1.641
		c0.235-1.055,1.055-1.504,1.933-1.504c0.878,0,1.814,0.449,2.283,1.189c0-0.709,0.855-1.793,1.726-1.793
		c0.181,0,0.364,0.047,0.539,0.154c0.321,0.197,0.696,0.379,1.039,0.379c0.743,0,1.336-0.852,0.904-4.242
		c-0.088-0.691-0.182-1.379-0.281-2.063c0.161-0.047,0.319-0.098,0.477-0.148c0.489,2.568,2.012,3.936,3.818,3.936
		c1.807,0,3.898-1.367,5.518-4.264c3.281-5.854,4.452-8.354,5.623-14.988c1.17-6.635,1.248-8.51,0.857-11.006
		c0-0.295,0.045-0.457,0.107-0.457c0.105,0,0.264,0.447,0.361,1.471c0.085,0.893,0.124,1.416,0.217,1.416
		c0.079,0,0.195-0.365,0.408-1.18c0.47-1.801,1.248-2.734,1.248-2.734s-1.339,3.344-1.639,5.615
		c-0.418,3.162-0.486,4.932-1.674,10.377c-1.327,6.088-3.322,9.146-4.415,11.174c-1.095,2.031,1.013,1.094,0.858,3.357
		c0.477-0.316,0.984-0.459,1.475-0.459c1.439,0,2.742,1.211,2.742,2.725c0.609-0.367,1.189-0.549,1.699-0.549
		c1.115,0,1.89,0.881,1.89,2.656c0,2.732,0.86,3.355,2.187,3.748c0.371,0.109,0.733,0.199,1.102,0.199
		c0.951,0,1.932-0.609,3.115-3.088c0.092-0.193,0.182-0.348,0.27-0.471c-0.369,1.156-0.689,2.051-0.918,2.637
		c-0.049,0.125-0.094,0.234-0.133,0.33c-0.309,0.742-0.918,1.238-1.732,1.535c-0.121,0.016-0.246,0.023-0.371,0.023l0,0h-0.027
		c-1.437-0.012-3.134-0.926-4.658-1.916c0.027,0.018,0.055,0.035,0.083,0.053c0-0.002,0.002-0.006,0.003-0.008v-0.002
		c0.001-0.002,0.002-0.004,0.003-0.008c0.001,0,0.001,0,0.001,0c0-0.004,0.002-0.006,0.002-0.008s0-0.002,0-0.002
		c0.002-0.004,0.002-0.006,0.004-0.008l0,0c0.002-0.006,0.003-0.012,0.005-0.018l0,0c0.003-0.006,0.005-0.014,0.008-0.02l0,0
		c0.003-0.012,0.007-0.023,0.011-0.037l0,0c0.001-0.002,0.003-0.006,0.004-0.008c0,0,0,0,0-0.002
		c0.001-0.002,0.002-0.004,0.002-0.006c0.001-0.002,0.001-0.002,0.001-0.004c0.001-0.002,0.001-0.004,0.002-0.008h0.001
		c0-0.002,0-0.004,0.002-0.006c0-0.002,0-0.006,0.002-0.006c0.504-1.561,1.002-4.639-0.539-4.998
		c-0.096-0.023-0.189-0.033-0.283-0.033c-1.234,0-2.156,1.895-2.564,2.91c0.051,0.035,0.1,0.066,0.148,0.102
		c-0.07-0.049-0.141-0.096-0.213-0.145c-0.035-0.023-0.072-0.047-0.109-0.07c-0.01-0.006-0.02-0.014-0.027-0.02
		c0.527-1.73,0.354-4.566-1.15-4.918c-0.09-0.02-0.178-0.031-0.263-0.031c-1.158,0-1.994,1.795-2.343,2.703
		c-0.065-0.031-0.129-0.061-0.191-0.09c0.084-0.439,0.191-1.127,0.191-1.789c0-0.904-0.201-1.76-0.941-1.842
		c-0.037-0.004-0.074-0.006-0.109-0.006c-1.244,0-2.152,2.391-2.478,3.383c-0.244,0.201-0.328,0.443-0.328,0.686
		c0,0.555,0.447,1.1,0.447,1.1s-0.153-0.188-0.28-0.453c0.012,0.037,0.024,0.074,0.04,0.113c-0.045,0.127-0.088,0.254-0.127,0.373
		c-0.47,0.041-1.352,0.102-2.408,0.102c-1.107,0-2.407-0.066-3.626-0.289C39.111,84.851,35.039,86.239,31.105,86.239"/>
	<path fill="#848AA5" d="M36.139,64.185c-1.729-5.967-4.492-11.898-9.254-18.307c-0.314-0.402-0.417-0.596-0.361-0.596
		c0.068,0,0.359,0.275,0.788,0.805c0.467,0.58,0.868,1.104,0.963,1.104c0.065,0-0.014-0.244-0.311-0.883
		c-0.734-1.578-0.652-1.551-0.625-1.688c0.001-0.004,0.002-0.004,0.005-0.004c0.078,0,1.036,2.266,2.14,4.057
		c3.154,5.111,5.299,9.064,7.02,15.125C36.39,63.938,36.268,64.067,36.139,64.185 M30.161,86.214
		c-0.598-0.035-1.185-0.096-1.748-0.182C28.977,86.118,29.564,86.179,30.161,86.214"/>
	<path fill="#7F85A0" d="M64.471,37.901L64.471,37.901c-1.418-2.586-3.017-4.168-4.438-5.045v-0.002
		C61.455,33.731,63.053,35.315,64.471,37.901"/>
	<path fill="#626A87" d="M37.28,61.991c-0.088-2.322-1.344-4.881-3.581-8.635c-4.684-7.494-6.44-12.764-7.729-15.807
		c-0.288-0.684-0.742-0.949-1.272-0.949c-1.834,0-4.583,3.172-4.583,3.172l-0.139-0.039c1.213-2.01,2.547-3.209,3.736-3.922
		c0.303,0.064,0.58,0.096,0.827,0.096c0.942,0,1.487-0.418,1.586-0.781c0,0,1.021,3.791,3.272,8.959
		c2.253,5.17,3.977,6.229,6.894,12.791c0.013,0.027,0.025,0.057,0.037,0.084c0.001,0.004,0.002,0.004,0.004,0.008
		c0.018,0.041,0.036,0.084,0.055,0.127c0.003,0.006,0.007,0.014,0.01,0.023c0.001,0.004,0.003,0.006,0.005,0.01
		c0.003,0.01,0.007,0.016,0.009,0.027c0.025,0.057,0.048,0.113,0.072,0.17c0.002,0.006,0.006,0.012,0.008,0.018
		C37.293,59.302,37.476,60.827,37.28,61.991 M40.445,72.911c5.051-2.643,7.574-8.676,7.891-15.574
		c0.047-1.037,0.087-1.998,0.12-2.891v0.006c0.293-7.881,0.105-10.604,1.052-15.967c4.216-0.873,7.846-2.963,10.524-5.629
		c1.422,0.877,3.021,2.459,4.438,5.045c-0.115-0.098-0.227-0.213-0.325-0.352c-1.328-1.875-2.551-2.916-3.845-2.916
		c-0.646,0-1.309,0.26-2.011,0.805c-2.108,1.641-5.035,2.695-7.377,3.514c-2.342,0.82-1.405,8.783-1.991,19.205
		c-0.45,8.006-4.569,12.604-7.307,14.307C41.223,72.63,40.833,72.778,40.445,72.911 M40.087,73.167
		c0.517-0.217,1.018-0.449,1.504-0.688C41.01,72.839,40.492,73.065,40.087,73.167"/>
	<path fill="#82ABC5" d="M45.956,80.642c0,0-0.12-0.145-0.233-0.359c-0.049,0.135-0.093,0.268-0.134,0.395
		C45.823,80.657,45.956,80.642,45.956,80.642"/>
	<path fill="#82ABC5" d="M45.956,80.642c0,0-0.153-0.188-0.28-0.453c0.047,0.15,0.114,0.303,0.206,0.459L45.956,80.642"/>
	<path fill="#F5A2C5" d="M54.075,82.085c-2.733-1.832-6.011-4.057-7.689-3.512s-0.429,2.068-0.429,2.068s1.405,2.342,6.088,3.982
		c3.449,1.207,7.318,1.904,9.588,1.066C59.275,85.974,56.039,83.403,54.075,82.085"/>
	<path fill="#DADBE8" d="M32.209,80.874c-1.872,0.352-1.551,4.283-1.425,5.361c1.416,0.025,2.863-0.123,4.167-0.521
		C34.725,84.271,33.966,80.544,32.209,80.874"/>
	<path fill="#DADBE8" d="M27.492,80.737c-1.742,0.164-1.671,3.443-1.577,4.738c0.72,0.229,1.545,0.408,2.499,0.557
		c0.694,0.105,1.424,0.176,2.163,0.199C30.499,84.288,29.534,80.546,27.492,80.737"/>
	<path fill="#DADBE8" d="M35.672,80.772c-1.485,0.641-0.696,3.932-0.442,4.85c1.123-0.381,2.124-0.959,2.882-1.783
		C37.775,82.583,36.959,80.218,35.672,80.772"/>
	<path fill="#DADBE8" d="M51.97,76.528c-1.293-0.303-2.23,1.695-2.607,2.672c1.188,0.57,2.502,1.412,3.758,2.246
		C53.648,79.716,53.474,76.88,51.97,76.528"/>
	<path fill="#DADBE8" d="M48.423,75.479c-1.301-0.145-2.253,2.359-2.588,3.377c0.133-0.109,0.312-0.205,0.55-0.283
		c0.7-0.229,1.683,0.029,2.788,0.539C49.373,78.071,49.705,75.622,48.423,75.479"/>
	<path fill="#DADBE8" d="M56.169,78.702c-1.377-0.322-2.408,1.785-2.846,2.877c0.254,0.172,0.504,0.34,0.751,0.506
		c0.725,0.488,1.622,1.145,2.584,1.764C57.175,82.347,57.761,79.075,56.169,78.702"/>
	<path fill="#496E88" d="M41.591,72.479c0.008-0.006,0.017-0.012,0.025-0.016c0.015-0.006,0.031-0.014,0.046-0.02
		C41.639,72.454,41.615,72.468,41.591,72.479 M38.648,73.708c-0.002-0.012-0.003-0.023-0.006-0.035
		c0.403-0.135,0.793-0.285,1.169-0.455c0.086-0.008,0.177-0.025,0.275-0.051C39.622,73.362,39.143,73.546,38.648,73.708
		 M34.278,74.44c-2.187,0-4.63-0.559-7.4-2.057c1.363,0.674,2.908,1.271,4.576,1.721c0.993,0.154,1.938,0.229,2.839,0.229h0.004
		c1.399,0,2.688-0.18,3.869-0.516c0.002,0.014,0.004,0.025,0.006,0.039C36.966,74.212,35.674,74.44,34.278,74.44"/>
	<path fill="#40627C" d="M38.172,73.856c-0.002-0.014-0.004-0.025-0.006-0.039c0.161-0.045,0.32-0.094,0.476-0.145
		c0.002,0.012,0.005,0.023,0.006,0.035C38.491,73.759,38.332,73.81,38.172,73.856"/>
	<path fill="#39536C" d="M39.813,73.218c0.215-0.096,0.426-0.199,0.633-0.307c0.387-0.133,0.777-0.281,1.17-0.447
		c-0.007,0.004-0.016,0.01-0.024,0.016c-0.486,0.238-0.987,0.471-1.504,0.688C39.988,73.192,39.896,73.21,39.813,73.218"/>
	<path fill="#496E88" d="M22.651,69.538c-0.132-0.107-0.2-0.168-0.2-0.168c0.054,0.043,0.105,0.086,0.159,0.127
		C22.623,69.513,22.636,69.524,22.651,69.538"/>
	<path fill="#E9ECF4" d="M63.127,78.216c-0.062,0-0.022-0.227,0.159-0.695c4.529-14.834,2.5-29.51,2.5-29.51
		C70.064,65.126,63.603,78.216,63.127,78.216"/>
	<path fill="#DAE5F1" d="M20.701,60.433c-0.528,0-4.306-8.004-1.601-13.672c0,0-1.249,3.121,1.405,12.49
		C20.778,60.071,20.813,60.433,20.701,60.433"/>
	<path fill="#CDDDEC" d="M22.451,69.37c-1.577-0.764-2.682-5.184,1.002-8.426c0,0-1.438,1.623-1.886,3.844
		c-0.227,0.773-0.353,1.512-0.353,2.125c0,0.473,0.074,0.873,0.233,1.164c0.231,0.389,0.55,0.793,0.946,1.205
		C22.412,69.31,22.431,69.341,22.451,69.37"/>
	<path fill="#CDDDEC" d="M28.637,59.937c-0.204-0.268-0.469-0.498-0.81-0.658c-0.298-0.207-0.626-0.285-0.957-0.285
		c-0.185,0-0.369,0.023-0.547,0.064H26.32c-0.012,0.002-0.024,0.004-0.036,0.004c-0.369,0.031-0.733,0.15-1.085,0.34
		c0.766-0.625,1.391-0.852,1.889-0.852c0.647,0,1.078,0.383,1.316,0.766C28.554,59.552,28.629,59.788,28.637,59.937"/>
	<path fill="#E9ECF4" d="M24.02,81.245c-0.656,0-2.867-2.002-1.683-8.393c0,0-0.213,5.531,1.595,7.766
		C24.29,81.003,24.249,81.245,24.02,81.245"/>
	<path fill="#F38AB6" d="M59.179,86.056c-2.128,0-4.732-0.592-7.135-1.432c-4.684-1.641-6.088-3.982-6.088-3.982
		s-0.447-0.545-0.447-1.1c0-0.242,0.084-0.484,0.328-0.686h-0.001c0.133-0.109,0.312-0.205,0.549-0.283
		c0.082-0.027,0.169-0.047,0.259-0.061h0.002c0.001-0.002,0.005-0.002,0.007-0.002c0.099-0.014,0.202-0.021,0.309-0.021
		c0.333,0,0.707,0.068,1.107,0.191c0,0-0.001,0-0.001,0.002c0.233,0.07,0.478,0.158,0.729,0.262
		c0.124,0.051,0.249,0.107,0.378,0.168c0-0.002,0-0.002,0-0.002c0.257,0.119,0.521,0.252,0.791,0.395
		c0.006,0.004,0.012,0.006,0.018,0.01c0.002,0.002,0.004,0.004,0.007,0.004c0.032,0.018,0.067,0.035,0.101,0.055
		c-0.521-0.176-1.743-0.549-2.646-0.549c-0.521,0-0.938,0.123-1.058,0.48c-0.386,1.164,3.028,3.414,6.598,4.578
		c0.763,0.248,1.341,0.357,1.751,0.357c1.432,0,0.818-1.326-1.096-2.648c0.146,0.1,0.291,0.197,0.437,0.293
		c0.7,0.471,1.563,1.104,2.492,1.705c1.536,0.998,3.249,1.922,4.692,1.922c0.127,0,0.252-0.008,0.373-0.021
		C60.943,85.944,60.107,86.056,59.179,86.056"/>
	<path fill="#D8B6D0" d="M49.982,79.515c-0.006-0.004-0.012-0.006-0.019-0.01C49.97,79.509,49.976,79.511,49.982,79.515
		 M50.089,79.573L50.089,79.573c-0.033-0.02-0.067-0.037-0.102-0.055C50.022,79.536,50.056,79.554,50.089,79.573"/>
	<path fill="#D8B6D0" d="M46.644,78.513h0.002H46.644 M48.068,78.681c-0.4-0.123-0.773-0.191-1.107-0.191
		c-0.107,0-0.21,0.008-0.309,0.021c0.099-0.014,0.202-0.021,0.31-0.021c0.332,0,0.705,0.068,1.105,0.189V78.681 M45.835,78.856
		L45.835,78.856c0.133-0.109,0.312-0.207,0.549-0.283C46.147,78.651,45.968,78.747,45.835,78.856 M49.173,79.112
		c-0.129-0.061-0.254-0.117-0.379-0.168C48.919,78.995,49.044,79.052,49.173,79.112"/>
	<path fill="#D8B6D0" d="M56.567,83.79c-0.928-0.602-1.79-1.234-2.492-1.705C54.777,82.556,55.639,83.187,56.567,83.79"/>
	<path fill="#FAD0E2" d="M54.115,82.608c-0.051,0-0.186-0.076-0.411-0.246c-3.062-2.348-5.614-3.012-5.614-3.012
		C51.564,79.747,54.431,82.608,54.115,82.608"/>
	<path fill="#BBBECF" d="M53.294,4.78c0,0,2.25-4.166,6.921-4.729s7.937,3.547,15.534,8.553c4.221,2.758,7.746,2.984,7.767,4.785
		c0.022,2.248-1.267,4.832-2.702,4.832c0.789,1.217-2.795,7.166-6.596,7.023c-0.215,1.865-4.158,3.156-5.663,3.584
		c-1.505,0.432-6.239,1.436-6.31,0.217C60.811,24.169,53.294,4.78,53.294,4.78"/>
	<path fill="#D9DBE4" d="M83.516,13.368c-0.026-0.959-1.057-1.469-2.66-2.164C82.459,11.899,83.49,12.409,83.516,13.368
		 M83.516,13.38v-0.012V13.38 M83.516,13.39v-0.008V13.39"/>
	<path fill="#A5A9BE" d="M80.885,18.218c0.976-0.057,1.878-1.301,2.325-2.795c-0.465-0.828-1.375-1.627-3.022-2.232
		c-0.019-0.006-0.036-0.014-0.054-0.02c-0.004-0.002-0.007-0.002-0.012-0.004c-0.016-0.006-0.033-0.012-0.049-0.018
		c-0.005-0.004-0.01-0.006-0.016-0.008c-0.016-0.006-0.03-0.01-0.046-0.016C80.005,13.124,80,13.12,79.994,13.12
		c-0.016-0.006-0.029-0.014-0.045-0.018c-0.006-0.004-0.012-0.004-0.018-0.008c-0.016-0.004-0.031-0.01-0.047-0.018
		c-0.005-0.002-0.01-0.004-0.015-0.006c-0.017-0.006-0.032-0.012-0.048-0.018c-0.004-0.002-0.009-0.004-0.013-0.004
		c-0.017-0.008-0.032-0.014-0.05-0.02c-0.001-0.002-0.002-0.002-0.004-0.002c-0.02-0.006-0.039-0.016-0.057-0.023
		c-0.002,0-0.005-0.002-0.007-0.002c-0.019-0.006-0.038-0.014-0.058-0.021c0,0,0,0-0.002-0.002c-2.43-0.947-4.607-2.164-6.688-3.473
		l0.005,0.008c-2.437-1.531-4.736-3.186-7.139-4.686c-0.165-0.102-0.329-0.205-0.493-0.303c-1.768-1.076-3.249-1.584-4.604-1.584
		c-2.1,0-3.892,1.221-5.965,3.422c-0.438-0.531-0.915-1.043-1.432-1.527C53.301,4.8,53.294,4.78,53.294,4.78s2.25-4.166,6.92-4.729
		c0.29-0.035,0.572-0.051,0.852-0.051c2.605,0,4.861,1.475,7.865,3.703l-0.104,0.033c0,0-4.276-3.209-7.324-3.209
		c-0.338,0-0.662,0.039-0.964,0.129c-1.687,0.514-0.66,1.541,0.808,1.541c1.467,0,4.621,1.467,9.975,5.279
		c3.199,2.277,5.611,3.221,6.475,3.221c0.582,0,0.457-0.428-0.605-1.166C77.089,9.462,77,9.39,76.915,9.319
		c1.487,0.848,2.847,1.41,3.941,1.885c1.604,0.695,2.634,1.205,2.66,2.164v0.012v0.002v0.008v0.053
		C83.518,15.642,82.281,18.136,80.885,18.218 M80.863,18.22c0.007,0,0.016,0,0.021-0.002C80.878,18.22,80.87,18.22,80.863,18.22
		 M80.851,18.22h0.008H80.851 M80.839,18.222c0.002-0.002,0.006-0.002,0.01-0.002C80.845,18.22,80.841,18.22,80.839,18.222
		 M80.828,18.222h0.008H80.828 M80.814,18.222h0.012H80.814"/>
	<path fill="#F5A2C5" d="M80.188,13.19c-5.737-2.107-10.069-5.738-14.87-8.664c-4.768-2.908-7.457-1.658-11.162,2.484
		c2.014,5.24,6.955,18.178,8.09,22.035c0.07,1.219,4.805,0.215,6.31-0.217c1.505-0.428,5.448-1.719,5.663-3.584
		c3.801,0.143,7.385-5.807,6.596-7.023c1.003,0,1.938-1.27,2.396-2.799C82.746,14.595,81.835,13.796,80.188,13.19"/>
	<path fill="#A88FAE" d="M65.811,4.829c-0.165-0.102-0.329-0.201-0.493-0.303C65.482,4.624,65.646,4.728,65.811,4.829
		 M79.632,12.979c-2.426-0.945-4.604-2.16-6.683-3.465l-0.005-0.008C75.025,10.815,77.203,12.032,79.632,12.979 M79.692,13.003
		c-0.019-0.006-0.038-0.014-0.058-0.021C79.654,12.989,79.673,12.997,79.692,13.003 M79.755,13.028
		c-0.02-0.006-0.039-0.016-0.057-0.023C79.716,13.013,79.736,13.022,79.755,13.028 M79.809,13.05
		c-0.017-0.008-0.032-0.014-0.05-0.02C79.777,13.036,79.792,13.042,79.809,13.05 M79.87,13.071
		c-0.017-0.006-0.032-0.012-0.048-0.018C79.837,13.06,79.853,13.065,79.87,13.071 M79.931,13.095
		c-0.016-0.006-0.031-0.01-0.047-0.018C79.9,13.085,79.916,13.091,79.931,13.095 M79.994,13.12
		c-0.016-0.006-0.029-0.014-0.045-0.018C79.964,13.106,79.978,13.114,79.994,13.12 M80.058,13.142
		c-0.016-0.006-0.03-0.01-0.046-0.016C80.028,13.132,80.042,13.136,80.058,13.142 M80.123,13.167
		c-0.016-0.006-0.033-0.012-0.049-0.018C80.089,13.155,80.107,13.161,80.123,13.167 M80.188,13.19
		c-0.019-0.006-0.036-0.014-0.054-0.02C80.152,13.177,80.169,13.185,80.188,13.19"/>
	<path fill="#F38AB6" d="M63.712,29.628c-0.398,0-0.744-0.035-1-0.117c0.416-0.664,0.777-1.344,1.081-2.033
		c0.234-0.533,0.417-1.045,0.551-1.539c0-0.004,0.001-0.004,0.001-0.008c0.002-0.004,0.002-0.008,0.004-0.014
		c0.188-0.703,0.277-1.371,0.277-2.006c0.004-3.16-2.204-5.463-5.518-6.855c-0.145-1.703-0.646-3.965-1.658-6.262
		c0-0.002-0.001-0.004-0.003-0.008c-0.001-0.002-0.002-0.006-0.004-0.008c-0.002-0.006-0.005-0.012-0.007-0.016
		c-0.664-1.504-1.547-3.02-2.688-4.398c2.073-2.201,3.865-3.422,5.967-3.422c1.352,0,2.834,0.508,4.6,1.584
		c0.165,0.102,0.33,0.201,0.494,0.303c0.098,0.063,0.193,0.123,0.289,0.184l-0.055-0.018c-1.068-0.305-2.021-0.502-2.816-0.502
		c-1.869,0-2.869,1.09-2.455,4.412c0.544,4.336,2.637,6.877,4.744,8.672c2.108,1.797,1.361,2.484,0.97,6.154
		c-0.179,1.689,1.122,2.461,2.612,2.461c1.743,0,3.746-1.055,3.941-2.918c0.143,0.074,0.332,0.113,0.555,0.113
		c1.639-0.004,5.123-1.936,5.363-3.939c0.273-2.275-0.728-2.912-0.728-2.912s0.294,0.076,0.681,0.076
		c0.645,0,1.551-0.215,1.776-1.352c0.366-1.822-5.099-2.914-7.647-5.646l-0.091-0.1c2.079,1.305,4.257,2.52,6.683,3.465
		c0,0.002,0.002,0.002,0.002,0.002c0.02,0.008,0.038,0.016,0.058,0.021c0.002,0,0.005,0.002,0.007,0.002
		c0.018,0.008,0.037,0.018,0.056,0.023c0.003,0,0.004,0,0.005,0.002c0.018,0.006,0.033,0.012,0.05,0.02
		c0.004,0,0.009,0.002,0.013,0.004c0.016,0.006,0.031,0.012,0.048,0.018c0.005,0.002,0.01,0.004,0.015,0.006
		c0.016,0.008,0.03,0.012,0.047,0.018c0.006,0.004,0.012,0.004,0.018,0.008c0.015,0.004,0.029,0.012,0.045,0.018
		c0.007,0,0.012,0.004,0.018,0.006c0.017,0.006,0.031,0.01,0.047,0.016c0.006,0.002,0.011,0.006,0.016,0.008
		c0.016,0.006,0.033,0.012,0.049,0.018c0.004,0.002,0.007,0.002,0.012,0.004c0.018,0.006,0.035,0.014,0.054,0.02
		c1.647,0.605,2.558,1.404,3.022,2.232c-0.459,1.529-1.394,2.799-2.396,2.799c0.075,0.113,0.11,0.271,0.11,0.463
		c-0.001,1.799-3.173,6.553-6.56,6.563h-0.011c-0.045,0-0.091,0-0.136-0.002c-0.215,1.865-4.158,3.156-5.664,3.584
		c-0.912,0.262-3.007,0.732-4.534,0.793C63.915,29.626,63.812,29.628,63.712,29.628"/>
	<path fill="#E9ECF4" d="M71.948,6.804c-0.134,0-0.444-0.178-0.925-0.582c-4.76-4.025-8.374-4.85-8.374-4.85
		c-0.79-0.34-0.919-0.576-0.506-0.576c0.638,0,2.575,0.564,5.356,2.18C70.982,4.995,72.371,6.804,71.948,6.804"/>
	<path fill="#BBBECF" d="M33.879,7.054c0,0-1.392-4.525-5.863-5.992c-4.471-1.465-8.475,1.926-16.905,5.352
		C6.431,8.292,2.928,7.821,2.558,9.585c-0.462,2.201,0.298,4.984,1.704,5.264c-1.011,1.043,1.34,7.578,5.094,8.182
		c-0.154,1.869,3.46,3.906,4.852,4.621c1.393,0.719,5.836,2.627,6.146,1.447C22.714,24.599,33.879,7.054,33.879,7.054"/>
	<path fill="#D9DBE4" d="M18.755,2.937L18.755,2.937c0.264-0.125,0.523-0.244,0.776-0.363C19.278,2.692,19.019,2.812,18.755,2.937
		 M8.641,7.245c0.384-0.107,0.78-0.227,1.188-0.361c-0.001,0-0.001,0-0.001,0C9.419,7.019,9.024,7.138,8.641,7.245"/>
	<path fill="#A5A9BE" d="M4.263,14.849c-1.13-0.225-1.842-2.061-1.841-3.916c0-0.457,0.044-0.912,0.136-1.348
		c0.303-1.436,2.682-1.391,6.084-2.34c0.383-0.107,0.778-0.227,1.186-0.361c-0.098,0.055-0.2,0.105-0.31,0.154
		C8.103,7.653,8.08,8.099,9.103,8.099c1.108,0,3.448-0.523,6.57-1.926c5.255-2.361,8.5-3.281,10.19-3.281
		c0.24,0,0.448,0.018,0.626,0.053c0.203,0.043,0.402,0.061,0.588,0.061c1.138,0,1.84-0.697,0.504-1.414
		c-0.563-0.293-1.257-0.41-2.005-0.41c-2.942,0-6.726,1.811-6.726,1.811l-0.094-0.055c0.264-0.125,0.521-0.244,0.776-0.363
		c2.419-1.113,4.39-1.861,6.299-1.861c0.73,0,1.453,0.109,2.187,0.352c2.047,0.67,3.449,1.984,4.367,3.209
		c-0.677,0.566-1.293,1.176-1.855,1.811c-1.363-1.572-2.816-2.395-4.732-2.395c-1.057,0-2.256,0.25-3.657,0.762
		c-2.842,1.041-5.591,2.307-8.464,3.4l0.008-0.006c-2.47,0.943-5.032,1.758-7.826,2.195c-1.733,0.271-2.782,0.875-3.402,1.6
		C2.61,13.229,3.278,14.651,4.263,14.849"/>
	<path fill="#F5A2C5" d="M5.859,10.04c6.041-0.943,11-3.654,16.281-5.59c5.243-1.916,7.635-0.164,10.459,4.623
		c-3.001,4.744-10.378,16.467-12.246,20.025c-0.31,1.18-4.754-0.729-6.146-1.447c-1.392-0.715-5.006-2.752-4.853-4.621
		c-3.754-0.604-6.105-7.139-5.093-8.182c-0.985-0.197-1.653-1.619-1.806-3.209C3.077,10.915,4.125,10.312,5.859,10.04"/>
	<path fill="#A88FAE" d="M5.859,10.04c2.793-0.438,5.355-1.252,7.826-2.195l-0.008,0.006C11.208,8.79,8.649,9.604,5.859,10.04"/>
	<path fill="#F38AB6" d="M19.549,29.476c-1.418-0.025-4.274-1.273-5.34-1.824c-1.362-0.697-4.852-2.664-4.857-4.5
		c-0.001-0.039,0-0.08,0.004-0.121c-3.16-0.508-5.326-5.219-5.33-7.318c0-0.395,0.076-0.697,0.236-0.863
		c-0.985-0.197-1.653-1.619-1.806-3.209c0.62-0.725,1.667-1.328,3.402-1.6c2.79-0.436,5.35-1.25,7.817-2.189l-0.107,0.082
		c-3.034,2.18-8.607,2.182-8.605,4.039c0,1.633,1.672,1.732,2.074,1.732c0.055,0,0.086-0.004,0.086-0.004s-1.106,0.432-1.283,2.719
		c-0.167,2.146,3.313,4.941,4.798,4.941c0.096,0,0.183-0.01,0.259-0.033c-0.198,2.146,2.158,3.709,4.056,3.709
		c1.163,0,2.154-0.584,2.281-1.982c0.334-3.674-0.264-4.492,2.153-5.842c2.418-1.346,4.969-3.43,6.351-7.578
		c1.306-3.926-0.176-4.928-3.012-4.928c-0.435,0-0.9,0.023-1.393,0.063l-0.056,0.006c0.286-0.107,0.574-0.217,0.863-0.324
		c1.401-0.512,2.6-0.762,3.657-0.762c1.917,0,3.369,0.822,4.731,2.395c-3.999,4.51-5.235,10.268-5.26,10.385c0,0,0,0,0,0.002l0,0
		c-3.583,1.791-7.472,3.766-7.475,7.91c0,0.543,0.066,1.125,0.209,1.746l0,0.002c0.002,0.008,0.003,0.016,0.005,0.021
		C18.286,27.354,18.847,28.47,19.549,29.476"/>
	<path fill="#E9ECF4" d="M15.233,5.392c-0.557,0,1.146-1.549,5.069-2.889c2.501-0.852,4.302-1.123,5.214-1.123
		c0.914,0,0.931,0.271-0.143,0.5c0,0-3.706,0.104-9.162,3.119C15.712,5.274,15.387,5.392,15.233,5.392"/>
	<path fill="#BBBECF" d="M25.268,16.47c0,0,3.162-15.105,16.16-15.691C54.426,0.194,58.642,11.55,59.109,17.056
		c4.452,1.873,6.909,5.385,4.685,10.422c-2.224,5.035-7.493,9.602-14.285,11.008c-1.056,5.973-0.702,8.664-1.171,18.852
		c-0.47,10.189-5.75,18.49-16.883,16.768c-4.906-1.324-8.749-3.906-10.008-6.027c-1.06-1.924,1.657-8.75,4.838-9.016
		c2.055-0.199,2.784,1.193,2.916,2.385c0.133,1.195,1.724,3.314,3.976,3.645c2.253,0.332,6.031-1.654,3.115-8.215
		c-2.916-6.563-4.639-7.621-6.892-12.791c-2.253-5.168-3.273-8.959-3.273-8.959s-6.87-3.59-8.119-8.977S21.208,18.499,25.268,16.47"
		/>
	<path fill="#9297B0" d="M33.468,13.321c-0.337,0-0.626,0.648-0.649,1.467c-0.022,0.828,0.237,1.514,0.58,1.533h0.013
		c0.336,0,0.626-0.652,0.649-1.467c0.023-0.828-0.237-1.516-0.579-1.533C33.477,13.321,33.472,13.321,33.468,13.321 M31.826,17.095
		c0,0,0.156-0.531,0.934-0.684c-0.458-1.232-0.073-3.256,0.67-3.256c0.065,0,0.132,0.016,0.201,0.049
		c1.122,0.748,0.249,3.113,0.249,3.113s0.406,0.094,0.685,0.371c-0.132-0.041-0.261-0.074-0.385-0.102
		c-0.192-0.051-0.43-0.082-0.68-0.082c-0.447,0-0.938,0.096-1.294,0.328C31.957,16.968,31.826,17.095,31.826,17.095"/>
	<path fill="#9297B0" d="M49.111,13.968c-0.336,0-0.625,0.648-0.646,1.465c-0.023,0.828,0.235,1.516,0.577,1.533h0.012
		c0.338,0,0.629-0.648,0.651-1.467c0.021-0.828-0.237-1.516-0.579-1.531H49.111 M50.609,17.72c0,0-0.428-0.412-1.211-0.543
		c-0.149-0.029-0.305-0.047-0.463-0.047c-0.117,0-0.238,0.008-0.356,0.031c-0.222,0.021-0.457,0.072-0.709,0.152
		c0.28-0.279,0.685-0.371,0.685-0.371s-0.871-2.367,0.25-3.113c0.068-0.033,0.137-0.047,0.2-0.047c0.743,0,1.128,2.02,0.671,3.252
		C50.454,17.19,50.609,17.72,50.609,17.72"/>
	<path d="M34.061,14.853c-0.022,0.828-0.319,1.486-0.662,1.469c-0.343-0.02-0.602-0.705-0.581-1.533
		c0.023-0.828,0.321-1.486,0.664-1.467C33.824,13.339,34.083,14.026,34.061,14.853"/>
	<path fill="#FFFFFF" d="M33.896,14.362c0.013,0.326-0.101,0.592-0.253,0.596c-0.152,0.002-0.286-0.258-0.297-0.582
		c-0.013-0.322,0.101-0.588,0.251-0.592C33.75,13.78,33.883,14.04,33.896,14.362"/>
	<path d="M49.705,15.499c-0.021,0.826-0.32,1.482-0.661,1.467c-0.343-0.018-0.602-0.705-0.579-1.533
		c0.023-0.828,0.318-1.484,0.661-1.465C49.468,13.983,49.727,14.671,49.705,15.499"/>
	<path fill="#FFFFFF" d="M49.54,15.009c0.013,0.322-0.101,0.59-0.251,0.592c-0.153,0.004-0.287-0.256-0.3-0.578
		c-0.013-0.324,0.101-0.59,0.252-0.594C49.393,14.425,49.527,14.685,49.54,15.009"/>
	<path fill="#9297B0" d="M35.607,10.487c-0.668-0.891-1.315-1.182-1.878-1.182c-1.08,0-1.849,1.072-1.849,1.072
		c0.561-1.381,1.256-1.996,1.913-1.996C34.526,8.382,35.209,9.149,35.607,10.487"/>
	<path fill="#9297B0" d="M47.115,10.056c0.646-1.176,1.339-1.824,2.064-1.824c0.609,0,1.238,0.459,1.881,1.445
		c-0.512-0.449-1.056-0.611-1.57-0.611C48.213,9.065,47.115,10.056,47.115,10.056"/>
	<path fill="#5B6072" d="M31.806,10.013c0,0,1.784-2.486,3.728,0.105C34.778,7.579,32.995,7.091,31.806,10.013"/>
	<path fill="#5B6072" d="M47.041,9.687c0,0,2.162-1.943,3.945-0.381C49.581,7.149,48.23,7.526,47.041,9.687"/>
	<path fill="#5B6481" d="M40.443,72.913c5.051-2.645,7.578-8.678,7.893-15.576c0.049-1.037,0.087-1.998,0.119-2.891
		c-0.032,0.893-0.07,1.854-0.119,2.891c-0.315,6.898-2.84,12.932-7.891,15.574C40.444,72.913,40.444,72.913,40.443,72.913"/>
	<path fill="#9498B1" d="M26.67,59.042h-0.002H26.67 M26.323,59.058L26.323,59.058c0.119-0.01,0.233-0.016,0.343-0.016
		C26.557,59.042,26.441,59.048,26.323,59.058"/>
	<path fill="#456882" d="M38.642,73.673L38.642,73.673c0.403-0.135,0.793-0.285,1.169-0.451l0-0.004
		C39.435,73.388,39.045,73.538,38.642,73.673 M34.297,74.333c1.399,0,2.688-0.18,3.869-0.516
		C36.985,74.153,35.696,74.333,34.297,74.333 M34.293,74.333L34.293,74.333"/>
	<path fill="#3E5D77" d="M38.166,73.817L38.166,73.817c0.161-0.045,0.319-0.094,0.476-0.145
		C38.485,73.724,38.327,73.772,38.166,73.817"/>
	<path fill="#384F68" d="M39.811,73.222c0.215-0.1,0.425-0.199,0.632-0.309c0,0,0.002,0,0.002-0.002
		c-0.207,0.107-0.418,0.211-0.634,0.307L39.811,73.222"/>
	<path fill="#B3C3D7" d="M26.32,59.058h0.001H26.32z"/>
	<path fill="#D57BA9" d="M57.437,10.763L57.437,10.763 M57.449,10.786c-0.002-0.002-0.003-0.006-0.005-0.008
		C57.446,10.78,57.447,10.782,57.449,10.786 M59.109,17.054c-0.145-1.701-0.646-3.963-1.656-6.26
		C58.462,13.091,58.964,15.353,59.109,17.054"/>
	<path fill="#D57BA9" d="M25.268,16.47c0-0.002,0-0.002,0-0.002S25.268,16.468,25.268,16.47 M25.268,16.47L25.268,16.47
		L25.268,16.47"/>
	<path fill="#A5A9BE" d="M21.645,66.761c0.112,1,0.915,1.373,2.254,1.373c0.735,0,1.632-0.111,2.665-0.297
		c-0.129,0.016-0.256,0.029-0.378,0.041c0.202-0.053,0.399-0.123,0.591-0.221c1.119-0.564,1.777-1.939,2.022-3.146
		c0.083-0.412,0.138-0.928,0.138-1.469c0.001-1.676-0.514-3.613-2.269-3.613c-0.092,0-0.188,0.004-0.287,0.014
		c-1.805,0.199-3.609,2.479-4.455,5.359c-0.186,0.633-0.272,1.15-0.271,1.574c0,0.238,0.026,0.445,0.078,0.625
		C21.671,66.89,21.651,66.804,21.645,66.761c-0.001-0.006-0.001-0.016-0.002-0.025C21.643,66.735,21.643,66.745,21.645,66.761
		 M34.293,74.333L34.293,74.333c-0.901,0-1.847-0.074-2.839-0.229c-4.003-1.08-7.3-3.002-9.061-4.822
		c-0.396-0.412-0.715-0.816-0.947-1.205c-0.159-0.291-0.233-0.691-0.233-1.164c0-2.664,2.368-7.627,5.071-7.852
		c0.012,0,0.023-0.002,0.036-0.004h0.002c0.119-0.01,0.233-0.016,0.343-0.016h0.001h0.002c1.703,0.002,2.362,1.207,2.516,2.295
		c-0.005-0.021-0.01-0.041-0.015-0.063c0.134,2.105,0.078,4.143-0.917,5.957c1.497-0.848,1.163-2.762,1.578-2.762
		c0.072,0,0.166,0.057,0.295,0.188c0.655,0.654,2.061,1.506,3.316,1.506c0.426,0,0.836-0.098,1.192-0.336
		c1.404-0.938,1.756-1.053,3.045-1.053c-1.289-0.82-0.469-1.758,0.995-2.695c-1.933-1.639,0.412-3.979,0.412-3.979
		c-2.762-1.006-4.187-6.195-3.181-7.201c-5.443-1.76-3.349-7.953-3.349-7.953c-0.08,0.006-0.157,0.008-0.233,0.008
		c-2.842,0-3.92-4.441,0.4-7.379c-0.3,0.025-0.583,0.037-0.851,0.037c-6.132,0-3.635-6.217-0.908-7.822
		c-0.596,0.066-1.271,0.184-1.868,0.184c-0.913,0-1.648-0.275-1.648-1.439c0-1.926,2.179-3.6,7.62-5.777
		c-3.76,0.426-6.617,2.953-7.25,2.953c-0.114,0-0.156-0.082-0.119-0.273c1.005-5.109,8.809-6.441,8.809-6.441
		c1.177-0.168,2.199-0.258,3.15-0.258c2.691,0,4.82,0.707,8.324,2.309c-2.789-2.027-5.54-2.695-8.265-2.695
		c-2.077,0-4.14,0.391-6.188,0.863c-1.259,0.465-2.418,1.043-3.471,1.662c-4.567,3.26-5.447,9.031-7.408,9.031
		c-0.046,0-0.093-0.002-0.14-0.008c-4.75-1.16-3.939-6.432-3.939-6.432l-0.01-0.004c-0.718,1.25-0.997,2.76-0.56,4.662
		c-0.143-0.621-0.21-1.203-0.209-1.746c0.002-4.145,3.892-6.119,7.475-7.91h0c0-0.002,0-0.002,0-0.002
		c0.023-0.109,1.11-5.164,4.531-9.51l0.086-0.072c0,0-5.043,8.287-2.073,8.285c0.076,0,0.157-0.004,0.243-0.016
		c0.819-0.104,1.434-0.152,1.863-0.152c1.386,0,0.808,0.502-1.169,1.225c-2.587,0.949-5.808,1.959-6.059,4.232
		c-0.124,1.104,0.321,1.656,1.196,1.656c0.923,0,2.325-0.615,4.043-1.848c2.803-2.01,6.678-4.127,11.464-4.127
		c0.924,0,1.882,0.078,2.873,0.252c6.124,1.072,9.303,5.377,8.578,6.021c-2.744-2.861-5.878-5.328-11.163-5.328
		c-0.312,0-0.632,0.008-0.959,0.027c-5.871,0.313-8.941,2.76-10.004,4.994c-0.138,0.291-0.129,0.414,0.012,0.414
		c0.335,0,1.412-0.674,3.031-1.346s3.778-1.344,6.281-1.344c1.05,0,2.162,0.119,3.318,0.404c0.23,0.064,0.461,0.135,0.69,0.213
		c-0.009-0.01-0.018-0.021-0.026-0.031c0.916,0.275,1.859,0.66,2.822,1.176c-1.537-0.316-3.19-0.473-4.83-0.473
		c-5.231,0-10.34,1.607-11.205,4.828c-0.14,0.998,0.414,1.311,1.414,1.311c0.439,0,0.963-0.059,1.552-0.148
		c-0.193,0.113-0.385,0.234-0.577,0.365c0,0,0.574-0.25,1.523-0.52c0.264-0.045,0.536-0.092,0.816-0.139
		c1.318-0.221,2.804-0.443,4.303-0.443c0.911,0,1.828,0.082,2.717,0.293c0.289,0.076,0.578,0.162,0.867,0.26
		c-0.002-0.002-0.004-0.002-0.006-0.006c0.416,0.146,0.822,0.324,1.216,0.543c-1.131-0.283-2.612-0.451-4.177-0.451
		c-4.025,0-8.598,1.119-9.144,4.301c-0.522,3.051,0.97,3.725,3.481,3.725c0.088,0,0.179,0,0.269-0.002
		c-0.234,0.129-0.465,0.273-0.696,0.428c0,0,0.492-0.211,1.311-0.449c0.916-0.043,1.937-0.141,3.021-0.229
		c0.452-0.037,0.867-0.053,1.25-0.053c3.572,0,4.242,1.441,4.242,1.441s-1.95-0.594-4.329-0.594c-2.007,0-4.32,0.424-6.023,1.982
		c-1.787,1.518-0.927,4.287,1.107,4.287c0.337,0,0.707-0.076,1.101-0.248c1.055-0.455,2.2-0.646,3.274-0.646
		c1.756,0,3.32,0.512,3.985,1.215c-0.645-0.123-1.415-0.201-2.214-0.201c-2.873,0-6.13,1.012-5.397,4.553
		c0.629,3.043,1.646,3.76,2.957,3.76c0.639,0,1.349-0.17,2.116-0.324c0.606-0.121,1.176-0.174,1.706-0.174
		c1.514,0,2.695,0.436,3.447,0.953c-0.688-0.127-1.403-0.197-2.103-0.197c-3.104,0-5.898,1.348-4.688,4.729
		c1.483,4.137,6.324,1.48,7.728,3.668c-1.018-0.271-1.951-0.398-2.76-0.398c-1.983,0-3.229,0.764-3.173,2.039
		c0.079,1.795,2.186,1.246,2.811,2.652c-0.468-0.311-0.988-0.441-1.495-0.441c-1.012,0-1.966,0.52-2.331,1.145
		c-0.547,0.938,1.64,0.781,2.498,2.498c-1.057-0.674-2.011-1.234-2.962-1.234c-0.594,0-1.186,0.217-1.8,0.768
		c-0.918,0.818-1.933,1.1-2.852,1.1c-1.271,0-2.362-0.537-2.769-0.945c-0.083-0.082-0.147-0.119-0.201-0.119
		c-0.412,0-0.29,2.104-3.391,2.93c-1.972,0.492,2.746,3.42,7.873,3.42c1.368,0,2.765-0.209,4.073-0.727
		c6.208-2.459,9.017-10.422,8.547-19.908c-1.054-15.572,2.275-19.807,4.969-22.734c2.376-2.584,1.158-7.523,2.447-7.523
		c0.172,0,0.389,0.088,0.664,0.283c1.25,0.871,3.096,1.512,4.604,1.512c1.319,0,2.376-0.49,2.541-1.75
		c0.302-2.324-1.758-3.043-5.388-4.213c-2.832-0.914-3.812-1.9-2.604-1.9c0.342,0,0.855,0.078,1.551,0.26
		c0.207,0.053,0.391,0.076,0.554,0.076c2.794,0-0.405-7.357-1.036-8.75c0.912,1.209,1.639,2.504,2.205,3.787
		c0.002,0.004,0.006,0.01,0.007,0.016c0.002,0.002,0.003,0.006,0.005,0.008c0,0.002,0.002,0.006,0.004,0.008
		c1.01,2.297,1.512,4.559,1.656,6.26c3.313,1.395,5.521,3.697,5.518,6.857c0,0.635-0.09,1.303-0.277,2.006
		c0.367-1.377,0.357-2.623,0.04-3.732L64.38,22.44c0,0-2.033,4.84-6.625,4.84c-0.459,0-0.945-0.049-1.457-0.156
		c-0.154-0.037-0.305-0.053-0.449-0.053c-1.152,0-2.029,1.125-3.299,3.078c-0.684,0.715-1.272,1.654-1.748,2.707
		c-0.152,0.23-0.312,0.469-0.475,0.711c-2.928,4.332-2.46,9.25-1.873,20.842l0.001,0.037c-0.032,0.893-0.07,1.852-0.119,2.891
		c-0.317,6.898-2.842,12.932-7.893,15.576c-0.207,0.109-0.417,0.209-0.632,0.309c-0.376,0.166-0.766,0.316-1.169,0.451
		c-0.156,0.051-0.316,0.1-0.476,0.145c-1.182,0.336-2.47,0.516-3.869,0.516H34.293"/>
	<path fill="#9498B1" d="M36.503,63.798L36.503,63.798c0.372-0.463,0.653-1.061,0.778-1.807l0,0
		C37.155,62.739,36.875,63.335,36.503,63.798 M33.69,65.126c0.815-0.006,1.736-0.291,2.449-0.941
		C35.426,64.835,34.505,65.12,33.69,65.126"/>
	<path fill="#797F9B" d="M36.139,64.185L36.139,64.185c0.129-0.117,0.25-0.246,0.364-0.387
		C36.39,63.938,36.268,64.067,36.139,64.185"/>
	<path fill="#5B6481" d="M37.281,61.991L37.281,61.991c0.195-1.164,0.012-2.689-0.79-4.648c0.61,1.49,0.862,2.73,0.862,3.748
		C37.353,61.413,37.328,61.712,37.281,61.991"/>
	<path fill="#A5A9BE" d="M33.194,65.095c-0.006,0-0.012-0.002-0.019-0.004c-0.392-0.055-0.763-0.168-1.109-0.318
		c0.347,0.15,0.719,0.264,1.109,0.318C33.182,65.093,33.188,65.095,33.194,65.095"/>
	<path fill="#A5A9BE" d="M18.007,26.149c-0.002-0.006-0.003-0.014-0.005-0.021C18.004,26.136,18.005,26.144,18.007,26.149"/>
	<path fill="#A5A9BE" d="M44.847,21.595L44.847,21.595 M64.343,25.938c0.002-0.004,0.002-0.004,0.002-0.008
		C64.345,25.935,64.345,25.935,64.343,25.938"/>
	<path fill="#9EA2B9" d="M33.663,65.126c-0.161,0-0.318-0.01-0.468-0.031C33.345,65.116,33.501,65.126,33.663,65.126 M33.663,65.126
		L33.663,65.126h0.006H33.663"/>
	<path fill="#8E93AC" d="M32.066,64.771c-1.651-0.717-2.756-2.338-2.866-3.324c-0.001-0.014-0.004-0.029-0.006-0.045
		c0-0.004,0-0.01-0.001-0.014c-0.002-0.018-0.005-0.035-0.007-0.051c0.35,1.404,1.39,2.434,1.39,2.434
		C30.997,64.169,31.499,64.524,32.066,64.771"/>
	<path fill="#9EA2B9" d="M29.193,61.388c-0.002-0.018-0.005-0.035-0.007-0.051C29.188,61.353,29.19,61.37,29.193,61.388
		 M32.066,64.771c-1.651-0.717-2.756-2.338-2.866-3.324c-0.001-0.014-0.004-0.029-0.006-0.045c0.002,0.016,0.004,0.031,0.006,0.045
		C29.31,62.433,30.415,64.054,32.066,64.771"/>
	<polyline fill="#CB76A6" points="18.002,26.128 18,26.126 18.002,26.128 	"/>
	<path fill="#8E93AC" d="M28.254,67.231c0.995-1.814,1.052-3.852,0.917-5.957c0.004,0.021,0.01,0.041,0.015,0.063
		c0.002,0.016,0.004,0.033,0.007,0.051c0.001,0.004,0.001,0.01,0.001,0.014c0.002,0.016,0.004,0.031,0.006,0.045
		c0.109,0.986,1.214,2.607,2.866,3.324c0.347,0.152,0.718,0.266,1.11,0.32c0.005,0.002,0.012,0.004,0.018,0.004
		c0.15,0.021,0.307,0.031,0.469,0.031h0.007c1.628-0.002,3.683-1.119,3.683-4.035c0-1.018-0.251-2.258-0.862-3.748
		c-0.002-0.006-0.004-0.012-0.007-0.018c-0.023-0.057-0.047-0.113-0.072-0.17c-0.003-0.012-0.007-0.018-0.011-0.027
		c-0.001-0.004-0.003-0.006-0.004-0.012c-0.003-0.008-0.006-0.016-0.01-0.021c-0.018-0.043-0.036-0.086-0.055-0.127
		c0-0.004-0.001-0.004-0.003-0.008c-0.013-0.027-0.025-0.057-0.038-0.084c-2.917-6.563-4.639-7.621-6.893-12.791
		c-2.252-5.168-3.271-8.959-3.271-8.959c0.003-0.01,0.005-0.021,0.007-0.035c0.272,0.965,0.654,2.012,1.164,3.16
		c-1.25-4.061-1.25-9.371-1.25-9.371c-0.242,0.703-0.395,1.465-0.433,2.307c-0.003-0.104-0.005-0.209-0.005-0.313
		c0-0.123,0.002-0.248,0.008-0.371c0,0-1.354,1.451-3.124,2.123c-1.862-1.57-3.867-3.803-4.488-6.477
		c-0.002-0.006-0.003-0.014-0.005-0.021l0-0.002c-0.436-1.902-0.157-3.412,0.561-4.662l0.01,0.004c0,0-0.811,5.271,3.939,6.432
		c0.047,0.006,0.094,0.008,0.14,0.008c1.961,0,2.84-5.771,7.408-9.031c1.053-0.619,2.212-1.197,3.471-1.662
		c2.049-0.473,4.111-0.863,6.189-0.863c2.724,0,5.476,0.668,8.267,2.695c-3.504-1.602-5.635-2.309-8.326-2.309
		c-0.951,0-1.973,0.09-3.15,0.258c0,0-7.804,1.332-8.808,6.441c-0.039,0.191,0.002,0.273,0.117,0.273
		c0.633,0,3.491-2.527,7.25-2.953c-5.442,2.178-7.62,3.852-7.62,5.777c0,1.164,0.734,1.439,1.648,1.439
		c0.598,0,1.272-0.117,1.868-0.184c-2.726,1.605-5.224,7.822,0.909,7.822c0.268,0,0.551-0.012,0.853-0.037
		c-4.322,2.938-3.244,7.379-0.403,7.379c0.077,0,0.155-0.002,0.233-0.008c0,0-2.093,6.193,3.351,7.953
		c-1.005,1.006,0.418,6.195,3.181,7.201c0,0-2.345,2.34-0.412,3.979c-1.465,0.938-2.284,1.875-0.996,2.695
		c-1.289,0-1.64,0.115-3.045,1.053c-0.356,0.238-0.766,0.336-1.193,0.336c-1.255,0-2.662-0.852-3.315-1.506
		c-0.129-0.131-0.223-0.188-0.294-0.188C29.417,64.47,29.751,66.384,28.254,67.231"/>
	<path fill="#59627F" d="M48.457,54.452l-0.001-0.006c0.292-7.877,0.104-10.598,1.054-15.961
		C48.56,43.849,48.748,46.571,48.457,54.452"/>
	<path fill="#CB76A6" d="M64.346,25.931c0.001-0.004,0.001-0.008,0.003-0.014C64.347,25.923,64.347,25.927,64.346,25.931
		 M62.712,29.511L62.712,29.511c0.415-0.664,0.777-1.344,1.081-2.033c0.234-0.533,0.416-1.045,0.551-1.539
		c-0.133,0.494-0.316,1.006-0.551,1.539C63.49,28.167,63.127,28.847,62.712,29.511"/>
	<path fill="#8E93AC" d="M48.457,54.446l-0.002-0.037c-0.587-11.592-1.057-16.51,1.873-20.842c0.164-0.242,0.322-0.48,0.475-0.711
		c-0.773,1.717-1.238,3.746-1.294,5.629C48.562,43.849,48.748,46.569,48.457,54.446"/>
	<path fill="#8E93AC" d="M49.508,38.485c0.989-4.254,2.284-6.689,3.27-8.033c-0.239,0.443-0.453,1.076-0.695,1.777
		c-0.003,0.008-0.006,0.018-0.009,0.025c-0.013,0.033-0.023,0.068-0.035,0.104c-0.005,0.012-0.008,0.025-0.013,0.037
		c-0.002,0.004-0.003,0.01-0.005,0.012c-0.002,0.004-0.002,0.006-0.004,0.01c0,0.002,0,0.002,0,0.002
		c-0.001,0.004-0.002,0.006-0.002,0.01c-0.007,0.018-0.014,0.037-0.02,0.053c-0.432,1.299-0.691,3.07,1.023,3.07h0.001h0.006
		c0.517,0,1.21-0.16,2.13-0.543c0,0,0.001,0,0.002-0.002c0.014-0.004,0.027-0.012,0.041-0.016h0.002
		c0.016-0.006,0.03-0.016,0.044-0.02c1.683-0.709,2.837-1.641,3.453-2.473c0.811-1.1,0.69-2.027-0.39-2.063
		c-0.021-0.002-0.045-0.002-0.067-0.002c-0.11,0-0.231,0.01-0.36,0.029c-0.408,0.059-0.791,0.082-1.143,0.082h-0.002h-0.004
		c-1.758-0.002-2.774-0.609-2.774-0.609c-0.151-0.096-0.29-0.139-0.415-0.139h-0.002h-0.005c-0.118,0-0.226,0.039-0.328,0.111
		c0.612-0.715,1.022-0.949,1.022-0.949c-0.605,0.242-1.168,0.654-1.68,1.189c1.27-1.953,2.146-3.078,3.299-3.078
		c0.145,0,0.295,0.016,0.451,0.053c0.512,0.107,0.995,0.156,1.455,0.156c4.592,0,6.624-4.84,6.624-4.84l0.009-0.256
		c0.318,1.111,0.328,2.355-0.039,3.732c-0.002,0.006-0.002,0.01-0.003,0.014s-0.002,0.004-0.002,0.008
		c-0.135,0.494-0.316,1.006-0.551,1.539c-0.304,0.689-0.666,1.369-1.081,2.033v0.002C60.097,33.704,55.369,37.272,49.508,38.485"/>
	<path fill="#E9ECF4" d="M29.874,9.054c0.746-2.09,4.203-7.531,10.776-7.531c0.305,0,0.616,0.012,0.935,0.037
		C41.584,1.56,34.245,1.872,29.874,9.054"/>
	<path fill="#F5A2C5" d="M26.38,59.442c-1.805,0.199-3.609,2.479-4.454,5.359c-0.845,2.879,0.383,3.398,2.304,3.277
		c0.853-0.051,1.757-0.023,2.547-0.422c1.117-0.564,1.776-1.939,2.022-3.146C29.155,62.753,28.977,59.155,26.38,59.442"/>
	<path fill="#F171A9" d="M22.951,65.585c-0.122,0-0.255-0.035-0.402-0.055c-0.471-0.063-0.377-1.162,0.345-2.102
		c0.568-0.742,1.469-1.582,1.717-1.582c0.066,0,0.086,0.061,0.04,0.201c0,0-0.689,1.254-1.003,2.51
		C23.432,65.417,23.217,65.585,22.951,65.585"/>
	<path fill="#F171A9" d="M26.195,65.304c-0.275,0-0.479-0.148-0.479-0.559c0-1.004,0.596-2.791,0.596-2.791
		c0.126-0.295,0.255-0.418,0.38-0.418c0.597,0,1.108,2.789,0.719,3.18C27.133,64.993,26.592,65.304,26.195,65.304"/>
	<path fill="#F38AB6" d="M24.72,67.956c-2.125,0-2.784-0.596-2.986-0.955c-0.051-0.18-0.079-0.387-0.079-0.625
		c0-0.424,0.086-0.941,0.272-1.574c0.435-1.486,1.126-2.807,1.941-3.77c-0.545,0.813-2.739,4.25-1.317,4.803
		c0.146,0.059,0.284,0.082,0.415,0.082c0.504,0,0.901-0.371,1.207-0.74c0.305-0.369,0.521-0.74,0.658-0.74
		c0.085,0,0.141,0.145,0.17,0.523c0.069,0.9,0.544,1.309,1.113,1.309c0.536,0,1.153-0.361,1.593-1.014
		c0.928-1.377,0.675-5.813-1.25-5.813c-0.024,0-0.05,0-0.076,0c0.1-0.01,0.196-0.014,0.288-0.014c1.755,0,2.271,1.938,2.269,3.613
		c0,0.541-0.055,1.057-0.138,1.469c-0.246,1.207-0.904,2.582-2.022,3.146c-0.19,0.098-0.388,0.168-0.591,0.221
		C25.632,67.935,25.147,67.956,24.72,67.956"/>
	<path fill="#FAD0E2" d="M23.307,62.579c0.331-1.133,1.631-2.773,2.847-2.773c0.147,0,0.292,0.023,0.435,0.076
		C26.588,59.882,25,60.036,23.307,62.579"/>
	<path fill="#966367" d="M23.899,68.134c-1.339,0-2.142-0.373-2.253-1.373c0.006,0.043,0.025,0.129,0.088,0.24
		c0.239,0.838,1,1.094,2.028,1.094c0.151,0,0.308-0.004,0.469-0.016c0.646-0.039,1.322-0.033,1.956-0.201
		c0.124-0.012,0.249-0.025,0.378-0.041C25.531,68.022,24.634,68.134,23.899,68.134"/>
	<path fill="#CD5163" d="M23.761,68.095c-1.027,0-1.789-0.256-2.028-1.094c0.203,0.359,0.86,0.955,2.987,0.955
		c0.426,0,0.913-0.021,1.466-0.078c-0.633,0.168-1.309,0.162-1.956,0.201C24.069,68.091,23.913,68.095,23.761,68.095"/>
	<path fill="#966367" d="M21.646,66.761c-0.002-0.016-0.002-0.025-0.002-0.025C21.644,66.745,21.645,66.755,21.646,66.761"/>
	<path fill="#EDE6CD" d="M53.958,29.937c0,0,1.464,0.879,3.923,0.527s1.522,2.75-2.635,4.508c-4.158,1.758-3.807-0.879-3.22-2.576
		C52.611,30.698,53.02,29.353,53.958,29.937"/>
	<path fill="#898B93" d="M53.542,29.798h-0.002H53.542 M53.208,29.909L53.208,29.909c0.103-0.072,0.21-0.111,0.328-0.111
		C53.417,29.798,53.31,29.837,53.208,29.909 M57.88,30.464c0.129-0.02,0.25-0.029,0.36-0.029c0.022,0,0.046,0,0.067,0.002
		c-0.021-0.002-0.043-0.002-0.066-0.002C58.13,30.435,58.011,30.444,57.88,30.464 M56.738,30.546c0.352,0,0.734-0.023,1.143-0.082
		C57.472,30.522,57.089,30.546,56.738,30.546 M56.736,30.546h-0.004H56.736 M52.083,32.229c0.242-0.701,0.456-1.334,0.695-1.777
		C52.539,30.896,52.325,31.528,52.083,32.229 M52.039,32.358c0.012-0.035,0.024-0.07,0.035-0.104
		C52.063,32.288,52.05,32.323,52.039,32.358 M52.021,32.407c0.002-0.002,0.003-0.008,0.005-0.012
		C52.024,32.399,52.023,32.405,52.021,32.407 M52.017,32.419c0,0,0,0,0-0.002C52.017,32.419,52.017,32.419,52.017,32.419
		 M51.996,32.481c0.006-0.016,0.013-0.035,0.02-0.053C52.008,32.446,52.001,32.466,51.996,32.481 M55.201,34.991
		c0.016-0.006,0.03-0.016,0.044-0.02c1.682-0.711,2.837-1.641,3.453-2.473c-0.616,0.832-1.771,1.764-3.453,2.473
		C55.231,34.976,55.216,34.985,55.201,34.991 M55.158,35.007c0.014-0.004,0.027-0.012,0.041-0.016
		C55.185,34.995,55.171,35.003,55.158,35.007 M53.026,35.552c0.517,0,1.21-0.164,2.13-0.543
		C54.236,35.392,53.542,35.552,53.026,35.552 M53.02,35.552L53.02,35.552L53.02,35.552"/>
	<path fill="#DFD5AB" d="M53.02,35.552L53.02,35.552c-1.715,0-1.456-1.771-1.024-3.07c0.006-0.016,0.013-0.035,0.02-0.053
		c0-0.004,0.001-0.006,0.002-0.01c0,0,0,0,0-0.002c0.002-0.004,0.002-0.006,0.004-0.01c0.002-0.002,0.003-0.008,0.005-0.012
		c0.005-0.012,0.008-0.025,0.013-0.037c0.012-0.035,0.024-0.07,0.035-0.104c0.003-0.008,0.006-0.018,0.009-0.025
		c0.242-0.701,0.456-1.334,0.695-1.777c0.151-0.205,0.294-0.385,0.43-0.543c0.103-0.072,0.21-0.111,0.328-0.111h0.005h0.002
		c0.125,0,0.264,0.043,0.415,0.139c0,0,1.017,0.607,2.774,0.609h0.004h0.002c0.352,0,0.734-0.023,1.143-0.082
		c0.131-0.02,0.25-0.029,0.361-0.029c0.023,0,0.045,0,0.066,0.002c0.395,0.012,0.661,0.148,0.801,0.365
		c-0.246-0.125-0.572-0.236-0.945-0.236c-0.318,0-0.672,0.082-1.035,0.311c-0.522,0.326-1.018,0.459-1.467,0.459
		c-0.686,0-1.262-0.307-1.658-0.703c-0.094-0.094-0.19-0.137-0.289-0.137c-0.606,0-1.275,1.588-1.275,2.932
		c0,0.602,0.674,0.898,1.615,0.898c1.498,0,3.67-0.75,4.883-2.215l0.01,0.006c-0.071,0.125-0.154,0.252-0.249,0.383
		c-0.616,0.832-1.771,1.762-3.453,2.473c-0.014,0.004-0.028,0.014-0.044,0.02h-0.002c-0.014,0.004-0.027,0.012-0.041,0.016
		c-0.001,0.002-0.002,0.002-0.002,0.002c-0.92,0.379-1.613,0.543-2.13,0.543H53.02"/>
	<path fill="#FFFFFF" d="M58.817,30.989c0,0-1.054,2.283-4.801,2.402C53.197,33.507,57.997,34.503,58.817,30.989"/>
	<path fill="#EDE6CD" d="M25.619,30.503c0,0-1.942,2.082-4.212,2.41c-1.043,0.145-0.804,1.658,1.276,2.557
		c2.083,0.9,3.29,0.215,3.444-0.344C26.281,34.571,25.523,32.632,25.619,30.503"/>
	<path fill="#DFD5AB" d="M24.539,35.905c-0.507,0-1.127-0.121-1.855-0.436c-0.499-0.215-0.888-0.467-1.184-0.725
		c0.498,0.291,0.978,0.416,1.418,0.416c1.561-0.002,2.638-1.553,2.35-2.766c-0.086-0.363-0.218-0.5-0.387-0.5
		c-0.264,0-0.619,0.338-1.026,0.676c-0.408,0.336-0.869,0.672-1.349,0.672c-0.12,0-0.24-0.02-0.361-0.068
		c-0.296-0.113-0.564-0.158-0.804-0.158c-0.096,0-0.188,0.006-0.274,0.021c0.091-0.063,0.203-0.104,0.339-0.125
		c2.271-0.328,4.213-2.41,4.213-2.41c-0.005,0.123-0.009,0.248-0.009,0.371c0,0.104,0.002,0.209,0.006,0.313
		c-0.053,1.137,0.101,2.422,0.519,3.904c-0.003,0.014-0.006,0.025-0.009,0.035C26.026,35.489,25.481,35.905,24.539,35.905"/>
	<path fill="#FFFFFF" d="M21.052,33.392c0,0,1.23,1.814,3.864,0.115C24.388,34.679,21.872,35.206,21.052,33.392"/>
	<path fill="#696F8B" d="M27.298,38.251c-0.51-1.148-0.892-2.195-1.164-3.16c0.009-0.045,0.013-0.096,0.013-0.156
		c0-0.643-0.476-2.092-0.531-3.748c0.038-0.842,0.19-1.604,0.433-2.307C26.048,28.88,26.048,34.19,27.298,38.251"/>
	<path fill="#949186" d="M26.135,35.091c-0.417-1.482-0.571-2.768-0.519-3.904c0.055,1.656,0.53,3.105,0.531,3.748
		C26.146,34.995,26.143,35.046,26.135,35.091"/>
	<path fill="#767A95" d="M50.802,32.856c0.475-1.053,1.064-1.992,1.748-2.707C52.044,30.927,51.475,31.837,50.802,32.856"/>
	<path fill="#696F8B" d="M49.508,38.485c0.056-1.883,0.521-3.912,1.294-5.629c0.673-1.02,1.242-1.93,1.748-2.707
		c0.512-0.535,1.074-0.947,1.68-1.189c0,0-0.41,0.234-1.022,0.949c-0.157,0.111-0.297,0.299-0.43,0.543
		C51.792,31.796,50.498,34.231,49.508,38.485"/>
	<path fill="#666B7A" d="M52.778,30.452c0.133-0.244,0.272-0.432,0.43-0.543C53.05,30.021,52.911,30.208,52.778,30.452"/>
	<path fill="#949186" d="M52.778,30.452c0.133-0.244,0.272-0.432,0.43-0.543C53.072,30.067,52.929,30.247,52.778,30.452"/>
	<path fill="#E9ECF4" d="M48.032,18.552c-2.964-1.906-5.978-2.449-8.457-2.449c-3.303,0-5.652,0.967-5.652,0.967
		c0.215-0.102,0.428-0.197,0.64-0.285c0.004,0,0.008,0.002,0.012,0.002c-0.002-0.002-0.004-0.002-0.006-0.006
		c2.082-0.889,3.933-1.24,5.574-1.24C43.659,15.54,46.214,17.155,48.032,18.552"/>
	<path fill="#E9ECF4" d="M50.705,17.937c-0.72-0.496-1.393-0.633-1.915-0.633c-0.638,0-1.05,0.203-1.05,0.203
		c0.27-0.189,0.555-0.299,0.838-0.346c0.122-0.014,0.24-0.021,0.351-0.021c0.169,0,0.325,0.016,0.47,0.037
		C49.974,17.296,50.466,17.614,50.705,17.937"/>
	<path fill="#DDE1EC" d="M49.398,17.177c-0.145-0.021-0.302-0.037-0.47-0.037c-0.111,0-0.228,0.008-0.35,0.021
		c0.118-0.023,0.238-0.031,0.356-0.031C49.093,17.13,49.248,17.147,49.398,17.177"/>
	<path fill="#E9ECF4" d="M31.807,17.267c0.089-0.18,0.229-0.322,0.398-0.434c0.284-0.152,0.723-0.318,1.3-0.318
		c0.207,0,0.433,0.021,0.675,0.072c0.174,0.049,0.311,0.115,0.388,0.193c-0.002,0.002-0.004,0.002-0.006,0.004
		c-0.346-0.125-0.67-0.174-0.966-0.174C32.511,16.61,31.807,17.267,31.807,17.267"/>
	<path fill="#DDE1EC" d="M32.205,16.833c0.356-0.232,0.847-0.328,1.294-0.328c0.251,0,0.488,0.031,0.681,0.082
		c-0.243-0.051-0.467-0.072-0.676-0.072C32.928,16.515,32.489,16.681,32.205,16.833"/>
	<polyline fill="#F7F9FD" points="34.574,16.786 34.562,16.784 34.568,16.78 34.574,16.786 	"/>
	<path fill="#E9ECF4" d="M31.826,20.999c1.941-1.32,4.021-1.76,5.801-1.76c2.187,0,3.923,0.664,4.398,1.18
		c-0.222-0.066-0.444-0.127-0.664-0.182c-1.146-0.313-2.291-0.432-3.37-0.432C34.575,19.806,31.826,20.999,31.826,20.999"/>
	<path fill="#E3E6F0" d="M42.052,20.45c-0.229-0.078-0.46-0.148-0.69-0.213c0.22,0.055,0.441,0.115,0.664,0.182
		C42.034,20.429,42.043,20.44,42.052,20.45"/>
	<path fill="#E9ECF4" d="M31.778,27.112c1.771-1.035,3.619-1.395,5.224-1.395c2.22,0,3.976,0.686,4.419,1.205
		c-0.283-0.098-0.57-0.182-0.86-0.254c-1.087-0.275-2.171-0.381-3.196-0.381c-1.854,0-3.513,0.35-4.64,0.67
		C32.395,27.013,32.078,27.065,31.778,27.112"/>
	<path fill="#E3E6F0" d="M41.428,26.929c-0.289-0.098-0.578-0.184-0.867-0.26c0.291,0.07,0.578,0.156,0.86,0.254
		C41.423,26.927,41.425,26.927,41.428,26.929 M31.201,27.478c0.192-0.131,0.384-0.252,0.577-0.365
		c0.301-0.047,0.617-0.1,0.947-0.154C31.776,27.228,31.201,27.478,31.201,27.478"/>
	<path fill="#E9ECF4" d="M33.067,35.038c1.534-0.852,3.121-1.148,4.507-1.148c2,0,3.581,0.619,3.97,1.086
		c-1.233-0.424-2.48-0.576-3.643-0.576c-1.694,0-3.207,0.326-4.22,0.619C33.472,35.028,33.267,35.034,33.067,35.038"/>
	<path fill="#E3E6F0" d="M32.372,35.466c0.23-0.154,0.462-0.299,0.696-0.428c0.2-0.004,0.405-0.01,0.615-0.021
		C32.864,35.255,32.372,35.466,32.372,35.466"/>
	<path fill="#78809E" d="M34.76,85.771c0.064-0.02,0.127-0.037,0.191-0.057C34.887,85.733,34.824,85.751,34.76,85.771"/>
	<path fill="#BEC2D8" d="M33.584,86.034c0.179-0.545,0.25-1.139,0.205-1.768c-0.067-0.926-0.611-2.836-1.558-3.395
		c0.066-0.012,0.131-0.018,0.195-0.018c1.602,0,2.308,3.479,2.524,4.859c-0.063,0.02-0.127,0.037-0.19,0.057
		C34.378,85.878,33.984,85.964,33.584,86.034"/>
	<path fill="#DADCE8" d="M28.414,86.032L28.414,86.032c-0.025-0.006-0.05-0.008-0.075-0.012
		C28.363,86.024,28.389,86.026,28.414,86.032"/>
	<path fill="#A6AAC2" d="M28.414,86.032c-0.025-0.006-0.05-0.008-0.075-0.012c-0.003,0-0.006,0-0.008,0
		C28.359,86.024,28.386,86.026,28.414,86.032"/>
	<path fill="#78809E" d="M28.414,86.032c-0.028-0.006-0.055-0.008-0.083-0.012c-0.019-0.004-0.038-0.008-0.057-0.012
		C28.32,86.017,28.367,86.024,28.414,86.032"/>
	<path fill="#BEC2D8" d="M30.576,86.231c-0.739-0.023-1.468-0.094-2.163-0.199c-0.046-0.008-0.093-0.016-0.139-0.023
		c-0.23-0.037-0.453-0.076-0.668-0.119c0.45-0.34,0.763-0.85,0.838-1.605c0.125-1.256-0.219-2.668-1.234-3.486
		c0.089-0.031,0.182-0.049,0.282-0.061c0.05-0.006,0.1-0.008,0.149-0.008C29.581,80.729,30.5,84.337,30.576,86.231"/>
	<path fill="#78809E" d="M38.112,83.839c-0.176-0.658-0.484-1.621-0.922-2.309C37.627,82.218,37.936,83.181,38.112,83.839"/>
	<path fill="#BEC2D8" d="M36.936,84.812c0.086-1.605-0.217-3.51-1.127-4.088c0.083-0.021,0.165-0.033,0.243-0.033
		c0.445,0,0.824,0.35,1.137,0.84c0.439,0.688,0.746,1.65,0.923,2.309C37.766,84.214,37.369,84.532,36.936,84.812"/>
	<path fill="#D690B8" d="M53.121,81.446c-0.605-0.4-1.225-0.805-1.838-1.18C51.896,80.64,52.515,81.046,53.121,81.446"/>
	<path fill="#BEC2D8" d="M53.121,81.446c-0.605-0.4-1.225-0.807-1.838-1.18c-0.043-0.027-0.088-0.055-0.131-0.082
		c0.428-0.221,0.803-0.51,1.077-0.889c0.493-0.688,0.507-1.539,0.198-2.313c-0.063-0.16-0.152-0.285-0.257-0.387
		C53.486,77.142,53.624,79.798,53.121,81.446"/>
	<path fill="#BEC2D8" d="M49.173,79.11c-0.387-0.178-0.756-0.324-1.105-0.432c0.514-1.232,0.85-2.672,0.261-3.205l0.095,0.006
		c0.74,0.082,0.941,0.938,0.941,1.842C49.365,77.983,49.257,78.671,49.173,79.11"/>
	<path fill="#D67CAD" d="M48.794,78.944c-0.25-0.104-0.494-0.191-0.727-0.262c0-0.002,0-0.002,0-0.002
		C48.302,78.751,48.544,78.841,48.794,78.944"/>
	<path fill="#BFA2C3" d="M49.173,79.112L49.173,79.112c-0.129-0.061-0.254-0.117-0.379-0.168c-0.25-0.104-0.494-0.193-0.727-0.264
		v-0.002c0.35,0.107,0.719,0.254,1.105,0.432C49.173,79.11,49.173,79.11,49.173,79.112"/>
	<path fill="#78809E" d="M56.708,83.7L56.708,83.7 M56.705,83.712c0-0.002,0.002-0.004,0.002-0.006
		C56.707,83.708,56.705,83.71,56.705,83.712 M56.702,83.72c0.001-0.002,0.002-0.004,0.002-0.008
		C56.703,83.716,56.703,83.718,56.702,83.72 M56.699,83.729c0.001-0.002,0.002-0.004,0.002-0.006
		C56.701,83.726,56.7,83.728,56.699,83.729 M56.695,83.739c0.001-0.002,0.003-0.006,0.003-0.008
		C56.698,83.733,56.696,83.737,56.695,83.739 M56.684,83.776c0.003-0.012,0.007-0.023,0.011-0.037
		C56.691,83.753,56.687,83.765,56.684,83.776 M56.676,83.796c0.003-0.006,0.005-0.014,0.008-0.02
		C56.681,83.782,56.679,83.79,56.676,83.796 M56.671,83.813c0.002-0.006,0.003-0.012,0.005-0.018
		C56.674,83.802,56.673,83.808,56.671,83.813 M56.667,83.821c0.002-0.004,0.002-0.004,0.004-0.008
		C56.669,83.817,56.669,83.817,56.667,83.821 M56.666,83.831c0-0.004,0.002-0.006,0.002-0.008
		C56.667,83.825,56.666,83.827,56.666,83.831 M56.662,83.839c0-0.002,0.002-0.004,0.004-0.008
		C56.664,83.835,56.662,83.837,56.662,83.839 M56.659,83.849L56.659,83.849c0-0.002,0.002-0.006,0.003-0.008
		C56.661,83.843,56.659,83.847,56.659,83.849"/>
	<path fill="#BEC2D8" d="M56.659,83.849L56.659,83.849c-0.44-0.283-0.866-0.576-1.268-0.854c0.378-0.373,0.704-0.799,0.954-1.266
		c0.402-0.752,0.522-1.627,0.351-2.459c-0.028-0.146-0.081-0.275-0.14-0.395c1.058,0.76,0.607,3.412,0.152,4.824
		c-0.002,0-0.002,0.004-0.002,0.006s-0.002,0.004-0.002,0.006h-0.001c0,0.004-0.001,0.006-0.002,0.008c0,0.002,0,0.002-0.001,0.004
		c0,0.002-0.001,0.004-0.002,0.006s-0.001,0.002-0.001,0.002c0,0.002-0.002,0.006-0.003,0.008l0,0
		c-0.004,0.014-0.008,0.025-0.011,0.037l0,0c-0.003,0.006-0.005,0.014-0.008,0.02l0,0c-0.002,0.006-0.003,0.012-0.005,0.018l0,0
		c-0.002,0.004-0.002,0.004-0.004,0.008c0,0,0,0,0,0.002s-0.002,0.004-0.002,0.008l0,0c-0.002,0.004-0.004,0.006-0.004,0.008v0.002
		C56.661,83.843,56.659,83.847,56.659,83.849"/>
	<path fill="#F0F7FC" d="M46.697,77.956c-0.057-1.172,0.755-2.074,1.382-2.074c0.02,0,0.037,0.002,0.057,0.002
		C48.136,75.884,47.33,76.403,46.697,77.956"/>
	<path fill="#F0F7FC" d="M26.835,85.313c-1.021-1.553-0.559-3.469,0.352-3.902C27.188,81.411,26.49,82.745,26.835,85.313"/>
	<path fill="#F0F7FC" d="M31.612,85.659c-1.021-1.555-0.559-3.469,0.351-3.902C31.963,81.757,31.267,83.093,31.612,85.659"/>
	<path fill="#F0F7FC" d="M35.703,85.034c-1.157-1.455-0.871-3.404-0.002-3.918C35.701,81.116,35.126,82.507,35.703,85.034"/>
	<path fill="#F0F7FC" d="M50.035,79.05c-0.065-1.334,0.907-2.361,1.658-2.361c0.023,0,0.047,0,0.068,0.004
		C51.761,76.692,50.794,77.28,50.035,79.05"/>
	<path fill="#F0F7FC" d="M53.835,81.7c-0.086-1.5,1.146-2.652,2.097-2.652c0.03,0,0.059,0.002,0.089,0.004
		C56.021,79.052,54.796,79.712,53.835,81.7"/>
	<path fill="#E9ECF4" d="M33.878,71.552c-2.271,0-4.429-0.648-5.384-2.242c0,0,2.249,1.648,5.583,1.648
		c2.047,0,4.501-0.619,7.098-2.619C40.713,70.185,37.175,71.552,33.878,71.552"/>
</g>
</svg>
