<?xml version="1.0" encoding="utf-8"?>
<!-- Generator: Adobe Illustrator 16.0.0, SVG Export Plug-In . SVG Version: 6.00 Build 0)  -->
<!DOCTYPE svg PUBLIC "-//W3C//DTD SVG 1.0//EN" "http://www.w3.org/TR/2001/REC-SVG-20010904/DTD/svg10.dtd">
<svg version="1.0" id="Layer_1" xmlns="http://www.w3.org/2000/svg" xmlns:xlink="http://www.w3.org/1999/xlink" x="0px" y="0px"
	 width="122.028px" height="95.715px" viewBox="0 0 122.028 95.715" enable-background="new 0 0 122.028 95.715"
	 xml:space="preserve">
<g>
	<path d="M65.793,95.715c-3.912,0-8.811-1.092-12.951-2.896c-2.158-1.049-3.5-1.773-3.885-2.928c-0.08-0.199-0.131-0.389-0.166-0.58
		l-0.029-0.143c-0.09-0.709,0.109-1.346,0.412-1.883c0,0,0.129-0.205,0.334-0.477c0.152-0.322,0.318-0.658,0.52-1.027
		c0.346-0.641,0.684-1.273,1.014-1.906c0.135-0.258,0.264-0.51,0.396-0.768c0.189-0.367,0.377-0.736,0.559-1.102
		c0.156-0.313,0.311-0.621,0.459-0.93c0.148-0.305,0.291-0.607,0.434-0.91c0.156-0.33,0.311-0.662,0.459-0.988
		c1.488-3.293,2.588-6.42,3.012-9.287c-0.23,0.047-0.543,0.074-0.926,0.074c-1.959,0-5.719-0.693-9.455-2.92
		c-0.023,0.186-0.047,0.371-0.076,0.557v0.002c-0.063,0.424-0.143,0.844-0.234,1.266c-0.016,0.074-0.033,0.146-0.049,0.223
		c-0.094,0.41-0.197,0.822-0.32,1.232l-0.006,0.018c-0.123,0.418-0.268,0.834-0.426,1.246l-0.082,0.215
		c-0.158,0.396-0.326,0.789-0.516,1.178l-0.02,0.039c-0.043,0.092-0.09,0.178-0.133,0.266c1.234,1.336,2.258,2.281,2.854,2.877
		c1.441,1.438,1.52,2.557,1.043,5.834c-0.424,3.115-2.42,4.936-5.131,6.092c-0.264,0.793-1.193,1.297-2.145,1.297
		c-0.383,0-0.768-0.08-1.115-0.254l-0.111,0.023c-0.172,0.135-0.348,0.248-0.527,0.346l-0.072,0.039
		c-0.191,0.1-0.389,0.18-0.586,0.244l-0.041,0.018l0.014-0.008c-0.516,0.164-1.023,0.219-1.473,0.219
		c-0.889,0-1.547-0.217-1.547-0.217c-0.041,0.164-0.297,0.225-0.648,0.225c-0.938,0-2.545-0.422-2.545-0.422
		c-0.621-1.488-0.816-2.467-0.73-3.039l-0.008-0.008l-0.156-0.201c-0.092-0.119-0.18-0.24-0.266-0.365l-0.109-0.148
		c-0.117-0.17-0.23-0.34-0.344-0.512l-0.129-0.205c-0.053-0.08-0.109-0.168-0.16-0.248l0.002-0.002
		c-0.256-0.41-0.494-0.816-0.719-1.195c-0.143-0.268-0.266-0.527-0.398-0.789c-1.031,0.105-2.023,0.158-2.984,0.158
		c-8.344,0-14.041-3.912-17.08-9.281C8.75,73.25,8.602,73.07,8.379,72.93c-0.094-0.057-0.209-0.113-0.34-0.18
		c-0.088-0.041-0.182-0.088-0.297-0.146l-0.201-0.158l-0.037-0.033c-0.064-0.07-0.127-0.152-0.188-0.25l-0.029-0.053
		c-0.125-0.211-0.23-0.48-0.295-0.805l-0.01-0.039h0.002C6.801,70.271,7.018,68.793,8.325,67c1.281-1.752,2.83-2.994,4.17-2.994
		c0.189,0,0.373,0.023,0.551,0.076l-0.01-0.012l0.129,0.047l0.158,0.057c0.104,0.049,0.205,0.111,0.305,0.18l0.135,0.102
		l0.211,0.189l0.111,0.119c0.1,0.113,0.195,0.238,0.287,0.379l0.059,0.102c0.078,0.127,0.152,0.262,0.223,0.408l0.07,0.152
		c0.084,0.188,0.166,0.391,0.24,0.617c1.172,3.555,4.672,8.738,9.994,8.738c0.355,0,0.721-0.023,1.094-0.072
		c-0.227-0.875-0.402-1.715-0.531-2.518l0,0l-0.014-0.105c-0.076-0.477-0.131-0.938-0.176-1.387
		c-0.014-0.143-0.027-0.281-0.039-0.418c-0.037-0.453-0.064-0.896-0.074-1.324v-0.117c-0.008-0.426,0-0.834,0.02-1.232
		c0.006-0.117,0.01-0.232,0.018-0.346c0.025-0.396,0.057-0.785,0.102-1.156l0.008-0.059c0.049-0.373,0.109-0.727,0.174-1.072
		c0.018-0.09,0.035-0.184,0.055-0.275c0.07-0.336,0.145-0.666,0.23-0.975l0.008-0.031c0.086-0.313,0.18-0.605,0.273-0.891
		c0.025-0.072,0.053-0.146,0.076-0.219c0.1-0.275,0.201-0.543,0.307-0.791l0.002-0.006c0.105-0.252,0.215-0.482,0.322-0.707
		l0.086-0.168c0.107-0.213,0.215-0.416,0.32-0.6l0.002-0.002c0.109-0.189,0.215-0.357,0.316-0.518l0.078-0.117
		c0.07-0.107,0.139-0.209,0.205-0.301c-0.314-0.391-0.639-0.783-0.988-1.178c-1.879-2.105-3.137-4.16-3.998-6.051
		c-0.207-0.016-0.412-0.037-0.611-0.068l-0.098-0.016c-0.25-0.043-0.49-0.1-0.723-0.162L21.29,52.25
		c-0.229-0.068-0.441-0.145-0.645-0.225l-0.086-0.035c-0.203-0.09-0.389-0.18-0.557-0.275l-0.02-0.012l0.01,0.004
		c-0.893-0.523-1.225-1.17-0.436-1.564c1.438-0.717,1.918-1.439,1.918-1.439s0.041,0.086,0.105,0.225
		c-0.693-2.893-0.467-4.963-0.426-5.457c-0.305-0.473-0.65-0.762-1.104-1.188c-0.227,0.023-0.475,0.031-0.73,0.031
		c-1.352,0-3.008-0.268-3.783-0.445c-1.436-0.326-5.213-1.365-5.623-3.385c-0.141,0.021-0.281,0.031-0.424,0.031
		c-3.373,0-7.012-5.744-6.449-7.096c-0.025,0.002-0.051,0.004-0.078,0.004c-0.078,0-0.158-0.012-0.236-0.029l-0.082-0.021
		c-0.088-0.025-0.176-0.061-0.264-0.109l-0.057-0.027c-0.107-0.064-0.213-0.141-0.316-0.23l-0.047-0.043
		c-0.09-0.084-0.18-0.176-0.271-0.279l-0.057-0.066c-0.205-0.242-0.398-0.531-0.58-0.852L1.008,29.68
		c-0.08-0.146-0.158-0.301-0.23-0.461L0.75,29.166c-0.078-0.182-0.154-0.369-0.225-0.555l-0.01-0.023v-0.002
		c-0.254-0.699-0.439-1.457-0.51-2.197c-0.01-0.117-0.008-0.23,0.004-0.342l0.021-0.102l0.053-0.211l0.049-0.117l0.09-0.184
		l0.074-0.113l0.127-0.172l0.096-0.111l0.164-0.168l0.117-0.107l0.203-0.17l0.129-0.104c0.08-0.063,0.164-0.127,0.25-0.189
		l0.127-0.088c0.104-0.074,0.213-0.15,0.326-0.225l0.09-0.061c0.359-0.24,0.758-0.494,1.186-0.779
		c0.1-0.064,0.199-0.131,0.301-0.199c0.076-0.051,0.154-0.104,0.23-0.156c0.111-0.076,0.221-0.152,0.334-0.23
		c0.082-0.059,0.166-0.119,0.25-0.182c0.109-0.076,0.219-0.156,0.334-0.238c0.088-0.068,0.18-0.139,0.271-0.209
		c0.109-0.084,0.219-0.168,0.33-0.258c0.096-0.074,0.191-0.154,0.289-0.234c0.381-0.314,0.771-0.652,1.166-1.029
		c2.328-2.25,4.143-4.311,5.723-6.021l0,0l0.137-0.148l0.07-0.076c0.244-0.262,0.484-0.518,0.717-0.764l0.047-0.049
		c0.229-0.236,0.451-0.463,0.672-0.682l0.146-0.146c0.223-0.215,0.439-0.424,0.656-0.621l0.035-0.029
		c0.201-0.186,0.402-0.355,0.602-0.518l0.15-0.123c0.205-0.162,0.41-0.318,0.615-0.459l0.109-0.07
		c0.182-0.123,0.363-0.234,0.545-0.338l0.139-0.08c0.203-0.111,0.41-0.211,0.619-0.295l0.141-0.053
		c0.191-0.076,0.383-0.141,0.58-0.191l0.096-0.029c0.219-0.055,0.441-0.092,0.668-0.119l0.156-0.016
		c0.178-0.016,0.354-0.025,0.533-0.025c0.061,0,0.121,0,0.18,0.004c3.328,0.129,5.596,2.68,6.486,3.889
		c1.512-1.354,3.385-2.555,5.705-3.471c3.279-1.135,6.16-1.504,8.52-1.504c4.369,0,6.947,1.264,6.947,1.264s0.965-2.238,2.439-4.551
		L50.03,5.217l0.08-0.123c0.072-0.113,0.146-0.223,0.221-0.334c0.098-0.146,0.195-0.293,0.297-0.439
		c0.074-0.107,0.148-0.213,0.227-0.318c0.105-0.148,0.213-0.291,0.322-0.436c0.078-0.102,0.156-0.203,0.236-0.305
		c0.113-0.143,0.23-0.281,0.344-0.418c0.082-0.096,0.162-0.189,0.246-0.281c0.119-0.137,0.242-0.264,0.363-0.391
		C52.45,2.086,52.532,2,52.616,1.918c0.129-0.127,0.26-0.242,0.393-0.357c0.08-0.07,0.16-0.146,0.242-0.213
		c0.145-0.117,0.293-0.223,0.443-0.326l0.205-0.148c0.223-0.143,0.443-0.266,0.668-0.365C55.352,0.15,56.356,0,57.502,0
		C61.79,0,68.081,2.111,72.43,3.623c5.514,1.92,10.49,2.146,10.791,3.957c0.039,0.236,0.051,0.477,0.061,0.717l0.119-0.053
		l0.15-0.066c0.318-0.135,0.656-0.264,1.023-0.391l0.021-0.006c0.34-0.115,0.705-0.223,1.084-0.32l0.121-0.037l-0.01,0.01
		c1.23-0.314,2.658-0.529,4.273-0.529c0.852,0,1.754,0.059,2.707,0.197c0.355,0.049,0.713,0.115,1.074,0.197l0.109,0.018
		l-0.033-0.002c2.637,0.582,5.43,1.916,7.906,4.441l0.045,0.012l0.203,0.045c0.074,0.018,0.15,0.035,0.234,0.055
		c0.082,0.018,0.164,0.041,0.254,0.063c0.105,0.027,0.217,0.061,0.33,0.092c0.107,0.031,0.213,0.064,0.328,0.098
		c0.139,0.043,0.279,0.088,0.43,0.139v0.002c2.646,0.906,6.965,3.123,10.502,8.508c4.018,6.113,4.275,10.82,3.383,13.809
		l0.002,0.008l-0.031,0.092c-0.059,0.191-0.125,0.373-0.193,0.549l-0.078,0.207c-0.074,0.18-0.154,0.346-0.236,0.508l-0.084,0.17
		c-0.086,0.16-0.178,0.313-0.271,0.457l-0.08,0.133c-0.121,0.18-0.244,0.344-0.371,0.496c-0.641,0.76-0.934,1.307-0.924,1.762
		c0.021,0.916,1.242,1.475,3.32,2.674c0.391,0.225,0.717,0.482,0.986,0.76l0.051,0.061c0.244,0.26,0.447,0.535,0.604,0.813
		l-0.006-0.008c0.832,1.479,0.537,3.076,0.105,3.076c-0.098,0-0.201-0.082-0.301-0.266c0.055,0.289,0.076,0.617,0.072,0.967
		l0.002-0.045l-0.002,0.057c-0.004,0.229-0.02,0.463-0.053,0.707l-0.002,0.004c-0.031,0.238-0.082,0.48-0.146,0.729l-0.027,0.109
		c-0.064,0.238-0.146,0.475-0.242,0.713l-0.061,0.137c-0.104,0.234-0.219,0.473-0.357,0.703l-0.057,0.086
		c-0.137,0.221-0.291,0.438-0.465,0.643l-0.061,0.076c-0.18,0.209-0.385,0.408-0.609,0.6l-0.131,0.111
		c-0.227,0.182-0.473,0.354-0.742,0.506l-0.143,0.078c-0.289,0.154-0.596,0.297-0.934,0.414c1.078-0.959,0.721-2.518,0.721-2.518
		s-0.195,0.875-0.672,0.875c-0.053,0-0.109-0.012-0.168-0.035c0.119-0.961-0.6-2.158-1.799-2.52
		c-1.199-0.359-2.277-0.117-3.119-2.639c-1.303-1.66-0.729-4.379,2.887-7.107l0.113-0.082c3.715-2.76,4.076-7.916,1.078-14.031
		c-3.143-5.516-7.301-6.943-9.465-7.311c2.389,4.893,3.902,11.912,3.68,21.834v0.008c-0.02,0.813-0.047,1.645-0.088,2.496
		c-0.963,8.313-2.24,12.789,2.557,17.584c1.207,1.137,2.193,1.451,3.057,1.451c1.08,0,1.969-0.494,2.857-0.494
		c1.598,0,4.316,3.197,4.316,9.436c0,1.844-0.389,3.775-1.014,5.557l-0.008,0.033l-0.008,0.021
		c-0.061,0.191-0.148,0.449-0.264,0.764v-0.004c-0.568,1.523-1.813,4.23-3.807,5.453c-0.574,0.398-1.148,0.619-1.697,0.619
		c-0.08,0-0.158-0.002-0.236-0.012c-0.076,0.004-0.148,0.021-0.227,0.021c-0.004,0-0.006,0-0.01,0c0,0-0.691-0.277-1.322-0.686
		c-1.85-0.922-2.549-1.129-4.895-1.734C106.047,79,95.313,76.967,93.092,65.869v0.002v-0.01c-0.107-0.533-0.188-1.094-0.254-1.672
		c-0.014-0.119-0.025-0.24-0.037-0.363c-0.057-0.586-0.098-1.182-0.109-1.813c0,0-1.438,1.344-2.746,2.451
		c-0.438,0.367-0.691,0.611-0.826,0.865c-0.268,0.508-0.045,1.043,0.223,2.652c0.117,0.691,0.307,1.668,0.518,2.814
		c0.016,0.084,0.031,0.164,0.047,0.25c0.016,0.084,0.031,0.172,0.047,0.256c0.033,0.188,0.066,0.371,0.102,0.566l0.021,0.125
		c0.043,0.232,0.084,0.469,0.125,0.709l0.016,0.094c0.033,0.203,0.068,0.408,0.104,0.617l-0.002-0.01
		c0.361,2.219,0.68,4.697,0.725,6.939l0.004-0.012c0.004,0.176,0.004,0.35,0.004,0.52c0,2.314-2.111,5.332-8.445,5.732
		c-0.508,0.033-0.99,0.047-1.449,0.047c-5.258,0-7.299-1.957-7.299-1.957s0.578,8.031-2.914,10.043l-0.205,0.113
		C69.493,95.438,67.77,95.715,65.793,95.715"/>
</g>
</svg>
